G04*
G04 #@! TF.GenerationSoftware,Altium Limited,Altium Designer,19.1.9 (167)*
G04*
G04 Layer_Color=8388736*
%FSLAX44Y44*%
%MOMM*%
G71*
G01*
G75*
%ADD56R,4.0000X4.0000*%
%ADD57R,1.0160X1.1684*%
%ADD58R,0.8032X1.1032*%
%ADD59R,1.3032X1.4032*%
%ADD60R,6.3032X6.5032*%
%ADD61R,1.7032X3.0032*%
%ADD62R,1.1032X1.2032*%
%ADD63R,1.2032X1.1032*%
%ADD64R,0.8032X1.3032*%
%ADD65O,0.5032X1.7032*%
%ADD66R,0.5032X1.7032*%
%ADD67R,2.8032X1.2632*%
%ADD68R,5.9032X5.8352*%
%ADD69R,0.4000X0.9000*%
%ADD70R,0.9000X0.4000*%
%ADD71R,0.5032X0.5782*%
%ADD72R,0.5032X1.0532*%
%ADD73R,1.0532X0.5032*%
%ADD74R,0.5032X1.4032*%
%ADD75R,1.4032X0.5032*%
%ADD76R,1.8032X1.6032*%
%ADD77R,1.6032X1.8032*%
%ADD78R,1.1032X0.8032*%
%ADD79R,0.7620X0.7620*%
%ADD80R,0.7620X0.7620*%
G04:AMPARAMS|DCode=81|XSize=0.8032mm|YSize=1.1032mm|CornerRadius=0mm|HoleSize=0mm|Usage=FLASHONLY|Rotation=45.000|XOffset=0mm|YOffset=0mm|HoleType=Round|Shape=Rectangle|*
%AMROTATEDRECTD81*
4,1,4,0.1061,-0.6740,-0.6740,0.1061,-0.1061,0.6740,0.6740,-0.1061,0.1061,-0.6740,0.0*
%
%ADD81ROTATEDRECTD81*%

G04:AMPARAMS|DCode=82|XSize=0.8032mm|YSize=1.1032mm|CornerRadius=0mm|HoleSize=0mm|Usage=FLASHONLY|Rotation=135.000|XOffset=0mm|YOffset=0mm|HoleType=Round|Shape=Rectangle|*
%AMROTATEDRECTD82*
4,1,4,0.6740,0.1061,-0.1061,-0.6740,-0.6740,-0.1061,0.1061,0.6740,0.6740,0.1061,0.0*
%
%ADD82ROTATEDRECTD82*%

%ADD83R,1.1032X0.5532*%
%ADD84R,1.1684X1.0160*%
%ADD85R,1.6032X0.6032*%
%ADD86R,2.2032X2.2032*%
%ADD87R,2.2032X2.1032*%
G04:AMPARAMS|DCode=88|XSize=2.6032mm|YSize=1.4032mm|CornerRadius=0.4016mm|HoleSize=0mm|Usage=FLASHONLY|Rotation=90.000|XOffset=0mm|YOffset=0mm|HoleType=Round|Shape=RoundedRectangle|*
%AMROUNDEDRECTD88*
21,1,2.6032,0.6000,0,0,90.0*
21,1,1.8000,1.4032,0,0,90.0*
1,1,0.8032,0.3000,0.9000*
1,1,0.8032,0.3000,-0.9000*
1,1,0.8032,-0.3000,-0.9000*
1,1,0.8032,-0.3000,0.9000*
%
%ADD88ROUNDEDRECTD88*%
G04:AMPARAMS|DCode=89|XSize=1.4032mm|YSize=2.6032mm|CornerRadius=0.4016mm|HoleSize=0mm|Usage=FLASHONLY|Rotation=90.000|XOffset=0mm|YOffset=0mm|HoleType=Round|Shape=RoundedRectangle|*
%AMROUNDEDRECTD89*
21,1,1.4032,1.8000,0,0,90.0*
21,1,0.6000,2.6032,0,0,90.0*
1,1,0.8032,0.9000,0.3000*
1,1,0.8032,0.9000,-0.3000*
1,1,0.8032,-0.9000,-0.3000*
1,1,0.8032,-0.9000,0.3000*
%
%ADD89ROUNDEDRECTD89*%
%ADD90R,0.4000X0.5000*%
%ADD91R,0.5000X0.5000*%
%ADD92R,4.1032X2.7032*%
%ADD93R,5.0032X1.0132*%
%ADD94R,1.4032X1.3032*%
%ADD95R,2.8032X1.4032*%
%ADD96R,1.4032X2.8032*%
%ADD97C,1.0032*%
%ADD98C,0.6532*%
%ADD99C,5.2032*%
%ADD100C,1.7032*%
%ADD101R,1.7032X1.7032*%
%ADD102R,1.7032X1.7032*%
%ADD103C,2.4032*%
%ADD104C,3.4532*%
%ADD105C,0.6032*%
G36*
X742500Y905000D02*
X640000D01*
Y935000D01*
X742500D01*
Y905000D01*
D02*
G37*
G36*
X518500Y906550D02*
X516200Y904250D01*
X509800D01*
X507500Y906550D01*
Y911250D01*
X518500D01*
Y906550D01*
D02*
G37*
G36*
X524500Y897250D02*
X520500D01*
Y902250D01*
X524500D01*
Y897250D01*
D02*
G37*
G36*
X505500D02*
X501500D01*
Y902250D01*
X505500D01*
Y897250D01*
D02*
G37*
G36*
X518500Y892950D02*
Y888250D01*
X507500D01*
Y892950D01*
X509800Y895250D01*
X516200D01*
X518500Y892950D01*
D02*
G37*
D56*
X567500Y923250D02*
D03*
D57*
X561112Y995500D02*
D03*
X546888D02*
D03*
D58*
X634750Y763750D02*
D03*
X649750D02*
D03*
X149000Y967000D02*
D03*
X134000D02*
D03*
X119375Y812125D02*
D03*
X104375D02*
D03*
X85250Y856750D02*
D03*
X70250D02*
D03*
X62250Y961302D02*
D03*
X77250D02*
D03*
X136000Y832000D02*
D03*
X151000D02*
D03*
X70000Y892350D02*
D03*
X85000D02*
D03*
X70000Y907053D02*
D03*
X85000D02*
D03*
X61750Y946600D02*
D03*
X76750D02*
D03*
X333750Y775142D02*
D03*
X318750D02*
D03*
X334000Y790845D02*
D03*
X319000D02*
D03*
X333848Y807048D02*
D03*
X318848D02*
D03*
X333848Y823750D02*
D03*
X318848D02*
D03*
X346152Y775142D02*
D03*
X361152D02*
D03*
X346403Y790845D02*
D03*
X361403D02*
D03*
X346250Y807048D02*
D03*
X361250D02*
D03*
X346250Y823750D02*
D03*
X361250D02*
D03*
X547500Y806500D02*
D03*
X532500D02*
D03*
X406250Y775250D02*
D03*
X391250D02*
D03*
X406250Y791000D02*
D03*
X391250D02*
D03*
X406250Y807000D02*
D03*
X391250D02*
D03*
X774750Y375750D02*
D03*
X759750D02*
D03*
X406250Y823250D02*
D03*
X391250D02*
D03*
X532500Y821202D02*
D03*
X547500D02*
D03*
X274750Y775000D02*
D03*
X259750D02*
D03*
X737000Y209500D02*
D03*
X752000D02*
D03*
X765500Y209250D02*
D03*
X780500D02*
D03*
X512250Y183202D02*
D03*
X497250D02*
D03*
X511750Y71690D02*
D03*
X496750D02*
D03*
X511750Y86392D02*
D03*
X496750D02*
D03*
X497250Y212905D02*
D03*
X512250D02*
D03*
X512500Y257013D02*
D03*
X497500D02*
D03*
X512250Y242310D02*
D03*
X497250D02*
D03*
X512250Y227608D02*
D03*
X497250D02*
D03*
X512250Y198202D02*
D03*
X497250D02*
D03*
X496250Y101095D02*
D03*
X511250D02*
D03*
X267500Y165000D02*
D03*
X282500D02*
D03*
X446000Y13750D02*
D03*
X431000D02*
D03*
X803750Y375500D02*
D03*
X788750D02*
D03*
X672000Y246750D02*
D03*
X657000D02*
D03*
X514500Y164500D02*
D03*
X499500D02*
D03*
X508750Y121500D02*
D03*
X493750D02*
D03*
X290750Y26250D02*
D03*
X305750D02*
D03*
X291000Y11250D02*
D03*
X306000D02*
D03*
X282500Y150000D02*
D03*
X267500D02*
D03*
D59*
X594000Y762500D02*
D03*
X573000D02*
D03*
X228000Y822750D02*
D03*
X207000D02*
D03*
X228000Y845000D02*
D03*
X207000D02*
D03*
D60*
X615750Y219250D02*
D03*
D61*
X592890Y156750D02*
D03*
X638610D02*
D03*
D62*
X392111Y998025D02*
D03*
Y974025D02*
D03*
X410111D02*
D03*
Y998025D02*
D03*
D63*
X512500Y136750D02*
D03*
Y149000D02*
D03*
X496000Y136750D02*
D03*
Y149000D02*
D03*
D64*
X72500Y813250D02*
D03*
X82000D02*
D03*
X91500D02*
D03*
X72500Y839250D02*
D03*
X82000D02*
D03*
X91500D02*
D03*
D65*
X188000Y934250D02*
D03*
X181500D02*
D03*
X175000D02*
D03*
X168500D02*
D03*
X162000D02*
D03*
X155500D02*
D03*
X149000D02*
D03*
X142500D02*
D03*
X136000D02*
D03*
X129500D02*
D03*
X123000D02*
D03*
X116500D02*
D03*
X110000D02*
D03*
X103500D02*
D03*
X188000Y865250D02*
D03*
X181500D02*
D03*
X175000D02*
D03*
X168500D02*
D03*
X162000D02*
D03*
X155500D02*
D03*
X149000D02*
D03*
X142500D02*
D03*
X136000D02*
D03*
X129500D02*
D03*
X123000D02*
D03*
X116500D02*
D03*
X110000D02*
D03*
D66*
X103500D02*
D03*
D67*
X699250Y278860D02*
D03*
Y233140D02*
D03*
D68*
X764750Y256000D02*
D03*
D69*
X547500Y950750D02*
D03*
X552500D02*
D03*
X557500D02*
D03*
X562500D02*
D03*
X567500D02*
D03*
X572500D02*
D03*
X577500D02*
D03*
X582500D02*
D03*
X587500D02*
D03*
Y895750D02*
D03*
X582500D02*
D03*
X577500D02*
D03*
X572500D02*
D03*
X567500D02*
D03*
X562500D02*
D03*
X557500D02*
D03*
X552500D02*
D03*
X547500D02*
D03*
D70*
X595000Y943250D02*
D03*
Y938250D02*
D03*
Y933250D02*
D03*
Y928250D02*
D03*
Y923250D02*
D03*
Y918250D02*
D03*
Y913250D02*
D03*
Y908250D02*
D03*
Y903250D02*
D03*
X540000D02*
D03*
Y908250D02*
D03*
Y913250D02*
D03*
Y918250D02*
D03*
Y923250D02*
D03*
Y928250D02*
D03*
Y933250D02*
D03*
Y938250D02*
D03*
Y943250D02*
D03*
D71*
X567500Y873750D02*
D03*
Y879500D02*
D03*
X572500D02*
D03*
Y873751D02*
D03*
X577500Y876625D02*
D03*
D72*
X439741Y873589D02*
D03*
X434741D02*
D03*
X429741D02*
D03*
X424741D02*
D03*
X419741D02*
D03*
X414741D02*
D03*
X409741D02*
D03*
X404741D02*
D03*
X399741D02*
D03*
X394741D02*
D03*
X389741D02*
D03*
X384741D02*
D03*
Y942589D02*
D03*
X389741D02*
D03*
X394741D02*
D03*
X399741D02*
D03*
X404741D02*
D03*
X409741D02*
D03*
X414741D02*
D03*
X419741D02*
D03*
X424741D02*
D03*
X429741D02*
D03*
X434741D02*
D03*
X439741D02*
D03*
D73*
X377741Y880589D02*
D03*
Y885589D02*
D03*
Y890589D02*
D03*
Y895589D02*
D03*
Y900589D02*
D03*
Y905589D02*
D03*
Y910589D02*
D03*
Y915589D02*
D03*
Y920589D02*
D03*
Y925589D02*
D03*
Y930589D02*
D03*
Y935589D02*
D03*
X446741D02*
D03*
Y930589D02*
D03*
Y925589D02*
D03*
Y920589D02*
D03*
Y915589D02*
D03*
Y910589D02*
D03*
Y905589D02*
D03*
Y900589D02*
D03*
Y895589D02*
D03*
Y890589D02*
D03*
Y885589D02*
D03*
Y880589D02*
D03*
D74*
X365000Y95500D02*
D03*
X370000D02*
D03*
X375000D02*
D03*
X380000D02*
D03*
X385000D02*
D03*
X390000D02*
D03*
X395000D02*
D03*
X400000D02*
D03*
X405000D02*
D03*
X410000D02*
D03*
X415000D02*
D03*
X420000D02*
D03*
X425000D02*
D03*
X430000D02*
D03*
X435000D02*
D03*
X440000D02*
D03*
Y213500D02*
D03*
X435000D02*
D03*
X430000D02*
D03*
X425000D02*
D03*
X420000D02*
D03*
X415000D02*
D03*
X410000D02*
D03*
X405000D02*
D03*
X400000D02*
D03*
X395000D02*
D03*
X390000D02*
D03*
X385000D02*
D03*
X380000D02*
D03*
X375000D02*
D03*
X370000D02*
D03*
X365000D02*
D03*
D75*
X461500Y117000D02*
D03*
Y122000D02*
D03*
Y127000D02*
D03*
Y132000D02*
D03*
Y137000D02*
D03*
Y142000D02*
D03*
Y147000D02*
D03*
Y152000D02*
D03*
Y157000D02*
D03*
Y162000D02*
D03*
Y167000D02*
D03*
Y172000D02*
D03*
Y177000D02*
D03*
Y182000D02*
D03*
Y187000D02*
D03*
Y192000D02*
D03*
X343500D02*
D03*
Y187000D02*
D03*
Y182000D02*
D03*
Y177000D02*
D03*
Y172000D02*
D03*
Y167000D02*
D03*
Y162000D02*
D03*
Y157000D02*
D03*
Y152000D02*
D03*
Y147000D02*
D03*
Y142000D02*
D03*
Y137000D02*
D03*
Y132000D02*
D03*
Y127000D02*
D03*
Y122000D02*
D03*
Y117000D02*
D03*
D76*
X801250Y355500D02*
D03*
X729250D02*
D03*
X801250Y325500D02*
D03*
X729250D02*
D03*
D77*
X280250Y952500D02*
D03*
Y880500D02*
D03*
X310250Y952500D02*
D03*
Y880500D02*
D03*
D78*
X52250Y821250D02*
D03*
Y836250D02*
D03*
X117500Y977000D02*
D03*
Y992000D02*
D03*
X102797Y977000D02*
D03*
Y992000D02*
D03*
X248250Y998250D02*
D03*
Y1013250D02*
D03*
X279250Y995800D02*
D03*
Y1010800D02*
D03*
X310500Y996500D02*
D03*
Y1011500D02*
D03*
X105750Y825678D02*
D03*
Y840678D02*
D03*
X290000Y43750D02*
D03*
Y58750D02*
D03*
X402453Y41498D02*
D03*
Y56498D02*
D03*
X373047Y41498D02*
D03*
Y56498D02*
D03*
X347750Y23000D02*
D03*
Y38000D02*
D03*
X342125Y263250D02*
D03*
Y248250D02*
D03*
X417155Y56497D02*
D03*
Y41498D02*
D03*
X387750Y56497D02*
D03*
Y41498D02*
D03*
X333047Y38000D02*
D03*
Y23000D02*
D03*
X327422Y263250D02*
D03*
Y248250D02*
D03*
X356827Y263250D02*
D03*
Y248250D02*
D03*
X371530Y248250D02*
D03*
Y263250D02*
D03*
X400935Y263250D02*
D03*
Y248250D02*
D03*
X281250Y265000D02*
D03*
Y250000D02*
D03*
X240750Y25000D02*
D03*
Y40000D02*
D03*
X445042Y263250D02*
D03*
Y248250D02*
D03*
X474448Y263250D02*
D03*
Y248250D02*
D03*
X459745Y263250D02*
D03*
Y248250D02*
D03*
X490668Y56497D02*
D03*
Y41498D02*
D03*
X415637Y248250D02*
D03*
Y263250D02*
D03*
X430340Y248250D02*
D03*
Y263250D02*
D03*
X273250Y75250D02*
D03*
Y90250D02*
D03*
X704000Y354750D02*
D03*
Y339750D02*
D03*
X710000Y490000D02*
D03*
Y475000D02*
D03*
X92750Y946500D02*
D03*
Y961500D02*
D03*
X179750Y953750D02*
D03*
Y968750D02*
D03*
X710000Y411000D02*
D03*
Y426000D02*
D03*
Y442500D02*
D03*
Y457500D02*
D03*
X807750Y282000D02*
D03*
Y267000D02*
D03*
X386232Y263250D02*
D03*
Y248250D02*
D03*
X475965Y41498D02*
D03*
Y56498D02*
D03*
X461263Y41498D02*
D03*
Y56498D02*
D03*
X446560Y41498D02*
D03*
Y56498D02*
D03*
X431858Y41498D02*
D03*
Y56498D02*
D03*
X270250Y39500D02*
D03*
Y54500D02*
D03*
D79*
X631086Y930591D02*
D03*
X620418D02*
D03*
X620500Y908250D02*
D03*
X631168D02*
D03*
Y919420D02*
D03*
X620500D02*
D03*
X427250Y997500D02*
D03*
X437918D02*
D03*
X388491Y956339D02*
D03*
X399159D02*
D03*
X382750Y858500D02*
D03*
X393418D02*
D03*
X352621Y868828D02*
D03*
X363289D02*
D03*
X504325Y925089D02*
D03*
X493657D02*
D03*
X521750Y969750D02*
D03*
X532418D02*
D03*
X521750Y997000D02*
D03*
X532418D02*
D03*
X521666Y983250D02*
D03*
X532334D02*
D03*
D80*
X489500Y964166D02*
D03*
Y974834D02*
D03*
X475750Y964166D02*
D03*
Y974834D02*
D03*
X551250Y969000D02*
D03*
Y979668D02*
D03*
X363741Y904755D02*
D03*
Y915423D02*
D03*
X573337Y969000D02*
D03*
Y979668D02*
D03*
X427741Y968089D02*
D03*
Y957421D02*
D03*
X430779Y847950D02*
D03*
Y858618D02*
D03*
X438912Y968007D02*
D03*
Y957339D02*
D03*
X441950Y847950D02*
D03*
Y858618D02*
D03*
X493491Y913918D02*
D03*
Y903250D02*
D03*
X584507Y969000D02*
D03*
Y979668D02*
D03*
X562166Y969000D02*
D03*
Y979668D02*
D03*
D81*
X335000Y58931D02*
D03*
X345607Y69537D02*
D03*
X324749Y71037D02*
D03*
X314142Y60430D02*
D03*
X313053Y177230D02*
D03*
X302447Y166624D02*
D03*
X294374Y138374D02*
D03*
X304980Y148980D02*
D03*
X291947Y177124D02*
D03*
X302553Y187730D02*
D03*
X315230Y138383D02*
D03*
X304624Y127776D02*
D03*
D82*
X313053Y216624D02*
D03*
X302447Y227230D02*
D03*
X294374Y99980D02*
D03*
X304980Y89374D02*
D03*
X291647Y216670D02*
D03*
X302253Y206064D02*
D03*
X315230Y100374D02*
D03*
X304624Y110980D02*
D03*
D83*
X479241Y913839D02*
D03*
Y922339D02*
D03*
X462241Y913839D02*
D03*
Y922339D02*
D03*
D84*
X597710Y984724D02*
D03*
Y970500D02*
D03*
D85*
X41000Y909600D02*
D03*
Y903100D02*
D03*
Y896600D02*
D03*
Y890100D02*
D03*
Y883600D02*
D03*
D86*
X15500Y936600D02*
D03*
Y856600D02*
D03*
D87*
Y884600D02*
D03*
Y908600D02*
D03*
D88*
X290000Y319500D02*
D03*
X440000D02*
D03*
X605000D02*
D03*
X170000D02*
D03*
X215000D02*
D03*
X230000D02*
D03*
X275000D02*
D03*
X335000D02*
D03*
X320000D02*
D03*
X350000D02*
D03*
X380000D02*
D03*
X395000D02*
D03*
X410000D02*
D03*
X455000D02*
D03*
X500000D02*
D03*
X515000D02*
D03*
X560000D02*
D03*
X575000D02*
D03*
X620000D02*
D03*
X635000D02*
D03*
X185000D02*
D03*
X200000D02*
D03*
X245000D02*
D03*
X260000D02*
D03*
X305000D02*
D03*
X365000D02*
D03*
X425000D02*
D03*
X470000D02*
D03*
X485000D02*
D03*
X530000D02*
D03*
X545000D02*
D03*
X590000D02*
D03*
X650000D02*
D03*
X290000Y739500D02*
D03*
X170000D02*
D03*
X275000D02*
D03*
X215000D02*
D03*
X230000D02*
D03*
X335000D02*
D03*
X350000D02*
D03*
X410000D02*
D03*
X380000D02*
D03*
X455000D02*
D03*
X500000D02*
D03*
X620000D02*
D03*
X185000D02*
D03*
X200000D02*
D03*
X260000D02*
D03*
X305000D02*
D03*
X365000D02*
D03*
X425000D02*
D03*
X470000D02*
D03*
X485000D02*
D03*
X530000D02*
D03*
X545000D02*
D03*
D89*
X680000Y684500D02*
D03*
Y504500D02*
D03*
Y459500D02*
D03*
Y399500D02*
D03*
Y339500D02*
D03*
Y714500D02*
D03*
Y534500D02*
D03*
Y474500D02*
D03*
Y429500D02*
D03*
Y369500D02*
D03*
X150000Y549500D02*
D03*
Y699500D02*
D03*
Y684500D02*
D03*
Y669500D02*
D03*
Y624500D02*
D03*
Y609500D02*
D03*
Y579500D02*
D03*
Y564500D02*
D03*
Y519500D02*
D03*
Y504500D02*
D03*
Y399500D02*
D03*
Y444500D02*
D03*
Y459500D02*
D03*
Y339500D02*
D03*
Y354500D02*
D03*
Y714500D02*
D03*
Y654500D02*
D03*
Y534500D02*
D03*
Y489500D02*
D03*
Y429500D02*
D03*
Y414500D02*
D03*
Y369500D02*
D03*
D90*
X522500Y899750D02*
D03*
X503500D02*
D03*
D91*
X513000Y908250D02*
D03*
Y891250D02*
D03*
D92*
X29300Y81850D02*
D03*
Y255250D02*
D03*
D93*
X228500Y234650D02*
D03*
Y102450D02*
D03*
Y120850D02*
D03*
Y216250D02*
D03*
Y204250D02*
D03*
Y194050D02*
D03*
Y183850D02*
D03*
Y132850D02*
D03*
Y143050D02*
D03*
Y153250D02*
D03*
Y163450D02*
D03*
Y173650D02*
D03*
D94*
X230750Y878500D02*
D03*
Y899500D02*
D03*
D95*
X813750Y245000D02*
D03*
Y219000D02*
D03*
X689500Y211750D02*
D03*
Y185750D02*
D03*
D96*
X653000Y271000D02*
D03*
X627000D02*
D03*
X638000Y125000D02*
D03*
X612000D02*
D03*
D97*
X635750Y229250D02*
D03*
X625750D02*
D03*
X615750D02*
D03*
X605750D02*
D03*
X595750D02*
D03*
X605750Y209250D02*
D03*
X615750D02*
D03*
X625750D02*
D03*
Y219250D02*
D03*
X635750D02*
D03*
Y209250D02*
D03*
Y199250D02*
D03*
X625750D02*
D03*
X615750D02*
D03*
X605750D02*
D03*
X595750D02*
D03*
Y209250D02*
D03*
Y219250D02*
D03*
X605750D02*
D03*
X615750D02*
D03*
X764250Y256000D02*
D03*
Y266000D02*
D03*
Y276000D02*
D03*
X774250D02*
D03*
Y266000D02*
D03*
Y256000D02*
D03*
Y246000D02*
D03*
Y236000D02*
D03*
X764250D02*
D03*
Y246000D02*
D03*
X754250Y236000D02*
D03*
Y246000D02*
D03*
Y256000D02*
D03*
Y266000D02*
D03*
Y276000D02*
D03*
X744250D02*
D03*
Y266000D02*
D03*
Y256000D02*
D03*
Y246000D02*
D03*
Y236000D02*
D03*
X680000Y233500D02*
D03*
X604000Y113000D02*
D03*
X601500Y257500D02*
D03*
X660500Y218500D02*
D03*
X729250Y369250D02*
D03*
X264500Y204250D02*
D03*
X61500Y82500D02*
D03*
X29750Y277250D02*
D03*
X805483Y205017D02*
D03*
X807483Y290267D02*
D03*
X684750Y249500D02*
D03*
X723733Y209267D02*
D03*
X698233Y173517D02*
D03*
X616500Y150500D02*
D03*
X576233Y157267D02*
D03*
X586483Y141017D02*
D03*
X670000Y265000D02*
D03*
X690000Y305000D02*
D03*
X48500Y868750D02*
D03*
X559750Y177250D02*
D03*
X454250Y13750D02*
D03*
X315000Y25000D02*
D03*
X48500Y938250D02*
D03*
D98*
X567500Y923250D02*
D03*
X561500D02*
D03*
X555500D02*
D03*
X549500D02*
D03*
Y929250D02*
D03*
Y935250D02*
D03*
Y941250D02*
D03*
X555500D02*
D03*
X561500D02*
D03*
X567500D02*
D03*
X573500D02*
D03*
X579500D02*
D03*
X585500D02*
D03*
Y935250D02*
D03*
Y929250D02*
D03*
Y923250D02*
D03*
Y917250D02*
D03*
Y911250D02*
D03*
Y905250D02*
D03*
X579500D02*
D03*
X573500D02*
D03*
X567500D02*
D03*
X561500D02*
D03*
X555500D02*
D03*
X549500D02*
D03*
Y911250D02*
D03*
Y917250D02*
D03*
X555500D02*
D03*
X561500D02*
D03*
X567500D02*
D03*
Y911250D02*
D03*
X561500D02*
D03*
X555500D02*
D03*
Y929250D02*
D03*
Y935250D02*
D03*
X561500D02*
D03*
X567500D02*
D03*
X573500D02*
D03*
X579500D02*
D03*
Y929250D02*
D03*
Y923250D02*
D03*
Y917250D02*
D03*
Y911250D02*
D03*
X573500D02*
D03*
Y917250D02*
D03*
Y923250D02*
D03*
Y929250D02*
D03*
X567500D02*
D03*
X561500D02*
D03*
X397001Y923329D02*
D03*
X404621D02*
D03*
X412241D02*
D03*
X419861D02*
D03*
X427481D02*
D03*
Y915709D02*
D03*
Y908089D02*
D03*
Y900469D02*
D03*
Y892849D02*
D03*
X419861D02*
D03*
X412241D02*
D03*
X404621D02*
D03*
X397001D02*
D03*
Y900469D02*
D03*
X404621D02*
D03*
X412241D02*
D03*
X419861D02*
D03*
Y908089D02*
D03*
Y915709D02*
D03*
X412241D02*
D03*
X404621D02*
D03*
X397001D02*
D03*
X389381D02*
D03*
Y923329D02*
D03*
Y930949D02*
D03*
X397001D02*
D03*
X404621D02*
D03*
X412241D02*
D03*
X419861D02*
D03*
X427481D02*
D03*
X435101D02*
D03*
Y923329D02*
D03*
Y915709D02*
D03*
Y908089D02*
D03*
Y900469D02*
D03*
Y892849D02*
D03*
Y885229D02*
D03*
X427481D02*
D03*
X419861D02*
D03*
X412241D02*
D03*
X404621D02*
D03*
X397001D02*
D03*
X389381D02*
D03*
Y892849D02*
D03*
Y900469D02*
D03*
Y908089D02*
D03*
X397001D02*
D03*
X404621D02*
D03*
X412241D02*
D03*
D99*
X805000Y1090000D02*
D03*
X35000D02*
D03*
X805000Y35000D02*
D03*
X35000D02*
D03*
D100*
X32500Y642750D02*
D03*
Y668150D02*
D03*
Y693550D02*
D03*
Y718950D02*
D03*
Y744350D02*
D03*
Y769750D02*
D03*
Y617350D02*
D03*
Y591950D02*
D03*
Y566550D02*
D03*
Y541150D02*
D03*
Y515750D02*
D03*
Y490350D02*
D03*
Y464950D02*
D03*
Y439550D02*
D03*
Y414150D02*
D03*
Y388750D02*
D03*
Y363350D02*
D03*
Y337950D02*
D03*
Y312550D02*
D03*
X252250Y1084150D02*
D03*
X277650D02*
D03*
X303050D02*
D03*
X328450D02*
D03*
X252250Y1058750D02*
D03*
X277650D02*
D03*
X303050D02*
D03*
X328450D02*
D03*
X430050Y1084150D02*
D03*
Y1058750D02*
D03*
X480850Y1084150D02*
D03*
X455450Y1058750D02*
D03*
Y1084150D02*
D03*
X404650Y1058750D02*
D03*
Y1084150D02*
D03*
X379250Y1058750D02*
D03*
Y1084150D02*
D03*
X353850Y1058750D02*
D03*
Y1084150D02*
D03*
X773000Y552950D02*
D03*
Y578350D02*
D03*
Y603750D02*
D03*
Y629150D02*
D03*
X131700Y1072750D02*
D03*
X157100D02*
D03*
X182500D02*
D03*
X774250Y419450D02*
D03*
Y444850D02*
D03*
Y470250D02*
D03*
X771500Y708750D02*
D03*
X616000Y46500D02*
D03*
X699500Y66900D02*
D03*
X674100Y41500D02*
D03*
Y66900D02*
D03*
X763750Y130400D02*
D03*
Y105000D02*
D03*
X814550Y130400D02*
D03*
X789150Y105000D02*
D03*
Y130400D02*
D03*
X738350Y105000D02*
D03*
Y130400D02*
D03*
X712950Y105000D02*
D03*
Y130400D02*
D03*
X687550Y105000D02*
D03*
Y130400D02*
D03*
D101*
X32500Y795150D02*
D03*
X773000Y654550D02*
D03*
X774250Y495650D02*
D03*
X771500Y734150D02*
D03*
D102*
X480850Y1058750D02*
D03*
X207900Y1072750D02*
D03*
X590600Y46500D02*
D03*
X699500Y41500D02*
D03*
X814550Y105000D02*
D03*
D103*
X778600Y919650D02*
D03*
X753200Y945050D02*
D03*
Y894250D02*
D03*
X804000D02*
D03*
Y945050D02*
D03*
D104*
X29300Y106050D02*
D03*
Y232050D02*
D03*
D105*
X662000Y763750D02*
D03*
X564000Y747000D02*
D03*
X353750Y758250D02*
D03*
X249250Y757000D02*
D03*
X119500Y825250D02*
D03*
X135750Y945250D02*
D03*
X414770Y237512D02*
D03*
X55000Y961250D02*
D03*
X304000Y137250D02*
D03*
X85500Y803500D02*
D03*
X85754Y847791D02*
D03*
X227500Y865750D02*
D03*
X248750Y840250D02*
D03*
Y828750D02*
D03*
X386250Y756250D02*
D03*
X806750Y345250D02*
D03*
X374750Y276500D02*
D03*
X405000Y203750D02*
D03*
X453022Y152007D02*
D03*
X488500Y146250D02*
D03*
X523250Y161750D02*
D03*
X523000Y136750D02*
D03*
X509000Y113000D02*
D03*
X471500Y137000D02*
D03*
X452250Y172000D02*
D03*
X343000Y49750D02*
D03*
X262263Y50753D02*
D03*
X440000Y300250D02*
D03*
X68500Y656500D02*
D03*
X529500Y290250D02*
D03*
X544750Y302250D02*
D03*
X302750Y772750D02*
D03*
X122500Y434500D02*
D03*
X380500Y300000D02*
D03*
X259750Y303250D02*
D03*
X697500Y683250D02*
D03*
X185750Y756750D02*
D03*
X605500Y302250D02*
D03*
X559500D02*
D03*
X132000Y426000D02*
D03*
X350250Y300500D02*
D03*
X215500Y757000D02*
D03*
X132750Y368750D02*
D03*
X132000Y713750D02*
D03*
X68503Y733536D02*
D03*
X305250Y303000D02*
D03*
X371750Y755000D02*
D03*
X132500Y609500D02*
D03*
X274250Y303000D02*
D03*
X543063Y285312D02*
D03*
X428500Y763250D02*
D03*
X394750Y300250D02*
D03*
X500250Y302250D02*
D03*
X229750Y756500D02*
D03*
X411500Y755500D02*
D03*
X317000Y749250D02*
D03*
X364500Y300250D02*
D03*
X455000Y757500D02*
D03*
X620500Y756750D02*
D03*
X132500Y489500D02*
D03*
X72503Y605530D02*
D03*
X514500Y296000D02*
D03*
X698500Y714750D02*
D03*
Y533250D02*
D03*
Y369000D02*
D03*
X340250Y763000D02*
D03*
X132500Y624500D02*
D03*
X424750Y300250D02*
D03*
X530250Y757000D02*
D03*
X289750Y303000D02*
D03*
X334250Y301000D02*
D03*
X410000Y300000D02*
D03*
X619000Y301500D02*
D03*
X697500Y504000D02*
D03*
X545000Y757750D02*
D03*
X285500Y805750D02*
D03*
X289250Y755750D02*
D03*
X470750Y756500D02*
D03*
X72503Y578278D02*
D03*
X530250Y302750D02*
D03*
X698500Y398750D02*
D03*
X172000Y757750D02*
D03*
X132750Y444250D02*
D03*
X319250Y300750D02*
D03*
X515250Y302750D02*
D03*
X319500Y726250D02*
D03*
X201500Y756750D02*
D03*
X133000Y503750D02*
D03*
X132500Y458500D02*
D03*
X132250Y409750D02*
D03*
X68503Y707284D02*
D03*
X72503Y526026D02*
D03*
Y554027D02*
D03*
X289750Y37500D02*
D03*
X270000Y32750D02*
D03*
X283750Y27750D02*
D03*
X283250Y11000D02*
D03*
X356250Y22500D02*
D03*
X342500Y111000D02*
D03*
X355250Y142000D02*
D03*
X366250Y122000D02*
D03*
X327750Y47750D02*
D03*
X414250Y34250D02*
D03*
X388000Y33750D02*
D03*
X435000Y1022500D02*
D03*
X418750Y1023500D02*
D03*
X710000Y762000D02*
D03*
X180000Y976000D02*
D03*
X172000Y954250D02*
D03*
X92750Y967500D02*
D03*
X86500Y949500D02*
D03*
X127250Y847000D02*
D03*
X76250Y802500D02*
D03*
X810750Y376000D02*
D03*
X720000Y490000D02*
D03*
X719785Y439771D02*
D03*
X719750Y411250D02*
D03*
X713000Y355500D02*
D03*
X291500Y957000D02*
D03*
X293000Y875000D02*
D03*
X52500Y812500D02*
D03*
X181500Y854250D02*
D03*
X101500Y853500D02*
D03*
X142250Y952000D02*
D03*
X311000Y985500D02*
D03*
X297000Y982500D02*
D03*
X249250Y988250D02*
D03*
X488750Y211750D02*
D03*
X519250Y71250D02*
D03*
X438750Y84750D02*
D03*
X409750Y81250D02*
D03*
X405000Y85250D02*
D03*
X395000Y85500D02*
D03*
X240250Y16250D02*
D03*
X281250Y272750D02*
D03*
X322500Y105250D02*
D03*
X290000Y150750D02*
D03*
X286250Y183250D02*
D03*
X339000Y197750D02*
D03*
X354750Y179500D02*
D03*
X333250Y147000D02*
D03*
X333750Y137000D02*
D03*
X334000Y127000D02*
D03*
X286250Y222000D02*
D03*
X357500Y269000D02*
D03*
X389750Y270250D02*
D03*
X418750Y269750D02*
D03*
X434250Y270250D02*
D03*
X517000Y102000D02*
D03*
X518000Y86000D02*
D03*
X476500Y35250D02*
D03*
X461750Y35000D02*
D03*
X447000Y35250D02*
D03*
X432250Y34500D02*
D03*
X403000Y34250D02*
D03*
X373250Y34750D02*
D03*
X756500Y383500D02*
D03*
X713000Y340500D02*
D03*
X719500Y430500D02*
D03*
X719750Y459500D02*
D03*
X719250Y477500D02*
D03*
X445250Y946750D02*
D03*
X428500Y830750D02*
D03*
X420770Y862292D02*
D03*
X414770Y863292D02*
D03*
X409750Y859750D02*
D03*
X404750Y863250D02*
D03*
X375875Y807000D02*
D03*
X375500Y775250D02*
D03*
X376500Y790845D02*
D03*
X375000Y823750D02*
D03*
X553250Y820500D02*
D03*
X265750Y767500D02*
D03*
X275250Y783500D02*
D03*
X531000Y796500D02*
D03*
X309750Y865500D02*
D03*
X15250Y954000D02*
D03*
X99250Y879750D02*
D03*
X88000Y935000D02*
D03*
X333500Y181500D02*
D03*
X311250Y116250D02*
D03*
X333500Y187500D02*
D03*
X311250Y122250D02*
D03*
X339847Y823500D02*
D03*
X295000Y1007250D02*
D03*
X344500Y992500D02*
D03*
X337750Y1015250D02*
D03*
X471000Y807250D02*
D03*
X454750Y823500D02*
D03*
X340250Y790750D02*
D03*
X340000Y807000D02*
D03*
X325250Y19000D02*
D03*
X439000Y50000D02*
D03*
X481500Y264500D02*
D03*
X491250Y182750D02*
D03*
X479500Y171500D02*
D03*
X472273Y156758D02*
D03*
X460750Y270500D02*
D03*
X409750Y224250D02*
D03*
X445000Y271500D02*
D03*
X545000Y212500D02*
D03*
X536000Y228250D02*
D03*
X527500Y242500D02*
D03*
X521000Y255750D02*
D03*
X403750Y229250D02*
D03*
X395000Y230500D02*
D03*
X382000Y232000D02*
D03*
X376250Y228000D02*
D03*
X520000Y181250D02*
D03*
X500000Y41750D02*
D03*
X382250Y241500D02*
D03*
X257250Y233500D02*
D03*
X450000Y117250D02*
D03*
X257750Y100500D02*
D03*
X438000Y126500D02*
D03*
X282750Y75750D02*
D03*
X354000Y132000D02*
D03*
Y152250D02*
D03*
X354500Y172000D02*
D03*
X309250Y233000D02*
D03*
X297000Y161500D02*
D03*
X299250Y154500D02*
D03*
X298750Y83000D02*
D03*
X275750Y101250D02*
D03*
X276000Y139750D02*
D03*
M02*
