G04*
G04 #@! TF.GenerationSoftware,Altium Limited,Altium Designer,19.1.9 (167)*
G04*
G04 Layer_Physical_Order=3*
G04 Layer_Color=128*
%FSLAX44Y44*%
%MOMM*%
G71*
G01*
G75*
%ADD11C,0.5000*%
%ADD130C,1.4660*%
%ADD131C,4.2160*%
%ADD132C,2.0360*%
%ADD133C,2.5160*%
%ADD134C,4.2660*%
%ADD135C,1.2160*%
%ADD136C,1.0000*%
%ADD137C,1.0160*%
%ADD138C,1.3160*%
%ADD139C,1.2660*%
D11*
X690000Y225000D02*
X700000Y235000D01*
Y250000D01*
Y255000D01*
X695000Y260000D02*
X700000Y255000D01*
X680000Y260000D02*
X695000D01*
X680000Y260000D02*
X680000Y260000D01*
X635000Y290000D02*
X685000D01*
X680000Y260000D02*
Y260000D01*
X690000Y270000D01*
Y280000D01*
Y280000D01*
X680000Y290000D02*
X690000Y280000D01*
X660000Y340000D02*
X685000D01*
X700000Y325000D01*
Y315000D02*
Y325000D01*
Y305000D02*
Y315000D01*
X685000Y290000D02*
X700000Y305000D01*
X600000Y135000D02*
X613750D01*
X627750Y149000D01*
X580000Y270000D02*
X585000Y265000D01*
X580000Y270000D02*
X580000D01*
X585000Y265000D02*
X590000D01*
X495750Y286250D02*
X521000Y261000D01*
X30000Y455000D02*
Y455000D01*
X20000Y445000D02*
X30000Y455000D01*
X20000Y410000D02*
Y445000D01*
Y410000D02*
X25000Y405000D01*
X30000D01*
X45000D01*
X50000Y400000D01*
X90000Y360000D01*
X110000D01*
X125000D01*
X140000Y345000D01*
X370000D01*
X505000D01*
X554000Y296000D01*
X580000Y270000D01*
X590000Y265000D02*
X610000D01*
X635000D01*
X640000Y260000D01*
X680000D01*
X740000Y250000D02*
X750000Y240000D01*
X95000Y405000D02*
X100000D01*
X75000Y425000D02*
X95000Y405000D01*
X75000Y425000D02*
Y435000D01*
X55000Y455000D02*
X75000Y435000D01*
X25000Y455000D02*
X55000D01*
X20000Y460000D02*
X25000Y455000D01*
X20000Y460000D02*
Y470000D01*
X25000Y475000D01*
X55000D01*
X75000Y495000D01*
X-15000Y825000D02*
X45000D01*
X75000Y795000D01*
X75000Y495000D01*
X97500Y405000D02*
X520000Y405000D01*
X610000Y315000D01*
X635000Y290000D01*
X805000Y120000D02*
X870000D01*
X800000Y125000D02*
X805000Y120000D01*
X775000Y125000D02*
Y125000D01*
Y125000D02*
X780000Y120000D01*
X795000D01*
X795000Y120000D01*
X800000Y125000D01*
Y245000D01*
X750000Y125000D02*
Y125000D01*
Y125000D02*
X755000Y120000D01*
X770000D01*
Y120000D01*
X775000Y125000D01*
Y245000D01*
X557000Y225000D02*
X715000D01*
X750000Y190000D01*
X725000Y125000D02*
Y125000D01*
Y125000D02*
X730000Y120000D01*
X745000D01*
Y120000D01*
X750000Y125000D01*
Y190000D01*
X521000Y261000D02*
X557000Y225000D01*
X627750Y149000D02*
X658750Y180000D01*
X685000D01*
X720000D01*
X725000Y175000D01*
Y125000D02*
Y175000D01*
Y125000D02*
X725000Y125000D01*
X720000Y120000D02*
X725000Y125000D01*
X705000Y120000D02*
X720000D01*
X700000Y125000D02*
X705000Y120000D01*
X700000Y125000D02*
Y140000D01*
X690000Y150000D02*
X700000Y140000D01*
X670000Y150000D02*
X690000D01*
X630000Y110000D02*
X670000Y150000D01*
X520000Y1055000D02*
Y1135000D01*
X495000Y1030000D02*
X520000Y1055000D01*
X475000Y1030000D02*
X495000D01*
X435000D02*
X475000D01*
X390000Y985000D02*
X435000Y1030000D01*
X415000Y885000D02*
Y940000D01*
X405000Y875000D02*
X415000Y885000D01*
X405000Y860000D02*
Y875000D01*
Y860000D02*
X415000Y850000D01*
X460000D01*
X490000Y880000D01*
X555000D01*
X410000Y800000D02*
X415000D01*
X350000Y860000D02*
X410000Y800000D01*
X350000Y860000D02*
Y940000D01*
Y945000D01*
X390000Y985000D01*
X405000D01*
X415000Y975000D01*
Y895000D02*
Y975000D01*
X555000Y880000D02*
X705000D01*
X725000Y860000D01*
X800000Y785000D01*
Y695000D02*
Y785000D01*
Y555000D02*
Y695000D01*
Y405000D02*
Y555000D01*
Y245000D02*
Y405000D01*
X485000Y695000D02*
X495000Y685000D01*
X275000Y695000D02*
X485000D01*
X260000D02*
X275000D01*
X250000Y705000D02*
X260000Y695000D01*
X250000Y705000D02*
Y780000D01*
Y785000D01*
X265000Y800000D01*
X480000D01*
X485000D01*
X495000Y810000D01*
X331250Y286250D02*
X495750D01*
X295000Y250000D02*
X331250Y286250D01*
X495000Y505000D02*
X660000Y340000D01*
X495000Y685000D02*
X495000Y505000D01*
X495000Y810000D02*
X515000Y830000D01*
X565000D01*
X610000D01*
X740000Y700000D01*
Y655000D02*
Y700000D01*
Y415000D02*
Y655000D01*
Y415000D02*
X750000Y405000D01*
X775000Y380000D01*
Y245000D02*
Y380000D01*
X255000Y-15000D02*
Y205000D01*
Y210000D01*
X295000Y250000D01*
X310000D01*
X365000Y195000D01*
Y129000D02*
Y195000D01*
X320000Y84000D02*
X365000Y129000D01*
X320000Y-15000D02*
Y84000D01*
X560000Y95000D02*
X600000Y135000D01*
X510000Y45000D02*
X560000Y95000D01*
X510000Y40000D02*
Y45000D01*
X490000Y20000D02*
X510000Y40000D01*
X470000Y20000D02*
X490000D01*
X460000D02*
X470000D01*
X455000Y25000D02*
X460000Y20000D01*
X455000Y25000D02*
Y60000D01*
X445000Y70000D02*
X455000Y60000D01*
X425000Y70000D02*
X445000D01*
X420000Y65000D02*
X425000Y70000D01*
X420000Y0D02*
Y65000D01*
X520500Y500D02*
X557000Y37000D01*
X630000Y110000D01*
D130*
X635750Y229250D02*
D03*
X625750D02*
D03*
X615750D02*
D03*
X605750D02*
D03*
X595750D02*
D03*
X605750Y209250D02*
D03*
X615750D02*
D03*
X625750D02*
D03*
Y219250D02*
D03*
X635750D02*
D03*
Y209250D02*
D03*
Y199250D02*
D03*
X625750D02*
D03*
X615750D02*
D03*
X605750D02*
D03*
X595750D02*
D03*
Y209250D02*
D03*
Y219250D02*
D03*
X605750D02*
D03*
X615750D02*
D03*
X764250Y256000D02*
D03*
Y266000D02*
D03*
Y276000D02*
D03*
X774250D02*
D03*
Y266000D02*
D03*
Y256000D02*
D03*
Y246000D02*
D03*
Y236000D02*
D03*
X764250D02*
D03*
Y246000D02*
D03*
X754250Y236000D02*
D03*
Y246000D02*
D03*
Y256000D02*
D03*
Y266000D02*
D03*
Y276000D02*
D03*
X744250D02*
D03*
Y266000D02*
D03*
Y256000D02*
D03*
Y246000D02*
D03*
Y236000D02*
D03*
X604000Y113000D02*
D03*
X601500Y257500D02*
D03*
X660500Y218500D02*
D03*
X729250Y369250D02*
D03*
X264500Y204250D02*
D03*
X61500Y82500D02*
D03*
X29750Y277250D02*
D03*
X805483Y205017D02*
D03*
X807483Y290267D02*
D03*
X684750Y249500D02*
D03*
X723733Y209267D02*
D03*
X698233Y173517D02*
D03*
X616500Y150500D02*
D03*
X576233Y157267D02*
D03*
X586483Y141017D02*
D03*
X513750Y955000D02*
D03*
X380750Y853000D02*
D03*
X48500Y868750D02*
D03*
X559750Y177250D02*
D03*
X436450Y848700D02*
D03*
X504800Y914950D02*
D03*
X569491Y1019339D02*
D03*
X498750Y1004250D02*
D03*
X363241Y899589D02*
D03*
X353241Y864839D02*
D03*
X252000Y947750D02*
D03*
X48500Y938250D02*
D03*
D131*
X805000Y1090000D02*
D03*
X35000D02*
D03*
X805000Y35000D02*
D03*
X35000D02*
D03*
D132*
X32500Y642750D02*
D03*
Y668150D02*
D03*
Y693550D02*
D03*
Y718950D02*
D03*
Y744350D02*
D03*
Y769750D02*
D03*
Y795150D02*
D03*
Y617350D02*
D03*
Y591950D02*
D03*
Y566550D02*
D03*
Y541150D02*
D03*
Y515750D02*
D03*
Y490350D02*
D03*
Y363350D02*
D03*
Y337950D02*
D03*
Y312550D02*
D03*
X252250Y1084150D02*
D03*
X277650D02*
D03*
X303050D02*
D03*
X328450D02*
D03*
X252250Y1058750D02*
D03*
X277650D02*
D03*
X303050D02*
D03*
X328450D02*
D03*
X430050Y1084150D02*
D03*
Y1058750D02*
D03*
X480850Y1084150D02*
D03*
Y1058750D02*
D03*
X455450D02*
D03*
Y1084150D02*
D03*
X404650Y1058750D02*
D03*
Y1084150D02*
D03*
X379250Y1058750D02*
D03*
Y1084150D02*
D03*
X353850Y1058750D02*
D03*
Y1084150D02*
D03*
X773000Y552950D02*
D03*
Y578350D02*
D03*
Y603750D02*
D03*
Y629150D02*
D03*
Y654550D02*
D03*
X131700Y1072750D02*
D03*
X157100D02*
D03*
X182500D02*
D03*
X207900D02*
D03*
X774250Y419450D02*
D03*
Y444850D02*
D03*
Y470250D02*
D03*
Y495650D02*
D03*
X771500Y734150D02*
D03*
Y708750D02*
D03*
X616000Y46500D02*
D03*
X590600D02*
D03*
X699500Y41500D02*
D03*
X674100D02*
D03*
X763750Y105000D02*
D03*
X814550D02*
D03*
X789150D02*
D03*
X738350D02*
D03*
X712950D02*
D03*
X687550D02*
D03*
Y130400D02*
D03*
D133*
X778600Y919650D02*
D03*
X753200Y945050D02*
D03*
Y894250D02*
D03*
X804000D02*
D03*
Y945050D02*
D03*
D134*
X29300Y106050D02*
D03*
Y232050D02*
D03*
D135*
X564000Y747000D02*
D03*
X353750Y758250D02*
D03*
X249250Y757000D02*
D03*
X119500Y825250D02*
D03*
X135750Y945250D02*
D03*
X414770Y237512D02*
D03*
X55000Y961250D02*
D03*
X304000Y137250D02*
D03*
X85500Y803500D02*
D03*
X386250Y756250D02*
D03*
X806750Y345250D02*
D03*
X405000Y203750D02*
D03*
X453022Y152007D02*
D03*
X488500Y146250D02*
D03*
X523250Y161750D02*
D03*
X523000Y136750D02*
D03*
X509000Y113000D02*
D03*
X471500Y137000D02*
D03*
X452250Y172000D02*
D03*
X343000Y49750D02*
D03*
X440000Y300250D02*
D03*
X68500Y656500D02*
D03*
X529500Y290250D02*
D03*
X544750Y302250D02*
D03*
X302750Y772750D02*
D03*
X122500Y434500D02*
D03*
X380500Y300000D02*
D03*
X259750Y303250D02*
D03*
X697500Y683250D02*
D03*
X185750Y756750D02*
D03*
X605500Y302250D02*
D03*
X559500D02*
D03*
X132000Y426000D02*
D03*
X350250Y300500D02*
D03*
X215500Y757000D02*
D03*
X132750Y368750D02*
D03*
X132000Y713750D02*
D03*
X68503Y733536D02*
D03*
X305250Y303000D02*
D03*
X371750Y755000D02*
D03*
X132500Y609500D02*
D03*
X274250Y303000D02*
D03*
X543063Y285312D02*
D03*
X428500Y763250D02*
D03*
X394750Y300250D02*
D03*
X500250Y302250D02*
D03*
X229750Y756500D02*
D03*
X411500Y755500D02*
D03*
X317000Y749250D02*
D03*
X364500Y300250D02*
D03*
X455000Y757500D02*
D03*
X620500Y756750D02*
D03*
X132500Y489500D02*
D03*
X72503Y605530D02*
D03*
X514500Y296000D02*
D03*
X698500Y714750D02*
D03*
Y533250D02*
D03*
Y369000D02*
D03*
X340250Y763000D02*
D03*
X132500Y624500D02*
D03*
X424750Y300250D02*
D03*
X530250Y757000D02*
D03*
X289750Y303000D02*
D03*
X334250Y301000D02*
D03*
X410000Y300000D02*
D03*
X619000Y301500D02*
D03*
X697500Y504000D02*
D03*
X545000Y757750D02*
D03*
X285500Y805750D02*
D03*
X289250Y755750D02*
D03*
X470750Y756500D02*
D03*
X72503Y578278D02*
D03*
X530250Y302750D02*
D03*
X698500Y398750D02*
D03*
X172000Y757750D02*
D03*
X132750Y444250D02*
D03*
X319250Y300750D02*
D03*
X515250Y302750D02*
D03*
X319500Y726250D02*
D03*
X201500Y756750D02*
D03*
X133000Y503750D02*
D03*
X132500Y458500D02*
D03*
X132250Y409750D02*
D03*
X68503Y707284D02*
D03*
X72503Y526026D02*
D03*
Y554027D02*
D03*
X289750Y37500D02*
D03*
X270000Y32750D02*
D03*
X283750Y27750D02*
D03*
X283250Y11000D02*
D03*
X356250Y22500D02*
D03*
X342500Y111000D02*
D03*
X355250Y142000D02*
D03*
X435000Y1022500D02*
D03*
X418750Y1023500D02*
D03*
X710000Y762000D02*
D03*
X180000Y976000D02*
D03*
X92750Y967500D02*
D03*
X127250Y847000D02*
D03*
X76250Y802500D02*
D03*
X810750Y376000D02*
D03*
X720000Y490000D02*
D03*
X719785Y439771D02*
D03*
X719750Y411250D02*
D03*
X713000Y355500D02*
D03*
X291500Y957000D02*
D03*
X293000Y875000D02*
D03*
X52500Y812500D02*
D03*
X181500Y854250D02*
D03*
X101500Y853500D02*
D03*
X142250Y952000D02*
D03*
X311000Y985500D02*
D03*
X297000Y982500D02*
D03*
X249250Y988250D02*
D03*
X488750Y211750D02*
D03*
X519250Y71250D02*
D03*
X438750Y84750D02*
D03*
X409750Y81250D02*
D03*
X405000Y85250D02*
D03*
X395000Y85500D02*
D03*
X240250Y16250D02*
D03*
X281250Y272750D02*
D03*
X322500Y105250D02*
D03*
X290000Y150750D02*
D03*
X286250Y183250D02*
D03*
X339000Y197750D02*
D03*
X354750Y179500D02*
D03*
X333250Y147000D02*
D03*
X333750Y137000D02*
D03*
X334000Y127000D02*
D03*
X286250Y222000D02*
D03*
X357500Y269000D02*
D03*
X389750Y270250D02*
D03*
X418750Y269750D02*
D03*
X434250Y270250D02*
D03*
X517000Y102000D02*
D03*
X518000Y86000D02*
D03*
X476500Y35250D02*
D03*
X461750Y35000D02*
D03*
X447000Y35250D02*
D03*
X432250Y34500D02*
D03*
X403000Y34250D02*
D03*
X373250Y34750D02*
D03*
X445250Y946750D02*
D03*
X428500Y830750D02*
D03*
X420770Y862292D02*
D03*
X414770Y863292D02*
D03*
X409750Y859750D02*
D03*
X404750Y863250D02*
D03*
X375875Y807000D02*
D03*
X375500Y775250D02*
D03*
X376500Y790845D02*
D03*
X375000Y823750D02*
D03*
X275250Y783500D02*
D03*
X531000Y796500D02*
D03*
X309750Y865500D02*
D03*
X15250Y954000D02*
D03*
X99250Y879750D02*
D03*
X88000Y935000D02*
D03*
X333500Y181500D02*
D03*
X311250Y116250D02*
D03*
X333500Y187500D02*
D03*
X311250Y122250D02*
D03*
X339847Y823500D02*
D03*
X295000Y1007250D02*
D03*
X344500Y992500D02*
D03*
X337750Y1015250D02*
D03*
X471000Y807250D02*
D03*
X454750Y823500D02*
D03*
X340250Y790750D02*
D03*
X340000Y807000D02*
D03*
X481500Y264500D02*
D03*
X491250Y182750D02*
D03*
X479500Y171500D02*
D03*
X472273Y156758D02*
D03*
X460750Y270500D02*
D03*
X409750Y224250D02*
D03*
X445000Y271500D02*
D03*
X545000Y212500D02*
D03*
X536000Y228250D02*
D03*
X527500Y242500D02*
D03*
X521000Y255750D02*
D03*
X403750Y229250D02*
D03*
X395000Y230500D02*
D03*
X382000Y232000D02*
D03*
X376250Y228000D02*
D03*
X257250Y233500D02*
D03*
X450000Y117250D02*
D03*
X257750Y100500D02*
D03*
X438000Y126500D02*
D03*
X275750Y101250D02*
D03*
X276000Y139750D02*
D03*
D136*
X605000Y895000D02*
X620000Y880000D01*
X605000Y895000D02*
Y945000D01*
X595000Y955000D02*
X605000Y945000D01*
X555000Y955000D02*
X595000D01*
X540000D02*
X555000D01*
X530000Y945000D02*
X540000Y955000D01*
X530000Y895000D02*
Y945000D01*
X515000Y880000D02*
X530000Y895000D01*
D137*
X0Y0D02*
Y1125000D01*
X840000D01*
Y0D02*
Y1125000D01*
X0Y0D02*
X840000D01*
D138*
X397001Y923329D02*
D03*
X404621D02*
D03*
X412241D02*
D03*
X419861D02*
D03*
X427481D02*
D03*
Y915709D02*
D03*
Y908089D02*
D03*
Y900469D02*
D03*
Y892849D02*
D03*
X419861D02*
D03*
X412241D02*
D03*
X404621D02*
D03*
X397001D02*
D03*
Y900469D02*
D03*
X404621D02*
D03*
X412241D02*
D03*
X419861D02*
D03*
Y908089D02*
D03*
Y915709D02*
D03*
X412241D02*
D03*
X404621D02*
D03*
X397001D02*
D03*
X389381D02*
D03*
Y923329D02*
D03*
Y930949D02*
D03*
X397001D02*
D03*
X404621D02*
D03*
X412241D02*
D03*
X419861D02*
D03*
X427481D02*
D03*
X435101D02*
D03*
Y923329D02*
D03*
Y915709D02*
D03*
Y908089D02*
D03*
Y900469D02*
D03*
Y892849D02*
D03*
Y885229D02*
D03*
X427481D02*
D03*
X419861D02*
D03*
X412241D02*
D03*
X404621D02*
D03*
X397001D02*
D03*
X389381D02*
D03*
Y892849D02*
D03*
Y900469D02*
D03*
Y908089D02*
D03*
X397001D02*
D03*
X404621D02*
D03*
X412241D02*
D03*
D139*
X520500Y908000D02*
D03*
Y887250D02*
D03*
X502500Y889750D02*
D03*
X832000Y308000D02*
D03*
X775000Y185000D02*
D03*
X570000Y130000D02*
D03*
X639500Y94250D02*
D03*
X650000Y15000D02*
D03*
X750000D02*
D03*
X570000Y785000D02*
D03*
X625000D02*
D03*
X675000D02*
D03*
X725000D02*
D03*
X780000D02*
D03*
X810000Y815000D02*
D03*
X750000D02*
D03*
X700000D02*
D03*
X650000D02*
D03*
X600000Y820000D02*
D03*
X455000Y1020000D02*
D03*
X505000D02*
D03*
X530000Y1095000D02*
D03*
Y1045000D02*
D03*
X550000Y1070000D02*
D03*
X575000Y1095000D02*
D03*
Y1045000D02*
D03*
X600000Y1070000D02*
D03*
X625000Y1095000D02*
D03*
X675000D02*
D03*
X725000D02*
D03*
X755000Y1070000D02*
D03*
X700000D02*
D03*
X650000D02*
D03*
X600000Y1020000D02*
D03*
X625000Y1045000D02*
D03*
X675000D02*
D03*
X725000D02*
D03*
X780000D02*
D03*
X810000Y1020000D02*
D03*
X755000D02*
D03*
X700000D02*
D03*
X650000D02*
D03*
X340000Y870000D02*
D03*
Y900000D02*
D03*
Y930000D02*
D03*
X345000Y960000D02*
D03*
X360000Y980000D02*
D03*
X625000Y995000D02*
D03*
X810000Y970000D02*
D03*
X755000D02*
D03*
X780000Y995000D02*
D03*
X725000D02*
D03*
X675000D02*
D03*
X650000Y970000D02*
D03*
X700000D02*
D03*
X725000Y945000D02*
D03*
X675000D02*
D03*
X460000Y845000D02*
D03*
X480000Y870000D02*
D03*
X510000Y845000D02*
D03*
X570000D02*
D03*
X625000D02*
D03*
X725000Y895000D02*
D03*
X675000D02*
D03*
X810000Y870000D02*
D03*
X780000Y845000D02*
D03*
X725000D02*
D03*
X675000D02*
D03*
X750000Y870000D02*
D03*
X700000D02*
D03*
X650000D02*
D03*
X600000D02*
D03*
X550000D02*
D03*
X761000Y910500D02*
D03*
X753000D02*
D03*
X743750D02*
D03*
X761000Y928486D02*
D03*
X752750Y928250D02*
D03*
X744000Y928486D02*
D03*
X767350Y933150D02*
D03*
X775100Y936150D02*
D03*
X783600Y935900D02*
D03*
X790750Y931250D02*
D03*
X795100Y923400D02*
D03*
Y914150D02*
D03*
X790100Y907150D02*
D03*
X783600Y902400D02*
D03*
X775100D02*
D03*
X767600Y905400D02*
D03*
X514000Y916500D02*
D03*
Y924750D02*
D03*
X518000Y932500D02*
D03*
X527250Y891250D02*
D03*
X611500Y917000D02*
D03*
X604500D02*
D03*
X604750Y899250D02*
D03*
X612750Y898750D02*
D03*
X620750D02*
D03*
X736000Y910500D02*
D03*
X726750D02*
D03*
X717250D02*
D03*
X708750D02*
D03*
X700250D02*
D03*
X691500D02*
D03*
X682500D02*
D03*
X735500Y928486D02*
D03*
X726750D02*
D03*
X717000D02*
D03*
X708750D02*
D03*
X700500D02*
D03*
X691250D02*
D03*
X682000D02*
D03*
X661750D02*
D03*
X672250D02*
D03*
X672968Y910500D02*
D03*
X662468D02*
D03*
X492500Y891250D02*
D03*
X466750Y906500D02*
D03*
X517500Y874750D02*
D03*
X466000Y941000D02*
D03*
X475250Y946500D02*
D03*
X472250Y931500D02*
D03*
X482750Y931250D02*
D03*
X477500Y904000D02*
D03*
X484750Y902750D02*
D03*
X616968Y934986D02*
D03*
X652218Y928486D02*
D03*
X641718D02*
D03*
X652468Y910500D02*
D03*
X642000D02*
D03*
M02*
