G04*
G04 #@! TF.GenerationSoftware,Altium Limited,Altium Designer,19.1.9 (167)*
G04*
G04 Layer_Color=8421504*
%FSLAX44Y44*%
%MOMM*%
G71*
G01*
G75*
%ADD18R,0.8128X0.9652*%
%ADD19R,0.6000X0.9000*%
%ADD20R,1.1000X1.2000*%
%ADD21R,6.1000X6.3000*%
%ADD22R,1.5000X2.8000*%
%ADD23R,0.9000X1.0000*%
%ADD24R,1.0000X0.9000*%
%ADD25R,0.6000X1.1000*%
%ADD26O,0.3000X1.5000*%
%ADD27R,0.3000X1.5000*%
%ADD28R,2.6000X1.0600*%
%ADD29R,5.7000X5.6320*%
%ADD30R,0.2500X0.7500*%
%ADD31R,0.7500X0.2500*%
%ADD32R,0.3000X0.3750*%
%ADD33R,0.3000X0.8500*%
%ADD34R,0.8500X0.3000*%
%ADD35R,0.3000X1.2000*%
%ADD36R,1.2000X0.3000*%
%ADD37R,1.6000X1.4000*%
%ADD38R,1.4000X1.6000*%
%ADD39R,0.9000X0.6000*%
%ADD40R,0.5588X0.5588*%
%ADD41R,0.5588X0.5588*%
G04:AMPARAMS|DCode=42|XSize=0.6mm|YSize=0.9mm|CornerRadius=0mm|HoleSize=0mm|Usage=FLASHONLY|Rotation=45.000|XOffset=0mm|YOffset=0mm|HoleType=Round|Shape=Rectangle|*
%AMROTATEDRECTD42*
4,1,4,0.1061,-0.5303,-0.5303,0.1061,-0.1061,0.5303,0.5303,-0.1061,0.1061,-0.5303,0.0*
%
%ADD42ROTATEDRECTD42*%

G04:AMPARAMS|DCode=43|XSize=0.6mm|YSize=0.9mm|CornerRadius=0mm|HoleSize=0mm|Usage=FLASHONLY|Rotation=135.000|XOffset=0mm|YOffset=0mm|HoleType=Round|Shape=Rectangle|*
%AMROTATEDRECTD43*
4,1,4,0.5303,0.1061,-0.1061,-0.5303,-0.5303,-0.1061,0.1061,0.5303,0.5303,0.1061,0.0*
%
%ADD43ROTATEDRECTD43*%

%ADD44R,0.9000X0.3500*%
%ADD45R,0.9652X0.8128*%
%ADD46R,1.4000X0.4000*%
%ADD47R,2.0000X2.0000*%
%ADD48R,2.0000X1.9000*%
G04:AMPARAMS|DCode=49|XSize=2.4mm|YSize=1.2mm|CornerRadius=0.3mm|HoleSize=0mm|Usage=FLASHONLY|Rotation=90.000|XOffset=0mm|YOffset=0mm|HoleType=Round|Shape=RoundedRectangle|*
%AMROUNDEDRECTD49*
21,1,2.4000,0.6000,0,0,90.0*
21,1,1.8000,1.2000,0,0,90.0*
1,1,0.6000,0.3000,0.9000*
1,1,0.6000,0.3000,-0.9000*
1,1,0.6000,-0.3000,-0.9000*
1,1,0.6000,-0.3000,0.9000*
%
%ADD49ROUNDEDRECTD49*%
G04:AMPARAMS|DCode=50|XSize=1.2mm|YSize=2.4mm|CornerRadius=0.3mm|HoleSize=0mm|Usage=FLASHONLY|Rotation=90.000|XOffset=0mm|YOffset=0mm|HoleType=Round|Shape=RoundedRectangle|*
%AMROUNDEDRECTD50*
21,1,1.2000,1.8000,0,0,90.0*
21,1,0.6000,2.4000,0,0,90.0*
1,1,0.6000,0.9000,0.3000*
1,1,0.6000,0.9000,-0.3000*
1,1,0.6000,-0.9000,-0.3000*
1,1,0.6000,-0.9000,0.3000*
%
%ADD50ROUNDEDRECTD50*%
%ADD51R,3.9000X2.5000*%
%ADD52R,4.8000X0.8100*%
%ADD53R,1.2000X1.1000*%
%ADD54R,2.6000X1.2000*%
%ADD55R,1.2000X2.6000*%
G36*
X518000Y906550D02*
X517100Y905650D01*
X508900D01*
X508000Y906550D01*
Y910750D01*
X518000D01*
Y906550D01*
D02*
G37*
G36*
X524500Y898100D02*
X521200D01*
Y901400D01*
X524500D01*
Y898100D01*
D02*
G37*
G36*
X504800D02*
X501500D01*
Y901400D01*
X504800D01*
Y898100D01*
D02*
G37*
G36*
X518000Y892950D02*
Y888750D01*
X508000D01*
Y892950D01*
X508900Y893850D01*
X517100D01*
X518000Y892950D01*
D02*
G37*
D18*
X561112Y995500D02*
D03*
X546888D02*
D03*
D19*
X634750Y763750D02*
D03*
X649750D02*
D03*
X149000Y967000D02*
D03*
X134000D02*
D03*
X119375Y812125D02*
D03*
X104375D02*
D03*
X85250Y856750D02*
D03*
X70250D02*
D03*
X62250Y961302D02*
D03*
X77250D02*
D03*
X136000Y832000D02*
D03*
X151000D02*
D03*
X70000Y892350D02*
D03*
X85000D02*
D03*
X70000Y907053D02*
D03*
X85000D02*
D03*
X61750Y946600D02*
D03*
X76750D02*
D03*
X333750Y775142D02*
D03*
X318750D02*
D03*
X334000Y790845D02*
D03*
X319000D02*
D03*
X333848Y807048D02*
D03*
X318848D02*
D03*
X333848Y823750D02*
D03*
X318848D02*
D03*
X346152Y775142D02*
D03*
X361152D02*
D03*
X346403Y790845D02*
D03*
X361403D02*
D03*
X346250Y807048D02*
D03*
X361250D02*
D03*
X346250Y823750D02*
D03*
X361250D02*
D03*
X547500Y806500D02*
D03*
X532500D02*
D03*
X406250Y775250D02*
D03*
X391250D02*
D03*
X406250Y791000D02*
D03*
X391250D02*
D03*
X406250Y807000D02*
D03*
X391250D02*
D03*
X774750Y375750D02*
D03*
X759750D02*
D03*
X406250Y823250D02*
D03*
X391250D02*
D03*
X532500Y821202D02*
D03*
X547500D02*
D03*
X274750Y775000D02*
D03*
X259750D02*
D03*
X737000Y209500D02*
D03*
X752000D02*
D03*
X765500Y209250D02*
D03*
X780500D02*
D03*
X512250Y183202D02*
D03*
X497250D02*
D03*
X511750Y71690D02*
D03*
X496750D02*
D03*
X511750Y86392D02*
D03*
X496750D02*
D03*
X497250Y212905D02*
D03*
X512250D02*
D03*
X512500Y257013D02*
D03*
X497500D02*
D03*
X512250Y242310D02*
D03*
X497250D02*
D03*
X512250Y227608D02*
D03*
X497250D02*
D03*
X512250Y198202D02*
D03*
X497250D02*
D03*
X496250Y101095D02*
D03*
X511250D02*
D03*
X267500Y165000D02*
D03*
X282500D02*
D03*
X446000Y13750D02*
D03*
X431000D02*
D03*
X803750Y375500D02*
D03*
X788750D02*
D03*
X672000Y246750D02*
D03*
X657000D02*
D03*
X514500Y164500D02*
D03*
X499500D02*
D03*
X508750Y121500D02*
D03*
X493750D02*
D03*
X290750Y26250D02*
D03*
X305750D02*
D03*
X291000Y11250D02*
D03*
X306000D02*
D03*
X282500Y150000D02*
D03*
X267500D02*
D03*
D20*
X594000Y762500D02*
D03*
X573000D02*
D03*
X228000Y822750D02*
D03*
X207000D02*
D03*
X228000Y845000D02*
D03*
X207000D02*
D03*
D21*
X615750Y219250D02*
D03*
D22*
X592890Y156750D02*
D03*
X638610D02*
D03*
D23*
X392111Y998025D02*
D03*
Y974025D02*
D03*
X410111D02*
D03*
Y998025D02*
D03*
D24*
X512500Y136750D02*
D03*
Y149000D02*
D03*
X496000Y136750D02*
D03*
Y149000D02*
D03*
D25*
X72500Y813250D02*
D03*
X82000D02*
D03*
X91500D02*
D03*
X72500Y839250D02*
D03*
X82000D02*
D03*
X91500D02*
D03*
D26*
X188000Y934250D02*
D03*
X181500D02*
D03*
X175000D02*
D03*
X168500D02*
D03*
X162000D02*
D03*
X155500D02*
D03*
X149000D02*
D03*
X142500D02*
D03*
X136000D02*
D03*
X129500D02*
D03*
X123000D02*
D03*
X116500D02*
D03*
X110000D02*
D03*
X103500D02*
D03*
X188000Y865250D02*
D03*
X181500D02*
D03*
X175000D02*
D03*
X168500D02*
D03*
X162000D02*
D03*
X155500D02*
D03*
X149000D02*
D03*
X142500D02*
D03*
X136000D02*
D03*
X129500D02*
D03*
X123000D02*
D03*
X116500D02*
D03*
X110000D02*
D03*
D27*
X103500D02*
D03*
D28*
X699250Y278860D02*
D03*
Y233140D02*
D03*
D29*
X764750Y256000D02*
D03*
D30*
X547500Y950750D02*
D03*
X552500D02*
D03*
X557500D02*
D03*
X562500D02*
D03*
X567500D02*
D03*
X572500D02*
D03*
X577500D02*
D03*
X582500D02*
D03*
X587500D02*
D03*
Y895750D02*
D03*
X582500D02*
D03*
X577500D02*
D03*
X572500D02*
D03*
X567500D02*
D03*
X562500D02*
D03*
X557500D02*
D03*
X552500D02*
D03*
X547500D02*
D03*
D31*
X595000Y943250D02*
D03*
Y938250D02*
D03*
Y933250D02*
D03*
Y928250D02*
D03*
Y923250D02*
D03*
Y918250D02*
D03*
Y913250D02*
D03*
Y908250D02*
D03*
Y903250D02*
D03*
X540000D02*
D03*
Y908250D02*
D03*
Y913250D02*
D03*
Y918250D02*
D03*
Y923250D02*
D03*
Y928250D02*
D03*
Y933250D02*
D03*
Y938250D02*
D03*
Y943250D02*
D03*
D32*
X567500Y873750D02*
D03*
Y879500D02*
D03*
X572500D02*
D03*
Y873751D02*
D03*
X577500Y876625D02*
D03*
D33*
X439741Y873589D02*
D03*
X434741D02*
D03*
X429741D02*
D03*
X424741D02*
D03*
X419741D02*
D03*
X414741D02*
D03*
X409741D02*
D03*
X404741D02*
D03*
X399741D02*
D03*
X394741D02*
D03*
X389741D02*
D03*
X384741D02*
D03*
Y942589D02*
D03*
X389741D02*
D03*
X394741D02*
D03*
X399741D02*
D03*
X404741D02*
D03*
X409741D02*
D03*
X414741D02*
D03*
X419741D02*
D03*
X424741D02*
D03*
X429741D02*
D03*
X434741D02*
D03*
X439741D02*
D03*
D34*
X377741Y880589D02*
D03*
Y885589D02*
D03*
Y890589D02*
D03*
Y895589D02*
D03*
Y900589D02*
D03*
Y905589D02*
D03*
Y910589D02*
D03*
Y915589D02*
D03*
Y920589D02*
D03*
Y925589D02*
D03*
Y930589D02*
D03*
Y935589D02*
D03*
X446741D02*
D03*
Y930589D02*
D03*
Y925589D02*
D03*
Y920589D02*
D03*
Y915589D02*
D03*
Y910589D02*
D03*
Y905589D02*
D03*
Y900589D02*
D03*
Y895589D02*
D03*
Y890589D02*
D03*
Y885589D02*
D03*
Y880589D02*
D03*
D35*
X365000Y95500D02*
D03*
X370000D02*
D03*
X375000D02*
D03*
X380000D02*
D03*
X385000D02*
D03*
X390000D02*
D03*
X395000D02*
D03*
X400000D02*
D03*
X405000D02*
D03*
X410000D02*
D03*
X415000D02*
D03*
X420000D02*
D03*
X425000D02*
D03*
X430000D02*
D03*
X435000D02*
D03*
X440000D02*
D03*
Y213500D02*
D03*
X435000D02*
D03*
X430000D02*
D03*
X425000D02*
D03*
X420000D02*
D03*
X415000D02*
D03*
X410000D02*
D03*
X405000D02*
D03*
X400000D02*
D03*
X395000D02*
D03*
X390000D02*
D03*
X385000D02*
D03*
X380000D02*
D03*
X375000D02*
D03*
X370000D02*
D03*
X365000D02*
D03*
D36*
X461500Y117000D02*
D03*
Y122000D02*
D03*
Y127000D02*
D03*
Y132000D02*
D03*
Y137000D02*
D03*
Y142000D02*
D03*
Y147000D02*
D03*
Y152000D02*
D03*
Y157000D02*
D03*
Y162000D02*
D03*
Y167000D02*
D03*
Y172000D02*
D03*
Y177000D02*
D03*
Y182000D02*
D03*
Y187000D02*
D03*
Y192000D02*
D03*
X343500D02*
D03*
Y187000D02*
D03*
Y182000D02*
D03*
Y177000D02*
D03*
Y172000D02*
D03*
Y167000D02*
D03*
Y162000D02*
D03*
Y157000D02*
D03*
Y152000D02*
D03*
Y147000D02*
D03*
Y142000D02*
D03*
Y137000D02*
D03*
Y132000D02*
D03*
Y127000D02*
D03*
Y122000D02*
D03*
Y117000D02*
D03*
D37*
X801250Y355500D02*
D03*
X729250D02*
D03*
X801250Y325500D02*
D03*
X729250D02*
D03*
D38*
X280250Y952500D02*
D03*
Y880500D02*
D03*
X310250Y952500D02*
D03*
Y880500D02*
D03*
D39*
X52250Y821250D02*
D03*
Y836250D02*
D03*
X117500Y977000D02*
D03*
Y992000D02*
D03*
X102797Y977000D02*
D03*
Y992000D02*
D03*
X248250Y998250D02*
D03*
Y1013250D02*
D03*
X279250Y995800D02*
D03*
Y1010800D02*
D03*
X310500Y996500D02*
D03*
Y1011500D02*
D03*
X105750Y825678D02*
D03*
Y840678D02*
D03*
X290000Y43750D02*
D03*
Y58750D02*
D03*
X402453Y41498D02*
D03*
Y56498D02*
D03*
X373047Y41498D02*
D03*
Y56498D02*
D03*
X347750Y23000D02*
D03*
Y38000D02*
D03*
X342125Y263250D02*
D03*
Y248250D02*
D03*
X417155Y56497D02*
D03*
Y41498D02*
D03*
X387750Y56497D02*
D03*
Y41498D02*
D03*
X333047Y38000D02*
D03*
Y23000D02*
D03*
X327422Y263250D02*
D03*
Y248250D02*
D03*
X356827Y263250D02*
D03*
Y248250D02*
D03*
X371530Y248250D02*
D03*
Y263250D02*
D03*
X400935Y263250D02*
D03*
Y248250D02*
D03*
X281250Y265000D02*
D03*
Y250000D02*
D03*
X240750Y25000D02*
D03*
Y40000D02*
D03*
X445042Y263250D02*
D03*
Y248250D02*
D03*
X474448Y263250D02*
D03*
Y248250D02*
D03*
X459745Y263250D02*
D03*
Y248250D02*
D03*
X490668Y56497D02*
D03*
Y41498D02*
D03*
X415637Y248250D02*
D03*
Y263250D02*
D03*
X430340Y248250D02*
D03*
Y263250D02*
D03*
X273250Y75250D02*
D03*
Y90250D02*
D03*
X704000Y354750D02*
D03*
Y339750D02*
D03*
X710000Y490000D02*
D03*
Y475000D02*
D03*
X92750Y946500D02*
D03*
Y961500D02*
D03*
X179750Y953750D02*
D03*
Y968750D02*
D03*
X710000Y411000D02*
D03*
Y426000D02*
D03*
Y442500D02*
D03*
Y457500D02*
D03*
X807750Y282000D02*
D03*
Y267000D02*
D03*
X386232Y263250D02*
D03*
Y248250D02*
D03*
X475965Y41498D02*
D03*
Y56498D02*
D03*
X461263Y41498D02*
D03*
Y56498D02*
D03*
X446560Y41498D02*
D03*
Y56498D02*
D03*
X431858Y41498D02*
D03*
Y56498D02*
D03*
X270250Y39500D02*
D03*
Y54500D02*
D03*
D40*
X631086Y930591D02*
D03*
X620418D02*
D03*
X620500Y908250D02*
D03*
X631168D02*
D03*
Y919420D02*
D03*
X620500D02*
D03*
X427250Y997500D02*
D03*
X437918D02*
D03*
X388491Y956339D02*
D03*
X399159D02*
D03*
X382750Y858500D02*
D03*
X393418D02*
D03*
X352621Y868828D02*
D03*
X363289D02*
D03*
X504325Y925089D02*
D03*
X493657D02*
D03*
X521750Y969750D02*
D03*
X532418D02*
D03*
X521750Y997000D02*
D03*
X532418D02*
D03*
X521666Y983250D02*
D03*
X532334D02*
D03*
D41*
X489500Y964166D02*
D03*
Y974834D02*
D03*
X475750Y964166D02*
D03*
Y974834D02*
D03*
X551250Y969000D02*
D03*
Y979668D02*
D03*
X363741Y904755D02*
D03*
Y915423D02*
D03*
X573337Y969000D02*
D03*
Y979668D02*
D03*
X427741Y968089D02*
D03*
Y957421D02*
D03*
X430779Y847950D02*
D03*
Y858618D02*
D03*
X438912Y968007D02*
D03*
Y957339D02*
D03*
X441950Y847950D02*
D03*
Y858618D02*
D03*
X493491Y913918D02*
D03*
Y903250D02*
D03*
X584507Y969000D02*
D03*
Y979668D02*
D03*
X562166Y969000D02*
D03*
Y979668D02*
D03*
D42*
X335000Y58931D02*
D03*
X345607Y69537D02*
D03*
X324749Y71037D02*
D03*
X314142Y60430D02*
D03*
X313053Y177230D02*
D03*
X302447Y166624D02*
D03*
X294374Y138374D02*
D03*
X304980Y148980D02*
D03*
X291947Y177124D02*
D03*
X302553Y187730D02*
D03*
X315230Y138383D02*
D03*
X304624Y127776D02*
D03*
D43*
X313053Y216624D02*
D03*
X302447Y227230D02*
D03*
X294374Y99980D02*
D03*
X304980Y89374D02*
D03*
X291647Y216670D02*
D03*
X302253Y206064D02*
D03*
X315230Y100374D02*
D03*
X304624Y110980D02*
D03*
D44*
X479241Y913839D02*
D03*
Y922339D02*
D03*
X462241Y913839D02*
D03*
Y922339D02*
D03*
D45*
X597710Y984724D02*
D03*
Y970500D02*
D03*
D46*
X41000Y909600D02*
D03*
Y903100D02*
D03*
Y896600D02*
D03*
Y890100D02*
D03*
Y883600D02*
D03*
D47*
X15500Y936600D02*
D03*
Y856600D02*
D03*
D48*
Y884600D02*
D03*
Y908600D02*
D03*
D49*
X290000Y319500D02*
D03*
X440000D02*
D03*
X605000D02*
D03*
X170000D02*
D03*
X215000D02*
D03*
X230000D02*
D03*
X275000D02*
D03*
X335000D02*
D03*
X320000D02*
D03*
X350000D02*
D03*
X380000D02*
D03*
X395000D02*
D03*
X410000D02*
D03*
X455000D02*
D03*
X500000D02*
D03*
X515000D02*
D03*
X560000D02*
D03*
X575000D02*
D03*
X620000D02*
D03*
X635000D02*
D03*
X185000D02*
D03*
X200000D02*
D03*
X245000D02*
D03*
X260000D02*
D03*
X305000D02*
D03*
X365000D02*
D03*
X425000D02*
D03*
X470000D02*
D03*
X485000D02*
D03*
X530000D02*
D03*
X545000D02*
D03*
X590000D02*
D03*
X650000D02*
D03*
X290000Y739500D02*
D03*
X170000D02*
D03*
X275000D02*
D03*
X215000D02*
D03*
X230000D02*
D03*
X335000D02*
D03*
X350000D02*
D03*
X410000D02*
D03*
X380000D02*
D03*
X455000D02*
D03*
X500000D02*
D03*
X620000D02*
D03*
X185000D02*
D03*
X200000D02*
D03*
X260000D02*
D03*
X305000D02*
D03*
X365000D02*
D03*
X425000D02*
D03*
X470000D02*
D03*
X485000D02*
D03*
X530000D02*
D03*
X545000D02*
D03*
D50*
X680000Y684500D02*
D03*
Y504500D02*
D03*
Y459500D02*
D03*
Y399500D02*
D03*
Y339500D02*
D03*
Y714500D02*
D03*
Y534500D02*
D03*
Y474500D02*
D03*
Y429500D02*
D03*
Y369500D02*
D03*
X150000Y549500D02*
D03*
Y699500D02*
D03*
Y684500D02*
D03*
Y669500D02*
D03*
Y624500D02*
D03*
Y609500D02*
D03*
Y579500D02*
D03*
Y564500D02*
D03*
Y519500D02*
D03*
Y504500D02*
D03*
Y399500D02*
D03*
Y444500D02*
D03*
Y459500D02*
D03*
Y339500D02*
D03*
Y354500D02*
D03*
Y714500D02*
D03*
Y654500D02*
D03*
Y534500D02*
D03*
Y489500D02*
D03*
Y429500D02*
D03*
Y414500D02*
D03*
Y369500D02*
D03*
D51*
X29300Y81850D02*
D03*
Y255250D02*
D03*
D52*
X228500Y234650D02*
D03*
Y102450D02*
D03*
Y120850D02*
D03*
Y216250D02*
D03*
Y204250D02*
D03*
Y194050D02*
D03*
Y183850D02*
D03*
Y132850D02*
D03*
Y143050D02*
D03*
Y153250D02*
D03*
Y163450D02*
D03*
Y173650D02*
D03*
D53*
X230750Y878500D02*
D03*
Y899500D02*
D03*
D54*
X813750Y245000D02*
D03*
Y219000D02*
D03*
X689500Y211750D02*
D03*
Y185750D02*
D03*
D55*
X653000Y271000D02*
D03*
X627000D02*
D03*
X638000Y125000D02*
D03*
X612000D02*
D03*
M02*
