M48
;Layer_Color=9474304
;FILE_FORMAT=4:4
METRIC,LZ
;TYPE=PLATED
T1F00S00C0.2000
T2F00S00C0.2500
T3F00S00C0.3000
T4F00S00C0.4500
T5F00S00C1.0200
T6F00S00C1.5000
T7F00S00C3.2000
T8F00S00C3.2500
%
T01
X0024025Y0001625
X0027Y0003275
X0028375Y0002775
X0028975Y000375
X0028325Y00011
X0032525Y00019
X0032775Y0004775
X00343Y0004975
X0035625Y000225
X0037325Y0003475
X00388Y0003375
X00403Y0003425
X0041425
X0043225Y000345
X00447Y0003525
X0046175Y00035
X004765Y0003525
X005Y0004175
X0051925Y0007125
X00518Y00086
X00517Y00102
X00509Y00113
X00523Y0013675
X0052325Y0016175
X004885Y0014625
X004715Y00137
X00472273Y00156758
X00453022Y00152007
X0045Y0011725
X00438Y001265
X0043875Y0008475
X0040975Y0008125
X00405Y0008525
X00395Y000855
X0036625Y00122
X00354Y00132
X0035525Y00142
X00354Y0015225
X0033325Y00147
X0033375Y00137
X00334Y00127
X003425Y00111
X003225Y0010525
X0031125Y0011625
Y0012225
X00304Y0013725
X0029925Y001545
X00297Y001615
X0029Y0015075
X00276Y0013975
X0027575Y0010125
X0025775Y001005
X0028275Y0007575
X0029875Y00083
X00262263Y00050753
X00439Y0005
X0013275Y0036875
X0013225Y0040975
X00132Y00426
X001225Y004345
X0013275Y0044425
X001325Y004585
Y004895
X00133Y0050375
X00072503Y00526026
Y00554027
X0025975Y0030325
X0027425Y00303
X0028975
X0030525
X0031925Y0030075
X0033425Y00301
X0035025Y003005
X003645Y0030025
X003805Y003
X0039475Y0030025
X0041Y003
X0042475Y0030025
X0044
X00445Y002715
X0043425Y0027025
X0041875Y0026975
X0038975Y0027025
X0037475Y002765
X003575Y00269
X0038225Y002415
X00382Y00232
X0037625Y00228
X00395Y002305
X0040375Y0022925
X0040975Y0022425
X0041477Y00237512
X00405Y0020375
X00339Y0019775
X003335Y001875
Y001815
X0035475Y001795
X003545Y00172
X0028625Y0018325
Y00222
X0030925Y00233
X0025725Y002335
X0028125Y0027275
X0046075Y002705
X004815Y002645
X00521Y0025575
X005275Y002425
X00536Y0022825
X0052Y0018125
X0049125Y0018275
X004795Y001715
X0045225Y00172
X0048875Y0021175
X0050025Y0030225
X0051525Y0030275
X005145Y00296
X005295Y0029025
X0053025Y0030275
X0054475Y0030225
X005595
X00543063Y00285312
X00545Y002125
X006055Y0030225
X00619Y003015
X00713Y003405
Y003555
X006985Y00369
Y0039875
X0071975Y0041125
X007195Y004305
X00719785Y00439771
X0071975Y004595
X0071925Y004775
X0072Y0049
X006975Y00504
X006985Y0053325
X007565Y003835
X0081075Y00376
X0080675Y0034525
X006975Y0068325
X006985Y0071475
X0071Y00762
X00662Y0076375
X006205Y0075675
X00564Y00747
X00545Y0075775
X0055325Y008205
X00531Y007965
X0053025Y00757
X0047075Y007565
X00455Y007575
X004285Y0076325
X004115Y007555
X0038625Y0075625
X0037175Y00755
X0035375Y0075825
X0034025Y00763
Y0079075
X0034Y00807
X00339847Y008235
X00375Y0082375
X00375875Y00807
X003765Y00790845
X003755Y0077525
X0030275Y0077275
X0028925Y0075575
X00317Y0074925
X003195Y0072625
X0026575Y007675
X0027525Y007835
X002855Y0080575
X0024875Y0082875
Y0084025
X002275Y0086575
X001815Y0085425
X0018575Y0075675
X00172Y0075775
X002015Y0075675
X002155Y00757
X0022975Y007565
X0024925Y00757
X00293Y00875
X0030975Y008655
X0040475Y0086325
X0040975Y0085975
X0041477Y00863292
X0042077Y00862292
X004285Y0083075
X0045475Y008235
X00471Y0080725
X0044525Y0094675
X002915Y00957
X00172Y0095425
X0014225Y00952
X0013575Y0094525
X000865Y009495
X00088Y00935
X00055Y0096125
X0001525Y00954
X0009925Y0087975
X001015Y008535
X00085754Y00847791
X0012725Y00847
X001195Y0082525
X000855Y008035
X0007625Y008025
X000525Y008125
X00068503Y00733536
Y00707284
X000685Y006565
X00072503Y0060553
Y00578278
X001325Y006095
Y006245
X00132Y0071375
X0009275Y009675
X0018Y00976
X0024925Y0098825
X00297Y009825
X00311Y009855
X00295Y0100725
X0033775Y0101525
X003445Y009925
X0041875Y010235
X00435Y010225
T02
X0065Y00015
X006395Y0009425
X0057Y0013
X0075Y00015
X00775Y00185
X00832Y00308
X0081Y00815
Y0087
X0078Y00845
X00725
Y00895
X0072675Y009105
X00736
X0074375
X00753
X00761
X007676Y009054
X007751Y009024
X007836
X007901Y0090715
X007951Y0091415
Y009234
X0079075Y0093125
X007836Y009359
X007751Y0093615
X0076735Y0093315
X00761Y00928486
X0075275Y0092825
X00744Y00928486
X007355
X0072675
X00717
X0070875
X007005
X0069125
X00682
X0067225
X0066175
X00652218
X00641718
X00642Y009105
X00652468
X00662468
X00672968
X006825
X006915
X0070025
X0070875
X0071725
X00725Y00945
X00675
Y00895
Y00845
X00625
X006Y0082
Y0087
Y00885
X0060475Y0089925
X0061275Y0089875
X0062075
X006115Y00917
X006045
X00616968Y00934986
X0065Y0087
X007
X0075
Y00815
X007
X0065
X00625Y00785
X00675
X00725
X0078
X0057
Y00845
X0055Y0087
X00535Y00885
X0053475Y0089375
X0052725Y0089125
X005205Y0088725
X005175Y0087475
X005025Y0088975
X004925Y0089125
X0048475Y0090275
X004775Y00904
X0046675Y009065
X0047225Y009315
X0048275Y0093125
X0047525Y009465
X00466Y00941
X00518Y009325
X00514Y0092475
Y009165
X005205Y00908
X0051Y00845
X0046
X0048Y0087
X0034
Y009
Y0093
X00345Y0096
X0036Y0098
X00455Y0102
X00505
X0053Y01045
Y01095
X0055Y0107
X00575Y01095
Y01045
X006Y0107
X00625Y01095
X00675
X00725
X007Y0107
X0065
X00625Y01045
X006Y0102
X0065
X00675Y01045
X00725
X007Y0102
X00725Y00995
X00675
X00625
X0065Y0097
X007
X00755
Y0102
Y0107
X0078Y01045
Y00995
X0081Y0102
Y0097
T03
X005495Y0090525
X005555
Y0091125
X005495
Y0091725
Y0092325
X005555
Y0091725
X005615
Y0092325
X005675
Y0091725
X005735
Y0092325
Y0092925
X005675
X005615
X005555
X005495
Y0093525
Y0094125
X005555
Y0093525
X005615
Y0094125
X005675
X005735
Y0093525
X005675
X005795
Y0094125
X005855
Y0093525
Y0092925
Y0092325
Y0091725
X005795
Y0092325
Y0092925
Y0091125
X005855
Y0090525
X005795
X005735
X005675
X005615
Y0091125
X005675
X005735
X00435101Y00908089
X00427481
Y00915709
Y00923329
X00419861
X00412241
X00404621
X00397001
Y00915709
X00404621
X00412241
X00419861
Y00908089
Y00900469
X00427481
Y00892849
X00419861
X00412241
X00404621
X00397001
Y00900469
X00404621
X00412241
Y00908089
X00404621
X00397001
X00389381
Y00915709
Y00923329
Y00930949
X00397001
X00404621
X00412241
X00419861
X00427481
X00435101
Y00923329
Y00915709
Y00900469
Y00892849
Y00885229
X00427481
X00419861
X00412241
X00404621
X00397001
X00389381
Y00892849
Y00900469
T04
X00604Y00113
X00586483Y00141017
X00576233Y00157267
X006165Y001505
X0045425Y0001375
X00315Y00025
X000615Y000825
X0002975Y0027725
X002645Y0020425
X0055975Y0017725
X0059575Y0019925
X0060575
Y0020925
X0061575
X0062575
Y0021925
Y0022925
X0063575
Y0021925
Y0020925
Y0019925
X0062575
X0061575
Y0021925
Y0022925
X0060575
X0059575
Y0021925
Y0020925
X0060575Y0021925
X006015Y002575
X0067Y00265
X0068475Y002495
X0068Y002335
X006605Y002185
X00723733Y00209267
X0074425Y00236
X0075425
X0076425
X0077425
Y00246
Y00256
X0076425
Y00266
Y00276
X0077425
Y00266
X0075425
X0074425
Y00276
X0075425
Y00256
X0074425
Y00246
X0075425
X0076425
X00805483Y00205017
X00807483Y00290267
X0069Y00305
X0072925Y0036925
X00698233Y00173517
X005048Y0091495
X0051375Y00955
X00421991Y00957089
X00405491Y00956089
X0036405Y009212
X00363241Y00899589
X00353241Y00864839
X0038075Y00853
X0039275Y008525
X00426771Y00856792
X0043645Y008487
X00252Y0094775
X000485Y0093825
Y0086875
X004275Y010035
X0049875Y0100425
X00547Y0100125
X00569491Y01019339
X0060425Y009895
T05
X005906Y000465
X00616
X006741Y000415
X006995
Y000669
X006741
X0068755Y00105
X0071295
X0073835
X0076375
Y001304
X0078915
X0081455
Y00105
X0078915
X0073835Y001304
X0071295
X0068755
X000325Y0031255
Y0033795
Y0036335
Y0038875
Y0041415
Y0043955
Y0046495
Y0049035
Y0051575
Y0054115
Y0056655
X00773Y0055295
X0077425Y0049565
Y0047025
Y0044485
Y0041945
X00773Y0057835
Y0060375
Y0062915
Y0065455
X007715Y0070875
Y0073415
X000325Y0074435
Y0071895
Y0069355
Y0066815
Y0064275
Y0061735
Y0059195
Y0076975
Y0079515
X001317Y0107275
X001571
X001825
X002079
X0025225Y0108415
X0027765
X0030305
X0032845
Y0105875
X0030305
X0027765
X0025225
X0035385
X0037925
X0040465
X0043005
Y0108415
X0045545
X0048085
Y0105875
X0045545
X0040465Y0108415
X0037925
X0035385
T06
X007532Y0089425
X007786Y0091965
X007532Y0094505
X00804
Y0089425
T07
X00805Y00035
X00035
Y0109
X00805
T08
X000293Y0010605
Y0023205
M30
