G04*
G04 #@! TF.GenerationSoftware,Altium Limited,Altium Designer,19.1.9 (167)*
G04*
G04 Layer_Physical_Order=1*
G04 Layer_Color=255*
%FSLAX44Y44*%
%MOMM*%
G71*
G01*
G75*
%ADD10C,0.5000*%
%ADD11C,0.2000*%
%ADD13C,0.5000*%
%ADD14R,0.6000X0.9000*%
%ADD15R,1.0000X0.9000*%
%ADD16R,1.8000X1.0000*%
%ADD17R,1.3500X0.3500*%
%ADD18R,0.3500X1.3500*%
%ADD19O,2.5000X0.7000*%
%ADD20R,2.5000X0.7000*%
%ADD21R,0.9000X0.6000*%
G04:AMPARAMS|DCode=22|XSize=0.6mm|YSize=0.9mm|CornerRadius=0mm|HoleSize=0mm|Usage=FLASHONLY|Rotation=45.000|XOffset=0mm|YOffset=0mm|HoleType=Round|Shape=Rectangle|*
%AMROTATEDRECTD22*
4,1,4,0.1061,-0.5303,-0.5303,0.1061,-0.1061,0.5303,0.5303,-0.1061,0.1061,-0.5303,0.0*
%
%ADD22ROTATEDRECTD22*%

%ADD24C,0.4000*%
%ADD25C,0.8000*%
%ADD26C,0.1300*%
%ADD27R,1.1000X1.1000*%
D10*
X113250Y32500D02*
X117500Y36750D01*
X103750Y32500D02*
X113250D01*
X20000Y5000D02*
X26750Y11750D01*
Y51500D01*
X89250Y32500D02*
X103750D01*
X89750Y22000D02*
X110000Y1750D01*
X89750Y22000D02*
Y32000D01*
X89250Y32500D02*
X89750Y32000D01*
X88048Y32500D02*
X89250D01*
X110000Y0D02*
Y1750D01*
X34750Y75750D02*
Y89250D01*
X26750Y67750D02*
X34750Y75750D01*
X26750Y51500D02*
Y67750D01*
D11*
X307500Y77750D02*
X311254Y81504D01*
X311515D01*
X48250Y359000D02*
Y381750D01*
X45750Y356500D02*
X48250Y359000D01*
Y381750D02*
X52750Y386250D01*
X19500Y356500D02*
X45750D01*
X52750Y386250D02*
X88907D01*
X16750Y359250D02*
X19500Y356500D01*
X16750Y359250D02*
Y364500D01*
X238500Y478000D02*
X238883Y477617D01*
Y476867D02*
Y477617D01*
Y476867D02*
X244000Y471750D01*
X245500D01*
X271513Y73504D02*
X275500Y69517D01*
Y69500D02*
Y69517D01*
X88907Y386250D02*
X89407Y385750D01*
X97500D01*
X311509Y65503D02*
X311515D01*
X307506Y61500D02*
X311509Y65503D01*
X307500Y61500D02*
X307506D01*
X211500Y124000D02*
X211883Y123617D01*
Y121415D02*
Y123617D01*
Y121415D02*
X215250Y118048D01*
Y116547D02*
Y118048D01*
X248250Y458250D02*
Y469750D01*
X246250Y471750D02*
X248250Y469750D01*
X245500Y471750D02*
X246250D01*
X245500Y455500D02*
X248250Y458250D01*
X245500Y447000D02*
Y455500D01*
X244750Y446250D02*
X245500Y447000D01*
X372750Y349500D02*
X374250D01*
X380750Y343000D01*
X214000Y75250D02*
X220504Y81754D01*
X221261D01*
X165250Y128700D02*
Y129750D01*
X162000Y121000D02*
Y126500D01*
X165250Y129750D01*
Y130520D01*
X208750Y132750D02*
X214750D01*
X215250Y132250D01*
X271504Y81504D02*
X271513D01*
X271500Y81500D02*
X275500Y85500D01*
X323500Y125500D02*
X327750Y129750D01*
Y130500D01*
X274500Y11250D02*
Y16000D01*
X274000Y16500D02*
X274500Y16000D01*
X274000Y16500D02*
Y17250D01*
X307500Y77500D02*
Y77750D01*
Y93500D02*
X311500Y97500D01*
X326500Y58500D02*
X326500D01*
X323500Y61500D02*
X326500Y58500D01*
X372250Y69000D02*
X376750Y73500D01*
X369250Y69000D02*
X372250D01*
X327952Y12298D02*
X328500Y11750D01*
X327952Y12298D02*
Y18000D01*
X311500Y11500D02*
X311750Y11250D01*
X311500Y11500D02*
Y17250D01*
X312250Y18000D01*
X259500Y11250D02*
Y16000D01*
X258250Y17250D02*
X259500Y16000D01*
X381500Y484250D02*
X391500D01*
X381250Y484500D02*
X381500Y484250D01*
X383250Y468487D02*
X391750D01*
X382215Y467453D02*
X383250Y468487D01*
X381250Y467453D02*
X382215D01*
X374000Y177250D02*
X376518Y179768D01*
Y181009D01*
X24848Y364500D02*
X25000Y364347D01*
X16750Y364500D02*
X24848D01*
X17000Y422750D02*
X24750D01*
X16875Y422625D02*
X17000Y422750D01*
X17250Y423000D01*
Y427500D01*
X21000Y431250D01*
X44750D01*
X47250Y428750D01*
Y405197D02*
Y428750D01*
Y405197D02*
X54947Y397500D01*
X94250D01*
X98000Y401250D01*
X51359Y314109D02*
X57609D01*
X58750Y315250D01*
X48000Y310750D02*
X51359Y314109D01*
X93000Y293250D02*
Y305750D01*
X84750Y285000D02*
X93000Y293250D01*
X59500Y280250D02*
X80000D01*
X54750D02*
X59500D01*
X58750Y287500D02*
X59500Y286750D01*
Y280250D02*
Y286750D01*
X58750Y287500D02*
X59250D01*
X80000Y280250D02*
X84750Y285000D01*
X48000Y287000D02*
X54750Y280250D01*
X48000Y287000D02*
Y310750D01*
Y330863D01*
X50750Y338500D02*
X77000D01*
X48000Y335750D02*
X50750Y338500D01*
X48000Y330863D02*
Y335750D01*
Y330863D02*
X59250D01*
X87750Y326020D02*
Y327750D01*
Y326020D02*
X91504Y322266D01*
X77000Y338500D02*
X87750Y327750D01*
X16750Y364500D02*
X16875Y364625D01*
Y422625D01*
X136250Y246844D02*
Y247250D01*
X135500Y246094D02*
X136250Y246844D01*
X135500Y238000D02*
Y246094D01*
X134750Y237250D02*
X135500Y238000D01*
X68500Y229750D02*
X69000D01*
X76000Y222750D01*
X54750Y229750D02*
X55037Y229463D01*
X55787D01*
X60250Y225000D01*
Y224250D02*
Y225000D01*
Y224250D02*
X61000Y223500D01*
Y222750D02*
Y223500D01*
X75250Y303000D02*
X78500Y306250D01*
X83750D01*
X91000Y481000D02*
X101500D01*
X107250Y486750D01*
X106595D02*
X107250D01*
X242000Y490250D02*
Y495000D01*
Y490250D02*
X245500Y486750D01*
X219141Y482359D02*
Y485109D01*
X217500Y486750D02*
X219141Y485109D01*
Y482359D02*
X222500Y479000D01*
X217405Y486750D02*
X217500D01*
X380750Y343000D02*
X381750D01*
X88500Y47952D02*
Y55500D01*
X88048Y47500D02*
X88500Y47952D01*
X103500Y55000D02*
X103750Y54750D01*
Y47500D02*
Y54750D01*
X41750Y51500D02*
X50500D01*
X43000Y69000D02*
X51000D01*
X41750Y67750D02*
X43000Y69000D01*
X373750Y177250D02*
X374000D01*
X388952Y176750D02*
X389453Y177250D01*
X376250Y176750D02*
X388952D01*
X85800Y74950D02*
X107802D01*
X166311Y115633D02*
Y127639D01*
X165250Y128700D02*
X166311Y127639D01*
Y115633D02*
X168944Y113000D01*
X173853D01*
D13*
X259500Y125500D02*
D03*
Y117500D02*
D03*
Y109500D02*
D03*
Y101500D02*
D03*
Y93500D02*
D03*
Y85500D02*
D03*
Y77500D02*
D03*
Y69500D02*
D03*
Y61500D02*
D03*
X267500Y125500D02*
D03*
Y117500D02*
D03*
Y109500D02*
D03*
Y101500D02*
D03*
Y93500D02*
D03*
Y85500D02*
D03*
Y77500D02*
D03*
Y69500D02*
D03*
Y61500D02*
D03*
X275500Y125500D02*
D03*
Y117500D02*
D03*
Y109500D02*
D03*
Y101500D02*
D03*
Y93500D02*
D03*
Y85500D02*
D03*
Y77500D02*
D03*
Y69500D02*
D03*
Y61500D02*
D03*
X307500Y125500D02*
D03*
Y117500D02*
D03*
Y109500D02*
D03*
Y101500D02*
D03*
Y93500D02*
D03*
Y85500D02*
D03*
Y77500D02*
D03*
Y69500D02*
D03*
Y61500D02*
D03*
X315500Y125500D02*
D03*
Y117500D02*
D03*
Y109500D02*
D03*
Y101500D02*
D03*
Y93500D02*
D03*
Y85500D02*
D03*
Y77500D02*
D03*
Y69500D02*
D03*
Y61500D02*
D03*
X323500Y125500D02*
D03*
Y117500D02*
D03*
Y109500D02*
D03*
Y101500D02*
D03*
Y93500D02*
D03*
Y85500D02*
D03*
Y77500D02*
D03*
Y69500D02*
D03*
Y61500D02*
D03*
D14*
X230250Y116547D02*
D03*
X215250D02*
D03*
X381250Y390155D02*
D03*
X366250D02*
D03*
X381750Y374453D02*
D03*
X366750D02*
D03*
X381750Y358750D02*
D03*
X366750D02*
D03*
X381750Y327298D02*
D03*
X366750D02*
D03*
X366750Y233082D02*
D03*
X381750D02*
D03*
X381750Y311595D02*
D03*
X366750D02*
D03*
X366750Y217380D02*
D03*
X381750D02*
D03*
X381750Y295892D02*
D03*
X366750D02*
D03*
X74250Y347453D02*
D03*
X59250D02*
D03*
X381750Y280190D02*
D03*
X366750D02*
D03*
X381750Y264487D02*
D03*
X366750D02*
D03*
X381750Y248785D02*
D03*
X366750D02*
D03*
X74250Y363155D02*
D03*
X59250D02*
D03*
X74250Y378858D02*
D03*
X59250D02*
D03*
X74250Y405500D02*
D03*
X59250D02*
D03*
X74250Y421750D02*
D03*
X59250D02*
D03*
X74250Y437500D02*
D03*
X59250D02*
D03*
X74250Y453500D02*
D03*
X59250D02*
D03*
X381500Y452965D02*
D03*
X366500D02*
D03*
X381500Y437263D02*
D03*
X366500D02*
D03*
X381500Y421560D02*
D03*
X366500D02*
D03*
X381250Y405858D02*
D03*
X366250D02*
D03*
X59250Y240047D02*
D03*
X74250D02*
D03*
X74250Y473453D02*
D03*
X59250D02*
D03*
X59250Y256000D02*
D03*
X74250D02*
D03*
X59250Y271798D02*
D03*
X74250D02*
D03*
X41750Y67750D02*
D03*
X26750D02*
D03*
X41750Y51500D02*
D03*
X26750D02*
D03*
X369250Y69000D02*
D03*
X354250D02*
D03*
X215250Y132250D02*
D03*
X230250D02*
D03*
X214000Y75250D02*
D03*
X229000D02*
D03*
X381500Y468750D02*
D03*
X366500D02*
D03*
X381250Y484500D02*
D03*
X366250D02*
D03*
X381750Y343000D02*
D03*
X366750D02*
D03*
X59250Y287500D02*
D03*
X74250D02*
D03*
X59250Y330863D02*
D03*
X74250D02*
D03*
X59250Y222750D02*
D03*
X74250D02*
D03*
X26750Y341750D02*
D03*
X41750D02*
D03*
X25000Y364347D02*
D03*
X40000D02*
D03*
X24750Y422750D02*
D03*
X39750D02*
D03*
D15*
X75250Y303000D02*
D03*
Y315250D02*
D03*
X58750Y303000D02*
D03*
Y315250D02*
D03*
D16*
X36250Y380250D02*
D03*
Y405250D02*
D03*
D17*
X112750Y429250D02*
D03*
Y424250D02*
D03*
Y419250D02*
D03*
Y414250D02*
D03*
Y409250D02*
D03*
Y404250D02*
D03*
Y399250D02*
D03*
Y394250D02*
D03*
Y389250D02*
D03*
Y384250D02*
D03*
Y379250D02*
D03*
Y374250D02*
D03*
Y369250D02*
D03*
Y364250D02*
D03*
Y359250D02*
D03*
Y354250D02*
D03*
Y349250D02*
D03*
Y344250D02*
D03*
Y339250D02*
D03*
Y334250D02*
D03*
Y329250D02*
D03*
Y324250D02*
D03*
Y319250D02*
D03*
Y314250D02*
D03*
Y309250D02*
D03*
Y304250D02*
D03*
Y299250D02*
D03*
Y294250D02*
D03*
Y289250D02*
D03*
Y284250D02*
D03*
Y279250D02*
D03*
Y274250D02*
D03*
Y269250D02*
D03*
Y264250D02*
D03*
Y259250D02*
D03*
Y254250D02*
D03*
X321750D02*
D03*
Y259250D02*
D03*
Y264250D02*
D03*
Y269250D02*
D03*
Y274250D02*
D03*
Y279250D02*
D03*
Y284250D02*
D03*
Y289250D02*
D03*
Y294250D02*
D03*
Y299250D02*
D03*
Y304250D02*
D03*
Y309250D02*
D03*
Y314250D02*
D03*
Y319250D02*
D03*
Y324250D02*
D03*
Y329250D02*
D03*
Y334250D02*
D03*
Y339250D02*
D03*
Y344250D02*
D03*
Y349250D02*
D03*
Y354250D02*
D03*
Y359250D02*
D03*
Y364250D02*
D03*
Y369250D02*
D03*
Y374250D02*
D03*
Y379250D02*
D03*
Y384250D02*
D03*
Y389250D02*
D03*
Y394250D02*
D03*
Y399250D02*
D03*
Y404250D02*
D03*
Y409250D02*
D03*
Y414250D02*
D03*
Y419250D02*
D03*
Y424250D02*
D03*
Y429250D02*
D03*
D18*
X129750Y237250D02*
D03*
X134750D02*
D03*
X139750D02*
D03*
X144750D02*
D03*
X149750D02*
D03*
X154750D02*
D03*
X159750D02*
D03*
X164750D02*
D03*
X169750D02*
D03*
X174750D02*
D03*
X179750D02*
D03*
X184750D02*
D03*
X189750D02*
D03*
X194750D02*
D03*
X199750D02*
D03*
X204750D02*
D03*
X209750D02*
D03*
X214750D02*
D03*
X219750D02*
D03*
X224750D02*
D03*
X229750D02*
D03*
X234750D02*
D03*
X239750D02*
D03*
X244750D02*
D03*
X249750D02*
D03*
X254750D02*
D03*
X259750D02*
D03*
X264750D02*
D03*
X269750D02*
D03*
X274750D02*
D03*
X279750D02*
D03*
X284750D02*
D03*
X289750D02*
D03*
X294750D02*
D03*
X299750D02*
D03*
X304750D02*
D03*
Y446250D02*
D03*
X299750D02*
D03*
X294750D02*
D03*
X289750D02*
D03*
X284750D02*
D03*
X279750D02*
D03*
X274750D02*
D03*
X269750D02*
D03*
X264750D02*
D03*
X259750D02*
D03*
X254750D02*
D03*
X249750D02*
D03*
X244750D02*
D03*
X239750D02*
D03*
X234750D02*
D03*
X229750D02*
D03*
X224750D02*
D03*
X219750D02*
D03*
X214750D02*
D03*
X209750D02*
D03*
X204750D02*
D03*
X199750D02*
D03*
X194750D02*
D03*
X189750D02*
D03*
X184750D02*
D03*
X179750D02*
D03*
X174750D02*
D03*
X169750D02*
D03*
X164750D02*
D03*
X159750D02*
D03*
X154750D02*
D03*
X149750D02*
D03*
X144750D02*
D03*
X139750D02*
D03*
X134750D02*
D03*
X129750D02*
D03*
D19*
X173853Y74900D02*
D03*
Y87600D02*
D03*
Y100300D02*
D03*
Y113000D02*
D03*
X107852Y74900D02*
D03*
Y87600D02*
D03*
Y100300D02*
D03*
D20*
Y113000D02*
D03*
D21*
X316250Y483000D02*
D03*
Y498000D02*
D03*
X331953Y498000D02*
D03*
Y483000D02*
D03*
X61500Y493000D02*
D03*
Y508000D02*
D03*
X77203Y508000D02*
D03*
Y493000D02*
D03*
X152203Y198750D02*
D03*
Y183750D02*
D03*
X136500Y198750D02*
D03*
Y183750D02*
D03*
X120798Y198750D02*
D03*
Y183750D02*
D03*
X89392Y198750D02*
D03*
Y183750D02*
D03*
X73690Y198750D02*
D03*
Y183750D02*
D03*
X357703Y192250D02*
D03*
Y177250D02*
D03*
X154500Y471750D02*
D03*
Y486750D02*
D03*
X170203Y471750D02*
D03*
Y486750D02*
D03*
X186000Y471750D02*
D03*
Y486750D02*
D03*
X269750Y486750D02*
D03*
Y471750D02*
D03*
X285452Y486750D02*
D03*
Y471750D02*
D03*
X201702Y486750D02*
D03*
Y471750D02*
D03*
X342000Y192250D02*
D03*
Y177250D02*
D03*
X326297Y198750D02*
D03*
Y183750D02*
D03*
X310595Y198750D02*
D03*
Y183750D02*
D03*
X294892Y198750D02*
D03*
Y183750D02*
D03*
X279190Y198750D02*
D03*
Y183750D02*
D03*
X263487Y198750D02*
D03*
Y183750D02*
D03*
X232082Y198750D02*
D03*
Y183750D02*
D03*
X216380Y198750D02*
D03*
Y183750D02*
D03*
X200677Y198750D02*
D03*
Y183750D02*
D03*
X57987Y198750D02*
D03*
Y183750D02*
D03*
X184250Y183500D02*
D03*
Y198500D02*
D03*
X122297Y471750D02*
D03*
Y486750D02*
D03*
X167905Y183500D02*
D03*
Y198500D02*
D03*
X138798Y471750D02*
D03*
Y486750D02*
D03*
X103750Y47500D02*
D03*
Y32500D02*
D03*
X88048Y47500D02*
D03*
Y32500D02*
D03*
X327952Y18000D02*
D03*
Y33000D02*
D03*
X312250Y18000D02*
D03*
Y33000D02*
D03*
X274000Y17250D02*
D03*
Y32250D02*
D03*
X258250Y17250D02*
D03*
Y32250D02*
D03*
X373750Y177250D02*
D03*
Y192250D02*
D03*
X106595Y486750D02*
D03*
Y471750D02*
D03*
X217405Y486750D02*
D03*
Y471750D02*
D03*
X245500Y486750D02*
D03*
Y471750D02*
D03*
X389453Y177250D02*
D03*
Y192250D02*
D03*
X247785Y183750D02*
D03*
Y198750D02*
D03*
X105095Y183750D02*
D03*
Y198750D02*
D03*
X42285Y183750D02*
D03*
Y198750D02*
D03*
D22*
X165250Y130520D02*
D03*
X175857Y141126D02*
D03*
D24*
X389250Y280500D02*
D03*
X306500Y336000D02*
D03*
X286750Y423500D02*
D03*
X311472Y121307D02*
D03*
X120506Y171758D02*
D03*
X197250Y176750D02*
D03*
X311515Y81504D02*
D03*
X116750Y479500D02*
D03*
X52441Y377750D02*
D03*
X271513Y73504D02*
D03*
X129860Y248116D02*
D03*
X99000Y302000D02*
D03*
X209750Y461500D02*
D03*
X243250Y461000D02*
D03*
X236511Y459022D02*
D03*
X231011Y457022D02*
D03*
X269500Y461000D02*
D03*
X258750Y461250D02*
D03*
X296250Y469000D02*
D03*
X158500Y258000D02*
D03*
X375750Y336000D02*
D03*
X372750Y349500D02*
D03*
X333016Y407770D02*
D03*
X372114Y429973D02*
D03*
X86750Y369500D02*
D03*
X94250Y379500D02*
D03*
X97500Y385750D02*
D03*
X138250Y329500D02*
D03*
X213750Y300750D02*
D03*
X178759Y279014D02*
D03*
X130000Y266500D02*
D03*
X43250Y156250D02*
D03*
X44000Y207250D02*
D03*
X92000Y228750D02*
D03*
X192000Y223500D02*
D03*
X319516Y121506D02*
D03*
X327516Y97255D02*
D03*
X319496Y113275D02*
D03*
X319516Y105505D02*
D03*
Y89504D02*
D03*
X319266Y81254D02*
D03*
Y73254D02*
D03*
X311515Y65503D02*
D03*
X221261Y81754D02*
D03*
X127825Y166850D02*
D03*
X101750Y164600D02*
D03*
X162000Y121000D02*
D03*
X211500Y124000D02*
D03*
X208750Y132750D02*
D03*
X271513Y65503D02*
D03*
X263513D02*
D03*
Y81504D02*
D03*
X271513D02*
D03*
Y97505D02*
D03*
X251000Y100500D02*
D03*
X271513Y105505D02*
D03*
X280500Y113500D02*
D03*
X263513Y121506D02*
D03*
X271278Y121500D02*
D03*
X263634Y113505D02*
D03*
X271500Y113500D02*
D03*
X327750Y130500D02*
D03*
X185750Y494000D02*
D03*
X262250Y481250D02*
D03*
X67250Y447250D02*
D03*
X274500Y11250D02*
D03*
X283000Y30750D02*
D03*
X246000Y29500D02*
D03*
X237000Y76250D02*
D03*
X287264Y65503D02*
D03*
X226000Y35250D02*
D03*
X336250Y37250D02*
D03*
X311500Y97500D02*
D03*
X237000Y141500D02*
D03*
X238500Y109250D02*
D03*
X304000Y34000D02*
D03*
X326500Y58500D02*
D03*
X391500Y240250D02*
D03*
X390500Y234500D02*
D03*
X391000Y228250D02*
D03*
X334000Y262250D02*
D03*
X389750Y253750D02*
D03*
X376750Y73500D02*
D03*
X345500Y69000D02*
D03*
X328500Y11750D02*
D03*
X311750Y11250D02*
D03*
X259500Y11250D02*
D03*
X280250Y89750D02*
D03*
X239250Y118250D02*
D03*
X271500Y141750D02*
D03*
X279499Y159750D02*
D03*
X307250Y141500D02*
D03*
X311500Y105500D02*
D03*
X309250Y160000D02*
D03*
X302250Y173500D02*
D03*
X151750Y342750D02*
D03*
X151500Y328250D02*
D03*
X55000Y406250D02*
D03*
X138250Y364500D02*
D03*
X52000Y420000D02*
D03*
X53250Y435250D02*
D03*
X55000Y360750D02*
D03*
X226000Y161500D02*
D03*
X271763Y129506D02*
D03*
X263750Y129250D02*
D03*
X170750Y493500D02*
D03*
X182000Y417250D02*
D03*
Y366250D02*
D03*
X270500Y170500D02*
D03*
X130750Y481250D02*
D03*
X328000Y105750D02*
D03*
X350750Y111250D02*
D03*
X389000Y387750D02*
D03*
X387750Y400750D02*
D03*
X388500Y423500D02*
D03*
X388750Y452750D02*
D03*
X391500Y484250D02*
D03*
X358500Y487500D02*
D03*
X391750Y468487D02*
D03*
X230000Y177250D02*
D03*
X263500Y89500D02*
D03*
X169250Y171500D02*
D03*
X254500Y114000D02*
D03*
X47500Y261000D02*
D03*
X151750Y175000D02*
D03*
X134750Y172250D02*
D03*
X302000Y111750D02*
D03*
X90500Y148250D02*
D03*
X75000Y151250D02*
D03*
X207250Y484750D02*
D03*
X281500Y104750D02*
D03*
X263453Y73563D02*
D03*
X263013Y456272D02*
D03*
X254250Y456000D02*
D03*
X279500Y484000D02*
D03*
X327250Y176500D02*
D03*
X272250Y54500D02*
D03*
X388250Y373750D02*
D03*
X388500Y357500D02*
D03*
X387750Y247000D02*
D03*
X388750Y264500D02*
D03*
X376518Y181009D02*
D03*
X327750Y73250D02*
D03*
X319250Y65250D02*
D03*
X378500Y274000D02*
D03*
X104250Y383750D02*
D03*
X17000Y422750D02*
D03*
X98000Y401250D02*
D03*
X93000Y305750D02*
D03*
X84750Y285000D02*
D03*
X48000Y310750D02*
D03*
Y335750D02*
D03*
X91504Y322266D02*
D03*
X87250Y382250D02*
D03*
X16750Y364500D02*
D03*
X136250Y247250D02*
D03*
X161000Y248250D02*
D03*
X114750Y214500D02*
D03*
X68500Y229750D02*
D03*
X54750D02*
D03*
X33500Y335750D02*
D03*
X91000Y481000D02*
D03*
X242000Y495000D02*
D03*
X222500Y479000D02*
D03*
X171000Y418250D02*
D03*
X158750Y497250D02*
D03*
X88500Y55500D02*
D03*
X103500Y55000D02*
D03*
X50500Y51500D02*
D03*
X51000Y69000D02*
D03*
X237500Y177250D02*
D03*
X43750Y175250D02*
D03*
X85000Y228000D02*
D03*
X112500Y191000D02*
D03*
X194500Y336250D02*
D03*
X115250Y241750D02*
D03*
X123750Y260500D02*
D03*
X127750Y283250D02*
D03*
X186250Y285500D02*
D03*
X208500Y292750D02*
D03*
X115250Y248750D02*
D03*
X149250D02*
D03*
Y254500D02*
D03*
X219250Y295000D02*
D03*
X381250Y186000D02*
D03*
X225250Y304750D02*
D03*
X389250Y287750D02*
D03*
X334000Y333000D02*
D03*
X332250Y269250D02*
D03*
X359250Y319750D02*
D03*
X372750Y382500D02*
D03*
X306750Y464250D02*
D03*
X238500Y478000D02*
D03*
X334250Y414500D02*
D03*
X331500Y364750D02*
D03*
X335250Y399000D02*
D03*
X331500Y394250D02*
D03*
X334750Y389250D02*
D03*
X331500Y384250D02*
D03*
X335000Y379500D02*
D03*
X331500Y374250D02*
D03*
X336000Y370000D02*
D03*
X332500Y435750D02*
D03*
X149250Y371000D02*
D03*
X316000Y505500D02*
D03*
X331750Y506000D02*
D03*
X301500Y466000D02*
D03*
X237000Y404500D02*
D03*
X234500Y464750D02*
D03*
X214500Y456500D02*
D03*
X205750Y456750D02*
D03*
X165000Y459250D02*
D03*
X150250Y459000D02*
D03*
X123000Y400000D02*
D03*
X144000Y424000D02*
D03*
X139000Y419250D02*
D03*
X133500Y414000D02*
D03*
X126750Y409250D02*
D03*
X87750Y339250D02*
D03*
X83250Y344250D02*
D03*
X93750Y333500D02*
D03*
X98750Y329250D02*
D03*
X83250Y430500D02*
D03*
X80250Y446750D02*
D03*
X84500Y415750D02*
D03*
X83250Y402000D02*
D03*
X131750Y354250D02*
D03*
X251500Y248500D02*
D03*
X300000Y320250D02*
D03*
X300500Y359500D02*
D03*
X77750Y514250D02*
D03*
X61250D02*
D03*
X245250Y212750D02*
D03*
X97250Y419000D02*
D03*
X21250Y334750D02*
D03*
X83750Y306250D02*
D03*
X226500Y471750D02*
D03*
X99000D02*
D03*
X197250Y434500D02*
D03*
X249500Y436000D02*
D03*
X85750Y75000D02*
D03*
X163871Y148313D02*
D03*
X374250Y289000D02*
D03*
X307000Y303250D02*
D03*
X138750Y167500D02*
D03*
X104000Y153100D02*
D03*
X103000Y146850D02*
D03*
X310500Y317750D02*
D03*
X299250Y312750D02*
D03*
X373750Y304000D02*
D03*
X299250Y368500D02*
D03*
X51726Y346726D02*
D03*
X38750Y474000D02*
D03*
D25*
X117500Y36750D02*
D03*
X34750Y89250D02*
D03*
D26*
X379580Y139000D02*
G03*
X377700Y137120I0J-1880D01*
G01*
X375580Y135000D02*
G03*
X377700Y137120I0J2120D01*
G01*
X372400D02*
G03*
X374520Y135000I2120J0D01*
G01*
X372400Y140880D02*
G03*
X370280Y143000I-2120J0D01*
G01*
X369220D02*
G03*
X367100Y140880I0J-2120D01*
G01*
X364980Y135000D02*
G03*
X367100Y137120I0J2120D01*
G01*
X361800D02*
G03*
X363920Y135000I2120J0D01*
G01*
X361800Y140880D02*
G03*
X359680Y143000I-2120J0D01*
G01*
X358620D02*
G03*
X356500Y140880I0J-2120D01*
G01*
X354380Y135000D02*
G03*
X356500Y137120I0J2120D01*
G01*
X351200D02*
G03*
X353320Y135000I2120J0D01*
G01*
X351200Y140880D02*
G03*
X349080Y143000I-2120J0D01*
G01*
X348020D02*
G03*
X345900Y140880I0J-2120D01*
G01*
X344020Y139000D02*
G03*
X345900Y140880I0J1880D01*
G01*
X317561Y164689D02*
G03*
X320220Y164689I1329J1329D01*
G01*
X323218D02*
G03*
X320220Y164689I-1499J-1499D01*
G01*
X323967Y160942D02*
G03*
X323967Y163940I-1499J1499D01*
G01*
X321309Y158283D02*
G03*
X321309Y155285I1499J-1499D01*
G01*
X322058Y154535D02*
G03*
X325056Y154535I1499J1499D01*
G01*
X330713Y157194D02*
G03*
X327715Y157194I-1499J-1499D01*
G01*
X331463Y153446D02*
G03*
X331463Y156444I-1499J1499D01*
G01*
X328804Y150787D02*
G03*
X328804Y147789I1499J-1499D01*
G01*
X329553Y147040D02*
G03*
X332551Y147040I1499J1499D01*
G01*
X338208Y149698D02*
G03*
X335210Y149698I-1499J-1499D01*
G01*
X338958Y145951D02*
G03*
X338958Y148949I-1499J1499D01*
G01*
X336299Y143292D02*
G03*
X336299Y140294I1499J-1499D01*
G01*
X337049Y139544D02*
G03*
X340047Y139544I1499J1499D01*
G01*
X342705Y139544D02*
G03*
X340047Y139544I-1329J-1329D01*
G01*
X371780Y160250D02*
G03*
X373900Y162370I0J2120D01*
G01*
X376020Y166250D02*
G03*
X373900Y164130I0J-2120D01*
G01*
X379200D02*
G03*
X377080Y166250I-2120J0D01*
G01*
X379200Y156370D02*
G03*
X381320Y154250I2120J0D01*
G01*
X382380D02*
G03*
X384500Y156370I0J2120D01*
G01*
X386620Y166250D02*
G03*
X384500Y164130I0J-2120D01*
G01*
X389800D02*
G03*
X387680Y166250I-2120J0D01*
G01*
X389800Y156370D02*
G03*
X391920Y154250I2120J0D01*
G01*
X392980D02*
G03*
X395100Y156370I0J2120D01*
G01*
X397220Y160250D02*
G03*
X395100Y158130I0J-2120D01*
G01*
X399880Y149750D02*
G03*
X402000Y151870I0J2120D01*
G01*
X398120Y149750D02*
G03*
X396000Y147630I0J-2120D01*
G01*
Y146570D02*
G03*
X398120Y144450I2120J0D01*
G01*
X408000Y142330D02*
G03*
X405880Y144450I-2120J0D01*
G01*
Y139150D02*
G03*
X408000Y141270I0J2120D01*
G01*
X398120Y139150D02*
G03*
X396000Y137030I0J-2120D01*
G01*
Y135970D02*
G03*
X398120Y133850I2120J0D01*
G01*
X408000Y131730D02*
G03*
X405880Y133850I-2120J0D01*
G01*
Y128550D02*
G03*
X408000Y130670I0J2120D01*
G01*
X398120Y128550D02*
G03*
X396000Y126430I0J-2120D01*
G01*
Y125370D02*
G03*
X398120Y123250I2120J0D01*
G01*
X408000Y121130D02*
G03*
X405880Y123250I-2120J0D01*
G01*
Y117950D02*
G03*
X408000Y120070I0J2120D01*
G01*
X398120Y117950D02*
G03*
X396000Y115830I0J-2120D01*
G01*
Y114770D02*
G03*
X398120Y112650I2120J0D01*
G01*
X402000Y110530D02*
G03*
X399880Y112650I-2120J0D01*
G01*
X384820Y119750D02*
G03*
X382700Y117630I0J-2120D01*
G01*
X380580Y113750D02*
G03*
X382700Y115870I0J2120D01*
G01*
X377400D02*
G03*
X379520Y113750I2120J0D01*
G01*
X377400Y123630D02*
G03*
X375280Y125750I-2120J0D01*
G01*
X374220D02*
G03*
X372100Y123630I0J-2120D01*
G01*
X369980Y113750D02*
G03*
X372100Y115870I0J2120D01*
G01*
X366800D02*
G03*
X368920Y113750I2120J0D01*
G01*
X366800Y123630D02*
G03*
X364680Y125750I-2120J0D01*
G01*
X363620D02*
G03*
X361500Y123630I0J-2120D01*
G01*
X359380Y113750D02*
G03*
X361500Y115870I0J2120D01*
G01*
X356200D02*
G03*
X358320Y113750I2120J0D01*
G01*
X356200Y123630D02*
G03*
X354080Y125750I-2120J0D01*
G01*
X353020D02*
G03*
X350900Y123630I0J-2120D01*
G01*
X348780Y119750D02*
G03*
X350900Y121870I0J2120D01*
G01*
X365850Y36120D02*
G03*
X364970Y37000I-880J0D01*
G01*
X365850Y36120D02*
G03*
X367970Y34000I2120J0D01*
G01*
X369030D02*
G03*
X371150Y36120I0J2120D01*
G01*
X373270Y40000D02*
G03*
X371150Y37880I0J-2120D01*
G01*
X376450D02*
G03*
X374330Y40000I-2120J0D01*
G01*
X376450Y36120D02*
G03*
X378570Y34000I2120J0D01*
G01*
X379630D02*
G03*
X381750Y36120I0J2120D01*
G01*
X383870Y40000D02*
G03*
X381750Y37880I0J-2120D01*
G01*
X387050D02*
G03*
X384930Y40000I-2120J0D01*
G01*
X387050Y36120D02*
G03*
X389170Y34000I2120J0D01*
G01*
X390230D02*
G03*
X392350Y36120I0J2120D01*
G01*
X393230Y37000D02*
G03*
X392350Y36120I0J-880D01*
G01*
X229550Y154380D02*
G03*
X230430Y153500I880J0D01*
G01*
X229550Y154380D02*
G03*
X227430Y156500I-2120J0D01*
G01*
X226370D02*
G03*
X224250Y154380I0J-2120D01*
G01*
X222130Y150500D02*
G03*
X224250Y152620I0J2120D01*
G01*
X218950D02*
G03*
X221070Y150500I2120J0D01*
G01*
X218950Y154380D02*
G03*
X216830Y156500I-2120J0D01*
G01*
X215770D02*
G03*
X213650Y154380I0J-2120D01*
G01*
X212770Y153500D02*
G03*
X213650Y154380I0J880D01*
G01*
X247320Y93500D02*
G03*
X245200Y91380I0J-2120D01*
G01*
X243080Y87800D02*
G03*
X245200Y89920I0J2120D01*
G01*
X239900D02*
G03*
X242020Y87800I2120J0D01*
G01*
X239900Y99380D02*
G03*
X237780Y101500I-2120J0D01*
G01*
X236720D02*
G03*
X234600Y99380I0J-2120D01*
G01*
X232480Y87800D02*
G03*
X234600Y89920I0J2120D01*
G01*
X229300D02*
G03*
X231420Y87800I2120J0D01*
G01*
X229300Y99380D02*
G03*
X227180Y101500I-2120J0D01*
G01*
X226120D02*
G03*
X224000Y99380I0J-2120D01*
G01*
X221880Y87800D02*
G03*
X224000Y89920I0J2120D01*
G01*
X218700D02*
G03*
X220820Y87800I2120J0D01*
G01*
X218700Y99380D02*
G03*
X216580Y101500I-2120J0D01*
G01*
X215520D02*
G03*
X213400Y99380I0J-2120D01*
G01*
X211280Y93500D02*
G03*
X213400Y95620I0J2120D01*
G01*
X209150Y45630D02*
G03*
X210030Y44750I880J0D01*
G01*
X209150Y45630D02*
G03*
X207030Y47750I-2120J0D01*
G01*
X205970D02*
G03*
X203850Y45630I0J-2120D01*
G01*
X201730Y41750D02*
G03*
X203850Y43870I0J2120D01*
G01*
X198550D02*
G03*
X200670Y41750I2120J0D01*
G01*
X198550Y45630D02*
G03*
X196430Y47750I-2120J0D01*
G01*
X195370D02*
G03*
X193250Y45630I0J-2120D01*
G01*
X191130Y41750D02*
G03*
X193250Y43870I0J2120D01*
G01*
X187950D02*
G03*
X190070Y41750I2120J0D01*
G01*
X187950Y45630D02*
G03*
X185830Y47750I-2120J0D01*
G01*
X184770D02*
G03*
X182650Y45630I0J-2120D01*
G01*
X181770Y44750D02*
G03*
X182650Y45630I0J880D01*
G01*
X166570Y34000D02*
G03*
X168450Y35880I0J1880D01*
G01*
X170570Y38000D02*
G03*
X168450Y35880I0J-2120D01*
G01*
X173750D02*
G03*
X171630Y38000I-2120J0D01*
G01*
X173750Y32120D02*
G03*
X175870Y30000I2120J0D01*
G01*
X176930D02*
G03*
X179050Y32120I0J2120D01*
G01*
X181170Y38000D02*
G03*
X179050Y35880I0J-2120D01*
G01*
X184350D02*
G03*
X182230Y38000I-2120J0D01*
G01*
X184350Y32120D02*
G03*
X186470Y30000I2120J0D01*
G01*
X187530D02*
G03*
X189650Y32120I0J2120D01*
G01*
X191770Y38000D02*
G03*
X189650Y35880I0J-2120D01*
G01*
X194950D02*
G03*
X192830Y38000I-2120J0D01*
G01*
X194950Y32120D02*
G03*
X197070Y30000I2120J0D01*
G01*
X198130D02*
G03*
X200250Y32120I0J2120D01*
G01*
X202370Y38000D02*
G03*
X200250Y35880I0J-2120D01*
G01*
X205550D02*
G03*
X203430Y38000I-2120J0D01*
G01*
X205550Y32120D02*
G03*
X207670Y30000I2120J0D01*
G01*
X208730D02*
G03*
X210850Y32120I0J2120D01*
G01*
X212730Y34000D02*
G03*
X210850Y32120I0J-1880D01*
G01*
X206430Y20750D02*
G03*
X204550Y18870I0J-1880D01*
G01*
X202430Y16750D02*
G03*
X204550Y18870I0J2120D01*
G01*
X199250D02*
G03*
X201370Y16750I2120J0D01*
G01*
X199250Y22630D02*
G03*
X197130Y24750I-2120J0D01*
G01*
X196070D02*
G03*
X193950Y22630I0J-2120D01*
G01*
X191830Y16750D02*
G03*
X193950Y18870I0J2120D01*
G01*
X188650D02*
G03*
X190770Y16750I2120J0D01*
G01*
X188650Y22630D02*
G03*
X186530Y24750I-2120J0D01*
G01*
X185470D02*
G03*
X183350Y22630I0J-2120D01*
G01*
X181230Y16750D02*
G03*
X183350Y18870I0J2120D01*
G01*
X178050D02*
G03*
X180170Y16750I2120J0D01*
G01*
X178050Y22630D02*
G03*
X175930Y24750I-2120J0D01*
G01*
X174870D02*
G03*
X172750Y22630I0J-2120D01*
G01*
X170630Y16750D02*
G03*
X172750Y18870I0J2120D01*
G01*
X167450D02*
G03*
X169570Y16750I2120J0D01*
G01*
X167450Y22630D02*
G03*
X165330Y24750I-2120J0D01*
G01*
X164270D02*
G03*
X162150Y22630I0J-2120D01*
G01*
X160270Y20750D02*
G03*
X162150Y22630I0J1880D01*
G01*
X67130Y126400D02*
G03*
X69250Y128520I0J2120D01*
G01*
X65370Y126400D02*
G03*
X63250Y124280I0J-2120D01*
G01*
Y123220D02*
G03*
X65370Y121100I2120J0D01*
G01*
X75250Y118980D02*
G03*
X73130Y121100I-2120J0D01*
G01*
Y115800D02*
G03*
X75250Y117920I0J2120D01*
G01*
X65370Y115800D02*
G03*
X63250Y113680I0J-2120D01*
G01*
Y112620D02*
G03*
X65370Y110500I2120J0D01*
G01*
X75250Y108380D02*
G03*
X73130Y110500I-2120J0D01*
G01*
Y105200D02*
G03*
X75250Y107320I0J2120D01*
G01*
X65370Y105200D02*
G03*
X63250Y103080I0J-2120D01*
G01*
Y102020D02*
G03*
X65370Y99900I2120J0D01*
G01*
X69250Y97780D02*
G03*
X67130Y99900I-2120J0D01*
G01*
X148250Y113620D02*
G03*
X147370Y114500I-880J0D01*
G01*
X145250Y116620D02*
G03*
X147370Y114500I2120J0D01*
G01*
Y119800D02*
G03*
X145250Y117680I0J-2120D01*
G01*
X149080Y119800D02*
G03*
X151201Y121920I0J2120D01*
G01*
Y122980D02*
G03*
X149080Y125100I-2120J0D01*
G01*
X145250Y127220D02*
G03*
X147370Y125100I2120J0D01*
G01*
Y130400D02*
G03*
X145250Y128280I0J-2120D01*
G01*
X149080Y130400D02*
G03*
X151201Y132520I0J2120D01*
G01*
Y133580D02*
G03*
X149080Y135700I-2120J0D01*
G01*
X148250Y136531D02*
G03*
X149080Y135700I830J0D01*
G01*
X15250Y282670D02*
G03*
X14370Y283550I-880J0D01*
G01*
X12250Y285670D02*
G03*
X14370Y283550I2120J0D01*
G01*
Y288850D02*
G03*
X12250Y286730I0J-2120D01*
G01*
X15831Y288850D02*
G03*
X17951Y290970I0J2120D01*
G01*
Y292030D02*
G03*
X15831Y294150I-2120J0D01*
G01*
X12250Y296270D02*
G03*
X14370Y294150I2120J0D01*
G01*
Y299450D02*
G03*
X12250Y297330I0J-2120D01*
G01*
X16130Y299450D02*
G03*
X18250Y301570I0J2120D01*
G01*
Y302630D02*
G03*
X16130Y304750I-2120J0D01*
G01*
X12250Y306870D02*
G03*
X14370Y304750I2120J0D01*
G01*
Y310050D02*
G03*
X12250Y307930I0J-2120D01*
G01*
X16130Y310050D02*
G03*
X18250Y312170I0J2120D01*
G01*
Y313230D02*
G03*
X16130Y315350I-2120J0D01*
G01*
X15250Y316230D02*
G03*
X16130Y315350I880J0D01*
G01*
X27630Y148900D02*
G03*
X26750Y148020I0J-880D01*
G01*
X27630Y148900D02*
G03*
X29750Y151020I0J2120D01*
G01*
Y152080D02*
G03*
X27630Y154200I-2120J0D01*
G01*
X23750Y156320D02*
G03*
X25870Y154200I2120J0D01*
G01*
Y159500D02*
G03*
X23750Y157380I0J-2120D01*
G01*
X27630Y159500D02*
G03*
X29750Y161620I0J2120D01*
G01*
Y162680D02*
G03*
X27630Y164800I-2120J0D01*
G01*
X23750Y166920D02*
G03*
X25870Y164800I2120J0D01*
G01*
Y170100D02*
G03*
X23750Y167980I0J-2120D01*
G01*
X27630Y170100D02*
G03*
X29750Y172220I0J2120D01*
G01*
Y173280D02*
G03*
X27630Y175400I-2120J0D01*
G01*
X23750Y177520D02*
G03*
X25870Y175400I2120J0D01*
G01*
Y180700D02*
G03*
X23750Y178580I0J-2120D01*
G01*
X27630Y180700D02*
G03*
X29750Y182820I0J2120D01*
G01*
Y183880D02*
G03*
X27630Y186000I-2120J0D01*
G01*
X23750Y188120D02*
G03*
X25870Y186000I2120J0D01*
G01*
Y191300D02*
G03*
X23750Y189180I0J-2120D01*
G01*
X27630Y191300D02*
G03*
X29750Y193420I0J2120D01*
G01*
Y194480D02*
G03*
X27630Y196600I-2120J0D01*
G01*
X23750Y198720D02*
G03*
X25870Y196600I2120J0D01*
G01*
Y201900D02*
G03*
X23750Y199780I0J-2120D01*
G01*
X27630Y201900D02*
G03*
X29750Y204020I0J2120D01*
G01*
Y205080D02*
G03*
X27630Y207200I-2120J0D01*
G01*
X23750Y209320D02*
G03*
X25870Y207200I2120J0D01*
G01*
Y212500D02*
G03*
X23750Y210380I0J-2120D01*
G01*
X27630Y212500D02*
G03*
X29750Y214620I0J2120D01*
G01*
Y215680D02*
G03*
X27630Y217800I-2120J0D01*
G01*
X23750Y219920D02*
G03*
X25870Y217800I2120J0D01*
G01*
Y223100D02*
G03*
X23750Y220980I0J-2120D01*
G01*
X27630Y223100D02*
G03*
X29750Y225220I0J2120D01*
G01*
Y226280D02*
G03*
X27630Y228400I-2120J0D01*
G01*
X23750Y230520D02*
G03*
X25870Y228400I2120J0D01*
G01*
Y233700D02*
G03*
X23750Y231580I0J-2120D01*
G01*
X27630Y233700D02*
G03*
X29750Y235820I0J2120D01*
G01*
Y236880D02*
G03*
X27630Y239000I-2120J0D01*
G01*
X23750Y241120D02*
G03*
X25870Y239000I2120J0D01*
G01*
Y244300D02*
G03*
X23750Y242180I0J-2120D01*
G01*
X27630Y244300D02*
G03*
X29750Y246420I0J2120D01*
G01*
Y247480D02*
G03*
X27630Y249600I-2120J0D01*
G01*
X26750Y250480D02*
G03*
X27630Y249600I880J0D01*
G01*
X219750Y455750D02*
X228750Y464750D01*
X234500D01*
X219750Y446250D02*
Y455750D01*
X224750Y436831D02*
Y446250D01*
Y436831D02*
X238081Y423500D01*
X389250Y280500D02*
X409900Y259850D01*
X415150D01*
X420000Y255000D01*
X238081Y423500D02*
X286750D01*
X348250Y119750D02*
X348780D01*
X344015Y114985D02*
X348250Y119750D01*
X344000Y115000D02*
X344015Y114985D01*
X344000Y105000D02*
Y115000D01*
Y105000D02*
X346750Y102250D01*
X355750D01*
X365250Y92750D01*
X378750D01*
X381250Y90250D01*
Y62250D02*
Y90250D01*
X371000Y106250D02*
X398250D01*
X367750Y103000D02*
X371000Y106250D01*
X367750Y99500D02*
Y103000D01*
Y99500D02*
X368750Y98500D01*
X387000Y58262D02*
Y85250D01*
X368750Y98500D02*
X403750D01*
X405750Y96500D01*
Y93250D02*
Y96500D01*
X403750Y91250D02*
X405750Y93250D01*
X393000Y91250D02*
X403750D01*
X387000Y85250D02*
X393000Y91250D01*
X312443Y121307D02*
X316000Y117750D01*
X311472Y121307D02*
X312443D01*
X120506Y171758D02*
X120798Y172050D01*
Y183750D01*
X315750Y117500D02*
X316000Y117750D01*
X315500Y117500D02*
X315750D01*
X263513Y81496D02*
Y81504D01*
Y81496D02*
X267500Y77508D01*
Y77500D02*
Y77508D01*
X197250Y176750D02*
Y181400D01*
X199600Y183750D01*
X200677D01*
X116750Y482703D02*
X120797Y486750D01*
X116750Y479500D02*
Y482703D01*
X113100Y471114D02*
Y490078D01*
Y471114D02*
X123714Y460500D01*
X129250D01*
X77203Y493000D02*
X110178D01*
X113100Y490078D01*
X52441Y377750D02*
X53381D01*
X56900Y381269D01*
X59250Y378919D01*
X279500Y77000D02*
X283000Y73500D01*
Y49500D02*
Y73500D01*
X276000Y77000D02*
X279500D01*
X129750Y237250D02*
Y248006D01*
X129860Y248116D01*
X99000Y302000D02*
Y304250D01*
X104000Y309250D01*
X209750Y446500D02*
Y461500D01*
Y446500D02*
X210000Y446250D01*
X214417Y471750D02*
X217405D01*
X195850Y453183D02*
X214417Y471750D01*
X372600Y339150D02*
X375750Y336000D01*
X369100Y339150D02*
X372600D01*
X366750Y341500D02*
X369100Y339150D01*
X239875Y456375D02*
X243250Y459750D01*
Y461000D01*
X234875Y457386D02*
X236511Y459022D01*
X234875Y447875D02*
Y457386D01*
X239875Y447875D02*
Y456375D01*
X229750Y446250D02*
Y455761D01*
X231011Y457022D01*
X269500Y446250D02*
X269500Y446250D01*
Y461000D01*
X258750Y447250D02*
Y461250D01*
X296250Y466000D02*
Y469000D01*
X285200Y454950D02*
X296250Y466000D01*
X158500Y256000D02*
X168650Y245850D01*
X158500Y256000D02*
Y258000D01*
X330450Y405295D02*
X332925Y407770D01*
X333016D01*
X372114Y429973D02*
X375710D01*
X112250Y339500D02*
X112750Y339000D01*
X99500Y328500D02*
X113500D01*
X86838Y364250D02*
X112750D01*
X74250Y376838D02*
X86838Y364250D01*
X74250Y376838D02*
Y378858D01*
X86750Y369500D02*
X112500D01*
X94375Y379375D02*
X112625D01*
X94250Y379500D02*
X94375Y379375D01*
X138250Y329500D02*
Y364500D01*
X254100Y308400D02*
X315250Y247250D01*
X223738Y308400D02*
X254100D01*
X216088Y300750D02*
X223738Y308400D01*
X213750Y300750D02*
X216088D01*
X174750Y275005D02*
X178759Y279014D01*
X130000Y259250D02*
Y266500D01*
X43250Y156250D02*
X43850D01*
X68425Y131675D01*
X44000Y200465D02*
Y207250D01*
X43250Y199715D02*
X44000Y200465D01*
X92000Y228750D02*
Y229942D01*
X103550Y241492D01*
X96250Y227250D02*
X138000D01*
X84750Y215750D02*
X96250Y227250D01*
X59285Y215750D02*
X84750D01*
X99450Y224950D02*
X147937D01*
X86750Y212250D02*
X99450Y224950D01*
X72987Y212250D02*
X86750D01*
X192000Y223500D02*
X198650Y230150D01*
X245868Y172000D02*
X257618Y183750D01*
X219500Y172000D02*
X245868D01*
X218250Y170750D02*
X219500Y172000D01*
X218250Y169500D02*
Y170750D01*
X205100Y99150D02*
X210750Y93500D01*
X241350Y145150D02*
X246750Y139750D01*
X218250Y169500D02*
X219750Y168000D01*
X253000D01*
X257000Y172000D01*
X261750Y165500D02*
X264250Y168000D01*
X210000Y165500D02*
X261750D01*
X206750Y162250D02*
X210000Y165500D01*
X319516Y121484D02*
X323500Y117500D01*
X319516Y121484D02*
Y121506D01*
X327005Y97255D02*
X327516D01*
X323500Y93750D02*
X327005Y97255D01*
X315630Y109500D02*
X319405Y113275D01*
X319496D01*
X319505Y105505D02*
X319516D01*
X315500Y101500D02*
X319505Y105505D01*
X315750Y85500D02*
X319516Y89266D01*
Y89504D01*
X319004Y81254D02*
X319266D01*
X315500Y77750D02*
X319004Y81254D01*
X319004Y73254D02*
X319266D01*
X315500Y69750D02*
X319004Y73254D01*
X337750Y48250D02*
Y70500D01*
X330750Y77500D02*
X337750Y70500D01*
X323500Y77500D02*
X330750D01*
X208750Y65750D02*
Y81250D01*
Y65750D02*
X212250Y62250D01*
X208750Y81250D02*
X213000Y85500D01*
X212250Y62250D02*
X238750D01*
X213000Y85500D02*
X259500D01*
X127825Y166850D02*
X131900D01*
X133500Y153100D02*
X148250Y138350D01*
X104000Y153100D02*
X133500D01*
X141650Y124878D02*
Y134100D01*
X128900Y146850D02*
X141650Y134100D01*
X103000Y146850D02*
X128900D01*
X101750Y164500D02*
Y164600D01*
Y164500D02*
X106750Y159500D01*
X133000D01*
X205100Y99150D02*
Y134262D01*
X215988Y145150D02*
X241350D01*
X205100Y134262D02*
X215988Y145150D01*
X271513Y65503D02*
Y66003D01*
X271350Y66167D02*
X271513Y66003D01*
X263247Y65503D02*
X263513D01*
X259500Y69250D02*
X263247Y65503D01*
X271255Y97505D02*
X271513D01*
X267500Y93750D02*
X271255Y97505D01*
X252500Y102000D02*
X258750D01*
X251000Y100500D02*
X252500Y102000D01*
X267629Y101500D02*
X271513Y105384D01*
Y105505D01*
X280000Y113500D02*
X280500D01*
X271278Y121500D02*
X271385D01*
X275385Y117500D01*
X263513Y120987D02*
Y121506D01*
Y120987D02*
X267000Y117500D01*
X267500Y109500D02*
X271500Y113500D01*
X398250Y106250D02*
X402000Y110000D01*
X294750Y167000D02*
X305000D01*
X293750Y166000D02*
X294750Y167000D01*
X293750Y163000D02*
Y166000D01*
Y163000D02*
X295500Y161250D01*
X300250D01*
X303000Y158500D01*
Y155750D02*
Y158500D01*
X309250Y153500D02*
Y160000D01*
Y153500D02*
X311500Y151250D01*
X320750D01*
X341000Y131000D01*
X382500D01*
X383750Y132250D01*
Y137000D01*
X381750Y139000D02*
X383750Y137000D01*
X379580Y139000D02*
X381750D01*
X374520Y135000D02*
X375580D01*
X372400Y137120D02*
Y139000D01*
Y140880D01*
X369220Y143000D02*
X370280D01*
X367100Y139000D02*
Y140880D01*
Y137120D02*
Y139000D01*
X363920Y135000D02*
X364980D01*
X361800Y137120D02*
Y139000D01*
Y140880D01*
X358620Y143000D02*
X359680D01*
X356500Y139000D02*
Y140880D01*
Y137120D02*
Y139000D01*
X353320Y135000D02*
X354380D01*
X351200Y137120D02*
Y139000D01*
Y140880D01*
X348020Y143000D02*
X349080D01*
X343250Y139000D02*
X344020D01*
X383750Y149500D02*
X390750Y142500D01*
X346345Y149500D02*
X383750D01*
X312095Y183750D02*
X346345Y149500D01*
X315250Y167000D02*
X317561Y164689D01*
X323218D02*
X323967Y163940D01*
X322638Y159612D02*
X323967Y160942D01*
X321309Y158283D02*
X322638Y159612D01*
X321309Y155285D02*
X322058Y154535D01*
X325056D02*
X326385Y155864D01*
X327715Y157194D01*
X330713D02*
X331463Y156444D01*
X330133Y152117D02*
X331463Y153446D01*
X328804Y150787D02*
X330133Y152117D01*
X328804Y147789D02*
X329553Y147040D01*
X332551D02*
X333881Y148369D01*
X335210Y149698D01*
X338208D02*
X338958Y148949D01*
X337629Y144621D02*
X338958Y145951D01*
X336299Y143292D02*
X337629Y144621D01*
X336299Y140294D02*
X337049Y139544D01*
X342706Y139544D02*
X343250Y139000D01*
X305000Y167000D02*
X315250D01*
X300750Y153500D02*
X303000Y155750D01*
X297500Y153500D02*
X300750D01*
X279190Y171810D02*
X297500Y153500D01*
X279190Y171810D02*
Y183750D01*
X264000Y89500D02*
X268000Y85500D01*
X390750Y121500D02*
Y142500D01*
X389000Y119750D02*
X390750Y121500D01*
X353750Y160250D02*
X369000D01*
X371780D01*
X373900Y162370D02*
Y164130D01*
X376020Y166250D02*
X377080D01*
X379200Y160250D02*
Y164130D01*
Y156370D02*
Y160250D01*
X381320Y154250D02*
X382380D01*
X384500Y156370D02*
Y160250D01*
Y164130D01*
X386620Y166250D02*
X387680D01*
X389800Y160250D02*
Y164130D01*
Y156370D02*
Y160250D01*
X391920Y154250D02*
X392980D01*
X395100Y156370D02*
Y158130D01*
X397220Y160250D02*
X397750D01*
X342000Y172000D02*
X353750Y160250D01*
X342000Y172000D02*
Y177250D01*
X397750Y160250D02*
X402000Y156000D01*
Y155050D02*
Y156000D01*
Y151870D02*
Y155050D01*
X398120Y149750D02*
X399880D01*
X396000Y146570D02*
Y147630D01*
X398120Y144450D02*
X402000D01*
X405880D01*
X408000Y141270D02*
Y142330D01*
X402000Y139150D02*
X405880D01*
X398120D02*
X402000D01*
X396000Y135970D02*
Y137030D01*
X398120Y133850D02*
X402000D01*
X405880D01*
X408000Y130670D02*
Y131730D01*
X402000Y128550D02*
X405880D01*
X398120D02*
X402000D01*
X396000Y125370D02*
Y126430D01*
X398120Y123250D02*
X402000D01*
X405880D01*
X408000Y120070D02*
Y121130D01*
X402000Y117950D02*
X405880D01*
X398120D02*
X402000D01*
X396000Y114770D02*
Y115830D01*
X398120Y112650D02*
X399880D01*
X402000Y110000D02*
Y110530D01*
X385500Y119750D02*
X389000D01*
X384820D02*
X385500D01*
X382700Y115870D02*
Y117630D01*
X379520Y113750D02*
X380580D01*
X377400Y115870D02*
Y119750D01*
Y123630D01*
X374220Y125750D02*
X375280D01*
X372100Y119750D02*
Y123630D01*
Y115870D02*
Y119750D01*
X368920Y113750D02*
X369980D01*
X366800Y115870D02*
Y119750D01*
Y123630D01*
X363620Y125750D02*
X364680D01*
X361500Y119750D02*
Y123630D01*
Y115870D02*
Y119750D01*
X358320Y113750D02*
X359380D01*
X356200Y115870D02*
Y119750D01*
Y123630D01*
X353020Y125750D02*
X354080D01*
X350900Y121870D02*
Y123630D01*
X378750Y59750D02*
X381250Y62250D01*
X356750Y59750D02*
X378750D01*
X353500Y56500D02*
X356750Y59750D01*
X353500Y51500D02*
Y56500D01*
Y51500D02*
X356500Y48500D01*
X395500D01*
X398000Y46000D01*
Y40000D02*
Y46000D01*
X387000Y58262D02*
X389762Y55500D01*
X405250D01*
X407750Y53000D01*
Y34000D02*
Y53000D01*
X310595Y183750D02*
X312095D01*
X401750Y28000D02*
X407750Y34000D01*
X358000Y28000D02*
X401750D01*
X337750Y48250D02*
X358000Y28000D01*
X395000Y37000D02*
X398000Y40000D01*
X358500Y37000D02*
X360000D01*
X360550D01*
X364970D01*
X367970Y34000D02*
X369030D01*
X371150Y36120D02*
Y37000D01*
Y37880D01*
X373270Y40000D02*
X374330D01*
X376450Y37000D02*
Y37880D01*
Y36120D02*
Y37000D01*
X378570Y34000D02*
X379630D01*
X381750Y36120D02*
Y37000D01*
Y37880D01*
X383870Y40000D02*
X384930D01*
X387050Y37000D02*
Y37880D01*
Y36120D02*
Y37000D01*
X389170Y34000D02*
X390230D01*
X393230Y37000D02*
X395000D01*
X340375Y55125D02*
X358500Y37000D01*
X340375Y55125D02*
Y77375D01*
X332250Y85500D02*
X340375Y77375D01*
X323500Y85500D02*
X332250D01*
X302000Y111750D02*
X307750Y117500D01*
X303750Y138250D02*
X315500Y126500D01*
X289500Y138250D02*
X303750D01*
X266250Y161500D02*
X289500Y138250D01*
X226000Y161500D02*
X266250D01*
X292750Y125500D02*
X307500D01*
X287500Y130750D02*
X292750Y125500D01*
X282500Y130750D02*
X287500D01*
X271500Y141750D02*
X282500Y130750D01*
X257000Y172000D02*
X263250D01*
X264250Y171000D01*
Y168000D02*
Y171000D01*
X246750Y139750D02*
X262250D01*
X266000Y143500D01*
Y153250D01*
X264000Y155250D02*
X266000Y153250D01*
X259750Y155250D02*
X264000D01*
X258250Y153750D02*
X259750Y155250D01*
X258250Y146500D02*
Y153750D01*
X257000Y145250D02*
X258250Y146500D01*
X247000Y145250D02*
X257000D01*
X242250Y150000D02*
X247000Y145250D01*
X242250Y150000D02*
Y153000D01*
X244500Y155250D01*
X246500D01*
X250500Y151250D01*
X252500D01*
X254750Y153500D01*
Y156250D01*
X252750Y158250D02*
X254750Y156250D01*
X241500Y158250D02*
X252750D01*
X236750Y153500D02*
X241500Y158250D01*
X236500Y153500D02*
X236750D01*
X234850D02*
X236500D01*
X230430D02*
X234850D01*
X226370Y156500D02*
X227430D01*
X224250Y153500D02*
Y154380D01*
Y152620D02*
Y153500D01*
X221070Y150500D02*
X222130D01*
X218950Y152620D02*
Y153500D01*
Y154380D01*
X215770Y156500D02*
X216830D01*
X211000Y153500D02*
X212770D01*
X206750Y157750D02*
X211000Y153500D01*
X206750Y157750D02*
Y162250D01*
X257618Y183750D02*
X263487D01*
X250250Y93500D02*
X259500D01*
X247320D02*
X250250D01*
X245200Y89920D02*
Y91380D01*
X242020Y87800D02*
X243080D01*
X239900Y89920D02*
Y93500D01*
Y99380D01*
X236720Y101500D02*
X237780D01*
X234600Y93500D02*
Y99380D01*
Y89920D02*
Y93500D01*
X231420Y87800D02*
X232480D01*
X229300Y89920D02*
Y93500D01*
Y99380D01*
X226120Y101500D02*
X227180D01*
X224000Y93500D02*
Y99380D01*
Y89920D02*
Y93500D01*
X220820Y87800D02*
X221880D01*
X218700Y89920D02*
Y93500D01*
Y99380D01*
X215520Y101500D02*
X216580D01*
X213400Y95620D02*
Y99380D01*
X210750Y93500D02*
X211280D01*
X216380Y176620D02*
Y183750D01*
X199750Y159991D02*
X216380Y176620D01*
X199750Y63750D02*
Y159991D01*
Y63750D02*
X205250Y58250D01*
X233500D01*
X235500Y56250D01*
Y50250D02*
Y56250D01*
X233250Y48000D02*
X235500Y50250D01*
X217000Y48000D02*
X233250D01*
X213750Y44750D02*
X217000Y48000D01*
X163250Y44750D02*
X180000D01*
X210030D02*
X213750D01*
X205970Y47750D02*
X207030D01*
X203850Y44750D02*
Y45630D01*
Y43870D02*
Y44750D01*
X200670Y41750D02*
X201730D01*
X198550Y43870D02*
Y44750D01*
Y45630D01*
X195370Y47750D02*
X196430D01*
X193250Y44750D02*
Y45630D01*
Y43870D02*
Y44750D01*
X190070Y41750D02*
X191130D01*
X187950Y43870D02*
Y44750D01*
Y45630D01*
X184770Y47750D02*
X185830D01*
X180000Y44750D02*
X181770D01*
X160750Y42250D02*
X163250Y44750D01*
X160750Y36750D02*
Y42250D01*
Y36750D02*
X163500Y34000D01*
X166250D01*
X238750Y62250D02*
X242500Y58500D01*
Y42500D02*
Y58500D01*
X240250Y40250D02*
X242500Y42500D01*
X219750Y40250D02*
X240250D01*
X213500Y34000D02*
X219750Y40250D01*
X166250Y34000D02*
X166570D01*
X170570Y38000D02*
X171630D01*
X173750Y34000D02*
Y35880D01*
Y32120D02*
Y34000D01*
X175870Y30000D02*
X176930D01*
X179050Y32120D02*
Y34000D01*
Y35880D01*
X181170Y38000D02*
X182230D01*
X184350Y34000D02*
Y35880D01*
Y32120D02*
Y34000D01*
X186470Y30000D02*
X187530D01*
X189650Y32120D02*
Y34000D01*
Y35880D01*
X191770Y38000D02*
X192830D01*
X194950Y34000D02*
Y35880D01*
Y32120D02*
Y34000D01*
X197070Y30000D02*
X198130D01*
X200250Y32120D02*
Y34000D01*
Y35880D01*
X202370Y38000D02*
X203430D01*
X205550Y34000D02*
Y35880D01*
Y32120D02*
Y34000D01*
X207670Y30000D02*
X208730D01*
X212730Y34000D02*
X213500D01*
X211500Y20750D02*
X226000Y35250D01*
X207500Y20750D02*
X211500D01*
X206430D02*
X207500D01*
X201370Y16750D02*
X202430D01*
X199250Y18870D02*
Y20750D01*
Y22630D01*
X196070Y24750D02*
X197130D01*
X193950Y20750D02*
Y22630D01*
Y18870D02*
Y20750D01*
X190770Y16750D02*
X191830D01*
X188650Y18870D02*
Y20750D01*
Y22630D01*
X185470Y24750D02*
X186530D01*
X183350Y20750D02*
Y22630D01*
Y18870D02*
Y20750D01*
X180170Y16750D02*
X181230D01*
X178050Y18870D02*
Y20750D01*
Y22630D01*
X174870Y24750D02*
X175930D01*
X172750Y20750D02*
Y22630D01*
Y18870D02*
Y20750D01*
X169570Y16750D02*
X170630D01*
X167450Y18870D02*
Y20750D01*
Y22630D01*
X164270Y24750D02*
X165330D01*
X159500Y20750D02*
X160270D01*
X151750Y28500D02*
X159500Y20750D01*
X151750Y28500D02*
Y49750D01*
X161250Y59250D01*
X189500D01*
X197000Y66750D01*
Y116750D01*
X184250Y129500D02*
X197000Y116750D01*
X184250Y129500D02*
Y183500D01*
X322750Y69500D02*
X324000D01*
X120797Y486750D02*
X122297D01*
X68425Y131675D02*
X69250Y130850D01*
Y128520D02*
Y130850D01*
X65370Y126400D02*
X67130D01*
X63250Y123220D02*
Y124280D01*
X65370Y121100D02*
X69250D01*
X73130D01*
X75250Y117920D02*
Y118980D01*
X69250Y115800D02*
X73130D01*
X65370D02*
X69250D01*
X63250Y112620D02*
Y113680D01*
X65370Y110500D02*
X69250D01*
X73130D01*
X75250Y107320D02*
Y108380D01*
X69250Y105200D02*
X73130D01*
X65370D02*
X69250D01*
X63250Y102020D02*
Y103080D01*
X65370Y99900D02*
X67130D01*
X69250Y97250D02*
Y97780D01*
Y97250D02*
X78900Y87600D01*
X107852D01*
Y100300D02*
X145300D01*
X148250Y103250D01*
Y110750D01*
Y113620D01*
X145250Y116620D02*
Y117680D01*
X147370Y119800D02*
X148250D01*
X149080D01*
X151201Y121920D02*
Y122980D01*
X148250Y125100D02*
X149080D01*
X147370D02*
X148250D01*
X145250Y127220D02*
Y128280D01*
X147370Y130400D02*
X148250D01*
X149080D01*
X151201Y132520D02*
Y133580D01*
X148250Y136531D02*
Y138350D01*
X185750Y488000D02*
Y494000D01*
Y488000D02*
X186500Y487250D01*
X262750Y481250D02*
X268250Y486750D01*
X262250Y481250D02*
X262750D01*
X66817Y447250D02*
X67250D01*
X64418Y449650D02*
X66817Y447250D01*
X61600Y449650D02*
X64418D01*
X59250Y452000D02*
X61600Y449650D01*
X59250Y452000D02*
Y453500D01*
X280750Y30750D02*
X283000D01*
X280500Y31000D02*
X280750Y30750D01*
X275250Y31000D02*
X280500D01*
X274000Y32250D02*
X275250Y31000D01*
X246000Y29500D02*
X248750Y32250D01*
X258250D01*
X279250Y50761D02*
Y57750D01*
X278488Y50000D02*
X279250Y50761D01*
X275500Y61500D02*
X279250Y57750D01*
X275000Y50000D02*
X278488D01*
X269750Y44750D02*
X275000Y50000D01*
X269750Y42250D02*
Y44750D01*
X259750Y32250D02*
X269750Y42250D01*
X258250Y32250D02*
X259750D01*
X275500Y77500D02*
X276000Y77000D01*
X277850Y44350D02*
X283000Y49500D01*
X277850Y34600D02*
Y44350D01*
X275500Y32250D02*
X277850Y34600D01*
X274000Y32250D02*
X275500D01*
X236000Y75250D02*
X237000Y76250D01*
X229000Y75250D02*
X236000D01*
X245150Y71400D02*
X255050Y61500D01*
X231350Y71400D02*
X245150D01*
X229000Y73750D02*
X231350Y71400D01*
X229000Y73750D02*
Y75250D01*
X255050Y61500D02*
X259500D01*
X307250Y109250D02*
Y109500D01*
X292250Y94250D02*
X307250Y109250D01*
X292250Y70489D02*
Y94250D01*
X287264Y65503D02*
X292250Y70489D01*
X307250Y109500D02*
X307500D01*
X327952Y33000D02*
X332202Y37250D01*
X336250D01*
X252750Y132250D02*
X259500Y125500D01*
X230250Y132250D02*
X252750D01*
X236579Y141079D02*
X237000Y141500D01*
X236579Y140079D02*
Y141079D01*
X230250Y133750D02*
X236579Y140079D01*
X230250Y132250D02*
Y133750D01*
X259629Y109500D02*
X263634Y113505D01*
X259500Y109500D02*
X259629D01*
X230250Y116250D02*
X232250Y118250D01*
X230399Y116399D02*
X237547Y109250D01*
X230250Y116547D02*
X230399Y116399D01*
X237547Y109250D02*
X238500D01*
X230250Y116250D02*
Y116547D01*
X304000Y34000D02*
X306250D01*
X307750Y32500D01*
X312211Y32962D02*
Y50038D01*
Y32962D02*
X312250Y33000D01*
X312000Y32750D02*
X312211Y32962D01*
X307750Y32500D02*
X308000Y32750D01*
X312000D01*
X404874Y218126D02*
Y226876D01*
X391500Y240250D02*
X404874Y226876D01*
X401500Y213500D02*
Y223500D01*
X390500Y234500D02*
X401500Y223500D01*
X397750Y211500D02*
Y221500D01*
X391000Y228250D02*
X397750Y221500D01*
X333405Y262250D02*
X334000D01*
X331404Y264250D02*
X333405Y262250D01*
X321750Y264250D02*
X331404D01*
X330450Y259250D02*
X352768Y236932D01*
X321750Y259250D02*
X330450D01*
X389750Y253750D02*
X408500Y235000D01*
X389750Y253750D02*
X389750D01*
X408500Y230500D02*
Y235000D01*
X404250Y311500D02*
X410900Y304850D01*
X415150D01*
X420000Y300000D01*
X404250Y311500D02*
Y364000D01*
X385750Y382500D02*
X404250Y364000D01*
X372750Y382500D02*
X385750D01*
X345500Y69000D02*
X346000Y69500D01*
X348000D01*
X348500Y69000D01*
X354250D01*
X301500Y58500D02*
Y63500D01*
X307500Y69500D01*
X301500Y58500D02*
X305250Y54750D01*
X321250D01*
X327952Y48047D01*
Y33000D02*
Y48047D01*
X310750Y51500D02*
X312211Y50038D01*
X302250Y51500D02*
X310750D01*
X298250Y55500D02*
X302250Y51500D01*
X298250Y55500D02*
Y76250D01*
X307500Y85500D01*
X279750Y89750D02*
X280250D01*
X276000Y93500D02*
X279750Y89750D01*
X275500Y93500D02*
X276000D01*
X232250Y118250D02*
X239250D01*
X315500Y109500D02*
X315630D01*
X59250Y378858D02*
Y378919D01*
X186000Y486750D02*
X186500Y487250D01*
X281997Y159750D02*
X298797Y142950D01*
X279499Y159750D02*
X281997D01*
X298797Y142950D02*
X305800D01*
X307250Y141500D01*
X307500Y101500D02*
X311500Y105500D01*
X307500Y101500D02*
X307500D01*
X296723Y173500D02*
X302250D01*
X294892Y175331D02*
X296723Y173500D01*
X294892Y175331D02*
Y183750D01*
X151625Y342625D02*
X151750Y342750D01*
X151625Y328375D02*
Y342625D01*
X151500Y328250D02*
X151625Y328375D01*
X55000Y406250D02*
X58500D01*
X59250Y405500D01*
X52550Y420000D02*
X54300Y421750D01*
X52000Y420000D02*
X52550D01*
X54300Y421750D02*
X59250D01*
X53250Y435250D02*
X57000D01*
X59250Y437500D01*
X55000Y360750D02*
X56900D01*
X59250Y363100D01*
Y363155D01*
X299750Y145250D02*
X320000D01*
X274500Y170500D02*
X299750Y145250D01*
X270500Y170500D02*
X274500D01*
X315500Y125500D02*
Y126500D01*
Y85500D02*
X315750D01*
X271763Y129372D02*
Y129506D01*
Y129372D02*
X275500Y125635D01*
Y125500D02*
Y125635D01*
X275385Y117500D02*
X275500D01*
X263750Y129250D02*
Y129250D01*
Y129250D02*
X267500Y125500D01*
X267000Y117500D02*
X267000Y117500D01*
X267500D01*
X170203Y486750D02*
X170750Y487298D01*
Y493500D01*
X182000Y366250D02*
Y417250D01*
X320000Y145250D02*
X332500Y132750D01*
Y104750D02*
Y132750D01*
X329250Y101500D02*
X332500Y104750D01*
X323500Y101500D02*
X329250D01*
X130750Y481250D02*
X131797D01*
X137297Y486750D01*
X138798D01*
X267500Y93500D02*
Y93750D01*
X327625Y105750D02*
X328000D01*
X323875Y109500D02*
X327625Y105750D01*
X323500Y109500D02*
X323875D01*
X386250Y387750D02*
X389000D01*
X384000Y390000D02*
X386250Y387750D01*
X381405Y390000D02*
X384000D01*
X381250Y390155D02*
X381405Y390000D01*
X387155Y400750D02*
X387750D01*
X385897Y402008D02*
X387155Y400750D01*
X383600Y402008D02*
X385897D01*
X381250Y404358D02*
X383600Y402008D01*
X381250Y404358D02*
Y405858D01*
X381500Y421560D02*
X383440Y423500D01*
X388500D01*
X381715Y452750D02*
X388750D01*
X381500Y452965D02*
X381715Y452750D01*
X347000Y450500D02*
X361400Y464900D01*
X364150D01*
X366500Y467250D01*
Y468750D01*
X347000Y437750D02*
Y450500D01*
X329600Y420350D02*
X347000Y437750D01*
X342250Y363750D02*
Y427215D01*
X366500Y451465D01*
Y452965D01*
X345750Y362247D02*
Y415013D01*
X366500Y435763D01*
Y437263D01*
X349250Y360917D02*
Y402810D01*
X366500Y420060D01*
Y421560D01*
X352000Y358667D02*
Y390108D01*
X366250Y404358D02*
Y405858D01*
X352000Y390108D02*
X366250Y404358D01*
X355000Y356500D02*
Y377405D01*
X366250Y388655D01*
Y390155D01*
X346000Y347500D02*
X355000Y356500D01*
X346000Y336750D02*
Y347500D01*
X333500Y324250D02*
X346000Y336750D01*
X321750Y324250D02*
X333500D01*
X357750Y354000D02*
Y371250D01*
X354300Y350550D02*
X357750Y354000D01*
X354300Y340050D02*
Y350550D01*
X324250Y441000D02*
X367000Y483750D01*
X324250Y430350D02*
Y441000D01*
X358500Y487500D02*
X368250D01*
X368750Y487000D01*
X339789Y478289D02*
Y490300D01*
X319250Y457750D02*
X339789Y478289D01*
X304250Y457750D02*
X319250D01*
X416850Y494075D02*
Y495000D01*
X342089Y476589D02*
Y489347D01*
X311750Y446250D02*
X342089Y476589D01*
X304750Y446250D02*
X311750D01*
X359489Y510000D02*
X420000D01*
X339789Y490300D02*
X359489Y510000D01*
X352892Y500150D02*
X394858D01*
X353845Y497850D02*
X393905D01*
X354797Y495550D02*
X392953D01*
X342089Y489347D02*
X352892Y500150D01*
X344389Y488394D02*
X353845Y497850D01*
X344389Y475055D02*
Y488394D01*
X283334Y414000D02*
X344389Y475055D01*
X346689Y487442D02*
X354797Y495550D01*
X346689Y474103D02*
Y487442D01*
X282836Y410250D02*
X346689Y474103D01*
X355750Y493250D02*
X392000D01*
X348989Y486489D02*
X355750Y493250D01*
X348989Y473150D02*
Y486489D01*
X306250Y430411D02*
X348989Y473150D01*
X204000Y414000D02*
X283334D01*
X202500Y410250D02*
X282836D01*
X306250Y417250D02*
Y430411D01*
X366250Y484500D02*
X368750Y487000D01*
X406750Y470250D02*
Y481753D01*
X392953Y495550D02*
X406750Y481753D01*
X411755Y480000D02*
X420000D01*
X393905Y497850D02*
X411755Y480000D01*
X402133Y492875D02*
X415650D01*
X394858Y500150D02*
X402133Y492875D01*
X401000Y457250D02*
Y484250D01*
X392000Y493250D02*
X401000Y484250D01*
X230000Y177250D02*
Y181668D01*
X232082Y183750D01*
X268000Y85500D02*
X268250Y85250D01*
X263500Y89500D02*
X264000D01*
X267500Y85500D02*
X268000D01*
X167905Y183500D02*
X169250Y182155D01*
Y171500D02*
Y182155D01*
X254500Y114000D02*
X258500Y118000D01*
X259250D01*
X259500Y117750D01*
Y117500D02*
Y117750D01*
X47500Y261000D02*
X48453D01*
X59250Y271798D01*
X258750Y102000D02*
X259250Y101500D01*
X259500D01*
X151750Y183298D02*
X152203Y183750D01*
X151750Y175000D02*
Y183298D01*
X134750Y182000D02*
X136500Y183750D01*
X134750Y172250D02*
Y182000D01*
X323500Y117500D02*
X323500D01*
X302000Y111750D02*
Y111750D01*
X89392Y183750D02*
X90500Y182642D01*
Y148250D02*
Y182642D01*
X307500Y117500D02*
X307750D01*
X75000Y151250D02*
Y182440D01*
X73690Y183750D02*
X75000Y182440D01*
X267500Y101500D02*
X267629D01*
X203703Y484750D02*
X207250D01*
X201702Y486750D02*
X203703Y484750D01*
X278250Y101500D02*
X281500Y104750D01*
X275500Y101500D02*
X278250D01*
X259383Y77633D02*
X259508Y77508D01*
X259250Y77500D02*
X259383Y77633D01*
X259508Y77508D02*
X263350Y73667D01*
X267500Y69375D02*
X267821Y69696D01*
X263350Y73667D02*
X263453Y73563D01*
X267821Y69696D02*
X271350Y66167D01*
X323500Y93500D02*
Y93750D01*
X254250Y456000D02*
X254500Y455750D01*
Y446375D02*
Y455750D01*
X268250Y486750D02*
X269750D01*
X259250Y77500D02*
X259500D01*
X279500Y484000D02*
X279900Y484400D01*
X283103D01*
X285452Y486750D01*
X267500Y68750D02*
Y69375D01*
X267500Y68750D02*
X267500Y68750D01*
X267500Y68750D02*
Y69500D01*
X326297Y178800D02*
X326829Y178269D01*
Y176921D02*
Y178269D01*
Y176921D02*
X327250Y176500D01*
X326297Y178800D02*
Y183750D01*
X315500Y77500D02*
Y77750D01*
X267500Y109500D02*
X267500D01*
X276000D02*
X280000Y113500D01*
X275500Y109500D02*
X276000D01*
X259500Y69250D02*
Y69500D01*
X271829Y54921D02*
X272250Y54500D01*
X271829Y54921D02*
Y57171D01*
X267500Y61500D02*
X271829Y57171D01*
X382453Y373750D02*
X388250D01*
X381750Y374453D02*
X382453Y373750D01*
X383000Y357500D02*
X388500D01*
X381750Y358750D02*
X383000Y357500D01*
X315500Y69500D02*
Y69750D01*
X383535Y247000D02*
X387750D01*
X381750Y248785D02*
X383535Y247000D01*
X388737Y264487D02*
X388750Y264500D01*
X381750Y264487D02*
X388737D01*
X324000Y69500D02*
X327750Y73250D01*
X322750Y69500D02*
X322750Y69500D01*
X323500D01*
X315500Y61500D02*
X319250Y65250D01*
Y65250D01*
X378500Y274000D02*
X381750Y277250D01*
Y280190D01*
X104750Y384250D02*
X112750D01*
X104250Y383750D02*
X104750Y384250D01*
X90750Y311000D02*
X96750D01*
X88250Y308500D02*
X90750Y311000D01*
X88250Y303000D02*
Y308500D01*
X74250Y289000D02*
X88250Y303000D01*
X100000Y314250D02*
X112750D01*
X96750Y311000D02*
X100000Y314250D01*
X74250Y287500D02*
Y289000D01*
X71900Y291350D02*
X74250Y289000D01*
X70900Y291350D02*
X71900D01*
X60250Y302000D02*
X70900Y291350D01*
X60000Y302000D02*
X60250D01*
X59000Y303000D02*
X60000Y302000D01*
X58750Y303000D02*
X59000D01*
X220230Y209030D02*
X239750Y228550D01*
X220230Y201100D02*
Y209030D01*
X239750Y228550D02*
Y237250D01*
X202177Y198750D02*
X233650Y230223D01*
X200677Y198750D02*
X202177D01*
X233650Y230223D02*
Y236150D01*
X204783Y206450D02*
X228650Y230317D01*
X193700Y206450D02*
X204783D01*
X228650Y230317D02*
Y236150D01*
X185750Y198500D02*
X193700Y206450D01*
X179655Y208750D02*
X202083D01*
X169405Y198500D02*
X179655Y208750D01*
X202083D02*
X223650Y230317D01*
X138000Y227250D02*
X139300Y228550D01*
X81909Y201100D02*
X103459Y222650D01*
X148889D01*
X90892Y198750D02*
X112492Y220350D01*
X149842D01*
X106595Y198750D02*
X125895Y218050D01*
X150795D01*
X122297Y198750D02*
X139298Y215750D01*
X151747D01*
X120798Y198750D02*
X122297D01*
X147937Y224950D02*
X147987Y225000D01*
X148334D01*
X148889Y222650D02*
X148939Y222700D01*
X161389D01*
X149842Y220350D02*
X149892Y220400D01*
X162342D01*
X150795Y218050D02*
X150845Y218100D01*
X163295D01*
X151747Y215750D02*
X151797Y215800D01*
X164247D01*
X139300Y228550D02*
Y236800D01*
X166203Y211250D02*
X199583D01*
X153703Y198750D02*
X166203Y211250D01*
X199583D02*
X218650Y230317D01*
X85250Y228000D02*
X101250Y244000D01*
X98000Y319250D02*
X112750D01*
X94000Y315250D02*
X98000Y319250D01*
X75250Y315250D02*
X94000D01*
X104000Y309250D02*
X106650D01*
X98750Y296083D02*
X106917Y304250D01*
X98750Y292750D02*
Y296083D01*
X77797Y271798D02*
X98750Y292750D01*
X106917Y304250D02*
X112750D01*
X75250Y271798D02*
X77797D01*
X104050Y293800D02*
X112301D01*
X93250Y283000D02*
X104050Y293800D01*
X93250Y275500D02*
Y283000D01*
X95953Y324250D02*
X112750D01*
X74250Y345952D02*
X95953Y324250D01*
X87250Y380942D02*
Y382250D01*
Y380942D02*
X93942Y374250D01*
X112750D01*
X112500Y369500D02*
X112750Y369250D01*
X40750Y363750D02*
Y379750D01*
X40250Y380250D02*
X40750Y379750D01*
X40153Y364347D02*
X40750Y363750D01*
X40000Y364347D02*
X40153D01*
X39750Y405750D02*
X51250Y394250D01*
X39750Y405750D02*
Y422750D01*
X38750Y474000D02*
X58703D01*
X159250Y237250D02*
Y244500D01*
X161000Y248250D02*
X164750Y244500D01*
Y237250D02*
Y244500D01*
X168650Y238350D02*
Y245850D01*
X289750Y237250D02*
Y243084D01*
X244084Y288750D02*
X289750Y243084D01*
X211733Y288750D02*
X244084D01*
X4350Y325650D02*
X7600D01*
X15250Y318000D01*
Y147250D02*
Y279750D01*
Y282670D01*
X12250Y285670D02*
Y286730D01*
X14370Y288850D02*
X15250D01*
X15831D01*
X17951Y290970D02*
Y292030D01*
X15250Y294150D02*
X15831D01*
X14370D02*
X15250D01*
X12250Y296270D02*
Y297330D01*
X14370Y299450D02*
X15250D01*
X16130D01*
X18250Y301570D02*
Y302630D01*
X15250Y304750D02*
X16130D01*
X14370D02*
X15250D01*
X12250Y306870D02*
Y307930D01*
X14370Y310050D02*
X15250D01*
X16130D01*
X18250Y312170D02*
Y313230D01*
X15250Y316230D02*
Y318000D01*
Y147250D02*
X16750Y145750D01*
X18750D01*
X20250Y147250D01*
Y291250D01*
X23000Y294000D01*
X33250D01*
X37250Y290000D01*
Y226750D02*
Y290000D01*
Y226750D02*
X38750Y225250D01*
X42000D01*
X43750Y227000D01*
Y249750D01*
X46250Y252250D01*
X57900D01*
X0Y270000D02*
X12500Y257500D01*
Y134500D02*
Y257500D01*
Y134500D02*
X14000Y133000D01*
X3150Y326850D02*
Y330000D01*
X49750Y238750D02*
X59202D01*
X48000Y237000D02*
X49750Y238750D01*
X48000Y224250D02*
Y237000D01*
X45000Y221250D02*
X48000Y224250D01*
X36000Y221250D02*
X45000D01*
X33250Y224000D02*
X36000Y221250D01*
X33250Y224000D02*
Y287750D01*
X31250Y289750D02*
X33250Y287750D01*
X28500Y289750D02*
X31250D01*
X26750Y288000D02*
X28500Y289750D01*
X26750Y252250D02*
Y288000D01*
Y135000D02*
Y143750D01*
Y148020D01*
X29750Y151020D02*
Y152080D01*
X26750Y154200D02*
X27630D01*
X25870D02*
X26750D01*
X23750Y156320D02*
Y157380D01*
X25870Y159500D02*
X26750D01*
X27630D01*
X29750Y161620D02*
Y162680D01*
X26750Y164800D02*
X27630D01*
X25870D02*
X26750D01*
X23750Y166920D02*
Y167980D01*
X25870Y170100D02*
X26750D01*
X27630D01*
X29750Y172220D02*
Y173280D01*
X26750Y175400D02*
X27630D01*
X25870D02*
X26750D01*
X23750Y177520D02*
Y178580D01*
X25870Y180700D02*
X26750D01*
X27630D01*
X29750Y182820D02*
Y183880D01*
X26750Y186000D02*
X27630D01*
X25870D02*
X26750D01*
X23750Y188120D02*
Y189180D01*
X25870Y191300D02*
X26750D01*
X27630D01*
X29750Y193420D02*
Y194480D01*
X26750Y196600D02*
X27630D01*
X25870D02*
X26750D01*
X23750Y198720D02*
Y199780D01*
X25870Y201900D02*
X26750D01*
X27630D01*
X29750Y204020D02*
Y205080D01*
X26750Y207200D02*
X27630D01*
X25870D02*
X26750D01*
X23750Y209320D02*
Y210380D01*
X25870Y212500D02*
X26750D01*
X27630D01*
X29750Y214620D02*
Y215680D01*
X26750Y217800D02*
X27630D01*
X25870D02*
X26750D01*
X23750Y219920D02*
Y220980D01*
X25870Y223100D02*
X26750D01*
X27630D01*
X29750Y225220D02*
Y226280D01*
X26750Y228400D02*
X27630D01*
X25870D02*
X26750D01*
X23750Y230520D02*
Y231580D01*
X25870Y233700D02*
X26750D01*
X27630D01*
X29750Y235820D02*
Y236880D01*
X26750Y239000D02*
X27630D01*
X25870D02*
X26750D01*
X23750Y241120D02*
Y242180D01*
X25870Y244300D02*
X26750D01*
X27630D01*
X29750Y246420D02*
Y247480D01*
X26750Y250480D02*
Y252250D01*
X24750Y133000D02*
X26750Y135000D01*
X14000Y133000D02*
X24750D01*
X3150Y45000D02*
Y48150D01*
X34500Y164000D02*
X36750Y166250D01*
X34500Y107500D02*
Y164000D01*
X13750Y86750D02*
X34500Y107500D01*
X57900Y252250D02*
X60250Y254600D01*
Y256000D01*
X59202Y238750D02*
X60500Y240047D01*
X105095Y204845D02*
X114750Y214500D01*
X105095Y198750D02*
Y204845D01*
X43250Y199715D02*
X59285Y215750D01*
X42285Y198750D02*
X43250Y199715D01*
X42500Y198750D02*
X43000Y199250D01*
X42285Y198750D02*
X42500D01*
X37250Y335750D02*
X39750Y338250D01*
X41250D01*
X33500Y335750D02*
X37250D01*
X41250Y338250D02*
X41750Y338750D01*
Y341750D01*
X299250Y502250D02*
X318750Y482750D01*
X171750Y502250D02*
X299250D01*
X162500Y493000D02*
X171750Y502250D01*
X154500Y493000D02*
X158750Y497250D01*
X154500Y486750D02*
Y493000D01*
X3150Y326850D02*
X4350Y325650D01*
X3150Y48150D02*
X13750Y58750D01*
Y86750D01*
X374000Y177250D02*
X375750D01*
X376250Y176750D01*
X85750Y75000D02*
X85800Y74950D01*
X237500Y177250D02*
X241650Y181400D01*
X245435D01*
X247785Y183750D01*
X113000Y398500D02*
X114500Y400000D01*
X174000Y237250D02*
X174750Y238000D01*
X106650Y308150D02*
Y309250D01*
X42285Y183750D02*
X43750Y182285D01*
Y175250D02*
Y182285D01*
X36750Y166250D02*
X48000D01*
X57987Y176237D01*
Y183750D01*
X387952Y192250D02*
Y198750D01*
X327158Y231150D02*
X356308Y202000D01*
X305850Y231150D02*
X327158D01*
X304750Y232250D02*
X305850Y231150D01*
X304750Y232250D02*
Y237250D01*
X406750Y185250D02*
X412000Y180000D01*
X416850D01*
X406750Y185250D02*
Y202500D01*
X397750Y211500D02*
X406750Y202500D01*
X416600Y194750D02*
X416850Y195000D01*
X413750Y194750D02*
X416600D01*
X411500Y197000D02*
X413750Y194750D01*
X411500Y197000D02*
Y203500D01*
X401500Y213500D02*
X411500Y203500D01*
X412800Y210250D02*
X413050Y210000D01*
X412750Y210250D02*
X412800D01*
X413050Y210000D02*
X416850D01*
X404874Y218126D02*
X412750Y210250D01*
X413750Y225250D02*
X416600D01*
X416850Y225000D01*
X408500Y230500D02*
X413750Y225250D01*
X407000Y270000D02*
X416850D01*
X389250Y287750D02*
X407000Y270000D01*
X416600Y299750D02*
X416850Y300000D01*
X408250Y450000D02*
X416850D01*
X401000Y457250D02*
X408250Y450000D01*
X412000Y465000D02*
X420000D01*
X406750Y470250D02*
X412000Y465000D01*
X415650Y492875D02*
X416850Y494075D01*
X234000Y447000D02*
X234875Y447875D01*
X107750Y309250D02*
X112750D01*
X106650Y308150D02*
X107750Y309250D01*
X103550Y241492D02*
Y267000D01*
X104700Y268150D01*
X108500D01*
X109600Y269250D01*
X112750D01*
X85000Y228000D02*
X85250D01*
X101250Y244000D02*
Y268583D01*
X105817Y273150D01*
X106900D01*
X108000Y274250D01*
X112750D01*
X42285Y183750D02*
X42285Y183750D01*
X112000Y191000D02*
X112500D01*
X105095Y184095D02*
X112000Y191000D01*
X105095Y183750D02*
Y184095D01*
X123750Y279250D02*
X127750Y283250D01*
X112750Y279250D02*
X123750D01*
X184750Y237250D02*
X184750Y237250D01*
X184500Y237000D02*
X184750Y237250D01*
X194500Y276000D02*
Y336250D01*
X184750Y266250D02*
X194500Y276000D01*
X184750Y237250D02*
Y266250D01*
X184750Y237250D02*
X184750D01*
X112750Y299250D02*
X129250D01*
X112000D02*
X112750D01*
X115250Y241750D02*
X117000D01*
X135500Y260250D01*
Y293000D01*
X129250Y299250D02*
X135500Y293000D01*
X112000Y299250D02*
X112000Y299250D01*
X61000Y508500D02*
X61250Y508750D01*
X127542Y256792D02*
X130000Y259250D01*
X121042Y256792D02*
X127542D01*
X119684Y258150D02*
X121042Y256792D01*
X113850Y258150D02*
X119684D01*
X112750Y259250D02*
X113850Y258150D01*
X122750Y260500D02*
X123750D01*
X119000Y264250D02*
X122750Y260500D01*
X122297Y470750D02*
X124797D01*
X322125Y314625D02*
X322850Y315350D01*
X115950Y264250D02*
X119000D01*
X114850Y263150D02*
X115950Y264250D01*
X186250Y279750D02*
Y285500D01*
X179250Y272750D02*
X186250Y279750D01*
X209233Y291250D02*
X211733Y288750D01*
X208500Y292750D02*
X209233Y291250D01*
X115250Y248750D02*
Y253150D01*
X114150Y254250D02*
X115250Y253150D01*
X112750Y254250D02*
X114150D01*
X112750Y259250D02*
X118584D01*
X113750Y264250D02*
X114850Y263150D01*
X112750Y264250D02*
X113750D01*
X149250Y237750D02*
Y248750D01*
Y237750D02*
X149750Y237250D01*
X149250Y254500D02*
X159250Y244500D01*
Y237250D02*
X159250Y237250D01*
X159750D01*
X168650Y238350D02*
X169750Y237250D01*
X174750Y238000D02*
Y275005D01*
X174000Y237250D02*
X174000Y237250D01*
X174750D01*
X179250Y241750D02*
Y272750D01*
Y241750D02*
X179750Y241250D01*
Y237250D02*
Y241250D01*
X219250Y295000D02*
X259497D01*
X312873Y241624D01*
X313750Y244750D02*
X323500D01*
X253750Y304750D02*
X313750Y244750D01*
X225250Y304750D02*
X253750D01*
X357703Y177250D02*
X359203D01*
X312873Y241624D02*
X321626D01*
X358250Y205000D01*
X391750D01*
X400000Y196750D01*
Y175750D02*
Y196750D01*
X395000Y170750D02*
X400000Y175750D01*
X365703Y170750D02*
X395000D01*
X359203Y177250D02*
X365703Y170750D01*
X356500Y177250D02*
X357703D01*
X323500Y244750D02*
X360000Y208250D01*
X325750Y247250D02*
X361770Y211230D01*
X315250Y247250D02*
X325750D01*
X331750Y498750D02*
X332500Y498000D01*
X106250Y471750D02*
X106423Y471577D01*
X41750Y343750D02*
X42250D01*
X356308Y202000D02*
X384703D01*
X354000Y199000D02*
X367000D01*
X333750Y219250D02*
X354000Y199000D01*
X311917Y219250D02*
X333750D01*
X355500Y192250D02*
X357703D01*
X331000Y216750D02*
X355500Y192250D01*
X309417Y216750D02*
X331000D01*
X300850Y230317D02*
X311917Y219250D01*
X295850Y230317D02*
X309417Y216750D01*
X340500Y193750D02*
Y196750D01*
X323250Y214000D02*
X340500Y196750D01*
X302167Y214000D02*
X323250D01*
X285850Y230317D02*
X302167Y214000D01*
X312798Y210750D02*
X324798Y198750D01*
X300417Y210750D02*
X312798D01*
X280850Y230317D02*
X300417Y210750D01*
X340500Y193750D02*
X342000Y192250D01*
X384703Y202000D02*
X387952Y198750D01*
X367000Y199000D02*
X373750Y192250D01*
X381250Y186000D02*
X381702D01*
X387952Y192250D01*
X360000Y208250D02*
X383500D01*
X389000Y213750D01*
Y224332D01*
X383250Y230082D02*
X389000Y224332D01*
X383250Y230082D02*
Y232250D01*
X382418Y233082D02*
X383250Y232250D01*
X381750Y233082D02*
X382418D01*
X361770Y211230D02*
X376730D01*
X379030Y213530D01*
X379400D01*
X381750Y215880D01*
Y216250D01*
X381750Y216250D02*
X381750Y216250D01*
X381750Y216250D02*
Y217380D01*
X112500Y409250D02*
X126750D01*
X321750Y329000D02*
X322200Y329450D01*
X330450D02*
X334000Y333000D01*
X322200Y329450D02*
X330450D01*
X332000Y269000D02*
X332250Y269250D01*
X324000Y269000D02*
X332000D01*
X359250Y319750D02*
X375703D01*
X381750Y325798D01*
X322250Y363250D02*
X323750Y364750D01*
X300850Y454350D02*
X304250Y457750D01*
X300850Y447350D02*
Y454350D01*
X299750Y446250D02*
X300850Y447350D01*
X294750Y453000D02*
X306000Y464250D01*
X306750D01*
X269500Y446250D02*
X269750D01*
X254500Y446375D02*
X254625Y446250D01*
X324295Y405295D02*
X330450D01*
X323250Y404250D02*
X324295Y405295D01*
X321750Y404250D02*
X323250D01*
X329000Y409250D02*
X334250Y414500D01*
X321750Y409250D02*
X329000D01*
X333850Y355350D02*
X342250Y363750D01*
X322850Y355350D02*
X333850D01*
X328853Y345350D02*
X345750Y362247D01*
X322600Y345350D02*
X328853D01*
X375710Y429973D02*
X381500Y435763D01*
X323750Y364750D02*
X331500D01*
X321750Y363750D02*
X322250Y363250D01*
X328684Y340350D02*
X349250Y360917D01*
X334600Y320350D02*
X354300Y340050D01*
X328684Y335350D02*
X352000Y358667D01*
X322850Y340350D02*
X328684D01*
X321500Y344250D02*
X322600Y345350D01*
X358000Y348500D02*
X366750Y357250D01*
X358000Y338000D02*
Y348500D01*
X335350Y315350D02*
X358000Y338000D01*
X323750Y269250D02*
X324000Y269000D01*
X321750Y269250D02*
X323750D01*
X335000Y399250D02*
X335250Y399000D01*
X321750Y399250D02*
X335000D01*
X331500Y394250D02*
X331500Y394250D01*
X321750Y394250D02*
X331500D01*
X323500Y389250D02*
X334750D01*
X323500Y389250D02*
X323500Y389250D01*
X321750Y389250D02*
X323500D01*
X331500Y384250D02*
X331500Y384250D01*
X321750Y384250D02*
X331500D01*
X321750Y384250D02*
X321750Y384250D01*
X323000Y379500D02*
X335000D01*
X322750Y379250D02*
X323000Y379500D01*
X321750Y379250D02*
X322750D01*
X331500Y374250D02*
X331500Y374250D01*
X321750Y374250D02*
X331500D01*
X321750Y374250D02*
X321750Y374250D01*
X322750Y370000D02*
X336000D01*
X322000Y369250D02*
X322750Y370000D01*
X321750Y369250D02*
X322000D01*
X321750Y363750D02*
Y364250D01*
X306250Y417250D02*
X309250Y414250D01*
X321750D01*
X332500Y427500D02*
Y435750D01*
X330350Y425350D02*
X332500Y427500D01*
X322850Y425350D02*
X330350D01*
X321750Y424250D02*
X322850Y425350D01*
X321750Y414250D02*
Y415000D01*
X144750Y366500D02*
X149250Y371000D01*
X144750Y237250D02*
Y366500D01*
X316000Y498250D02*
Y505500D01*
Y498250D02*
X316250Y498000D01*
X331750Y498750D02*
Y506000D01*
X294750Y446250D02*
Y453000D01*
X289750Y454250D02*
X301500Y466000D01*
X289750Y446250D02*
Y454250D01*
X285200Y446700D02*
Y454950D01*
X284750Y446250D02*
X285200Y446700D01*
X263740Y452090D02*
Y454950D01*
X263650Y452000D02*
X263740Y452090D01*
X263650Y452000D02*
X264750Y450900D01*
Y446250D02*
Y450900D01*
X239875Y447875D02*
X240250Y447500D01*
X239750Y447000D02*
X240250Y447500D01*
X239750Y446250D02*
Y447000D01*
X234000Y447000D02*
X234750Y446250D01*
X237000Y404250D02*
X248750Y392500D01*
X237000Y404250D02*
Y404500D01*
X292000Y349250D02*
X321750D01*
X248750Y392500D02*
X292000Y349250D01*
X230250Y446250D02*
X230250Y446250D01*
X229750Y446250D02*
X230250D01*
X214500Y456500D02*
X214625Y456375D01*
Y447875D02*
Y456375D01*
Y447875D02*
X215000Y447500D01*
X214750Y447250D02*
X215000Y447500D01*
X214750Y446250D02*
Y447250D01*
X210000Y446250D02*
X210000Y446250D01*
X209750Y446250D02*
X210000D01*
X205329Y456329D02*
X205750Y456750D01*
X205329Y447579D02*
Y456329D01*
X204500Y446750D02*
X205329Y447579D01*
X204500Y446750D02*
X204750Y446500D01*
Y446250D02*
Y446500D01*
X184750Y433250D02*
X204000Y414000D01*
X184750Y433250D02*
Y446250D01*
X179750Y433000D02*
X202500Y410250D01*
X179750Y433000D02*
Y446250D01*
X164500Y458750D02*
X165000Y459250D01*
X164500Y446250D02*
Y458750D01*
Y446250D02*
X164500Y446250D01*
X164750D01*
X150000Y458750D02*
X150250Y459000D01*
X150000Y446500D02*
Y458750D01*
X149750Y446250D02*
X150000Y446500D01*
X114500Y400000D02*
X123000D01*
X129772Y113000D02*
X141650Y124878D01*
X321750Y329000D02*
Y329250D01*
X143750Y424250D02*
X144000Y424000D01*
X112750Y424250D02*
X143750D01*
X139000Y419250D02*
X139000Y419250D01*
X112750Y419250D02*
X139000D01*
X133250Y414250D02*
X133500Y414000D01*
X112750Y414250D02*
X133250D01*
X112500Y409250D02*
X112500Y409250D01*
X112750D01*
Y398750D02*
X113000Y398500D01*
X112750Y398750D02*
Y399250D01*
X88000Y339500D02*
X112250D01*
X87750Y339250D02*
X88000Y339500D01*
X83250Y344250D02*
X112750D01*
X112750Y339000D02*
X112750Y339000D01*
Y339250D01*
X93750Y333500D02*
X112000D01*
X112750Y334250D01*
X98750Y329250D02*
X99500Y328500D01*
X112750Y329250D02*
X113500Y328500D01*
X112750Y329250D02*
Y329250D01*
X112625Y379375D02*
X112750Y379250D01*
X76250Y437500D02*
X83250Y430500D01*
X74500Y437500D02*
X76250D01*
X112750Y384250D02*
X112750Y384250D01*
X72750Y452750D02*
X74250D01*
X80250Y446750D01*
X72750Y452750D02*
X73500Y453500D01*
X73750D01*
X74750Y420250D02*
X79250Y415750D01*
X74750Y420250D02*
Y421750D01*
X79250Y415750D02*
X84500D01*
X79750Y405500D02*
X83250Y402000D01*
X75000Y405500D02*
X79750D01*
X133000Y159500D02*
X153500Y139000D01*
Y93750D02*
Y139000D01*
Y93750D02*
X159403Y87847D01*
X173605D01*
X107852Y113000D02*
X129772D01*
X112750Y354250D02*
X131750D01*
X112750Y354250D02*
X112750Y354250D01*
X198650Y230150D02*
Y233250D01*
X199750Y234350D01*
Y237250D01*
X251500Y247905D02*
Y248500D01*
X249750Y246155D02*
X251500Y247905D01*
X249750Y237250D02*
Y246155D01*
X315917Y304250D02*
X321750D01*
X313350Y306817D02*
X315917Y304250D01*
X300000Y320250D02*
X313350Y306900D01*
Y306817D02*
Y306900D01*
X300500Y359500D02*
X300750Y359250D01*
X321750D01*
X319000Y482750D02*
X334702D01*
X162500Y464000D02*
Y493000D01*
X159750Y461250D02*
X162500Y464000D01*
X159750Y446250D02*
Y461250D01*
X332500Y498000D02*
X332750Y497750D01*
X331953Y498000D02*
X332500D01*
X134750Y446250D02*
Y455000D01*
X129250Y460500D02*
X134750Y455000D01*
X77203Y493000D02*
X77203Y493000D01*
X61500Y493000D02*
X77203D01*
X77750Y508547D02*
Y514250D01*
X77203Y508000D02*
X77750Y508547D01*
X61250Y508750D02*
Y514250D01*
X61000Y508500D02*
X61500Y508000D01*
X61500D01*
X360703Y374203D02*
X366500D01*
X366750Y374453D01*
X357750Y371250D02*
X360703Y374203D01*
X324725Y335350D02*
X328684D01*
X323625Y334250D02*
X324725Y335350D01*
X321750Y334250D02*
X323625D01*
X321750Y339250D02*
X322850Y340350D01*
X321500Y344250D02*
X321750D01*
Y354250D02*
X322850Y355350D01*
Y420350D02*
X329600D01*
X321750Y419250D02*
X322850Y420350D01*
X323150Y429250D02*
X324250Y430350D01*
X321750Y429250D02*
X323150D01*
X322850Y320350D02*
X334600D01*
X322850Y315350D02*
X335350D01*
X321750Y319250D02*
X322850Y320350D01*
X321750Y314250D02*
X322125Y314625D01*
X366750Y357250D02*
Y358750D01*
X322500Y314250D02*
X322750Y314000D01*
X321750Y314250D02*
X322500D01*
X366750Y341500D02*
Y343000D01*
X334500Y309250D02*
X366750Y341500D01*
X321750Y309250D02*
X334500D01*
X333500Y299250D02*
X361548Y327298D01*
X366750D01*
X321750Y299250D02*
X333500D01*
X321750Y289250D02*
X348750D01*
X355392Y295892D01*
X366750D01*
X321750Y294250D02*
X321842Y294342D01*
X338920D01*
X352322Y307745D01*
X364400D01*
X365500Y308845D01*
Y311000D01*
X366095Y311595D01*
X366750D01*
Y280190D02*
Y281690D01*
X364400Y284040D02*
X366750Y281690D01*
X321960Y284040D02*
X364400D01*
X321750Y284250D02*
X321960Y284040D01*
X341969Y279250D02*
X352881Y268337D01*
X364400D01*
X366750Y265987D01*
Y264487D02*
Y265987D01*
X321750Y279250D02*
X341969D01*
X366750Y248785D02*
Y250285D01*
X342785Y274250D02*
X366750Y250285D01*
X321750Y274250D02*
X342785D01*
X352768Y236932D02*
X364400D01*
X366750Y234582D01*
Y233082D02*
Y234582D01*
X344825Y234355D02*
X361800Y217380D01*
X344825Y234355D02*
Y236175D01*
X326750Y254250D02*
X344825Y236175D01*
X321750Y254250D02*
X326750D01*
X361800Y217380D02*
X366750D01*
X300850Y230317D02*
Y236150D01*
X299750Y237250D02*
X300850Y236150D01*
X295850Y230317D02*
Y236150D01*
X294750Y237250D02*
X295850Y236150D01*
X285850Y230317D02*
Y236150D01*
X284750Y237250D02*
X285850Y236150D01*
X324798Y198750D02*
X326297D01*
X280850Y230317D02*
Y236150D01*
X279750Y237250D02*
X280850Y236150D01*
X308245Y201100D02*
X310595Y198750D01*
X305067Y201100D02*
X308245D01*
X275850Y230317D02*
X305067Y201100D01*
X275850Y230317D02*
Y236150D01*
X274750Y237250D02*
X275850Y236150D01*
X310595Y199095D02*
X311250Y199750D01*
X310595Y198750D02*
Y199095D01*
X269750Y223892D02*
X294892Y198750D01*
X269750Y223892D02*
Y237250D01*
X264750Y221970D02*
Y237250D01*
Y221970D02*
X275340Y211380D01*
Y201100D02*
Y211380D01*
Y201100D02*
X277690Y198750D01*
X279190D01*
X259750Y201100D02*
Y237250D01*
Y201100D02*
X262600Y198250D01*
X263250D01*
X263487Y198487D01*
Y198750D01*
X247785D02*
Y206896D01*
X245250Y209430D02*
X247785Y206896D01*
X245250Y209430D02*
Y212750D01*
X254750Y218233D02*
Y237250D01*
X251635Y215117D02*
X254750Y218233D01*
X251635Y201100D02*
Y215117D01*
X249285Y198750D02*
X251635Y201100D01*
X247785Y198750D02*
X249285D01*
X244750Y221084D02*
Y237250D01*
X235932Y212266D02*
X244750Y221084D01*
X235932Y201100D02*
Y212266D01*
X233582Y198750D02*
X235932Y201100D01*
X232082Y198750D02*
X233582D01*
X217880D02*
X220230Y201100D01*
X216380Y198750D02*
X217880D01*
X233650Y236150D02*
X234750Y237250D01*
X228650Y236150D02*
X229750Y237250D01*
X184250Y198500D02*
X185750D01*
X197305Y213550D02*
X213650Y229895D01*
X165250Y213550D02*
X197305D01*
X196353Y215850D02*
X209053Y228550D01*
X164297Y215850D02*
X196353D01*
X195069Y218150D02*
X205250Y228331D01*
X163344Y218150D02*
X195069D01*
X183783Y220450D02*
X193650Y230317D01*
X162392Y220450D02*
X183783D01*
X181084Y222750D02*
X188650Y230317D01*
X161439Y222750D02*
X181084D01*
X161389Y222700D02*
X161439Y222750D01*
X162342Y220400D02*
X162392Y220450D01*
X163295Y218100D02*
X163344Y218150D01*
X164247Y215800D02*
X164297Y215850D01*
X165200Y213500D02*
X165250Y213550D01*
X152750Y213500D02*
X165200D01*
X148334Y225000D02*
X153650Y230317D01*
X138000Y198750D02*
X152750Y213500D01*
X205250Y228331D02*
Y236750D01*
X139300Y236800D02*
X139750Y237250D01*
X223650Y236150D02*
X224750Y237250D01*
X223650Y230317D02*
Y236150D01*
X167905Y198500D02*
X169405D01*
X218650Y236150D02*
X219750Y237250D01*
X218650Y230317D02*
Y236150D01*
X152203Y198750D02*
X153703D01*
X213650Y236150D02*
X214750Y237250D01*
X213650Y229895D02*
Y236150D01*
X136500Y198750D02*
X138000D01*
X209053Y236553D02*
X209750Y237250D01*
X209053Y228550D02*
Y236553D01*
X204750Y237250D02*
X205250Y236750D01*
X105095Y198750D02*
X106595D01*
X59487D02*
X72987Y212250D01*
X57987Y198750D02*
X59487D01*
X193650Y236150D02*
X194750Y237250D01*
X193650Y230317D02*
Y236150D01*
X89392Y198750D02*
X90892D01*
X188650Y236150D02*
X189750Y237250D01*
X188650Y230317D02*
Y236150D01*
X76040Y201100D02*
X81909D01*
X73690Y198750D02*
X76040Y201100D01*
X153650Y236150D02*
X154750Y237250D01*
X153650Y230317D02*
Y236150D01*
X111650Y283150D02*
X112750Y284250D01*
X105817Y283150D02*
X111650D01*
X97850Y275183D02*
X105817Y283150D01*
X97850Y246100D02*
Y275183D01*
X76000Y224250D02*
X97850Y246100D01*
X76000Y222750D02*
Y224250D01*
X81952Y240047D02*
X95550Y253645D01*
Y277883D01*
X105817Y288150D01*
X111650D01*
X112750Y289250D01*
X75500Y240047D02*
X81952D01*
X107167Y404000D02*
X110250D01*
X97250Y413917D02*
X107167Y404000D01*
X97250Y413917D02*
Y419000D01*
X110250Y404000D02*
X110500Y404250D01*
X112750D01*
X112695Y359305D02*
X112750Y359250D01*
X76850Y359305D02*
X112695D01*
X74500Y361655D02*
X76850Y359305D01*
X74500Y361655D02*
Y363155D01*
X21250Y334750D02*
Y336250D01*
X26750Y341750D01*
X26750D01*
X90750Y349250D02*
X112750D01*
X85750Y354250D02*
X90750Y349250D01*
X48750Y354250D02*
X85750D01*
X44100Y349600D02*
X48750Y354250D01*
X44100Y345600D02*
Y349600D01*
X42250Y343750D02*
X44100Y345600D01*
X41750Y341750D02*
Y343750D01*
X74750Y315750D02*
Y330363D01*
Y315750D02*
X75250Y315250D01*
X74250Y345952D02*
Y347453D01*
X74250Y330863D02*
X74750Y330363D01*
X112301Y293800D02*
X112750Y294250D01*
X75250Y257500D02*
X93250Y275500D01*
X75250Y256000D02*
Y257500D01*
X112750Y429250D02*
Y433452D01*
X74250Y471953D02*
X112750Y433452D01*
X74250Y471953D02*
Y473453D01*
X217405Y471750D02*
X226500D01*
X106250Y471405D02*
X106423Y471577D01*
X99000Y471750D02*
X106250D01*
X106423Y471577D02*
X106595Y471750D01*
X197250Y434500D02*
Y434824D01*
X199704Y437278D01*
Y446204D01*
X199750Y446250D01*
X249500Y436000D02*
X249625Y436125D01*
Y444375D01*
X249750Y444500D01*
Y446250D01*
X279750Y454950D02*
X281602Y456802D01*
Y469400D01*
X283953Y471750D01*
X285452D01*
X279750Y446250D02*
Y454950D01*
X274750Y446250D02*
Y451250D01*
X273600Y452400D02*
X274750Y451250D01*
X273600Y452400D02*
Y469400D01*
X271250Y471750D02*
X273600Y469400D01*
X269750Y471750D02*
X271250D01*
X194750Y446250D02*
X195850Y447350D01*
Y453183D01*
X189750Y454950D02*
X197852Y463052D01*
Y469400D01*
X200203Y471750D01*
X201702D01*
X189750Y446250D02*
Y454950D01*
X174750D02*
X182150Y462350D01*
Y469400D01*
X184500Y471750D01*
X186000D01*
X174750Y446250D02*
Y454950D01*
X169750Y446250D02*
Y471298D01*
X170203Y471750D01*
X154750Y446250D02*
Y471750D01*
X154750Y471750D02*
X154750Y471750D01*
X154500Y471750D02*
X154750D01*
X144750Y446250D02*
Y464250D01*
X141500Y467500D02*
X144750Y464250D01*
X141500Y467500D02*
Y469400D01*
X139150Y471750D02*
X141500Y469400D01*
X138798Y471750D02*
X139150D01*
X121750Y470750D02*
X122297D01*
X139750Y446250D02*
Y455797D01*
X124797Y470750D02*
X139750Y455797D01*
X121750Y470750D02*
X122297Y471297D01*
Y471750D01*
X106250Y460500D02*
Y471405D01*
Y460500D02*
X120500Y446250D01*
X129750D01*
X112250Y389750D02*
X112750Y389250D01*
X49750Y389750D02*
X112250D01*
X40250Y380250D02*
X49750Y389750D01*
X51250Y394250D02*
X112750D01*
X107802Y74950D02*
X107852Y74900D01*
X163871Y148313D02*
X164292Y147892D01*
X165768D01*
X172533Y141126D01*
X175857D01*
X192000Y84047D02*
Y111750D01*
X138750Y165000D02*
X192000Y111750D01*
X138750Y165000D02*
Y167500D01*
X157500Y103250D02*
Y141250D01*
X131900Y166850D02*
X157500Y141250D01*
X182852Y74900D02*
X192000Y84047D01*
X173853Y74900D02*
X182852D01*
X157500Y103250D02*
X159403Y101347D01*
X172805D01*
X173853Y100300D01*
X173605Y87847D02*
X173853Y87600D01*
X51726Y346726D02*
X58524D01*
X59250Y347453D01*
X374250Y289000D02*
X374671Y289421D01*
X376778D01*
X381750Y294392D01*
Y295892D01*
Y325798D02*
Y327298D01*
X373750Y304000D02*
X374171Y304421D01*
X376076D01*
X381750Y310095D01*
Y311595D01*
X381500Y435763D02*
Y437263D01*
X58703Y474000D02*
X59250Y473453D01*
D27*
X0Y510000D02*
D03*
X155000Y0D02*
D03*
X140000D02*
D03*
X420000Y60000D02*
D03*
X0Y120000D02*
D03*
Y240000D02*
D03*
Y345000D02*
D03*
Y360000D02*
D03*
Y330000D02*
D03*
Y315000D02*
D03*
Y300000D02*
D03*
Y285000D02*
D03*
Y270000D02*
D03*
Y255000D02*
D03*
Y225000D02*
D03*
Y210000D02*
D03*
Y195000D02*
D03*
Y180000D02*
D03*
Y165000D02*
D03*
Y150000D02*
D03*
Y135000D02*
D03*
Y105000D02*
D03*
Y90000D02*
D03*
Y75000D02*
D03*
Y60000D02*
D03*
Y45000D02*
D03*
Y30000D02*
D03*
X20000Y0D02*
D03*
X50000D02*
D03*
X110000D02*
D03*
X80000D02*
D03*
X215000D02*
D03*
X185000D02*
D03*
X0Y435000D02*
D03*
X420000Y135000D02*
D03*
Y225000D02*
D03*
Y255000D02*
D03*
Y270000D02*
D03*
Y300000D02*
D03*
Y315000D02*
D03*
Y345000D02*
D03*
Y375000D02*
D03*
Y390000D02*
D03*
Y405000D02*
D03*
Y420000D02*
D03*
Y330000D02*
D03*
X395000Y530000D02*
D03*
X380000D02*
D03*
X365000D02*
D03*
X350000D02*
D03*
X335000D02*
D03*
X305000D02*
D03*
X290000D02*
D03*
X260000D02*
D03*
X245000D02*
D03*
X230000D02*
D03*
X215000D02*
D03*
X200000D02*
D03*
X185000D02*
D03*
X20000D02*
D03*
X35000D02*
D03*
X50000D02*
D03*
X80000D02*
D03*
X95000D02*
D03*
X110000D02*
D03*
X125000D02*
D03*
X140000D02*
D03*
X170000D02*
D03*
X420000Y510000D02*
D03*
Y495000D02*
D03*
Y480000D02*
D03*
Y465000D02*
D03*
Y450000D02*
D03*
Y210000D02*
D03*
Y195000D02*
D03*
Y180000D02*
D03*
Y150000D02*
D03*
X0Y495000D02*
D03*
Y480000D02*
D03*
Y465000D02*
D03*
Y450000D02*
D03*
X395000Y0D02*
D03*
X365000D02*
D03*
X0Y420000D02*
D03*
Y405000D02*
D03*
Y390000D02*
D03*
Y375000D02*
D03*
M02*
