G04*
G04 #@! TF.GenerationSoftware,Altium Limited,Altium Designer,19.1.9 (167)*
G04*
G04 Layer_Color=8421504*
%FSLAX44Y44*%
%MOMM*%
G71*
G01*
G75*
%ADD13C,0.5000*%
%ADD14R,0.6000X0.9000*%
%ADD15R,1.0000X0.9000*%
%ADD16R,1.8000X1.0000*%
%ADD17R,1.3500X0.3500*%
%ADD18R,0.3500X1.3500*%
%ADD19O,2.5000X0.7000*%
%ADD20R,2.5000X0.7000*%
%ADD21R,0.9000X0.6000*%
G04:AMPARAMS|DCode=22|XSize=0.6mm|YSize=0.9mm|CornerRadius=0mm|HoleSize=0mm|Usage=FLASHONLY|Rotation=45.000|XOffset=0mm|YOffset=0mm|HoleType=Round|Shape=Rectangle|*
%AMROTATEDRECTD22*
4,1,4,0.1061,-0.5303,-0.5303,0.1061,-0.1061,0.5303,0.5303,-0.1061,0.1061,-0.5303,0.0*
%
%ADD22ROTATEDRECTD22*%

D13*
X259500Y125500D02*
D03*
Y117500D02*
D03*
Y109500D02*
D03*
Y101500D02*
D03*
Y93500D02*
D03*
Y85500D02*
D03*
Y77500D02*
D03*
Y69500D02*
D03*
Y61500D02*
D03*
X267500Y125500D02*
D03*
Y117500D02*
D03*
Y109500D02*
D03*
Y101500D02*
D03*
Y93500D02*
D03*
Y85500D02*
D03*
Y77500D02*
D03*
Y69500D02*
D03*
Y61500D02*
D03*
X275500Y125500D02*
D03*
Y117500D02*
D03*
Y109500D02*
D03*
Y101500D02*
D03*
Y93500D02*
D03*
Y85500D02*
D03*
Y77500D02*
D03*
Y69500D02*
D03*
Y61500D02*
D03*
X307500Y125500D02*
D03*
Y117500D02*
D03*
Y109500D02*
D03*
Y101500D02*
D03*
Y93500D02*
D03*
Y85500D02*
D03*
Y77500D02*
D03*
Y69500D02*
D03*
Y61500D02*
D03*
X315500Y125500D02*
D03*
Y117500D02*
D03*
Y109500D02*
D03*
Y101500D02*
D03*
Y93500D02*
D03*
Y85500D02*
D03*
Y77500D02*
D03*
Y69500D02*
D03*
Y61500D02*
D03*
X323500Y125500D02*
D03*
Y117500D02*
D03*
Y109500D02*
D03*
Y101500D02*
D03*
Y93500D02*
D03*
Y85500D02*
D03*
Y77500D02*
D03*
Y69500D02*
D03*
Y61500D02*
D03*
D14*
X230250Y116547D02*
D03*
X215250D02*
D03*
X381250Y390155D02*
D03*
X366250D02*
D03*
X381750Y374453D02*
D03*
X366750D02*
D03*
X381750Y358750D02*
D03*
X366750D02*
D03*
X381750Y327298D02*
D03*
X366750D02*
D03*
X366750Y233082D02*
D03*
X381750D02*
D03*
X381750Y311595D02*
D03*
X366750D02*
D03*
X366750Y217380D02*
D03*
X381750D02*
D03*
X381750Y295892D02*
D03*
X366750D02*
D03*
X74250Y347453D02*
D03*
X59250D02*
D03*
X381750Y280190D02*
D03*
X366750D02*
D03*
X381750Y264487D02*
D03*
X366750D02*
D03*
X381750Y248785D02*
D03*
X366750D02*
D03*
X74250Y363155D02*
D03*
X59250D02*
D03*
X74250Y378858D02*
D03*
X59250D02*
D03*
X74250Y405500D02*
D03*
X59250D02*
D03*
X74250Y421750D02*
D03*
X59250D02*
D03*
X74250Y437500D02*
D03*
X59250D02*
D03*
X74250Y453500D02*
D03*
X59250D02*
D03*
X381500Y452965D02*
D03*
X366500D02*
D03*
X381500Y437263D02*
D03*
X366500D02*
D03*
X381500Y421560D02*
D03*
X366500D02*
D03*
X381250Y405858D02*
D03*
X366250D02*
D03*
X59250Y240047D02*
D03*
X74250D02*
D03*
X74250Y473453D02*
D03*
X59250D02*
D03*
X59250Y256000D02*
D03*
X74250D02*
D03*
X59250Y271798D02*
D03*
X74250D02*
D03*
X41750Y67750D02*
D03*
X26750D02*
D03*
X41750Y51500D02*
D03*
X26750D02*
D03*
X369250Y69000D02*
D03*
X354250D02*
D03*
X215250Y132250D02*
D03*
X230250D02*
D03*
X214000Y75250D02*
D03*
X229000D02*
D03*
X381500Y468750D02*
D03*
X366500D02*
D03*
X381250Y484500D02*
D03*
X366250D02*
D03*
X381750Y343000D02*
D03*
X366750D02*
D03*
X59250Y287500D02*
D03*
X74250D02*
D03*
X59250Y330863D02*
D03*
X74250D02*
D03*
X59250Y222750D02*
D03*
X74250D02*
D03*
X26750Y341750D02*
D03*
X41750D02*
D03*
X25000Y364347D02*
D03*
X40000D02*
D03*
X24750Y422750D02*
D03*
X39750D02*
D03*
D15*
X75250Y303000D02*
D03*
Y315250D02*
D03*
X58750Y303000D02*
D03*
Y315250D02*
D03*
D16*
X36250Y380250D02*
D03*
Y405250D02*
D03*
D17*
X112750Y429250D02*
D03*
Y424250D02*
D03*
Y419250D02*
D03*
Y414250D02*
D03*
Y409250D02*
D03*
Y404250D02*
D03*
Y399250D02*
D03*
Y394250D02*
D03*
Y389250D02*
D03*
Y384250D02*
D03*
Y379250D02*
D03*
Y374250D02*
D03*
Y369250D02*
D03*
Y364250D02*
D03*
Y359250D02*
D03*
Y354250D02*
D03*
Y349250D02*
D03*
Y344250D02*
D03*
Y339250D02*
D03*
Y334250D02*
D03*
Y329250D02*
D03*
Y324250D02*
D03*
Y319250D02*
D03*
Y314250D02*
D03*
Y309250D02*
D03*
Y304250D02*
D03*
Y299250D02*
D03*
Y294250D02*
D03*
Y289250D02*
D03*
Y284250D02*
D03*
Y279250D02*
D03*
Y274250D02*
D03*
Y269250D02*
D03*
Y264250D02*
D03*
Y259250D02*
D03*
Y254250D02*
D03*
X321750D02*
D03*
Y259250D02*
D03*
Y264250D02*
D03*
Y269250D02*
D03*
Y274250D02*
D03*
Y279250D02*
D03*
Y284250D02*
D03*
Y289250D02*
D03*
Y294250D02*
D03*
Y299250D02*
D03*
Y304250D02*
D03*
Y309250D02*
D03*
Y314250D02*
D03*
Y319250D02*
D03*
Y324250D02*
D03*
Y329250D02*
D03*
Y334250D02*
D03*
Y339250D02*
D03*
Y344250D02*
D03*
Y349250D02*
D03*
Y354250D02*
D03*
Y359250D02*
D03*
Y364250D02*
D03*
Y369250D02*
D03*
Y374250D02*
D03*
Y379250D02*
D03*
Y384250D02*
D03*
Y389250D02*
D03*
Y394250D02*
D03*
Y399250D02*
D03*
Y404250D02*
D03*
Y409250D02*
D03*
Y414250D02*
D03*
Y419250D02*
D03*
Y424250D02*
D03*
Y429250D02*
D03*
D18*
X129750Y237250D02*
D03*
X134750D02*
D03*
X139750D02*
D03*
X144750D02*
D03*
X149750D02*
D03*
X154750D02*
D03*
X159750D02*
D03*
X164750D02*
D03*
X169750D02*
D03*
X174750D02*
D03*
X179750D02*
D03*
X184750D02*
D03*
X189750D02*
D03*
X194750D02*
D03*
X199750D02*
D03*
X204750D02*
D03*
X209750D02*
D03*
X214750D02*
D03*
X219750D02*
D03*
X224750D02*
D03*
X229750D02*
D03*
X234750D02*
D03*
X239750D02*
D03*
X244750D02*
D03*
X249750D02*
D03*
X254750D02*
D03*
X259750D02*
D03*
X264750D02*
D03*
X269750D02*
D03*
X274750D02*
D03*
X279750D02*
D03*
X284750D02*
D03*
X289750D02*
D03*
X294750D02*
D03*
X299750D02*
D03*
X304750D02*
D03*
Y446250D02*
D03*
X299750D02*
D03*
X294750D02*
D03*
X289750D02*
D03*
X284750D02*
D03*
X279750D02*
D03*
X274750D02*
D03*
X269750D02*
D03*
X264750D02*
D03*
X259750D02*
D03*
X254750D02*
D03*
X249750D02*
D03*
X244750D02*
D03*
X239750D02*
D03*
X234750D02*
D03*
X229750D02*
D03*
X224750D02*
D03*
X219750D02*
D03*
X214750D02*
D03*
X209750D02*
D03*
X204750D02*
D03*
X199750D02*
D03*
X194750D02*
D03*
X189750D02*
D03*
X184750D02*
D03*
X179750D02*
D03*
X174750D02*
D03*
X169750D02*
D03*
X164750D02*
D03*
X159750D02*
D03*
X154750D02*
D03*
X149750D02*
D03*
X144750D02*
D03*
X139750D02*
D03*
X134750D02*
D03*
X129750D02*
D03*
D19*
X173853Y74900D02*
D03*
Y87600D02*
D03*
Y100300D02*
D03*
Y113000D02*
D03*
X107852Y74900D02*
D03*
Y87600D02*
D03*
Y100300D02*
D03*
D20*
Y113000D02*
D03*
D21*
X316250Y483000D02*
D03*
Y498000D02*
D03*
X331953Y498000D02*
D03*
Y483000D02*
D03*
X61500Y493000D02*
D03*
Y508000D02*
D03*
X77203Y508000D02*
D03*
Y493000D02*
D03*
X152203Y198750D02*
D03*
Y183750D02*
D03*
X136500Y198750D02*
D03*
Y183750D02*
D03*
X120798Y198750D02*
D03*
Y183750D02*
D03*
X89392Y198750D02*
D03*
Y183750D02*
D03*
X73690Y198750D02*
D03*
Y183750D02*
D03*
X357703Y192250D02*
D03*
Y177250D02*
D03*
X154500Y471750D02*
D03*
Y486750D02*
D03*
X170203Y471750D02*
D03*
Y486750D02*
D03*
X186000Y471750D02*
D03*
Y486750D02*
D03*
X269750Y486750D02*
D03*
Y471750D02*
D03*
X285452Y486750D02*
D03*
Y471750D02*
D03*
X201702Y486750D02*
D03*
Y471750D02*
D03*
X342000Y192250D02*
D03*
Y177250D02*
D03*
X326297Y198750D02*
D03*
Y183750D02*
D03*
X310595Y198750D02*
D03*
Y183750D02*
D03*
X294892Y198750D02*
D03*
Y183750D02*
D03*
X279190Y198750D02*
D03*
Y183750D02*
D03*
X263487Y198750D02*
D03*
Y183750D02*
D03*
X232082Y198750D02*
D03*
Y183750D02*
D03*
X216380Y198750D02*
D03*
Y183750D02*
D03*
X200677Y198750D02*
D03*
Y183750D02*
D03*
X57987Y198750D02*
D03*
Y183750D02*
D03*
X184250Y183500D02*
D03*
Y198500D02*
D03*
X122297Y471750D02*
D03*
Y486750D02*
D03*
X167905Y183500D02*
D03*
Y198500D02*
D03*
X138798Y471750D02*
D03*
Y486750D02*
D03*
X103750Y47500D02*
D03*
Y32500D02*
D03*
X88048Y47500D02*
D03*
Y32500D02*
D03*
X327952Y18000D02*
D03*
Y33000D02*
D03*
X312250Y18000D02*
D03*
Y33000D02*
D03*
X274000Y17250D02*
D03*
Y32250D02*
D03*
X258250Y17250D02*
D03*
Y32250D02*
D03*
X373750Y177250D02*
D03*
Y192250D02*
D03*
X106595Y486750D02*
D03*
Y471750D02*
D03*
X217405Y486750D02*
D03*
Y471750D02*
D03*
X245500Y486750D02*
D03*
Y471750D02*
D03*
X389453Y177250D02*
D03*
Y192250D02*
D03*
X247785Y183750D02*
D03*
Y198750D02*
D03*
X105095Y183750D02*
D03*
Y198750D02*
D03*
X42285Y183750D02*
D03*
Y198750D02*
D03*
D22*
X165250Y130520D02*
D03*
X175857Y141126D02*
D03*
M02*
