G04*
G04 #@! TF.GenerationSoftware,Altium Limited,Altium Designer,19.1.9 (167)*
G04*
G04 Layer_Color=8388736*
%FSLAX44Y44*%
%MOMM*%
G71*
G01*
G75*
%ADD13C,0.5000*%
%ADD14R,0.6000X0.9000*%
%ADD15R,1.0000X0.9000*%
%ADD16R,1.8000X1.0000*%
%ADD17R,1.3500X0.3500*%
%ADD18R,0.3500X1.3500*%
%ADD19O,2.5000X0.7000*%
%ADD20R,2.5000X0.7000*%
%ADD21R,0.9000X0.6000*%
G04:AMPARAMS|DCode=22|XSize=0.6mm|YSize=0.9mm|CornerRadius=0mm|HoleSize=0mm|Usage=FLASHONLY|Rotation=45.000|XOffset=0mm|YOffset=0mm|HoleType=Round|Shape=Rectangle|*
%AMROTATEDRECTD22*
4,1,4,0.1061,-0.5303,-0.5303,0.1061,-0.1061,0.5303,0.5303,-0.1061,0.1061,-0.5303,0.0*
%
%ADD22ROTATEDRECTD22*%

%ADD23R,1.3032X1.3032*%
%ADD24C,0.4000*%
%ADD25C,0.8000*%
D13*
X259500Y125500D02*
D03*
Y117500D02*
D03*
Y109500D02*
D03*
Y101500D02*
D03*
Y93500D02*
D03*
Y85500D02*
D03*
Y77500D02*
D03*
Y69500D02*
D03*
Y61500D02*
D03*
X267500Y125500D02*
D03*
Y117500D02*
D03*
Y109500D02*
D03*
Y101500D02*
D03*
Y93500D02*
D03*
Y85500D02*
D03*
Y77500D02*
D03*
Y69500D02*
D03*
Y61500D02*
D03*
X275500Y125500D02*
D03*
Y117500D02*
D03*
Y109500D02*
D03*
Y101500D02*
D03*
Y93500D02*
D03*
Y85500D02*
D03*
Y77500D02*
D03*
Y69500D02*
D03*
Y61500D02*
D03*
X307500Y125500D02*
D03*
Y117500D02*
D03*
Y109500D02*
D03*
Y101500D02*
D03*
Y93500D02*
D03*
Y85500D02*
D03*
Y77500D02*
D03*
Y69500D02*
D03*
Y61500D02*
D03*
X315500Y125500D02*
D03*
Y117500D02*
D03*
Y109500D02*
D03*
Y101500D02*
D03*
Y93500D02*
D03*
Y85500D02*
D03*
Y77500D02*
D03*
Y69500D02*
D03*
Y61500D02*
D03*
X323500Y125500D02*
D03*
Y117500D02*
D03*
Y109500D02*
D03*
Y101500D02*
D03*
Y93500D02*
D03*
Y85500D02*
D03*
Y77500D02*
D03*
Y69500D02*
D03*
Y61500D02*
D03*
D14*
X230250Y116547D02*
D03*
X215250D02*
D03*
X381250Y390155D02*
D03*
X366250D02*
D03*
X381750Y374453D02*
D03*
X366750D02*
D03*
X381750Y358750D02*
D03*
X366750D02*
D03*
X381750Y327298D02*
D03*
X366750D02*
D03*
X366750Y233082D02*
D03*
X381750D02*
D03*
X381750Y311595D02*
D03*
X366750D02*
D03*
X366750Y217380D02*
D03*
X381750D02*
D03*
X381750Y295892D02*
D03*
X366750D02*
D03*
X74250Y347453D02*
D03*
X59250D02*
D03*
X381750Y280190D02*
D03*
X366750D02*
D03*
X381750Y264487D02*
D03*
X366750D02*
D03*
X381750Y248785D02*
D03*
X366750D02*
D03*
X74250Y363155D02*
D03*
X59250D02*
D03*
X74250Y378858D02*
D03*
X59250D02*
D03*
X74250Y405500D02*
D03*
X59250D02*
D03*
X74250Y421750D02*
D03*
X59250D02*
D03*
X74250Y437500D02*
D03*
X59250D02*
D03*
X74250Y453500D02*
D03*
X59250D02*
D03*
X381500Y452965D02*
D03*
X366500D02*
D03*
X381500Y437263D02*
D03*
X366500D02*
D03*
X381500Y421560D02*
D03*
X366500D02*
D03*
X381250Y405858D02*
D03*
X366250D02*
D03*
X59250Y240047D02*
D03*
X74250D02*
D03*
X74250Y473453D02*
D03*
X59250D02*
D03*
X59250Y256000D02*
D03*
X74250D02*
D03*
X59250Y271798D02*
D03*
X74250D02*
D03*
X41750Y67750D02*
D03*
X26750D02*
D03*
X41750Y51500D02*
D03*
X26750D02*
D03*
X369250Y69000D02*
D03*
X354250D02*
D03*
X215250Y132250D02*
D03*
X230250D02*
D03*
X214000Y75250D02*
D03*
X229000D02*
D03*
X381500Y468750D02*
D03*
X366500D02*
D03*
X381250Y484500D02*
D03*
X366250D02*
D03*
X381750Y343000D02*
D03*
X366750D02*
D03*
X59250Y287500D02*
D03*
X74250D02*
D03*
X59250Y330863D02*
D03*
X74250D02*
D03*
X59250Y222750D02*
D03*
X74250D02*
D03*
X26750Y341750D02*
D03*
X41750D02*
D03*
X25000Y364347D02*
D03*
X40000D02*
D03*
X24750Y422750D02*
D03*
X39750D02*
D03*
D15*
X75250Y303000D02*
D03*
Y315250D02*
D03*
X58750Y303000D02*
D03*
Y315250D02*
D03*
D16*
X36250Y380250D02*
D03*
Y405250D02*
D03*
D17*
X112750Y429250D02*
D03*
Y424250D02*
D03*
Y419250D02*
D03*
Y414250D02*
D03*
Y409250D02*
D03*
Y404250D02*
D03*
Y399250D02*
D03*
Y394250D02*
D03*
Y389250D02*
D03*
Y384250D02*
D03*
Y379250D02*
D03*
Y374250D02*
D03*
Y369250D02*
D03*
Y364250D02*
D03*
Y359250D02*
D03*
Y354250D02*
D03*
Y349250D02*
D03*
Y344250D02*
D03*
Y339250D02*
D03*
Y334250D02*
D03*
Y329250D02*
D03*
Y324250D02*
D03*
Y319250D02*
D03*
Y314250D02*
D03*
Y309250D02*
D03*
Y304250D02*
D03*
Y299250D02*
D03*
Y294250D02*
D03*
Y289250D02*
D03*
Y284250D02*
D03*
Y279250D02*
D03*
Y274250D02*
D03*
Y269250D02*
D03*
Y264250D02*
D03*
Y259250D02*
D03*
Y254250D02*
D03*
X321750D02*
D03*
Y259250D02*
D03*
Y264250D02*
D03*
Y269250D02*
D03*
Y274250D02*
D03*
Y279250D02*
D03*
Y284250D02*
D03*
Y289250D02*
D03*
Y294250D02*
D03*
Y299250D02*
D03*
Y304250D02*
D03*
Y309250D02*
D03*
Y314250D02*
D03*
Y319250D02*
D03*
Y324250D02*
D03*
Y329250D02*
D03*
Y334250D02*
D03*
Y339250D02*
D03*
Y344250D02*
D03*
Y349250D02*
D03*
Y354250D02*
D03*
Y359250D02*
D03*
Y364250D02*
D03*
Y369250D02*
D03*
Y374250D02*
D03*
Y379250D02*
D03*
Y384250D02*
D03*
Y389250D02*
D03*
Y394250D02*
D03*
Y399250D02*
D03*
Y404250D02*
D03*
Y409250D02*
D03*
Y414250D02*
D03*
Y419250D02*
D03*
Y424250D02*
D03*
Y429250D02*
D03*
D18*
X129750Y237250D02*
D03*
X134750D02*
D03*
X139750D02*
D03*
X144750D02*
D03*
X149750D02*
D03*
X154750D02*
D03*
X159750D02*
D03*
X164750D02*
D03*
X169750D02*
D03*
X174750D02*
D03*
X179750D02*
D03*
X184750D02*
D03*
X189750D02*
D03*
X194750D02*
D03*
X199750D02*
D03*
X204750D02*
D03*
X209750D02*
D03*
X214750D02*
D03*
X219750D02*
D03*
X224750D02*
D03*
X229750D02*
D03*
X234750D02*
D03*
X239750D02*
D03*
X244750D02*
D03*
X249750D02*
D03*
X254750D02*
D03*
X259750D02*
D03*
X264750D02*
D03*
X269750D02*
D03*
X274750D02*
D03*
X279750D02*
D03*
X284750D02*
D03*
X289750D02*
D03*
X294750D02*
D03*
X299750D02*
D03*
X304750D02*
D03*
Y446250D02*
D03*
X299750D02*
D03*
X294750D02*
D03*
X289750D02*
D03*
X284750D02*
D03*
X279750D02*
D03*
X274750D02*
D03*
X269750D02*
D03*
X264750D02*
D03*
X259750D02*
D03*
X254750D02*
D03*
X249750D02*
D03*
X244750D02*
D03*
X239750D02*
D03*
X234750D02*
D03*
X229750D02*
D03*
X224750D02*
D03*
X219750D02*
D03*
X214750D02*
D03*
X209750D02*
D03*
X204750D02*
D03*
X199750D02*
D03*
X194750D02*
D03*
X189750D02*
D03*
X184750D02*
D03*
X179750D02*
D03*
X174750D02*
D03*
X169750D02*
D03*
X164750D02*
D03*
X159750D02*
D03*
X154750D02*
D03*
X149750D02*
D03*
X144750D02*
D03*
X139750D02*
D03*
X134750D02*
D03*
X129750D02*
D03*
D19*
X173853Y74900D02*
D03*
Y87600D02*
D03*
Y100300D02*
D03*
Y113000D02*
D03*
X107852Y74900D02*
D03*
Y87600D02*
D03*
Y100300D02*
D03*
D20*
Y113000D02*
D03*
D21*
X316250Y483000D02*
D03*
Y498000D02*
D03*
X331953Y498000D02*
D03*
Y483000D02*
D03*
X61500Y493000D02*
D03*
Y508000D02*
D03*
X77203Y508000D02*
D03*
Y493000D02*
D03*
X152203Y198750D02*
D03*
Y183750D02*
D03*
X136500Y198750D02*
D03*
Y183750D02*
D03*
X120798Y198750D02*
D03*
Y183750D02*
D03*
X89392Y198750D02*
D03*
Y183750D02*
D03*
X73690Y198750D02*
D03*
Y183750D02*
D03*
X357703Y192250D02*
D03*
Y177250D02*
D03*
X154500Y471750D02*
D03*
Y486750D02*
D03*
X170203Y471750D02*
D03*
Y486750D02*
D03*
X186000Y471750D02*
D03*
Y486750D02*
D03*
X269750Y486750D02*
D03*
Y471750D02*
D03*
X285452Y486750D02*
D03*
Y471750D02*
D03*
X201702Y486750D02*
D03*
Y471750D02*
D03*
X342000Y192250D02*
D03*
Y177250D02*
D03*
X326297Y198750D02*
D03*
Y183750D02*
D03*
X310595Y198750D02*
D03*
Y183750D02*
D03*
X294892Y198750D02*
D03*
Y183750D02*
D03*
X279190Y198750D02*
D03*
Y183750D02*
D03*
X263487Y198750D02*
D03*
Y183750D02*
D03*
X232082Y198750D02*
D03*
Y183750D02*
D03*
X216380Y198750D02*
D03*
Y183750D02*
D03*
X200677Y198750D02*
D03*
Y183750D02*
D03*
X57987Y198750D02*
D03*
Y183750D02*
D03*
X184250Y183500D02*
D03*
Y198500D02*
D03*
X122297Y471750D02*
D03*
Y486750D02*
D03*
X167905Y183500D02*
D03*
Y198500D02*
D03*
X138798Y471750D02*
D03*
Y486750D02*
D03*
X103750Y47500D02*
D03*
Y32500D02*
D03*
X88048Y47500D02*
D03*
Y32500D02*
D03*
X327952Y18000D02*
D03*
Y33000D02*
D03*
X312250Y18000D02*
D03*
Y33000D02*
D03*
X274000Y17250D02*
D03*
Y32250D02*
D03*
X258250Y17250D02*
D03*
Y32250D02*
D03*
X373750Y177250D02*
D03*
Y192250D02*
D03*
X106595Y486750D02*
D03*
Y471750D02*
D03*
X217405Y486750D02*
D03*
Y471750D02*
D03*
X245500Y486750D02*
D03*
Y471750D02*
D03*
X389453Y177250D02*
D03*
Y192250D02*
D03*
X247785Y183750D02*
D03*
Y198750D02*
D03*
X105095Y183750D02*
D03*
Y198750D02*
D03*
X42285Y183750D02*
D03*
Y198750D02*
D03*
D22*
X165250Y130520D02*
D03*
X175857Y141126D02*
D03*
D23*
X0Y510000D02*
D03*
X155000Y0D02*
D03*
X140000D02*
D03*
X420000Y60000D02*
D03*
X0Y120000D02*
D03*
Y240000D02*
D03*
Y345000D02*
D03*
Y360000D02*
D03*
Y330000D02*
D03*
Y315000D02*
D03*
Y300000D02*
D03*
Y285000D02*
D03*
Y270000D02*
D03*
Y255000D02*
D03*
Y225000D02*
D03*
Y210000D02*
D03*
Y195000D02*
D03*
Y180000D02*
D03*
Y165000D02*
D03*
Y150000D02*
D03*
Y135000D02*
D03*
Y105000D02*
D03*
Y90000D02*
D03*
Y75000D02*
D03*
Y60000D02*
D03*
Y45000D02*
D03*
Y30000D02*
D03*
X20000Y0D02*
D03*
X50000D02*
D03*
X110000D02*
D03*
X80000D02*
D03*
X215000D02*
D03*
X185000D02*
D03*
X0Y435000D02*
D03*
X420000Y135000D02*
D03*
Y225000D02*
D03*
Y255000D02*
D03*
Y270000D02*
D03*
Y300000D02*
D03*
Y315000D02*
D03*
Y345000D02*
D03*
Y375000D02*
D03*
Y390000D02*
D03*
Y405000D02*
D03*
Y420000D02*
D03*
Y330000D02*
D03*
X395000Y530000D02*
D03*
X380000D02*
D03*
X365000D02*
D03*
X350000D02*
D03*
X335000D02*
D03*
X305000D02*
D03*
X290000D02*
D03*
X260000D02*
D03*
X245000D02*
D03*
X230000D02*
D03*
X215000D02*
D03*
X200000D02*
D03*
X185000D02*
D03*
X20000D02*
D03*
X35000D02*
D03*
X50000D02*
D03*
X80000D02*
D03*
X95000D02*
D03*
X110000D02*
D03*
X125000D02*
D03*
X140000D02*
D03*
X170000D02*
D03*
X420000Y510000D02*
D03*
Y495000D02*
D03*
Y480000D02*
D03*
Y465000D02*
D03*
Y450000D02*
D03*
Y210000D02*
D03*
Y195000D02*
D03*
Y180000D02*
D03*
Y150000D02*
D03*
X0Y495000D02*
D03*
Y480000D02*
D03*
Y465000D02*
D03*
Y450000D02*
D03*
X395000Y0D02*
D03*
X365000D02*
D03*
X0Y420000D02*
D03*
Y405000D02*
D03*
Y390000D02*
D03*
Y375000D02*
D03*
D24*
X389250Y280500D02*
D03*
X306500Y336000D02*
D03*
X286750Y423500D02*
D03*
X311472Y121307D02*
D03*
X120506Y171758D02*
D03*
X197250Y176750D02*
D03*
X311515Y81504D02*
D03*
X116750Y479500D02*
D03*
X52441Y377750D02*
D03*
X271513Y73504D02*
D03*
X129860Y248116D02*
D03*
X99000Y302000D02*
D03*
X209750Y461500D02*
D03*
X243250Y461000D02*
D03*
X236511Y459022D02*
D03*
X231011Y457022D02*
D03*
X269500Y461000D02*
D03*
X258750Y461250D02*
D03*
X296250Y469000D02*
D03*
X158500Y258000D02*
D03*
X375750Y336000D02*
D03*
X372750Y349500D02*
D03*
X333016Y407770D02*
D03*
X372114Y429973D02*
D03*
X86750Y369500D02*
D03*
X94250Y379500D02*
D03*
X97500Y385750D02*
D03*
X138250Y329500D02*
D03*
X213750Y300750D02*
D03*
X178759Y279014D02*
D03*
X130000Y266500D02*
D03*
X43250Y156250D02*
D03*
X44000Y207250D02*
D03*
X92000Y228750D02*
D03*
X192000Y223500D02*
D03*
X319516Y121506D02*
D03*
X327516Y97255D02*
D03*
X319496Y113275D02*
D03*
X319516Y105505D02*
D03*
Y89504D02*
D03*
X319266Y81254D02*
D03*
Y73254D02*
D03*
X311515Y65503D02*
D03*
X221261Y81754D02*
D03*
X127825Y166850D02*
D03*
X101750Y164600D02*
D03*
X162000Y121000D02*
D03*
X211500Y124000D02*
D03*
X208750Y132750D02*
D03*
X271513Y65503D02*
D03*
X263513D02*
D03*
Y81504D02*
D03*
X271513D02*
D03*
Y97505D02*
D03*
X251000Y100500D02*
D03*
X271513Y105505D02*
D03*
X280500Y113500D02*
D03*
X263513Y121506D02*
D03*
X271278Y121500D02*
D03*
X263634Y113505D02*
D03*
X271500Y113500D02*
D03*
X327750Y130500D02*
D03*
X185750Y494000D02*
D03*
X262250Y481250D02*
D03*
X67250Y447250D02*
D03*
X274500Y11250D02*
D03*
X283000Y30750D02*
D03*
X246000Y29500D02*
D03*
X237000Y76250D02*
D03*
X287264Y65503D02*
D03*
X226000Y35250D02*
D03*
X336250Y37250D02*
D03*
X311500Y97500D02*
D03*
X237000Y141500D02*
D03*
X238500Y109250D02*
D03*
X304000Y34000D02*
D03*
X326500Y58500D02*
D03*
X391500Y240250D02*
D03*
X390500Y234500D02*
D03*
X391000Y228250D02*
D03*
X334000Y262250D02*
D03*
X389750Y253750D02*
D03*
X376750Y73500D02*
D03*
X345500Y69000D02*
D03*
X328500Y11750D02*
D03*
X311750Y11250D02*
D03*
X259500Y11250D02*
D03*
X280250Y89750D02*
D03*
X239250Y118250D02*
D03*
X271500Y141750D02*
D03*
X279499Y159750D02*
D03*
X307250Y141500D02*
D03*
X311500Y105500D02*
D03*
X309250Y160000D02*
D03*
X302250Y173500D02*
D03*
X151750Y342750D02*
D03*
X151500Y328250D02*
D03*
X55000Y406250D02*
D03*
X138250Y364500D02*
D03*
X52000Y420000D02*
D03*
X53250Y435250D02*
D03*
X55000Y360750D02*
D03*
X226000Y161500D02*
D03*
X271763Y129506D02*
D03*
X263750Y129250D02*
D03*
X170750Y493500D02*
D03*
X182000Y417250D02*
D03*
Y366250D02*
D03*
X270500Y170500D02*
D03*
X130750Y481250D02*
D03*
X328000Y105750D02*
D03*
X350750Y111250D02*
D03*
X389000Y387750D02*
D03*
X387750Y400750D02*
D03*
X388500Y423500D02*
D03*
X388750Y452750D02*
D03*
X391500Y484250D02*
D03*
X358500Y487500D02*
D03*
X391750Y468487D02*
D03*
X230000Y177250D02*
D03*
X263500Y89500D02*
D03*
X169250Y171500D02*
D03*
X254500Y114000D02*
D03*
X47500Y261000D02*
D03*
X151750Y175000D02*
D03*
X134750Y172250D02*
D03*
X302000Y111750D02*
D03*
X90500Y148250D02*
D03*
X75000Y151250D02*
D03*
X207250Y484750D02*
D03*
X281500Y104750D02*
D03*
X263453Y73563D02*
D03*
X263013Y456272D02*
D03*
X254250Y456000D02*
D03*
X279500Y484000D02*
D03*
X327250Y176500D02*
D03*
X272250Y54500D02*
D03*
X388250Y373750D02*
D03*
X388500Y357500D02*
D03*
X387750Y247000D02*
D03*
X388750Y264500D02*
D03*
X376518Y181009D02*
D03*
X327750Y73250D02*
D03*
X319250Y65250D02*
D03*
X378500Y274000D02*
D03*
X104250Y383750D02*
D03*
X17000Y422750D02*
D03*
X98000Y401250D02*
D03*
X93000Y305750D02*
D03*
X84750Y285000D02*
D03*
X48000Y310750D02*
D03*
Y335750D02*
D03*
X91504Y322266D02*
D03*
X87250Y382250D02*
D03*
X16750Y364500D02*
D03*
X136250Y247250D02*
D03*
X161000Y248250D02*
D03*
X114750Y214500D02*
D03*
X68500Y229750D02*
D03*
X54750D02*
D03*
X33500Y335750D02*
D03*
X91000Y481000D02*
D03*
X242000Y495000D02*
D03*
X222500Y479000D02*
D03*
X171000Y418250D02*
D03*
X158750Y497250D02*
D03*
X88500Y55500D02*
D03*
X103500Y55000D02*
D03*
X50500Y51500D02*
D03*
X51000Y69000D02*
D03*
X237500Y177250D02*
D03*
X43750Y175250D02*
D03*
X85000Y228000D02*
D03*
X112500Y191000D02*
D03*
X194500Y336250D02*
D03*
X115250Y241750D02*
D03*
X123750Y260500D02*
D03*
X127750Y283250D02*
D03*
X186250Y285500D02*
D03*
X208500Y292750D02*
D03*
X115250Y248750D02*
D03*
X149250D02*
D03*
Y254500D02*
D03*
X219250Y295000D02*
D03*
X381250Y186000D02*
D03*
X225250Y304750D02*
D03*
X389250Y287750D02*
D03*
X334000Y333000D02*
D03*
X332250Y269250D02*
D03*
X359250Y319750D02*
D03*
X372750Y382500D02*
D03*
X306750Y464250D02*
D03*
X238500Y478000D02*
D03*
X334250Y414500D02*
D03*
X331500Y364750D02*
D03*
X335250Y399000D02*
D03*
X331500Y394250D02*
D03*
X334750Y389250D02*
D03*
X331500Y384250D02*
D03*
X335000Y379500D02*
D03*
X331500Y374250D02*
D03*
X336000Y370000D02*
D03*
X332500Y435750D02*
D03*
X149250Y371000D02*
D03*
X316000Y505500D02*
D03*
X331750Y506000D02*
D03*
X301500Y466000D02*
D03*
X237000Y404500D02*
D03*
X234500Y464750D02*
D03*
X214500Y456500D02*
D03*
X205750Y456750D02*
D03*
X165000Y459250D02*
D03*
X150250Y459000D02*
D03*
X123000Y400000D02*
D03*
X144000Y424000D02*
D03*
X139000Y419250D02*
D03*
X133500Y414000D02*
D03*
X126750Y409250D02*
D03*
X87750Y339250D02*
D03*
X83250Y344250D02*
D03*
X93750Y333500D02*
D03*
X98750Y329250D02*
D03*
X83250Y430500D02*
D03*
X80250Y446750D02*
D03*
X84500Y415750D02*
D03*
X83250Y402000D02*
D03*
X131750Y354250D02*
D03*
X251500Y248500D02*
D03*
X300000Y320250D02*
D03*
X300500Y359500D02*
D03*
X77750Y514250D02*
D03*
X61250D02*
D03*
X245250Y212750D02*
D03*
X97250Y419000D02*
D03*
X21250Y334750D02*
D03*
X83750Y306250D02*
D03*
X226500Y471750D02*
D03*
X99000D02*
D03*
X197250Y434500D02*
D03*
X249500Y436000D02*
D03*
X85750Y75000D02*
D03*
X163871Y148313D02*
D03*
X374250Y289000D02*
D03*
X307000Y303250D02*
D03*
X138750Y167500D02*
D03*
X104000Y153100D02*
D03*
X103000Y146850D02*
D03*
X310500Y317750D02*
D03*
X299250Y312750D02*
D03*
X373750Y304000D02*
D03*
X299250Y368500D02*
D03*
X51726Y346726D02*
D03*
X38750Y474000D02*
D03*
D25*
X117500Y36750D02*
D03*
X34750Y89250D02*
D03*
M02*
