G04*
G04 #@! TF.GenerationSoftware,Altium Limited,Altium Designer,19.1.9 (167)*
G04*
G04 Layer_Physical_Order=4*
G04 Layer_Color=16711680*
%FSLAX44Y44*%
%MOMM*%
G71*
G01*
G75*
%ADD11C,0.5000*%
%ADD12C,0.2000*%
%ADD108C,0.3000*%
%ADD109C,0.7500*%
%ADD119C,0.8000*%
%ADD120C,0.4500*%
%ADD121C,5.0000*%
%ADD122C,1.5000*%
%ADD123R,1.5000X1.5000*%
%ADD124R,1.5000X1.5000*%
%ADD125C,2.2000*%
%ADD126C,3.2500*%
%ADD127C,0.5500*%
%ADD128C,0.4000*%
%ADD136C,1.0000*%
G36*
X645000Y300000D02*
X650000Y295000D01*
X650000Y210000D01*
Y75000D01*
X640000Y65000D01*
X550000Y65000D01*
X540000Y75000D01*
Y150000D01*
X561476Y171476D01*
X562091Y171598D01*
X564076Y172924D01*
X565402Y174909D01*
X565524Y175524D01*
X585000Y195000D01*
Y255000D01*
X630000Y300000D01*
X645000Y300000D01*
D02*
G37*
G36*
X825000Y290000D02*
Y160000D01*
X815000Y150000D01*
X710000D01*
X700000Y160000D01*
Y167751D01*
X700574Y167866D01*
X702558Y169192D01*
X703885Y171176D01*
X704350Y173517D01*
X703885Y175858D01*
X702558Y177843D01*
X700574Y179169D01*
X700000Y179283D01*
Y280000D01*
X725000Y305000D01*
X810000D01*
X825000Y290000D01*
D02*
G37*
%LPC*%
G36*
X601500Y263617D02*
X599159Y263152D01*
X597174Y261826D01*
X595848Y259841D01*
X595382Y257500D01*
X595848Y255159D01*
X597174Y253174D01*
X599159Y251848D01*
X601500Y251383D01*
X603841Y251848D01*
X605826Y253174D01*
X607152Y255159D01*
X607617Y257500D01*
X607152Y259841D01*
X605826Y261826D01*
X603841Y263152D01*
X601500Y263617D01*
D02*
G37*
G36*
X576233Y163385D02*
X573891Y162919D01*
X571907Y161593D01*
X570581Y159608D01*
X570115Y157267D01*
X570581Y154926D01*
X571907Y152942D01*
X573891Y151615D01*
X576233Y151150D01*
X578574Y151615D01*
X580558Y152942D01*
X581884Y154926D01*
X582350Y157267D01*
X581884Y159608D01*
X580558Y161593D01*
X578574Y162919D01*
X576233Y163385D01*
D02*
G37*
G36*
X616500Y156617D02*
X614159Y156152D01*
X612174Y154826D01*
X610848Y152841D01*
X610382Y150500D01*
X610848Y148159D01*
X612174Y146174D01*
X614159Y144848D01*
X616500Y144382D01*
X618841Y144848D01*
X620826Y146174D01*
X622152Y148159D01*
X622618Y150500D01*
X622152Y152841D01*
X620826Y154826D01*
X618841Y156152D01*
X616500Y156617D01*
D02*
G37*
G36*
X586483Y147135D02*
X584142Y146669D01*
X582157Y145343D01*
X580831Y143358D01*
X580365Y141017D01*
X580831Y138676D01*
X582157Y136692D01*
X584142Y135365D01*
X586483Y134900D01*
X588824Y135365D01*
X590808Y136692D01*
X592135Y138676D01*
X592600Y141017D01*
X592135Y143358D01*
X590808Y145343D01*
X588824Y146669D01*
X586483Y147135D01*
D02*
G37*
G36*
X570000Y134843D02*
X568147Y134474D01*
X566575Y133425D01*
X565526Y131853D01*
X565157Y130000D01*
X565526Y128147D01*
X566575Y126575D01*
X568147Y125526D01*
X570000Y125157D01*
X571853Y125526D01*
X573425Y126575D01*
X574474Y128147D01*
X574843Y130000D01*
X574474Y131853D01*
X573425Y133425D01*
X571853Y134474D01*
X570000Y134843D01*
D02*
G37*
G36*
X604000Y119117D02*
X601659Y118652D01*
X599674Y117326D01*
X598348Y115341D01*
X597882Y113000D01*
X598348Y110659D01*
X599674Y108674D01*
X601659Y107348D01*
X604000Y106882D01*
X606341Y107348D01*
X608326Y108674D01*
X609652Y110659D01*
X610118Y113000D01*
X609652Y115341D01*
X608326Y117326D01*
X606341Y118652D01*
X604000Y119117D01*
D02*
G37*
G36*
X639500Y99093D02*
X637647Y98724D01*
X636075Y97675D01*
X635026Y96103D01*
X634657Y94250D01*
X635026Y92397D01*
X636075Y90825D01*
X637647Y89776D01*
X639500Y89407D01*
X641353Y89776D01*
X642924Y90825D01*
X643974Y92397D01*
X644343Y94250D01*
X643974Y96103D01*
X642924Y97675D01*
X641353Y98724D01*
X639500Y99093D01*
D02*
G37*
G36*
X807483Y296385D02*
X805142Y295919D01*
X803157Y294593D01*
X801831Y292609D01*
X801365Y290267D01*
X801831Y287926D01*
X803157Y285942D01*
X805142Y284615D01*
X807483Y284150D01*
X809824Y284615D01*
X811808Y285942D01*
X813135Y287926D01*
X813600Y290267D01*
X813135Y292609D01*
X811808Y294593D01*
X809824Y295919D01*
X807483Y296385D01*
D02*
G37*
G36*
X723733Y215385D02*
X721392Y214919D01*
X719407Y213593D01*
X718081Y211609D01*
X717615Y209267D01*
X718081Y206926D01*
X719407Y204942D01*
X721392Y203615D01*
X723733Y203150D01*
X726074Y203615D01*
X728058Y204942D01*
X729385Y206926D01*
X729850Y209267D01*
X729385Y211609D01*
X728058Y213593D01*
X726074Y214919D01*
X723733Y215385D01*
D02*
G37*
G36*
X805483Y211135D02*
X803141Y210669D01*
X801157Y209343D01*
X799831Y207358D01*
X799365Y205017D01*
X799831Y202676D01*
X801157Y200692D01*
X803141Y199366D01*
X805483Y198900D01*
X807824Y199366D01*
X809808Y200692D01*
X811134Y202676D01*
X811600Y205017D01*
X811134Y207358D01*
X809808Y209343D01*
X807824Y210669D01*
X805483Y211135D01*
D02*
G37*
G36*
X775000Y189843D02*
X773147Y189474D01*
X771575Y188425D01*
X770526Y186853D01*
X770157Y185000D01*
X770526Y183147D01*
X771575Y181576D01*
X773147Y180526D01*
X775000Y180157D01*
X776853Y180526D01*
X778425Y181576D01*
X779474Y183147D01*
X779843Y185000D01*
X779474Y186853D01*
X778425Y188425D01*
X776853Y189474D01*
X775000Y189843D01*
D02*
G37*
%LPD*%
D11*
X45500Y931750D02*
Y934438D01*
X48500Y937438D01*
Y938250D01*
D12*
X447000Y234000D02*
G03*
X445000Y232000I0J-2000D01*
G01*
X449000Y234000D02*
G03*
X451000Y236000I0J2000D01*
G01*
Y237000D02*
G03*
X449000Y239000I-2000J0D01*
G01*
X439000Y241000D02*
G03*
X441000Y239000I2000J0D01*
G01*
Y244000D02*
G03*
X439000Y242000I0J-2000D01*
G01*
X449000Y244000D02*
G03*
X451000Y246000I0J2000D01*
G01*
Y247000D02*
G03*
X449000Y249000I-2000J0D01*
G01*
X439000Y251000D02*
G03*
X441000Y249000I2000J0D01*
G01*
Y254000D02*
G03*
X439000Y252000I0J-2000D01*
G01*
X449000Y254000D02*
G03*
X451000Y256000I0J2000D01*
G01*
Y257000D02*
G03*
X449000Y259000I-2000J0D01*
G01*
X439000Y261000D02*
G03*
X441000Y259000I2000J0D01*
G01*
Y264000D02*
G03*
X439000Y262000I0J-2000D01*
G01*
X443000Y264000D02*
G03*
X445000Y266000I0J2000D01*
G01*
X536000Y230250D02*
G03*
X535000Y231250I-1000J0D01*
G01*
X533000Y233250D02*
G03*
X535000Y231250I2000J0D01*
G01*
Y236250D02*
G03*
X533000Y234250I0J-2000D01*
G01*
X537000Y236250D02*
G03*
X539000Y238250I0J2000D01*
G01*
Y239250D02*
G03*
X537000Y241250I-2000J0D01*
G01*
X533000Y243250D02*
G03*
X535000Y241250I2000J0D01*
G01*
Y246250D02*
G03*
X533000Y244250I0J-2000D01*
G01*
X537000Y246250D02*
G03*
X539000Y248250I0J2000D01*
G01*
Y249250D02*
G03*
X537000Y251250I-2000J0D01*
G01*
X533000Y253250D02*
G03*
X535000Y251250I2000J0D01*
G01*
Y256250D02*
G03*
X533000Y254250I0J-2000D01*
G01*
X537000Y256250D02*
G03*
X539000Y258250I0J2000D01*
G01*
Y259250D02*
G03*
X537000Y261250I-2000J0D01*
G01*
X533000Y263250D02*
G03*
X535000Y261250I2000J0D01*
G01*
Y266250D02*
G03*
X533000Y264250I0J-2000D01*
G01*
X537000Y266250D02*
G03*
X539000Y268250I0J2000D01*
G01*
Y269250D02*
G03*
X537000Y271250I-2000J0D01*
G01*
X533000Y273250D02*
G03*
X535000Y271250I2000J0D01*
G01*
Y276250D02*
G03*
X533000Y274250I0J-2000D01*
G01*
X535000Y276250D02*
G03*
X536000Y277250I0J1000D01*
G01*
X460750Y309900D02*
G03*
X463150Y307500I2400J0D01*
G01*
X466750Y305100D02*
G03*
X464350Y307500I-2400J0D01*
G01*
Y301500D02*
G03*
X466750Y303900I0J2400D01*
G01*
X457150Y301500D02*
G03*
X454750Y299100I0J-2400D01*
G01*
Y297900D02*
G03*
X457150Y295500I2400J0D01*
G01*
X466750Y293100D02*
G03*
X464350Y295500I-2400J0D01*
G01*
Y289500D02*
G03*
X466750Y291900I0J2400D01*
G01*
X457150Y289500D02*
G03*
X454750Y287100I0J-2400D01*
G01*
Y285900D02*
G03*
X457150Y283500I2400J0D01*
G01*
X460750Y281100D02*
G03*
X458350Y283500I-2400J0D01*
G01*
X481500Y317900D02*
G03*
X483900Y315500I2400J0D01*
G01*
X487500Y313100D02*
G03*
X485100Y315500I-2400J0D01*
G01*
Y309500D02*
G03*
X487500Y311900I0J2400D01*
G01*
X477900Y309500D02*
G03*
X475500Y307100I0J-2400D01*
G01*
Y305900D02*
G03*
X477900Y303500I2400J0D01*
G01*
X487500Y301100D02*
G03*
X485100Y303500I-2400J0D01*
G01*
Y297500D02*
G03*
X487500Y299900I0J2400D01*
G01*
X477900Y297500D02*
G03*
X475500Y295100I0J-2400D01*
G01*
Y293900D02*
G03*
X477900Y291500I2400J0D01*
G01*
X487500Y289100D02*
G03*
X485100Y291500I-2400J0D01*
G01*
Y285500D02*
G03*
X487500Y287900I0J2400D01*
G01*
X477900Y285500D02*
G03*
X475500Y283100I0J-2400D01*
G01*
Y281900D02*
G03*
X477900Y279500I2400J0D01*
G01*
X487500Y277100D02*
G03*
X485100Y279500I-2400J0D01*
G01*
Y273500D02*
G03*
X487500Y275900I0J2400D01*
G01*
X483900Y273500D02*
G03*
X481500Y271100I0J-2400D01*
G01*
X500250Y285400D02*
G03*
X502650Y283000I2400J0D01*
G01*
X506250Y280600D02*
G03*
X503850Y283000I-2400J0D01*
G01*
Y277000D02*
G03*
X506250Y279400I0J2400D01*
G01*
X496650Y277000D02*
G03*
X494250Y274600I0J-2400D01*
G01*
Y273400D02*
G03*
X496650Y271000I2400J0D01*
G01*
X506250Y268600D02*
G03*
X503850Y271000I-2400J0D01*
G01*
Y265000D02*
G03*
X506250Y267400I0J2400D01*
G01*
X496650Y265000D02*
G03*
X494250Y262600I0J-2400D01*
G01*
Y261400D02*
G03*
X496650Y259000I2400J0D01*
G01*
X506250Y256600D02*
G03*
X503850Y259000I-2400J0D01*
G01*
Y253000D02*
G03*
X506250Y255400I0J2400D01*
G01*
X496650Y253000D02*
G03*
X494250Y250600I0J-2400D01*
G01*
Y249400D02*
G03*
X496650Y247000I2400J0D01*
G01*
X506250Y244600D02*
G03*
X503850Y247000I-2400J0D01*
G01*
Y241000D02*
G03*
X506250Y243400I0J2400D01*
G01*
X502650Y241000D02*
G03*
X500250Y238600I0J-2400D01*
G01*
X275750Y101250D02*
G03*
X276000Y101854I-604J604D01*
G01*
X553000Y736000D02*
X564000Y747000D01*
X376000Y736000D02*
X553000D01*
X353750Y758250D02*
X376000Y736000D01*
X504500Y746000D02*
X531000Y772500D01*
X380750Y746000D02*
X504500D01*
X371750Y755000D02*
X380750Y746000D01*
X85900Y741750D02*
X240250D01*
X32500Y795150D02*
X85900Y741750D01*
X240250D02*
X249500Y751000D01*
Y756750D01*
X249250Y757000D02*
X249500Y756750D01*
X119500Y825250D02*
Y929000D01*
X135750Y945250D01*
X410000Y271141D02*
Y300000D01*
Y271141D02*
X414770Y266371D01*
Y237512D02*
Y266371D01*
X334250Y270000D02*
X376250Y228000D01*
X334250Y270000D02*
Y301000D01*
X350250Y263750D02*
X382000Y232000D01*
X350250Y263750D02*
Y300500D01*
X395000Y230500D02*
Y241500D01*
X364500Y272000D02*
X395000Y241500D01*
X364500Y272000D02*
Y300250D01*
X399000Y234000D02*
X403750Y229250D01*
X399000Y234000D02*
Y250000D01*
X380500Y268500D02*
X399000Y250000D01*
X380500Y268500D02*
Y300000D01*
X409750Y224250D02*
Y261000D01*
X394750Y276000D02*
X409750Y261000D01*
X394750Y276000D02*
Y300250D01*
X445000Y229250D02*
Y230250D01*
Y232000D01*
X447000Y234000D02*
X449000D01*
X451000Y236000D02*
Y237000D01*
X445000Y239000D02*
X449000D01*
X441000D02*
X445000D01*
X439000Y241000D02*
Y242000D01*
X441000Y244000D02*
X445000D01*
X449000D01*
X451000Y246000D02*
Y247000D01*
X445000Y249000D02*
X449000D01*
X441000D02*
X445000D01*
X439000Y251000D02*
Y252000D01*
X441000Y254000D02*
X445000D01*
X449000D01*
X451000Y256000D02*
Y257000D01*
X445000Y259000D02*
X449000D01*
X441000D02*
X445000D01*
X439000Y261000D02*
Y262000D01*
X441000Y264000D02*
X443000D01*
X445000Y266000D02*
Y269000D01*
Y271500D01*
X441500Y225750D02*
X445000Y229250D01*
X431000Y225750D02*
X441500D01*
X427500Y229250D02*
X431000Y225750D01*
X427500Y229250D02*
Y287750D01*
X440000Y300250D01*
X536000Y228250D02*
Y230250D01*
X533000Y233250D02*
Y234250D01*
X535000Y236250D02*
X536000D01*
X537000D01*
X539000Y238250D02*
Y239250D01*
X536000Y241250D02*
X537000D01*
X535000D02*
X536000D01*
X533000Y243250D02*
Y244250D01*
X535000Y246250D02*
X536000D01*
X537000D01*
X539000Y248250D02*
Y249250D01*
X536000Y251250D02*
X537000D01*
X535000D02*
X536000D01*
X533000Y253250D02*
Y254250D01*
X535000Y256250D02*
X536000D01*
X537000D01*
X539000Y258250D02*
Y259250D01*
X536000Y261250D02*
X537000D01*
X535000D02*
X536000D01*
X533000Y263250D02*
Y264250D01*
X535000Y266250D02*
X536000D01*
X537000D01*
X539000Y268250D02*
Y269250D01*
X536000Y271250D02*
X537000D01*
X535000D02*
X536000D01*
X533000Y273250D02*
Y274250D01*
X536000Y277250D02*
Y281250D01*
Y283750D01*
X529500Y290250D02*
X536000Y283750D01*
X527500Y212000D02*
Y242500D01*
X525000Y209500D02*
X527500Y212000D01*
X517250Y209500D02*
X525000D01*
X514750Y212000D02*
X517250Y209500D01*
X514750Y212000D02*
Y227250D01*
X520750Y233250D01*
Y244750D01*
X527250Y251250D01*
Y262500D01*
X514500Y275250D02*
X527250Y262500D01*
X514500Y275250D02*
Y296000D01*
X543063Y285312D02*
X545000Y283375D01*
Y212500D02*
Y283375D01*
X530250Y302750D02*
Y319250D01*
X519500Y330000D02*
X530250Y319250D01*
X468250Y330000D02*
X519500D01*
X460750Y322500D02*
X468250Y330000D01*
X460750Y311000D02*
Y322500D01*
Y270500D02*
Y280500D01*
Y309900D02*
Y311000D01*
X463150Y307500D02*
X464350D01*
X466750Y303900D02*
Y305100D01*
X460750Y301500D02*
X464350D01*
X457150D02*
X460750D01*
X454750Y297900D02*
Y299100D01*
X457150Y295500D02*
X460750D01*
X464350D01*
X466750Y291900D02*
Y293100D01*
X460750Y289500D02*
X464350D01*
X457150D02*
X460750D01*
X454750Y285900D02*
Y287100D01*
X457150Y283500D02*
X458350D01*
X460750Y280500D02*
Y281100D01*
X515250Y302750D02*
Y318000D01*
X510750Y322500D02*
X515250Y318000D01*
X484500Y322500D02*
X510750D01*
X481500Y319500D02*
X484500Y322500D01*
X481500Y317900D02*
Y319500D01*
X483900Y315500D02*
X485100D01*
X487500Y311900D02*
Y313100D01*
X481500Y309500D02*
X485100D01*
X477900D02*
X481500D01*
X475500Y305900D02*
Y307100D01*
X477900Y303500D02*
X481500D01*
X485100D01*
X487500Y299900D02*
Y301100D01*
X481500Y297500D02*
X485100D01*
X477900D02*
X481500D01*
X475500Y293900D02*
Y295100D01*
X477900Y291500D02*
X481500D01*
X485100D01*
X487500Y287900D02*
Y289100D01*
X481500Y285500D02*
X485100D01*
X477900D02*
X481500D01*
X475500Y281900D02*
Y283100D01*
X477900Y279500D02*
X481500D01*
X485100D01*
X487500Y275900D02*
Y277100D01*
X483900Y273500D02*
X485100D01*
X481500Y267500D02*
Y271100D01*
Y264500D02*
Y267500D01*
X500250Y287000D02*
Y302250D01*
Y285400D02*
Y287000D01*
X502650Y283000D02*
X503850D01*
X506250Y279400D02*
Y280600D01*
X500250Y277000D02*
X503850D01*
X496650D02*
X500250D01*
X494250Y273400D02*
Y274600D01*
X496650Y271000D02*
X500250D01*
X503850D01*
X506250Y267400D02*
Y268600D01*
X500250Y265000D02*
X503850D01*
X496650D02*
X500250D01*
X494250Y261400D02*
Y262600D01*
X496650Y259000D02*
X500250D01*
X503850D01*
X506250Y255400D02*
Y256600D01*
X500250Y253000D02*
X503850D01*
X496650D02*
X500250D01*
X494250Y249400D02*
Y250600D01*
X496650Y247000D02*
X500250D01*
X503850D01*
X506250Y243400D02*
Y244600D01*
X502650Y241000D02*
X503850D01*
X500250Y235000D02*
Y238600D01*
Y232000D02*
Y235000D01*
Y232000D02*
X503500Y228750D01*
X507250D01*
X511500Y233000D01*
Y253750D01*
X513500Y255750D01*
X521000D01*
X574500Y257000D02*
X619000Y301500D01*
X574500Y209250D02*
Y257000D01*
X536750Y171500D02*
X574500Y209250D01*
X479500Y171500D02*
X536750D01*
X566000Y262750D02*
X605500Y302250D01*
X566000Y210250D02*
Y262750D01*
X549750Y194000D02*
X566000Y210250D01*
X520250Y194000D02*
X549750D01*
X509000Y182750D02*
X520250Y194000D01*
X491250Y182750D02*
X509000D01*
X118750Y811750D02*
X127500Y820500D01*
X85500Y811750D02*
X118750D01*
X76250Y802500D02*
X85500Y811750D01*
X86000Y847500D02*
Y847545D01*
X85754Y847791D02*
X86000Y847545D01*
X227500Y865750D02*
X227750Y865500D01*
X227500Y865750D02*
Y865750D01*
X471500Y136750D02*
Y137000D01*
X471500Y136750D02*
X471500Y136750D01*
X262250Y50765D02*
Y51250D01*
Y50765D02*
X262263Y50753D01*
X609250Y1032250D02*
X631250Y1010250D01*
X439750Y1032250D02*
X609250D01*
X431000Y1041000D02*
X439750Y1032250D01*
X303050Y1058750D02*
X320800Y1041000D01*
X431000D01*
X417750Y1005250D02*
X435000Y1022500D01*
X388750Y1005250D02*
X417750D01*
X631250Y880618D02*
Y1010250D01*
Y880618D02*
X655750Y856118D01*
Y816250D02*
Y856118D01*
Y816250D02*
X710000Y762000D01*
X127250Y847000D02*
X127500Y846750D01*
Y820500D02*
Y846750D01*
X445250Y769000D02*
Y946750D01*
X431750Y755500D02*
X445250Y769000D01*
X411500Y755500D02*
X431750D01*
X428500Y763250D02*
Y830750D01*
X420770Y861751D02*
Y862292D01*
X418770Y859751D02*
X420770Y861751D01*
X418770Y833115D02*
Y859751D01*
X376500Y790845D02*
X418770Y833115D01*
X366750Y790250D02*
X414770Y838270D01*
Y863292D01*
X366750Y784000D02*
Y790250D01*
Y784000D02*
X375500Y775250D01*
X375000Y824000D02*
X375250D01*
X392750Y834750D02*
X409750Y851750D01*
Y859750D01*
X386000Y834750D02*
X392750D01*
X375250Y824000D02*
X386000Y834750D01*
X375000Y823750D02*
Y824000D01*
X378750Y838750D02*
X390900D01*
X404750Y852600D01*
Y863250D01*
X369000Y829000D02*
X378750Y838750D01*
X369000Y813804D02*
Y829000D01*
Y813804D02*
X375804Y807000D01*
X375875D01*
X375500Y775000D02*
Y775250D01*
X376500Y790845D02*
Y791500D01*
X277000Y832750D02*
X309750Y865500D01*
X277000Y785250D02*
Y832750D01*
X275250Y783500D02*
X277000Y785250D01*
X531000Y772500D02*
Y796500D01*
X761600Y724250D02*
X771500Y734150D01*
X363500Y724250D02*
X761600D01*
X332000Y755750D02*
X363500Y724250D01*
X769500Y706750D02*
X771500Y708750D01*
X359500Y706750D02*
X769500D01*
X317000Y749250D02*
X359500Y706750D01*
X267250Y982250D02*
X284000Y999000D01*
X267250Y808750D02*
Y982250D01*
X215500Y757000D02*
X267250Y808750D01*
X271250Y968000D02*
X295750Y992500D01*
X271250Y798000D02*
Y968000D01*
X229750Y756500D02*
X271250Y798000D01*
X289250Y755750D02*
X332000D01*
X286800Y693550D02*
X319500Y726250D01*
X32500Y693550D02*
X286800D01*
X88000Y891000D02*
X99250Y879750D01*
X88000Y891000D02*
Y935000D01*
X241000Y812000D02*
Y1000000D01*
X185750Y756750D02*
X241000Y812000D01*
Y1000000D02*
X256250Y1015250D01*
X322097Y805750D02*
X339847Y823500D01*
X285500Y805750D02*
X322097D01*
X340250Y763000D02*
Y767000D01*
X347250Y774000D01*
X275500Y1007250D02*
X295000D01*
X263250Y995000D02*
X275500Y1007250D01*
X295750Y992500D02*
X344500D01*
X382500Y999000D02*
X388750Y1005250D01*
X284000Y999000D02*
X382500D01*
X263250Y818500D02*
Y995000D01*
X201500Y756750D02*
X263250Y818500D01*
X256250Y1015250D02*
X337750D01*
X253000Y1023500D02*
X418750D01*
X234250Y1004750D02*
X253000Y1023500D01*
X234250Y820000D02*
Y1004750D01*
X172000Y757750D02*
X234250Y820000D01*
X470750Y807000D02*
X471000Y807250D01*
X470750Y756500D02*
Y807000D01*
X454750Y823500D02*
X455000Y823250D01*
Y757500D02*
Y823250D01*
X329250Y772750D02*
X340250Y783750D01*
Y790750D01*
X302750Y772750D02*
X329250D01*
X340000Y807000D02*
X347250Y799750D01*
Y774000D02*
Y799750D01*
X312150Y629150D02*
X773000D01*
X141500Y458500D02*
X312150Y629150D01*
X132500Y458500D02*
X141500D01*
X306000Y603750D02*
X773000D01*
X136750Y434500D02*
X306000Y603750D01*
X122500Y434500D02*
X136750D01*
X294850Y578350D02*
X773000D01*
X211000Y494500D02*
X294850Y578350D01*
X286950Y552950D02*
X773000D01*
X225500Y491500D02*
X286950Y552950D01*
X142500Y426000D02*
X211000Y494500D01*
X132000Y426000D02*
X142500D01*
X143750Y409750D02*
X225500Y491500D01*
X132250Y409750D02*
X143750D01*
X318050Y654550D02*
X773000D01*
X124000Y460500D02*
X318050Y654550D01*
X124000Y453000D02*
Y460500D01*
Y453000D02*
X132750Y444250D01*
X421700Y419450D02*
X774250D01*
X305250Y303000D02*
X421700Y419450D01*
X431600Y444850D02*
X774250D01*
X289750Y303000D02*
X431600Y444850D01*
X441500Y470250D02*
X774250D01*
X274250Y303000D02*
X441500Y470250D01*
X452150Y495650D02*
X774250D01*
X259750Y303250D02*
X452150Y495650D01*
X116927Y625073D02*
X132500Y609500D01*
X50177Y625073D02*
X116927D01*
X32500Y642750D02*
X50177Y625073D01*
X132117Y489883D02*
X132500Y489500D01*
X32967Y489883D02*
X132117D01*
X32500Y490350D02*
X32967Y489883D01*
X32500Y515750D02*
X44500Y503750D01*
X133000D01*
X32500Y744350D02*
X43314Y733536D01*
X68503D01*
X43000Y718950D02*
X54700Y707250D01*
X32500Y718950D02*
X43000D01*
X54700Y707250D02*
X68469D01*
X68503Y707284D01*
X32500Y617350D02*
X44350Y605500D01*
X72474D01*
X72503Y605530D01*
X32500Y591950D02*
X52800D01*
X66472Y578278D01*
X72503D01*
X43000Y566550D02*
X55550Y554000D01*
X32500Y566550D02*
X43000D01*
X55550Y554000D02*
X72477D01*
X72503Y554027D01*
X32500Y541150D02*
X57379D01*
X72503Y526026D01*
X32500Y668150D02*
X56850D01*
X68500Y656500D01*
X550250Y202500D02*
X559500Y211750D01*
Y302250D01*
X498750Y202500D02*
X550250D01*
X472273Y176023D02*
X498750Y202500D01*
X472273Y157273D02*
Y176023D01*
X472250Y157250D02*
X472273Y157273D01*
X472250Y156781D02*
Y157250D01*
Y156781D02*
X472273Y156758D01*
X257250Y233500D02*
X285000Y205750D01*
X343500D01*
X359250Y190000D01*
X396500D01*
X443000Y143500D01*
Y124250D02*
Y143500D01*
Y124250D02*
X450000Y117250D01*
X265500Y92750D02*
X302375D01*
X257750Y100500D02*
X265500Y92750D01*
X302375D02*
X306125Y96500D01*
X344500D01*
X362000Y114000D01*
X425500D01*
X438000Y126500D01*
X276000Y101854D02*
Y139750D01*
D108*
X333038Y187309D02*
G03*
X333500Y187500I0J653D01*
G01*
X331042Y187309D02*
G03*
X330669Y187154I0J-527D01*
G01*
X330297Y187000D02*
G03*
X330669Y187154I0J527D01*
G01*
X327712Y187000D02*
G03*
X314425Y181496I0J-18791D01*
G01*
X318621Y122629D02*
G03*
X319500Y124750I-2121J2121D01*
G01*
X319500Y126058D02*
G03*
X313000Y141750I-22192J0D01*
G01*
X316500Y121750D02*
G03*
X318621Y122629I0J3000D01*
G01*
X314081Y121904D02*
G03*
X313708Y122059I-373J-373D01*
G01*
X314081Y121904D02*
G03*
X314454Y121750I373J373D01*
G01*
X310181Y177252D02*
G03*
X305000Y164744I12508J-12508D01*
G01*
Y159734D02*
G03*
X312060Y142690I24104J0D01*
G01*
X333500Y181500D02*
G03*
X333038Y181691I-462J-462D01*
G01*
X330669Y181845D02*
G03*
X330297Y182000I-373J-373D01*
G01*
X327750D02*
G03*
X317934Y177934I0J-13882D01*
G01*
X330669Y181845D02*
G03*
X331042Y181691I373J373D01*
G01*
X324500Y126111D02*
G03*
X316573Y145248I-27064J0D01*
G01*
X322179Y119116D02*
G03*
X324500Y124718I-5603J5603D01*
G01*
X316519Y116750D02*
G03*
X322144Y119080I0J7955D01*
G01*
X314454Y116750D02*
G03*
X314081Y116596I0J-527D01*
G01*
X310000Y159750D02*
G03*
X315607Y146215I19142J0D01*
G01*
X313750Y173750D02*
G03*
X310000Y164697I9053J-9053D01*
G01*
X313708Y116441D02*
G03*
X314081Y116596I0J527D01*
G01*
X311712Y116441D02*
G03*
X311250Y116250I0J-653D01*
G01*
X342500Y111000D02*
Y129250D01*
X355250Y142000D01*
X331042Y187309D02*
X333038D01*
X327712Y187000D02*
X330297D01*
X319500Y124750D02*
Y126058D01*
X314454Y121750D02*
X316500D01*
X310181Y177252D02*
X314425Y181496D01*
X305000Y159734D02*
Y164744D01*
X333500Y181500D02*
X333500Y181500D01*
X327750Y182000D02*
X330297D01*
X331042Y181691D02*
X333038D01*
X324500Y124718D02*
Y126111D01*
X313750Y173750D02*
X317934Y177934D01*
X322144Y119080D02*
X322179Y119116D01*
X315607Y146215D02*
X316573Y145248D01*
X313750Y173750D02*
Y173750D01*
X314454Y116750D02*
X316519D01*
X310000Y159750D02*
Y164697D01*
X311712Y116441D02*
X313708D01*
X312060Y142690D02*
X313000Y141750D01*
D109*
X660250Y101500D02*
Y275250D01*
X690000Y305000D01*
X798300Y88750D02*
X814550Y105000D01*
X729217Y88750D02*
X798300D01*
X712967Y105000D02*
X729217Y88750D01*
X712950Y105000D02*
X712967D01*
X671643Y90107D02*
X698057D01*
X712950Y105000D01*
X660250Y101500D02*
X671643Y90107D01*
D119*
X635750Y229250D02*
D03*
X625750D02*
D03*
X615750D02*
D03*
X605750D02*
D03*
X595750D02*
D03*
X605750Y209250D02*
D03*
X615750D02*
D03*
X625750D02*
D03*
Y219250D02*
D03*
X635750D02*
D03*
Y209250D02*
D03*
Y199250D02*
D03*
X625750D02*
D03*
X615750D02*
D03*
X605750D02*
D03*
X595750D02*
D03*
Y209250D02*
D03*
Y219250D02*
D03*
X605750D02*
D03*
X615750D02*
D03*
X764250Y256000D02*
D03*
Y266000D02*
D03*
Y276000D02*
D03*
X774250D02*
D03*
Y266000D02*
D03*
Y256000D02*
D03*
Y246000D02*
D03*
Y236000D02*
D03*
X764250D02*
D03*
Y246000D02*
D03*
X754250Y236000D02*
D03*
Y246000D02*
D03*
Y256000D02*
D03*
Y266000D02*
D03*
Y276000D02*
D03*
X744250D02*
D03*
Y266000D02*
D03*
Y256000D02*
D03*
Y246000D02*
D03*
Y236000D02*
D03*
X604250Y989500D02*
D03*
X547000Y1001250D02*
D03*
X680000Y233500D02*
D03*
X604000Y113000D02*
D03*
X601500Y257500D02*
D03*
X660500Y218500D02*
D03*
X729250Y369250D02*
D03*
X264500Y204250D02*
D03*
X61500Y82500D02*
D03*
X29750Y277250D02*
D03*
X805483Y205017D02*
D03*
X807483Y290267D02*
D03*
X684750Y249500D02*
D03*
X723733Y209267D02*
D03*
X698233Y173517D02*
D03*
X616500Y150500D02*
D03*
X576233Y157267D02*
D03*
X586483Y141017D02*
D03*
X513750Y955000D02*
D03*
X670000Y265000D02*
D03*
X690000Y305000D02*
D03*
X380750Y853000D02*
D03*
X48500Y868750D02*
D03*
X559750Y177250D02*
D03*
X436450Y848700D02*
D03*
X504800Y914950D02*
D03*
X569491Y1019339D02*
D03*
X498750Y1004250D02*
D03*
X363241Y899589D02*
D03*
X353241Y864839D02*
D03*
X252000Y947750D02*
D03*
X392750Y852500D02*
D03*
X426771Y856792D02*
D03*
X454250Y13750D02*
D03*
X315000Y25000D02*
D03*
X48500Y938250D02*
D03*
X427500Y1003500D02*
D03*
X364050Y921200D02*
D03*
X421991Y957089D02*
D03*
X405491Y956089D02*
D03*
D120*
X567500Y923250D02*
D03*
X561500D02*
D03*
X555500D02*
D03*
X549500D02*
D03*
Y929250D02*
D03*
Y935250D02*
D03*
Y941250D02*
D03*
X555500D02*
D03*
X561500D02*
D03*
X567500D02*
D03*
X573500D02*
D03*
X579500D02*
D03*
X585500D02*
D03*
Y935250D02*
D03*
Y929250D02*
D03*
Y923250D02*
D03*
Y917250D02*
D03*
Y911250D02*
D03*
Y905250D02*
D03*
X579500D02*
D03*
X573500D02*
D03*
X567500D02*
D03*
X561500D02*
D03*
X555500D02*
D03*
X549500D02*
D03*
Y911250D02*
D03*
Y917250D02*
D03*
X555500D02*
D03*
X561500D02*
D03*
X567500D02*
D03*
Y911250D02*
D03*
X561500D02*
D03*
X555500D02*
D03*
Y929250D02*
D03*
Y935250D02*
D03*
X561500D02*
D03*
X567500D02*
D03*
X573500D02*
D03*
X579500D02*
D03*
Y929250D02*
D03*
Y923250D02*
D03*
Y917250D02*
D03*
Y911250D02*
D03*
X573500D02*
D03*
Y917250D02*
D03*
Y923250D02*
D03*
Y929250D02*
D03*
X567500D02*
D03*
X561500D02*
D03*
X397001Y923329D02*
D03*
X404621D02*
D03*
X412241D02*
D03*
X419861D02*
D03*
X427481D02*
D03*
Y915709D02*
D03*
Y908089D02*
D03*
Y900469D02*
D03*
Y892849D02*
D03*
X419861D02*
D03*
X412241D02*
D03*
X404621D02*
D03*
X397001D02*
D03*
Y900469D02*
D03*
X404621D02*
D03*
X412241D02*
D03*
X419861D02*
D03*
Y908089D02*
D03*
Y915709D02*
D03*
X412241D02*
D03*
X404621D02*
D03*
X397001D02*
D03*
X389381D02*
D03*
Y923329D02*
D03*
Y930949D02*
D03*
X397001D02*
D03*
X404621D02*
D03*
X412241D02*
D03*
X419861D02*
D03*
X427481D02*
D03*
X435101D02*
D03*
Y923329D02*
D03*
Y915709D02*
D03*
Y908089D02*
D03*
Y900469D02*
D03*
Y892849D02*
D03*
Y885229D02*
D03*
X427481D02*
D03*
X419861D02*
D03*
X412241D02*
D03*
X404621D02*
D03*
X397001D02*
D03*
X389381D02*
D03*
Y892849D02*
D03*
Y900469D02*
D03*
Y908089D02*
D03*
X397001D02*
D03*
X404621D02*
D03*
X412241D02*
D03*
D121*
X805000Y1090000D02*
D03*
X35000D02*
D03*
X805000Y35000D02*
D03*
X35000D02*
D03*
D122*
X32500Y642750D02*
D03*
Y668150D02*
D03*
Y693550D02*
D03*
Y718950D02*
D03*
Y744350D02*
D03*
Y769750D02*
D03*
Y617350D02*
D03*
Y591950D02*
D03*
Y566550D02*
D03*
Y541150D02*
D03*
Y515750D02*
D03*
Y490350D02*
D03*
Y464950D02*
D03*
Y439550D02*
D03*
Y414150D02*
D03*
Y388750D02*
D03*
Y363350D02*
D03*
Y337950D02*
D03*
Y312550D02*
D03*
X252250Y1084150D02*
D03*
X277650D02*
D03*
X303050D02*
D03*
X328450D02*
D03*
X252250Y1058750D02*
D03*
X277650D02*
D03*
X303050D02*
D03*
X328450D02*
D03*
X430050Y1084150D02*
D03*
Y1058750D02*
D03*
X480850Y1084150D02*
D03*
X455450Y1058750D02*
D03*
Y1084150D02*
D03*
X404650Y1058750D02*
D03*
Y1084150D02*
D03*
X379250Y1058750D02*
D03*
Y1084150D02*
D03*
X353850Y1058750D02*
D03*
Y1084150D02*
D03*
X773000Y552950D02*
D03*
Y578350D02*
D03*
Y603750D02*
D03*
Y629150D02*
D03*
X131700Y1072750D02*
D03*
X157100D02*
D03*
X182500D02*
D03*
X774250Y419450D02*
D03*
Y444850D02*
D03*
Y470250D02*
D03*
X771500Y708750D02*
D03*
X616000Y46500D02*
D03*
X699500Y66900D02*
D03*
X674100Y41500D02*
D03*
Y66900D02*
D03*
X763750Y130400D02*
D03*
Y105000D02*
D03*
X814550Y130400D02*
D03*
X789150Y105000D02*
D03*
Y130400D02*
D03*
X738350Y105000D02*
D03*
Y130400D02*
D03*
X712950Y105000D02*
D03*
Y130400D02*
D03*
X687550Y105000D02*
D03*
Y130400D02*
D03*
D123*
X32500Y795150D02*
D03*
X773000Y654550D02*
D03*
X774250Y495650D02*
D03*
X771500Y734150D02*
D03*
D124*
X480850Y1058750D02*
D03*
X207900Y1072750D02*
D03*
X590600Y46500D02*
D03*
X699500Y41500D02*
D03*
X814550Y105000D02*
D03*
D125*
X778600Y919650D02*
D03*
X753200Y945050D02*
D03*
Y894250D02*
D03*
X804000D02*
D03*
Y945050D02*
D03*
D126*
X29300Y106050D02*
D03*
Y232050D02*
D03*
D127*
X535000Y885000D02*
D03*
X600000D02*
D03*
X520500Y908000D02*
D03*
Y887250D02*
D03*
X502500Y889750D02*
D03*
X832000Y308000D02*
D03*
X775000Y185000D02*
D03*
X570000Y130000D02*
D03*
X639500Y94250D02*
D03*
X650000Y15000D02*
D03*
X750000D02*
D03*
X570000Y785000D02*
D03*
X625000D02*
D03*
X675000D02*
D03*
X725000D02*
D03*
X780000D02*
D03*
X810000Y815000D02*
D03*
X750000D02*
D03*
X700000D02*
D03*
X650000D02*
D03*
X600000Y820000D02*
D03*
X455000Y1020000D02*
D03*
X505000D02*
D03*
X530000Y1095000D02*
D03*
Y1045000D02*
D03*
X550000Y1070000D02*
D03*
X575000Y1095000D02*
D03*
Y1045000D02*
D03*
X600000Y1070000D02*
D03*
X625000Y1095000D02*
D03*
X675000D02*
D03*
X725000D02*
D03*
X755000Y1070000D02*
D03*
X700000D02*
D03*
X650000D02*
D03*
X600000Y1020000D02*
D03*
X625000Y1045000D02*
D03*
X675000D02*
D03*
X725000D02*
D03*
X780000D02*
D03*
X810000Y1020000D02*
D03*
X755000D02*
D03*
X700000D02*
D03*
X650000D02*
D03*
X340000Y870000D02*
D03*
Y900000D02*
D03*
Y930000D02*
D03*
X345000Y960000D02*
D03*
X360000Y980000D02*
D03*
X625000Y995000D02*
D03*
X810000Y970000D02*
D03*
X755000D02*
D03*
X780000Y995000D02*
D03*
X725000D02*
D03*
X675000D02*
D03*
X650000Y970000D02*
D03*
X700000D02*
D03*
X725000Y945000D02*
D03*
X675000D02*
D03*
X460000Y845000D02*
D03*
X480000Y870000D02*
D03*
X510000Y845000D02*
D03*
X570000D02*
D03*
X625000D02*
D03*
X725000Y895000D02*
D03*
X675000D02*
D03*
X810000Y870000D02*
D03*
X780000Y845000D02*
D03*
X725000D02*
D03*
X675000D02*
D03*
X750000Y870000D02*
D03*
X700000D02*
D03*
X650000D02*
D03*
X600000D02*
D03*
X550000D02*
D03*
X761000Y910500D02*
D03*
X753000D02*
D03*
X743750D02*
D03*
X761000Y928486D02*
D03*
X752750Y928250D02*
D03*
X744000Y928486D02*
D03*
X767350Y933150D02*
D03*
X775100Y936150D02*
D03*
X783600Y935900D02*
D03*
X790750Y931250D02*
D03*
X795100Y923400D02*
D03*
Y914150D02*
D03*
X790100Y907150D02*
D03*
X783600Y902400D02*
D03*
X775100D02*
D03*
X767600Y905400D02*
D03*
X514000Y916500D02*
D03*
Y924750D02*
D03*
X518000Y932500D02*
D03*
X534750Y893750D02*
D03*
X527250Y891250D02*
D03*
X611500Y917000D02*
D03*
X604500D02*
D03*
X604750Y899250D02*
D03*
X612750Y898750D02*
D03*
X620750D02*
D03*
X736000Y910500D02*
D03*
X726750D02*
D03*
X717250D02*
D03*
X708750D02*
D03*
X700250D02*
D03*
X691500D02*
D03*
X682500D02*
D03*
X735500Y928486D02*
D03*
X726750D02*
D03*
X717000D02*
D03*
X708750D02*
D03*
X700500D02*
D03*
X691250D02*
D03*
X682000D02*
D03*
X661750D02*
D03*
X672250D02*
D03*
X672968Y910500D02*
D03*
X662468D02*
D03*
X492500Y891250D02*
D03*
X466750Y906500D02*
D03*
X517500Y874750D02*
D03*
X466000Y941000D02*
D03*
X475250Y946500D02*
D03*
X472250Y931500D02*
D03*
X482750Y931250D02*
D03*
X477500Y904000D02*
D03*
X484750Y902750D02*
D03*
X616968Y934986D02*
D03*
X652218Y928486D02*
D03*
X641718D02*
D03*
X652468Y910500D02*
D03*
X642000D02*
D03*
D128*
X662000Y763750D02*
D03*
X564000Y747000D02*
D03*
X353750Y758250D02*
D03*
X249250Y757000D02*
D03*
X119500Y825250D02*
D03*
X135750Y945250D02*
D03*
X414770Y237512D02*
D03*
X55000Y961250D02*
D03*
X304000Y137250D02*
D03*
X85500Y803500D02*
D03*
X85754Y847791D02*
D03*
X227500Y865750D02*
D03*
X248750Y840250D02*
D03*
Y828750D02*
D03*
X386250Y756250D02*
D03*
X806750Y345250D02*
D03*
X374750Y276500D02*
D03*
X405000Y203750D02*
D03*
X453022Y152007D02*
D03*
X488500Y146250D02*
D03*
X523250Y161750D02*
D03*
X523000Y136750D02*
D03*
X509000Y113000D02*
D03*
X471500Y137000D02*
D03*
X452250Y172000D02*
D03*
X343000Y49750D02*
D03*
X262263Y50753D02*
D03*
X440000Y300250D02*
D03*
X68500Y656500D02*
D03*
X529500Y290250D02*
D03*
X544750Y302250D02*
D03*
X302750Y772750D02*
D03*
X122500Y434500D02*
D03*
X380500Y300000D02*
D03*
X259750Y303250D02*
D03*
X697500Y683250D02*
D03*
X185750Y756750D02*
D03*
X605500Y302250D02*
D03*
X559500D02*
D03*
X132000Y426000D02*
D03*
X350250Y300500D02*
D03*
X215500Y757000D02*
D03*
X132750Y368750D02*
D03*
X132000Y713750D02*
D03*
X68503Y733536D02*
D03*
X305250Y303000D02*
D03*
X371750Y755000D02*
D03*
X132500Y609500D02*
D03*
X274250Y303000D02*
D03*
X543063Y285312D02*
D03*
X428500Y763250D02*
D03*
X394750Y300250D02*
D03*
X500250Y302250D02*
D03*
X229750Y756500D02*
D03*
X411500Y755500D02*
D03*
X317000Y749250D02*
D03*
X364500Y300250D02*
D03*
X455000Y757500D02*
D03*
X620500Y756750D02*
D03*
X132500Y489500D02*
D03*
X72503Y605530D02*
D03*
X514500Y296000D02*
D03*
X698500Y714750D02*
D03*
Y533250D02*
D03*
Y369000D02*
D03*
X340250Y763000D02*
D03*
X132500Y624500D02*
D03*
X424750Y300250D02*
D03*
X530250Y757000D02*
D03*
X289750Y303000D02*
D03*
X334250Y301000D02*
D03*
X410000Y300000D02*
D03*
X619000Y301500D02*
D03*
X697500Y504000D02*
D03*
X545000Y757750D02*
D03*
X285500Y805750D02*
D03*
X289250Y755750D02*
D03*
X470750Y756500D02*
D03*
X72503Y578278D02*
D03*
X530250Y302750D02*
D03*
X698500Y398750D02*
D03*
X172000Y757750D02*
D03*
X132750Y444250D02*
D03*
X319250Y300750D02*
D03*
X515250Y302750D02*
D03*
X319500Y726250D02*
D03*
X201500Y756750D02*
D03*
X133000Y503750D02*
D03*
X132500Y458500D02*
D03*
X132250Y409750D02*
D03*
X68503Y707284D02*
D03*
X72503Y526026D02*
D03*
Y554027D02*
D03*
X289750Y37500D02*
D03*
X270000Y32750D02*
D03*
X283750Y27750D02*
D03*
X283250Y11000D02*
D03*
X356250Y22500D02*
D03*
X342500Y111000D02*
D03*
X355250Y142000D02*
D03*
X366250Y122000D02*
D03*
X327750Y47750D02*
D03*
X414250Y34250D02*
D03*
X388000Y33750D02*
D03*
X435000Y1022500D02*
D03*
X418750Y1023500D02*
D03*
X710000Y762000D02*
D03*
X180000Y976000D02*
D03*
X172000Y954250D02*
D03*
X92750Y967500D02*
D03*
X86500Y949500D02*
D03*
X127250Y847000D02*
D03*
X76250Y802500D02*
D03*
X810750Y376000D02*
D03*
X720000Y490000D02*
D03*
X719785Y439771D02*
D03*
X719750Y411250D02*
D03*
X713000Y355500D02*
D03*
X291500Y957000D02*
D03*
X293000Y875000D02*
D03*
X52500Y812500D02*
D03*
X181500Y854250D02*
D03*
X101500Y853500D02*
D03*
X142250Y952000D02*
D03*
X311000Y985500D02*
D03*
X297000Y982500D02*
D03*
X249250Y988250D02*
D03*
X488750Y211750D02*
D03*
X519250Y71250D02*
D03*
X438750Y84750D02*
D03*
X409750Y81250D02*
D03*
X405000Y85250D02*
D03*
X395000Y85500D02*
D03*
X240250Y16250D02*
D03*
X281250Y272750D02*
D03*
X322500Y105250D02*
D03*
X290000Y150750D02*
D03*
X286250Y183250D02*
D03*
X339000Y197750D02*
D03*
X354750Y179500D02*
D03*
X333250Y147000D02*
D03*
X333750Y137000D02*
D03*
X334000Y127000D02*
D03*
X286250Y222000D02*
D03*
X357500Y269000D02*
D03*
X389750Y270250D02*
D03*
X418750Y269750D02*
D03*
X434250Y270250D02*
D03*
X517000Y102000D02*
D03*
X518000Y86000D02*
D03*
X476500Y35250D02*
D03*
X461750Y35000D02*
D03*
X447000Y35250D02*
D03*
X432250Y34500D02*
D03*
X403000Y34250D02*
D03*
X373250Y34750D02*
D03*
X756500Y383500D02*
D03*
X713000Y340500D02*
D03*
X719500Y430500D02*
D03*
X719750Y459500D02*
D03*
X719250Y477500D02*
D03*
X445250Y946750D02*
D03*
X428500Y830750D02*
D03*
X420770Y862292D02*
D03*
X414770Y863292D02*
D03*
X409750Y859750D02*
D03*
X404750Y863250D02*
D03*
X375875Y807000D02*
D03*
X375500Y775250D02*
D03*
X376500Y790845D02*
D03*
X375000Y823750D02*
D03*
X553250Y820500D02*
D03*
X265750Y767500D02*
D03*
X275250Y783500D02*
D03*
X531000Y796500D02*
D03*
X309750Y865500D02*
D03*
X15250Y954000D02*
D03*
X99250Y879750D02*
D03*
X88000Y935000D02*
D03*
X333500Y181500D02*
D03*
X311250Y116250D02*
D03*
X333500Y187500D02*
D03*
X311250Y122250D02*
D03*
X339847Y823500D02*
D03*
X295000Y1007250D02*
D03*
X344500Y992500D02*
D03*
X337750Y1015250D02*
D03*
X471000Y807250D02*
D03*
X454750Y823500D02*
D03*
X340250Y790750D02*
D03*
X340000Y807000D02*
D03*
X325250Y19000D02*
D03*
X439000Y50000D02*
D03*
X481500Y264500D02*
D03*
X491250Y182750D02*
D03*
X479500Y171500D02*
D03*
X472273Y156758D02*
D03*
X460750Y270500D02*
D03*
X409750Y224250D02*
D03*
X445000Y271500D02*
D03*
X545000Y212500D02*
D03*
X536000Y228250D02*
D03*
X527500Y242500D02*
D03*
X521000Y255750D02*
D03*
X403750Y229250D02*
D03*
X395000Y230500D02*
D03*
X382000Y232000D02*
D03*
X376250Y228000D02*
D03*
X520000Y181250D02*
D03*
X500000Y41750D02*
D03*
X382250Y241500D02*
D03*
X257250Y233500D02*
D03*
X450000Y117250D02*
D03*
X257750Y100500D02*
D03*
X438000Y126500D02*
D03*
X282750Y75750D02*
D03*
X354000Y132000D02*
D03*
Y152250D02*
D03*
X354500Y172000D02*
D03*
X309250Y233000D02*
D03*
X297000Y161500D02*
D03*
X299250Y154500D02*
D03*
X298750Y83000D02*
D03*
X275750Y101250D02*
D03*
X276000Y139750D02*
D03*
D136*
X14500Y70000D02*
X275772D01*
X4250Y80250D02*
X14500Y70000D01*
X275772D02*
X280772Y65000D01*
X512772D02*
X550772Y27000D01*
X280772Y65000D02*
X512772D01*
X550772Y27000D02*
X680106D01*
X4250Y357250D02*
X10500Y363500D01*
X4250Y80250D02*
Y357250D01*
X680106Y27000D02*
X688600Y35494D01*
Y37000D01*
X695000D01*
X699500Y41500D01*
X10500Y363500D02*
Y896750D01*
X45500Y931750D01*
M02*
