M48
;Layer_Color=9474304
;FILE_FORMAT=4:4
METRIC,LZ
;TYPE=PLATED
T1F00S00C0.2000
T2F00S00C0.4000
T3F00S00C0.7000
%
T01
X000505Y000515
X00051Y00069
X0008575Y00075
X000885Y000555
X001035Y00055
X00103Y0014685
X00104Y001531
X0010175Y001646
X00120506Y00171758
X00127825Y0016685
X0013875Y001675
X0013475Y0017225
X0015175Y00175
X0016925Y001715
X00163871Y00148313
X00162Y00121
X002115Y00124
X0020875Y0013275
X00237Y001415
X0023925Y0011825
X002385Y0010925
X002545Y00114
X00251Y001005
X00237Y0007625
X00221261Y00081754
X00226Y0003525
X00246Y000295
X002595Y0001125
X00226Y001615
X0023Y0017725
X002375
X0019725Y0017675
X00192Y002235
X00161Y0024825
X001585Y00258
X0014925Y002545
Y0024875
X0013625Y0024725
X0012986Y00248116
X0011525Y0024875
Y0024175
X0012375Y002605
X0013Y002665
X0011475Y002145
X001125Y00191
X00092Y0022875
X00085Y00228
X000685Y0022975
X0005475
X00044Y0020725
X0004375Y0017525
X0004325Y0015625
X00075Y0015125
X000905Y0014825
X000475Y00261
X002515Y002485
X0024525Y0021275
X002705Y001705
X00279499Y0015975
X002715Y0014175
X00271763Y00129506
X0026375Y0012925
X00263513Y00121506
X00271278Y001215
X002715Y001135
X00263634Y00113505
X00271513Y00105505
Y00097505
Y00081504
Y00073504
Y00065503
X00263513
X00263453Y00073563
X00263513Y00081504
X002635Y000895
X0028025Y0008975
X002815Y0010475
X002805Y001135
X00302Y0011175
X003115Y001055
Y000975
X00311515Y00081504
X00319266Y00081254
Y00073254
X0031925Y0006525
X00311515Y00065503
X003265Y000585
X0032775Y0007325
X003455Y00069
X0037675Y000735
X0035075Y0011125
X00328Y0010575
X00319516Y00105505
X00319496Y00113275
X00319516Y00121506
X00311472Y00121307
X0030725Y001415
X0030925Y0016
X0030225Y001735
X0032725Y001765
X0032775Y001305
X00327516Y00097255
X00319516Y00089504
X00287264Y00065503
X0027225Y000545
X00283Y0003075
X00304Y00034
X0031175Y0001125
X003285Y0001175
X0033625Y0003725
X002745Y0001125
X00376518Y00181009
X0038125Y00186
X00391Y0022825
X003905Y002345
X003915Y0024025
X0038775Y00247
X0038975Y0025375
X0038875Y002645
X003785Y00274
X0033225Y0026925
X00334Y0026225
X0037425Y00289
X0037375Y00304
X0035925Y0031975
X0037575Y00336
X0037275Y003495
X003885Y003575
X0038825Y0037375
X00389Y0038775
X0038775Y0040075
X003885Y004235
X00372114Y00429973
X0038875Y0045275
X0039175Y00468487
X003915Y0048425
X003585Y004875
X0033175Y00506
X00316Y005055
X0030675Y0046425
X003015Y00466
X0029625Y00469
X002795Y00484
X002695Y00461
X0028675Y004235
X0033425Y004145
X00333016Y0040777
X0033525Y00399
X003315Y0039425
X0033475Y0038925
X003315Y0038425
X00335Y003795
X003315Y0037425
X00336Y0037
X003315Y0036475
X00334Y00333
X003065Y00336
X003105Y0031775
X003Y0032025
X0029925Y0031275
X00307Y0030325
X003005Y003595
X0029925Y003685
X0037275Y003825
X003325Y0043575
X0038925Y0028775
Y002805
X0021925Y00295
X0021375Y0030075
X002085Y0029275
X0022525Y0030475
X0018625Y002855
X00178759Y00279014
X0012775Y0028325
X0008475Y00285
X0008375Y0030625
X00093Y0030575
X00099Y00302
X0009875Y0032925
X0009375Y003335
X0008775Y0033925
X0008325Y0034425
X0008675Y003695
X0008725Y0038225
X0009425Y003795
X000975Y0038575
X0010425Y0038375
X00098Y0040125
X0008325Y00402
X000845Y0041575
X0008325Y004305
X0008025Y0044675
X0006725Y0044725
X0005325Y0043525
X00052Y0042
X00055Y0040625
X00052441Y0037775
X00055Y0036075
X00051726Y00346726
X00048Y0033575
X000335
X0002125Y0033475
X0001675Y003645
X00017Y0042275
X0003875Y00474
X00091Y00481
X00099Y0047175
X0011675Y004795
X0013075Y0048125
X0015025Y00459
X00165Y0045925
X0017075Y004935
X0018575Y00494
X0015875Y0049725
X0020725Y0048475
X002225Y00479
X002265Y0047175
X002345Y0046475
X00236511Y00459022
X00231011Y00457022
X0024325Y00461
X0025875Y0046125
X00263013Y00456272
X0025425Y00456
X002495Y00436
X00237Y004045
X00182Y0041725
X00171Y0041825
X00144Y00424
X00139Y0041925
X001335Y00414
X0012675Y0040925
X00123Y004
X0009725Y00419
X0013825Y003645
X0013175Y0035425
X0013825Y003295
X001515Y0032825
X0015175Y0034275
X0014925Y00371
X00182Y0036625
X001945Y0033625
X0019725Y004345
X0020575Y0045675
X0020975Y004615
X002145Y004565
X002385Y00478
X00242Y00495
X0026225Y0048125
X0007775Y0051425
X0006125
X00048Y0031075
X00091504Y00322266
T02
X0003475Y0008925
X001175Y0003675
T03
X0002Y0
X0005
X0008
X0011
X0014
X00155
X00185
X00215
X0Y0003
Y00045
Y0006
Y00075
Y0009
Y00105
Y0012
Y00135
Y0015
Y00165
Y0018
Y00195
Y0021
Y00225
Y0024
Y00255
Y0027
X0042
Y00255
Y00225
Y0021
Y00195
Y0018
Y0015
Y00135
Y0006
X00395Y0
X00365
X0042Y003
Y00315
Y0033
Y00345
Y00375
Y0039
Y00405
Y0042
Y0045
Y00465
Y0048
Y00495
Y0051
X00395Y0053
X0038
X00365
X0035
X00335
X00305
X0029
X0026
X00245
X0023
X00215
X002
X00185
X0017
X0014
X00125
X0011
X00095
X0008
X0005
X00035
X0002
X0Y0051
Y00495
Y0048
Y00465
Y0045
Y00435
Y0042
Y00405
Y0039
Y00375
Y0036
Y00345
Y0033
Y00315
Y003
Y00285
M30
