M48
;Layer_Color=9474304
;FILE_FORMAT=4:4
METRIC,LZ
;TYPE=PLATED
T1F00S00C0.1500
T2F00S00C0.4000
T3F00S00C0.7000
%
T01
X000505Y000515
X00051Y00069
X0008575Y00075
X000885Y000555
X001035Y00055
X00103Y0014685
X00104Y001531
X0010175Y001646
X0012375Y0016685
X001205Y0017425
X00136Y00174
X0013875Y001675
X00152Y001745
X0016775
X0018125Y0017475
X0019125Y0017425
X0020475Y00174
X002315
X002375Y0017725
X0025625Y001735
X0024525Y0021275
X002515Y002485
X001685Y0025175
X00161Y0024825
X001605Y0025825
X0014925Y002545
Y0024875
X0013625Y0024725
X0013175Y0025
X0011525Y0024875
Y0024175
X0012375Y002605
X00129756Y00268513
X001555Y0026975
X0019025Y0022175
X0011475Y002145
X001125Y00191
X00089Y0017625
X0004375Y0017525
X0004475Y0015535
X0004325Y0020675
X0005475Y0022975
X000685
X00085Y00228
X00092708Y0023065
X0005075Y0025925
X0013825Y001365
X00163871Y00148313
X0016975Y001205
X0020275Y0012875
X00222511Y00128759
X00220261Y0014351
X0024525Y00116
X0025375Y0011825
X00246763Y00091757
X002625Y00081
X00263013Y00064756
X00226Y0004075
X0022475Y0002975
X0020401Y00039502
X0019025Y0006275
X0027125Y0006525
Y0007375
X002715Y000815
X0027125Y000895
X002635Y0009
X00263263Y00098008
X0027925Y0009775
X00279514Y00089507
X002875Y0008975
X00288Y0010525
Y00113
X0028775Y0012075
X00279264Y00121259
X0027925Y0011375
X00263513Y00114009
X002645Y00138
X002795Y0012975
X002875Y001375
X00309516Y00133009
X0031025Y0014525
X0033225Y00145
X00330438Y0015
X00327Y001375
X003275Y001295
X003195
X0031925Y0012125
X0031975Y0011375
X0032725Y001135
X00327267Y00121509
X00327517Y00097508
X003275Y0008925
X0032725Y000815
X003275Y0007375
Y000655
X00319516Y00065503
X00305Y000625
X00294
X0027925Y0007375
X00282353Y000365
X00274352Y00024
X003215Y000225
X00318Y0000825
X0032175Y0004825
X0031175Y000505
X003385Y00047
X0034525Y0006225
X0035025
X0036
X0036675Y0006875
X00366Y00083
X00385Y0008
X00388Y000915
X0038375Y0006425
X0038175Y000495
X003515Y0002875
X0035175Y0001975
X00335517Y00073257
X00336Y000815
X00335517Y00089257
X0031925Y000895
X00319Y001055
X0034625Y0011425
X003445Y0012975
X003665Y00131
Y001215
X003685Y001055
X0036925Y00143
X0037875
X00376Y001835
X0038125Y00186
X0039Y00237
X0038975Y0024475
X0039Y00252
X0039025Y0025775
X003995Y0025575
X00389Y0027225
X0037425Y0027275
Y0024225
X0035275Y0025775
X003455Y00257
X003355Y002645
X0033225Y0026925
X0032575Y0022775
X003105Y0022625
X0028025Y00174
X0026625Y001745
X00307Y0030325
X0029925Y0031275
X003Y0032025
X003105Y0031775
X003335Y0032675
X00334Y00333
X003315Y0036475
Y0037425
X00335Y003795
X003315Y0038425
X0033475Y0038925
X003315Y0039425
X0033525Y00399
X0033325Y004075
X0033425Y004145
X003325Y0043575
X00316Y0046375
X0030675Y0046425
X003015Y00466
X002965Y00467
X0026925Y00459
X002775Y00484
X00321Y0050525
X0033675Y0050575
X00367Y00477
X003925Y0047125
X0039225Y00454
Y0040175
Y0039625
X00390929Y00390429
X0037275Y003825
X0037475Y00349
X0037375Y0033575
X0035925Y0031975
X0037375Y00304
X0037425Y00289
X0038925Y0028775
X0040025Y0029975
X0040627Y00359021
X0040975Y00374
X00336Y0037
X0029925Y003685
X003005Y003595
X00368768Y0041427
X002495Y00436
X0025425Y00456
X0025875Y0045925
X00263013Y00456272
X0024Y0045575
X00235Y0045925
X002345Y0046475
X00229Y00465
X002265Y0047175
X002225Y00479
X002385Y00478
X00242Y00495
X00202Y00493
X00186Y0049275
X0016975Y004935
X0015875Y0049725
X0014675Y00487
X0013025Y0048675
X00091Y00481
X00099Y0047175
X0008025Y0044675
X0008325Y004305
X000845Y0041575
X0008325Y00402
X00098Y0040125
X0009775Y0038625
X0010425Y0038375
X000935Y003795
X0008725Y0038225
Y003695
X0008325Y0034425
X0008775Y0033925
X0009375Y003335
X0009875Y0032925
X00091504Y00322266
X00093Y0030575
X00097Y0030225
X0008375Y0030625
X0008475Y00285
X0012775Y0028325
X00179009Y00279264
X0018625Y002855
X002085Y0029275
X0021925Y00295
X00216Y003005
X0022525Y0030475
X001945Y0033625
X00211Y0038975
X0021375Y00399
X00237Y004045
X0018525Y0040675
X00171Y0041825
X0016425Y0043025
X001555Y0042475
X00144Y00424
X00139Y0041925
X001335Y00414
X0012675Y0040925
X00123Y004
X0009725Y00419
X000515Y0042
X000525Y0040525
X0005225Y0037925
X0005075Y003635
X00051726Y00346726
X00048Y0033575
X000335
X0002125Y0033475
X0001675Y003645
X00017Y0042275
X0005025Y0044225
X0005075Y004565
X0003875Y00474
X0006125Y0051425
X0007775
X0015025Y00459
X00165Y0045925
X0020575Y0045675
X0021Y004595
X002145Y004565
X0023075Y0045575
X0019725Y004345
X0014925Y00371
X0013175Y0035425
X00048Y0031075
T02
X0003475Y0008925
X001175Y0003675
T03
X0002Y0
X0005
X0008
X0011
X0014
X00155
X00185
X00215
X0Y0003
Y00045
Y0006
Y00075
Y0009
Y00105
Y0012
Y00135
Y0015
Y00165
Y0018
Y00195
Y0021
Y00225
Y0024
Y00255
Y0027
X0042
Y00255
Y00225
Y0021
Y00195
Y0018
Y0015
Y00135
Y0006
X00395Y0
X00365
X0042Y003
Y00315
Y0033
Y00345
Y00375
Y0039
Y00405
Y0042
Y0045
Y00465
Y0048
Y00495
Y0051
X00395Y0053
X0038
X00365
X0035
X00335
X00305
X0029
X0026
X00245
X0023
X00215
X002
X00185
X0017
X0014
X00125
X0011
X00095
X0008
X0005
X00035
X0002
X0Y0051
Y00495
Y0048
Y00465
Y0045
Y00435
Y0042
Y00405
Y0039
Y00375
Y0036
Y00345
Y0033
Y00315
Y003
Y00285
M30
