G04*
G04 #@! TF.GenerationSoftware,Altium Limited,Altium Designer,19.1.9 (167)*
G04*
G04 Layer_Color=16711935*
%FSLAX44Y44*%
%MOMM*%
G71*
G01*
G75*
%ADD12C,0.2000*%
%ADD14C,0.1000*%
D12*
X541000Y1003500D02*
X568000D01*
X541000Y988500D02*
X568000D01*
X561335Y992169D02*
X563002Y990503D01*
X566334D01*
X568000Y992169D01*
Y998834D01*
X566334Y1000500D01*
X563002D01*
X561335Y998834D01*
X558003Y1000500D02*
X554671D01*
X556337D01*
Y990503D01*
X558003Y992169D01*
X549673D02*
X548006Y990503D01*
X544674D01*
X543008Y992169D01*
Y993836D01*
X544674Y995502D01*
X543008Y997168D01*
Y998834D01*
X544674Y1000500D01*
X548006D01*
X549673Y998834D01*
Y997168D01*
X548006Y995502D01*
X549673Y993836D01*
Y992169D01*
X548006Y995502D02*
X544674D01*
X576002Y927341D02*
Y937338D01*
X581000D01*
X582667Y935672D01*
Y932339D01*
X581000Y930673D01*
X576002D01*
X579334D02*
X582667Y927341D01*
X590997D02*
Y937338D01*
X585999Y932339D01*
X592663D01*
X602660Y927341D02*
X595996D01*
X602660Y934006D01*
Y935672D01*
X600994Y937338D01*
X597662D01*
X595996Y935672D01*
X675584Y911500D02*
Y901503D01*
X670586D01*
X668920Y903169D01*
Y906502D01*
X670586Y908168D01*
X675584D01*
X672252D02*
X668920Y911500D01*
X660589D02*
Y901503D01*
X665587Y906502D01*
X658923D01*
X655590Y911500D02*
X652258D01*
X653924D01*
Y901503D01*
X655590Y903169D01*
X576084Y916171D02*
Y926167D01*
X581082D01*
X582748Y924501D01*
Y921169D01*
X581082Y919503D01*
X576084D01*
X579416D02*
X582748Y916171D01*
X591079D02*
Y926167D01*
X586081Y921169D01*
X592745D01*
X596078Y924501D02*
X597744Y926167D01*
X601076D01*
X602742Y924501D01*
Y917837D01*
X601076Y916171D01*
X597744D01*
X596078Y917837D01*
Y924501D01*
X486250Y1019250D02*
X496247D01*
Y1014252D01*
X494581Y1012586D01*
X491248D01*
X489582Y1014252D01*
Y1019250D01*
Y1015918D02*
X486250Y1012586D01*
X494581Y1009253D02*
X496247Y1007587D01*
Y1004255D01*
X494581Y1002589D01*
X492915D01*
X491248Y1004255D01*
Y1005921D01*
Y1004255D01*
X489582Y1002589D01*
X487916D01*
X486250Y1004255D01*
Y1007587D01*
X487916Y1009253D01*
Y999256D02*
X486250Y997590D01*
Y994258D01*
X487916Y992592D01*
X494581D01*
X496247Y994258D01*
Y997590D01*
X494581Y999256D01*
X492915D01*
X491248Y997590D01*
Y992592D01*
X472500Y1019250D02*
X482497D01*
Y1014252D01*
X480831Y1012586D01*
X477498D01*
X475832Y1014252D01*
Y1019250D01*
Y1015918D02*
X472500Y1012586D01*
X480831Y1009253D02*
X482497Y1007587D01*
Y1004255D01*
X480831Y1002589D01*
X479165D01*
X477498Y1004255D01*
Y1005921D01*
Y1004255D01*
X475832Y1002589D01*
X474166D01*
X472500Y1004255D01*
Y1007587D01*
X474166Y1009253D01*
X480831Y999256D02*
X482497Y997590D01*
Y994258D01*
X480831Y992592D01*
X479165D01*
X477498Y994258D01*
X475832Y992592D01*
X474166D01*
X472500Y994258D01*
Y997590D01*
X474166Y999256D01*
X475832D01*
X477498Y997590D01*
X479165Y999256D01*
X480831D01*
X477498Y997590D02*
Y994258D01*
D14*
X602712Y977612D02*
X607710D01*
Y980944D01*
X605211Y982610D02*
Y985943D01*
X602712Y990941D02*
X603545Y989275D01*
X605211Y987609D01*
X606877D01*
X607710Y988442D01*
Y990108D01*
X606877Y990941D01*
X606044D01*
X605211Y990108D01*
Y987609D01*
X607710Y992607D02*
X606877D01*
Y993440D01*
X607710D01*
Y992607D01*
X603545Y996772D02*
X602712Y997606D01*
Y999272D01*
X603545Y1000105D01*
X604378D01*
X605211Y999272D01*
X606044Y1000105D01*
X606877D01*
X607710Y999272D01*
Y997606D01*
X606877Y996772D01*
X606044D01*
X605211Y997606D01*
X604378Y996772D01*
X603545D01*
X605211Y997606D02*
Y999272D01*
X607710Y1001771D02*
X604378D01*
Y1004270D01*
X605211Y1005103D01*
X607710D01*
X602712Y1006769D02*
X607710D01*
X605211D01*
Y1010101D01*
X602712D01*
X607710D01*
X605211Y1011768D02*
Y1015100D01*
X603545Y1016766D02*
X602712Y1017599D01*
Y1019265D01*
X603545Y1020098D01*
X606877D01*
X607710Y1019265D01*
Y1017599D01*
X606877Y1016766D01*
X603545D01*
X602712Y1025097D02*
X603545Y1023430D01*
X605211Y1021764D01*
X606877D01*
X607710Y1022597D01*
Y1024263D01*
X606877Y1025097D01*
X606044D01*
X605211Y1024263D01*
Y1021764D01*
X603545Y1026763D02*
X602712Y1027596D01*
Y1029262D01*
X603545Y1030095D01*
X606877D01*
X607710Y1029262D01*
Y1027596D01*
X606877Y1026763D01*
X603545D01*
Y1031761D02*
X602712Y1032594D01*
Y1034260D01*
X603545Y1035093D01*
X604378D01*
X605211Y1034260D01*
Y1033427D01*
Y1034260D01*
X606044Y1035093D01*
X606877D01*
X607710Y1034260D01*
Y1032594D01*
X606877Y1031761D01*
X582712Y977612D02*
X587710D01*
Y980944D01*
X583545Y982610D02*
X582712Y983443D01*
Y985109D01*
X583545Y985943D01*
X584378D01*
X585211Y985109D01*
Y984277D01*
Y985109D01*
X586044Y985943D01*
X586877D01*
X587710Y985109D01*
Y983443D01*
X586877Y982610D01*
X551252Y963334D02*
X556250D01*
Y966666D01*
Y971665D02*
Y968332D01*
X552918Y971665D01*
X552085D01*
X551252Y970832D01*
Y969165D01*
X552085Y968332D01*
X424916Y996665D02*
X424083Y997498D01*
X422417D01*
X421584Y996665D01*
Y993333D01*
X422417Y992500D01*
X424083D01*
X424916Y993333D01*
X426582Y996665D02*
X427415Y997498D01*
X429081D01*
X429915Y996665D01*
Y995832D01*
X429081Y994999D01*
X428248D01*
X429081D01*
X429915Y994166D01*
Y993333D01*
X429081Y992500D01*
X427415D01*
X426582Y993333D01*
X434913Y997498D02*
X431581D01*
Y994999D01*
X433247Y995832D01*
X434080D01*
X434913Y994999D01*
Y993333D01*
X434080Y992500D01*
X432414D01*
X431581Y993333D01*
X386157Y955504D02*
X385324Y956337D01*
X383658D01*
X382825Y955504D01*
Y952172D01*
X383658Y951339D01*
X385324D01*
X386157Y952172D01*
X387823Y955504D02*
X388656Y956337D01*
X390322D01*
X391156Y955504D01*
Y954671D01*
X390322Y953838D01*
X389489D01*
X390322D01*
X391156Y953005D01*
Y952172D01*
X390322Y951339D01*
X388656D01*
X387823Y952172D01*
X395321Y951339D02*
Y956337D01*
X392822Y953838D01*
X396154D01*
X364576Y902421D02*
X363743Y901588D01*
Y899922D01*
X364576Y899089D01*
X367908D01*
X368741Y899922D01*
Y901588D01*
X367908Y902421D01*
X364576Y904087D02*
X363743Y904920D01*
Y906586D01*
X364576Y907419D01*
X365409D01*
X366242Y906586D01*
Y905753D01*
Y906586D01*
X367075Y907419D01*
X367908D01*
X368741Y906586D01*
Y904920D01*
X367908Y904087D01*
X364576Y909085D02*
X363743Y909918D01*
Y911584D01*
X364576Y912418D01*
X365409D01*
X366242Y911584D01*
Y910751D01*
Y911584D01*
X367075Y912418D01*
X367908D01*
X368741Y911584D01*
Y909918D01*
X367908Y909085D01*
X380416Y857665D02*
X379583Y858498D01*
X377917D01*
X377084Y857665D01*
Y854333D01*
X377917Y853500D01*
X379583D01*
X380416Y854333D01*
X382082Y857665D02*
X382915Y858498D01*
X384582D01*
X385415Y857665D01*
Y856832D01*
X384582Y855999D01*
X383749D01*
X384582D01*
X385415Y855166D01*
Y854333D01*
X384582Y853500D01*
X382915D01*
X382082Y854333D01*
X390413Y853500D02*
X387081D01*
X390413Y856832D01*
Y857665D01*
X389580Y858498D01*
X387914D01*
X387081Y857665D01*
X350288Y867993D02*
X349455Y868826D01*
X347789D01*
X346955Y867993D01*
Y864661D01*
X347789Y863828D01*
X349455D01*
X350288Y864661D01*
X351954Y867993D02*
X352787Y868826D01*
X354453D01*
X355286Y867993D01*
Y867160D01*
X354453Y866327D01*
X353620D01*
X354453D01*
X355286Y865494D01*
Y864661D01*
X354453Y863828D01*
X352787D01*
X351954Y864661D01*
X356952Y863828D02*
X358618D01*
X357785D01*
Y868826D01*
X356952Y867993D01*
X574172Y966666D02*
X573339Y965833D01*
Y964167D01*
X574172Y963334D01*
X577504D01*
X578337Y964167D01*
Y965833D01*
X577504Y966666D01*
X578337Y971665D02*
Y968332D01*
X575005Y971665D01*
X574172D01*
X573339Y970832D01*
Y969165D01*
X574172Y968332D01*
Y973331D02*
X573339Y974164D01*
Y975830D01*
X574172Y976663D01*
X575005D01*
X575838Y975830D01*
X576671Y976663D01*
X577504D01*
X578337Y975830D01*
Y974164D01*
X577504Y973331D01*
X576671D01*
X575838Y974164D01*
X575005Y973331D01*
X574172D01*
X575838Y974164D02*
Y975830D01*
X426906Y970422D02*
X427739Y971255D01*
Y972922D01*
X426906Y973755D01*
X423574D01*
X422741Y972922D01*
Y971255D01*
X423574Y970422D01*
X422741Y965424D02*
Y968756D01*
X426073Y965424D01*
X426906D01*
X427739Y966257D01*
Y967923D01*
X426906Y968756D01*
X427739Y963758D02*
Y960426D01*
X426906D01*
X423574Y963758D01*
X422741D01*
X431614Y845616D02*
X430781Y844783D01*
Y843117D01*
X431614Y842284D01*
X434946D01*
X435779Y843117D01*
Y844783D01*
X434946Y845616D01*
X435779Y850615D02*
Y847282D01*
X432447Y850615D01*
X431614D01*
X430781Y849781D01*
Y848115D01*
X431614Y847282D01*
X430781Y855613D02*
X431614Y853947D01*
X433280Y852281D01*
X434946D01*
X435779Y853114D01*
Y854780D01*
X434946Y855613D01*
X434113D01*
X433280Y854780D01*
Y852281D01*
X438077Y970340D02*
X438910Y971173D01*
Y972840D01*
X438077Y973673D01*
X434745D01*
X433912Y972840D01*
Y971173D01*
X434745Y970340D01*
X433912Y965342D02*
Y968674D01*
X437244Y965342D01*
X438077D01*
X438910Y966175D01*
Y967841D01*
X438077Y968674D01*
X438910Y960344D02*
Y963676D01*
X436411D01*
X437244Y962010D01*
Y961177D01*
X436411Y960344D01*
X434745D01*
X433912Y961177D01*
Y962843D01*
X434745Y963676D01*
X442785Y845616D02*
X441952Y844783D01*
Y843117D01*
X442785Y842284D01*
X446117D01*
X446950Y843117D01*
Y844783D01*
X446117Y845616D01*
X446950Y850615D02*
Y847282D01*
X443618Y850615D01*
X442785D01*
X441952Y849781D01*
Y848115D01*
X442785Y847282D01*
X446950Y854780D02*
X441952D01*
X444451Y852281D01*
Y855613D01*
X506659Y925923D02*
X507492Y925090D01*
X509158D01*
X509991Y925923D01*
Y929256D01*
X509158Y930089D01*
X507492D01*
X506659Y929256D01*
X501660Y930089D02*
X504993D01*
X501660Y926756D01*
Y925923D01*
X502493Y925090D01*
X504160D01*
X504993Y925923D01*
X499994D02*
X499161Y925090D01*
X497495D01*
X496662Y925923D01*
Y926756D01*
X497495Y927589D01*
X498328D01*
X497495D01*
X496662Y928422D01*
Y929256D01*
X497495Y930089D01*
X499161D01*
X499994Y929256D01*
X519416Y968915D02*
X518583Y969748D01*
X516917D01*
X516084Y968915D01*
Y965583D01*
X516917Y964750D01*
X518583D01*
X519416Y965583D01*
X524415Y964750D02*
X521082D01*
X524415Y968082D01*
Y968915D01*
X523582Y969748D01*
X521915D01*
X521082Y968915D01*
X529413Y964750D02*
X526081D01*
X529413Y968082D01*
Y968915D01*
X528580Y969748D01*
X526914D01*
X526081Y968915D01*
X492656Y916252D02*
X493489Y917085D01*
Y918751D01*
X492656Y919584D01*
X489324D01*
X488491Y918751D01*
Y917085D01*
X489324Y916252D01*
X488491Y911254D02*
Y914586D01*
X491823Y911254D01*
X492656D01*
X493489Y912086D01*
Y913753D01*
X492656Y914586D01*
X488491Y909587D02*
Y907921D01*
Y908754D01*
X493489D01*
X492656Y909587D01*
X519416Y996165D02*
X518583Y996998D01*
X516917D01*
X516084Y996165D01*
Y992833D01*
X516917Y992000D01*
X518583D01*
X519416Y992833D01*
X524415Y992000D02*
X521082D01*
X524415Y995332D01*
Y996165D01*
X523582Y996998D01*
X521915D01*
X521082Y996165D01*
X526081D02*
X526914Y996998D01*
X528580D01*
X529413Y996165D01*
Y992833D01*
X528580Y992000D01*
X526914D01*
X526081Y992833D01*
Y996165D01*
X519332Y982415D02*
X518499Y983248D01*
X516833D01*
X516000Y982415D01*
Y979083D01*
X516833Y978250D01*
X518499D01*
X519332Y979083D01*
X520998Y978250D02*
X522664D01*
X521831D01*
Y983248D01*
X520998Y982415D01*
X525164Y979083D02*
X525997Y978250D01*
X527663D01*
X528496Y979083D01*
Y982415D01*
X527663Y983248D01*
X525997D01*
X525164Y982415D01*
Y981582D01*
X525997Y980749D01*
X528496D01*
X585342Y966666D02*
X584509Y965833D01*
Y964167D01*
X585342Y963334D01*
X588675D01*
X589507Y964167D01*
Y965833D01*
X588675Y966666D01*
X589507Y968332D02*
Y969998D01*
Y969165D01*
X584509D01*
X585342Y968332D01*
X584509Y972498D02*
Y975830D01*
X585342D01*
X588675Y972498D01*
X589507D01*
X563001Y966666D02*
X562168Y965833D01*
Y964167D01*
X563001Y963334D01*
X566333D01*
X567166Y964167D01*
Y965833D01*
X566333Y966666D01*
X567166Y968332D02*
Y969998D01*
Y969165D01*
X562168D01*
X563001Y968332D01*
X562168Y975830D02*
X563001Y974164D01*
X564667Y972498D01*
X566333D01*
X567166Y973331D01*
Y974997D01*
X566333Y975830D01*
X565500D01*
X564667Y974997D01*
Y972498D01*
M02*
