G04*
G04 #@! TF.GenerationSoftware,Altium Limited,Altium Designer,19.1.9 (167)*
G04*
G04 Layer_Color=255*
%FSLAX44Y44*%
%MOMM*%
G71*
G01*
G75*
%ADD119C,0.8000*%
%ADD120C,0.4500*%
%ADD121C,5.0000*%
%ADD122C,1.5000*%
%ADD123R,1.5000X1.5000*%
%ADD124R,1.5000X1.5000*%
%ADD125C,2.2000*%
%ADD126C,3.2500*%
D119*
X635750Y229250D02*
D03*
X625750D02*
D03*
X615750D02*
D03*
X605750D02*
D03*
X595750D02*
D03*
X605750Y209250D02*
D03*
X615750D02*
D03*
X625750D02*
D03*
Y219250D02*
D03*
X635750D02*
D03*
Y209250D02*
D03*
Y199250D02*
D03*
X625750D02*
D03*
X615750D02*
D03*
X605750D02*
D03*
X595750D02*
D03*
Y209250D02*
D03*
Y219250D02*
D03*
X605750D02*
D03*
X615750D02*
D03*
X764250Y256000D02*
D03*
Y266000D02*
D03*
Y276000D02*
D03*
X774250D02*
D03*
Y266000D02*
D03*
Y256000D02*
D03*
Y246000D02*
D03*
Y236000D02*
D03*
X764250D02*
D03*
Y246000D02*
D03*
X754250Y236000D02*
D03*
Y246000D02*
D03*
Y256000D02*
D03*
Y266000D02*
D03*
Y276000D02*
D03*
X744250D02*
D03*
Y266000D02*
D03*
Y256000D02*
D03*
Y246000D02*
D03*
Y236000D02*
D03*
D120*
X567500Y923250D02*
D03*
X561500D02*
D03*
X555500D02*
D03*
X549500D02*
D03*
Y929250D02*
D03*
Y935250D02*
D03*
Y941250D02*
D03*
X555500D02*
D03*
X561500D02*
D03*
X567500D02*
D03*
X573500D02*
D03*
X579500D02*
D03*
X585500D02*
D03*
Y935250D02*
D03*
Y929250D02*
D03*
Y923250D02*
D03*
Y917250D02*
D03*
Y911250D02*
D03*
Y905250D02*
D03*
X579500D02*
D03*
X573500D02*
D03*
X567500D02*
D03*
X561500D02*
D03*
X555500D02*
D03*
X549500D02*
D03*
Y911250D02*
D03*
Y917250D02*
D03*
X555500D02*
D03*
X561500D02*
D03*
X567500D02*
D03*
Y911250D02*
D03*
X561500D02*
D03*
X555500D02*
D03*
Y929250D02*
D03*
Y935250D02*
D03*
X561500D02*
D03*
X567500D02*
D03*
X573500D02*
D03*
X579500D02*
D03*
Y929250D02*
D03*
Y923250D02*
D03*
Y917250D02*
D03*
Y911250D02*
D03*
X573500D02*
D03*
Y917250D02*
D03*
Y923250D02*
D03*
Y929250D02*
D03*
X567500D02*
D03*
X561500D02*
D03*
X397001Y923329D02*
D03*
X404621D02*
D03*
X412241D02*
D03*
X419861D02*
D03*
X427481D02*
D03*
Y915709D02*
D03*
Y908089D02*
D03*
Y900469D02*
D03*
Y892849D02*
D03*
X419861D02*
D03*
X412241D02*
D03*
X404621D02*
D03*
X397001D02*
D03*
Y900469D02*
D03*
X404621D02*
D03*
X412241D02*
D03*
X419861D02*
D03*
Y908089D02*
D03*
Y915709D02*
D03*
X412241D02*
D03*
X404621D02*
D03*
X397001D02*
D03*
X389381D02*
D03*
Y923329D02*
D03*
Y930949D02*
D03*
X397001D02*
D03*
X404621D02*
D03*
X412241D02*
D03*
X419861D02*
D03*
X427481D02*
D03*
X435101D02*
D03*
Y923329D02*
D03*
Y915709D02*
D03*
Y908089D02*
D03*
Y900469D02*
D03*
Y892849D02*
D03*
Y885229D02*
D03*
X427481D02*
D03*
X419861D02*
D03*
X412241D02*
D03*
X404621D02*
D03*
X397001D02*
D03*
X389381D02*
D03*
Y892849D02*
D03*
Y900469D02*
D03*
Y908089D02*
D03*
X397001D02*
D03*
X404621D02*
D03*
X412241D02*
D03*
D121*
X805000Y1090000D02*
D03*
X35000D02*
D03*
X805000Y35000D02*
D03*
X35000D02*
D03*
D122*
X32500Y642750D02*
D03*
Y668150D02*
D03*
Y693550D02*
D03*
Y718950D02*
D03*
Y744350D02*
D03*
Y769750D02*
D03*
Y617350D02*
D03*
Y591950D02*
D03*
Y566550D02*
D03*
Y541150D02*
D03*
Y515750D02*
D03*
Y490350D02*
D03*
Y464950D02*
D03*
Y439550D02*
D03*
Y414150D02*
D03*
Y388750D02*
D03*
Y363350D02*
D03*
Y337950D02*
D03*
Y312550D02*
D03*
X252250Y1084150D02*
D03*
X277650D02*
D03*
X303050D02*
D03*
X328450D02*
D03*
X252250Y1058750D02*
D03*
X277650D02*
D03*
X303050D02*
D03*
X328450D02*
D03*
X430050Y1084150D02*
D03*
Y1058750D02*
D03*
X480850Y1084150D02*
D03*
X455450Y1058750D02*
D03*
Y1084150D02*
D03*
X404650Y1058750D02*
D03*
Y1084150D02*
D03*
X379250Y1058750D02*
D03*
Y1084150D02*
D03*
X353850Y1058750D02*
D03*
Y1084150D02*
D03*
X773000Y552950D02*
D03*
Y578350D02*
D03*
Y603750D02*
D03*
Y629150D02*
D03*
X131700Y1072750D02*
D03*
X157100D02*
D03*
X182500D02*
D03*
X774250Y419450D02*
D03*
Y444850D02*
D03*
Y470250D02*
D03*
X771500Y708750D02*
D03*
X616000Y46500D02*
D03*
X699500Y66900D02*
D03*
X674100Y41500D02*
D03*
Y66900D02*
D03*
X763750Y130400D02*
D03*
Y105000D02*
D03*
X814550Y130400D02*
D03*
X789150Y105000D02*
D03*
Y130400D02*
D03*
X738350Y105000D02*
D03*
Y130400D02*
D03*
X712950Y105000D02*
D03*
Y130400D02*
D03*
X687550Y105000D02*
D03*
Y130400D02*
D03*
D123*
X32500Y795150D02*
D03*
X773000Y654550D02*
D03*
X774250Y495650D02*
D03*
X771500Y734150D02*
D03*
D124*
X480850Y1058750D02*
D03*
X207900Y1072750D02*
D03*
X590600Y46500D02*
D03*
X699500Y41500D02*
D03*
X814550Y105000D02*
D03*
D125*
X778600Y919650D02*
D03*
X753200Y945050D02*
D03*
Y894250D02*
D03*
X804000D02*
D03*
Y945050D02*
D03*
D126*
X29300Y106050D02*
D03*
Y232050D02*
D03*
M02*
