G04*
G04 #@! TF.GenerationSoftware,Altium Limited,Altium Designer,19.1.9 (167)*
G04*
G04 Layer_Physical_Order=2*
G04 Layer_Color=32768*
%FSLAX44Y44*%
%MOMM*%
G71*
G01*
G75*
%ADD129C,0.0025*%
%ADD130C,1.4660*%
%ADD131C,4.2160*%
%ADD132C,2.0360*%
%ADD133C,2.5160*%
%ADD134C,4.2660*%
%ADD135C,1.2160*%
D129*
X0Y0D02*
Y1125000D01*
X840000D01*
Y0D02*
Y1125000D01*
X0Y0D02*
X840000D01*
D130*
X635750Y229250D02*
D03*
X625750D02*
D03*
X615750D02*
D03*
X605750D02*
D03*
X595750D02*
D03*
X605750Y209250D02*
D03*
X615750D02*
D03*
X625750D02*
D03*
Y219250D02*
D03*
X635750D02*
D03*
Y209250D02*
D03*
Y199250D02*
D03*
X625750D02*
D03*
X615750D02*
D03*
X605750D02*
D03*
X595750D02*
D03*
Y209250D02*
D03*
Y219250D02*
D03*
X605750D02*
D03*
X615750D02*
D03*
X764250Y256000D02*
D03*
Y266000D02*
D03*
Y276000D02*
D03*
X774250D02*
D03*
Y266000D02*
D03*
Y256000D02*
D03*
Y246000D02*
D03*
Y236000D02*
D03*
X764250D02*
D03*
Y246000D02*
D03*
X754250Y236000D02*
D03*
Y246000D02*
D03*
Y256000D02*
D03*
Y266000D02*
D03*
Y276000D02*
D03*
X744250D02*
D03*
Y266000D02*
D03*
Y256000D02*
D03*
Y246000D02*
D03*
Y236000D02*
D03*
X604250Y989500D02*
D03*
X547000Y1001250D02*
D03*
X680000Y233500D02*
D03*
X660500Y218500D02*
D03*
X61500Y82500D02*
D03*
X29750Y277250D02*
D03*
X670000Y265000D02*
D03*
X690000Y305000D02*
D03*
X392750Y852500D02*
D03*
X426771Y856792D02*
D03*
X454250Y13750D02*
D03*
X315000Y25000D02*
D03*
X48500Y938250D02*
D03*
X427500Y1003500D02*
D03*
X364050Y921200D02*
D03*
X421991Y957089D02*
D03*
X405491Y956089D02*
D03*
D131*
X805000Y1090000D02*
D03*
X35000D02*
D03*
X805000Y35000D02*
D03*
X35000D02*
D03*
D132*
X32500Y642750D02*
D03*
Y668150D02*
D03*
Y693550D02*
D03*
Y718950D02*
D03*
Y744350D02*
D03*
Y769750D02*
D03*
Y795150D02*
D03*
Y617350D02*
D03*
Y591950D02*
D03*
Y566550D02*
D03*
Y541150D02*
D03*
Y515750D02*
D03*
Y490350D02*
D03*
Y464950D02*
D03*
Y439550D02*
D03*
Y414150D02*
D03*
Y388750D02*
D03*
X252250Y1058750D02*
D03*
X277650D02*
D03*
X303050D02*
D03*
X328450D02*
D03*
X430050D02*
D03*
X480850Y1084150D02*
D03*
Y1058750D02*
D03*
X455450D02*
D03*
X404650D02*
D03*
X379250D02*
D03*
X353850D02*
D03*
X773000Y552950D02*
D03*
Y578350D02*
D03*
Y603750D02*
D03*
Y629150D02*
D03*
Y654550D02*
D03*
X131700Y1072750D02*
D03*
X157100D02*
D03*
X182500D02*
D03*
X207900D02*
D03*
X774250Y419450D02*
D03*
Y444850D02*
D03*
Y470250D02*
D03*
Y495650D02*
D03*
X771500Y734150D02*
D03*
Y708750D02*
D03*
X590600Y46500D02*
D03*
X699500Y66900D02*
D03*
Y41500D02*
D03*
X674100D02*
D03*
Y66900D02*
D03*
X763750Y130400D02*
D03*
Y105000D02*
D03*
X814550Y130400D02*
D03*
Y105000D02*
D03*
X789150D02*
D03*
Y130400D02*
D03*
X738350Y105000D02*
D03*
Y130400D02*
D03*
X712950Y105000D02*
D03*
Y130400D02*
D03*
X687550Y105000D02*
D03*
Y130400D02*
D03*
D133*
X778600Y919650D02*
D03*
D134*
X29300Y106050D02*
D03*
Y232050D02*
D03*
D135*
X662000Y763750D02*
D03*
X564000Y747000D02*
D03*
X353750Y758250D02*
D03*
X249250Y757000D02*
D03*
X119500Y825250D02*
D03*
X135750Y945250D02*
D03*
X414770Y237512D02*
D03*
X85754Y847791D02*
D03*
X227500Y865750D02*
D03*
X248750Y840250D02*
D03*
Y828750D02*
D03*
X374750Y276500D02*
D03*
X262263Y50753D02*
D03*
X440000Y300250D02*
D03*
X68500Y656500D02*
D03*
X529500Y290250D02*
D03*
X302750Y772750D02*
D03*
X122500Y434500D02*
D03*
X380500Y300000D02*
D03*
X259750Y303250D02*
D03*
X185750Y756750D02*
D03*
X605500Y302250D02*
D03*
X559500D02*
D03*
X132000Y426000D02*
D03*
X350250Y300500D02*
D03*
X215500Y757000D02*
D03*
X68503Y733536D02*
D03*
X305250Y303000D02*
D03*
X371750Y755000D02*
D03*
X132500Y609500D02*
D03*
X274250Y303000D02*
D03*
X543063Y285312D02*
D03*
X428500Y763250D02*
D03*
X394750Y300250D02*
D03*
X500250Y302250D02*
D03*
X229750Y756500D02*
D03*
X411500Y755500D02*
D03*
X317000Y749250D02*
D03*
X364500Y300250D02*
D03*
X455000Y757500D02*
D03*
X132500Y489500D02*
D03*
X72503Y605530D02*
D03*
X514500Y296000D02*
D03*
X340250Y763000D02*
D03*
X289750Y303000D02*
D03*
X334250Y301000D02*
D03*
X410000Y300000D02*
D03*
X619000Y301500D02*
D03*
X285500Y805750D02*
D03*
X289250Y755750D02*
D03*
X470750Y756500D02*
D03*
X72503Y578278D02*
D03*
X530250Y302750D02*
D03*
X172000Y757750D02*
D03*
X132750Y444250D02*
D03*
X515250Y302750D02*
D03*
X319500Y726250D02*
D03*
X201500Y756750D02*
D03*
X133000Y503750D02*
D03*
X132500Y458500D02*
D03*
X132250Y409750D02*
D03*
X68503Y707284D02*
D03*
X72503Y526026D02*
D03*
Y554027D02*
D03*
X342500Y111000D02*
D03*
X355250Y142000D02*
D03*
X366250Y122000D02*
D03*
X327750Y47750D02*
D03*
X414250Y34250D02*
D03*
X388000Y33750D02*
D03*
X435000Y1022500D02*
D03*
X418750Y1023500D02*
D03*
X710000Y762000D02*
D03*
X172000Y954250D02*
D03*
X86500Y949500D02*
D03*
X127250Y847000D02*
D03*
X76250Y802500D02*
D03*
X756500Y383500D02*
D03*
X713000Y340500D02*
D03*
X719500Y430500D02*
D03*
X719750Y459500D02*
D03*
X719250Y477500D02*
D03*
X445250Y946750D02*
D03*
X428500Y830750D02*
D03*
X420770Y862292D02*
D03*
X414770Y863292D02*
D03*
X409750Y859750D02*
D03*
X404750Y863250D02*
D03*
X375875Y807000D02*
D03*
X375500Y775250D02*
D03*
X376500Y790845D02*
D03*
X375000Y823750D02*
D03*
X553250Y820500D02*
D03*
X265750Y767500D02*
D03*
X275250Y783500D02*
D03*
X531000Y796500D02*
D03*
X309750Y865500D02*
D03*
X15250Y954000D02*
D03*
X99250Y879750D02*
D03*
X88000Y935000D02*
D03*
X333500Y181500D02*
D03*
X311250Y116250D02*
D03*
X333500Y187500D02*
D03*
X311250Y122250D02*
D03*
X339847Y823500D02*
D03*
X295000Y1007250D02*
D03*
X344500Y992500D02*
D03*
X337750Y1015250D02*
D03*
X471000Y807250D02*
D03*
X454750Y823500D02*
D03*
X340250Y790750D02*
D03*
X340000Y807000D02*
D03*
X325250Y19000D02*
D03*
X439000Y50000D02*
D03*
X481500Y264500D02*
D03*
X491250Y182750D02*
D03*
X479500Y171500D02*
D03*
X472273Y156758D02*
D03*
X460750Y270500D02*
D03*
X409750Y224250D02*
D03*
X445000Y271500D02*
D03*
X545000Y212500D02*
D03*
X536000Y228250D02*
D03*
X527500Y242500D02*
D03*
X521000Y255750D02*
D03*
X403750Y229250D02*
D03*
X395000Y230500D02*
D03*
X382000Y232000D02*
D03*
X376250Y228000D02*
D03*
X520000Y181250D02*
D03*
X500000Y41750D02*
D03*
X382250Y241500D02*
D03*
X257250Y233500D02*
D03*
X450000Y117250D02*
D03*
X257750Y100500D02*
D03*
X438000Y126500D02*
D03*
X282750Y75750D02*
D03*
X354000Y132000D02*
D03*
Y152250D02*
D03*
X354500Y172000D02*
D03*
X309250Y233000D02*
D03*
X297000Y161500D02*
D03*
X299250Y154500D02*
D03*
X298750Y83000D02*
D03*
X275750Y101250D02*
D03*
X276000Y139750D02*
D03*
M02*
