G04*
G04 #@! TF.GenerationSoftware,Altium Limited,Altium Designer,19.1.9 (167)*
G04*
G04 Layer_Color=128*
%FSLAX44Y44*%
%MOMM*%
G71*
G01*
G75*
%ADD138C,0.0508*%
D138*
X633500Y229250D02*
X638000D01*
X635750Y227000D02*
Y231500D01*
X623500Y229250D02*
X628000D01*
X625750Y227000D02*
Y231500D01*
X613500Y229250D02*
X618000D01*
X615750Y227000D02*
Y231500D01*
X603500Y229250D02*
X608000D01*
X605750Y227000D02*
Y231500D01*
X593500Y229250D02*
X598000D01*
X595750Y227000D02*
Y231500D01*
X603500Y209250D02*
X608000D01*
X605750Y207000D02*
Y211500D01*
X613500Y209250D02*
X618000D01*
X615750Y207000D02*
Y211500D01*
X623500Y209250D02*
X628000D01*
X625750Y207000D02*
Y211500D01*
X623500Y219250D02*
X628000D01*
X625750Y217000D02*
Y221500D01*
X633500Y219250D02*
X638000D01*
X635750Y217000D02*
Y221500D01*
X633500Y209250D02*
X638000D01*
X635750Y207000D02*
Y211500D01*
X633500Y199250D02*
X638000D01*
X635750Y197000D02*
Y201500D01*
X623500Y199250D02*
X628000D01*
X625750Y197000D02*
Y201500D01*
X613500Y199250D02*
X618000D01*
X615750Y197000D02*
Y201500D01*
X603500Y199250D02*
X608000D01*
X605750Y197000D02*
Y201500D01*
X593500Y199250D02*
X598000D01*
X595750Y197000D02*
Y201500D01*
X593500Y209250D02*
X598000D01*
X595750Y207000D02*
Y211500D01*
X593500Y219250D02*
X598000D01*
X595750Y217000D02*
Y221500D01*
X603500Y219250D02*
X608000D01*
X605750Y217000D02*
Y221500D01*
X613500Y219250D02*
X618000D01*
X615750Y217000D02*
Y221500D01*
X762000Y256000D02*
X766500D01*
X764250Y253750D02*
Y258250D01*
X762000Y266000D02*
X766500D01*
X764250Y263750D02*
Y268250D01*
X762000Y276000D02*
X766500D01*
X764250Y273750D02*
Y278250D01*
X772000Y276000D02*
X776500D01*
X774250Y273750D02*
Y278250D01*
X772000Y266000D02*
X776500D01*
X774250Y263750D02*
Y268250D01*
X772000Y256000D02*
X776500D01*
X774250Y253750D02*
Y258250D01*
X772000Y246000D02*
X776500D01*
X774250Y243750D02*
Y248250D01*
X772000Y236000D02*
X776500D01*
X774250Y233750D02*
Y238250D01*
X762000Y236000D02*
X766500D01*
X764250Y233750D02*
Y238250D01*
X762000Y246000D02*
X766500D01*
X764250Y243750D02*
Y248250D01*
X752000Y236000D02*
X756500D01*
X754250Y233750D02*
Y238250D01*
X752000Y246000D02*
X756500D01*
X754250Y243750D02*
Y248250D01*
X752000Y256000D02*
X756500D01*
X754250Y253750D02*
Y258250D01*
X752000Y266000D02*
X756500D01*
X754250Y263750D02*
Y268250D01*
X752000Y276000D02*
X756500D01*
X754250Y273750D02*
Y278250D01*
X742000Y276000D02*
X746500D01*
X744250Y273750D02*
Y278250D01*
X742000Y266000D02*
X746500D01*
X744250Y263750D02*
Y268250D01*
X742000Y256000D02*
X746500D01*
X744250Y253750D02*
Y258250D01*
X742000Y246000D02*
X746500D01*
X744250Y243750D02*
Y248250D01*
X742000Y236000D02*
X746500D01*
X744250Y233750D02*
Y238250D01*
X566000Y923250D02*
X569000D01*
X567500Y921750D02*
Y924750D01*
X560000Y923250D02*
X563000D01*
X561500Y921750D02*
Y924750D01*
X554000Y923250D02*
X557000D01*
X555500Y921750D02*
Y924750D01*
X548000Y923250D02*
X551000D01*
X549500Y921750D02*
Y924750D01*
X548000Y929250D02*
X551000D01*
X549500Y927750D02*
Y930750D01*
X548000Y935250D02*
X551000D01*
X549500Y933750D02*
Y936750D01*
X548000Y941250D02*
X551000D01*
X549500Y939750D02*
Y942750D01*
X554000Y941250D02*
X557000D01*
X555500Y939750D02*
Y942750D01*
X560000Y941250D02*
X563000D01*
X561500Y939750D02*
Y942750D01*
X566000Y941250D02*
X569000D01*
X567500Y939750D02*
Y942750D01*
X572000Y941250D02*
X575000D01*
X573500Y939750D02*
Y942750D01*
X578000Y941250D02*
X581000D01*
X579500Y939750D02*
Y942750D01*
X584000Y941250D02*
X587000D01*
X585500Y939750D02*
Y942750D01*
X584000Y935250D02*
X587000D01*
X585500Y933750D02*
Y936750D01*
X584000Y929250D02*
X587000D01*
X585500Y927750D02*
Y930750D01*
X584000Y923250D02*
X587000D01*
X585500Y921750D02*
Y924750D01*
X584000Y917250D02*
X587000D01*
X585500Y915750D02*
Y918750D01*
X584000Y911250D02*
X587000D01*
X585500Y909750D02*
Y912750D01*
X584000Y905250D02*
X587000D01*
X585500Y903750D02*
Y906750D01*
X578000Y905250D02*
X581000D01*
X579500Y903750D02*
Y906750D01*
X572000Y905250D02*
X575000D01*
X573500Y903750D02*
Y906750D01*
X566000Y905250D02*
X569000D01*
X567500Y903750D02*
Y906750D01*
X560000Y905250D02*
X563000D01*
X561500Y903750D02*
Y906750D01*
X554000Y905250D02*
X557000D01*
X555500Y903750D02*
Y906750D01*
X548000Y905250D02*
X551000D01*
X549500Y903750D02*
Y906750D01*
X548000Y911250D02*
X551000D01*
X549500Y909750D02*
Y912750D01*
X548000Y917250D02*
X551000D01*
X549500Y915750D02*
Y918750D01*
X554000Y917250D02*
X557000D01*
X555500Y915750D02*
Y918750D01*
X560000Y917250D02*
X563000D01*
X561500Y915750D02*
Y918750D01*
X566000Y917250D02*
X569000D01*
X567500Y915750D02*
Y918750D01*
X566000Y911250D02*
X569000D01*
X567500Y909750D02*
Y912750D01*
X560000Y911250D02*
X563000D01*
X561500Y909750D02*
Y912750D01*
X554000Y911250D02*
X557000D01*
X555500Y909750D02*
Y912750D01*
X554000Y929250D02*
X557000D01*
X555500Y927750D02*
Y930750D01*
X554000Y935250D02*
X557000D01*
X555500Y933750D02*
Y936750D01*
X560000Y935250D02*
X563000D01*
X561500Y933750D02*
Y936750D01*
X566000Y935250D02*
X569000D01*
X567500Y933750D02*
Y936750D01*
X572000Y935250D02*
X575000D01*
X573500Y933750D02*
Y936750D01*
X578000Y935250D02*
X581000D01*
X579500Y933750D02*
Y936750D01*
X578000Y929250D02*
X581000D01*
X579500Y927750D02*
Y930750D01*
X578000Y923250D02*
X581000D01*
X579500Y921750D02*
Y924750D01*
X578000Y917250D02*
X581000D01*
X579500Y915750D02*
Y918750D01*
X578000Y911250D02*
X581000D01*
X579500Y909750D02*
Y912750D01*
X572000Y911250D02*
X575000D01*
X573500Y909750D02*
Y912750D01*
X572000Y917250D02*
X575000D01*
X573500Y915750D02*
Y918750D01*
X572000Y923250D02*
X575000D01*
X573500Y921750D02*
Y924750D01*
X572000Y929250D02*
X575000D01*
X573500Y927750D02*
Y930750D01*
X566000Y929250D02*
X569000D01*
X567500Y927750D02*
Y930750D01*
X560000Y929250D02*
X563000D01*
X561500Y927750D02*
Y930750D01*
X395501Y923329D02*
X398501D01*
X397001Y921829D02*
Y924829D01*
X403121Y923329D02*
X406121D01*
X404621Y921829D02*
Y924829D01*
X410741Y923329D02*
X413741D01*
X412241Y921829D02*
Y924829D01*
X418361Y923329D02*
X421361D01*
X419861Y921829D02*
Y924829D01*
X425981Y923329D02*
X428981D01*
X427481Y921829D02*
Y924829D01*
X425981Y915709D02*
X428981D01*
X427481Y914209D02*
Y917209D01*
X425981Y908089D02*
X428981D01*
X427481Y906589D02*
Y909589D01*
X425981Y900469D02*
X428981D01*
X427481Y898969D02*
Y901969D01*
X425981Y892849D02*
X428981D01*
X427481Y891349D02*
Y894349D01*
X418361Y892849D02*
X421361D01*
X419861Y891349D02*
Y894349D01*
X410741Y892849D02*
X413741D01*
X412241Y891349D02*
Y894349D01*
X403121Y892849D02*
X406121D01*
X404621Y891349D02*
Y894349D01*
X395501Y892849D02*
X398501D01*
X397001Y891349D02*
Y894349D01*
X395501Y900469D02*
X398501D01*
X397001Y898969D02*
Y901969D01*
X403121Y900469D02*
X406121D01*
X404621Y898969D02*
Y901969D01*
X410741Y900469D02*
X413741D01*
X412241Y898969D02*
Y901969D01*
X418361Y900469D02*
X421361D01*
X419861Y898969D02*
Y901969D01*
X418361Y908089D02*
X421361D01*
X419861Y906589D02*
Y909589D01*
X418361Y915709D02*
X421361D01*
X419861Y914209D02*
Y917209D01*
X410741Y915709D02*
X413741D01*
X412241Y914209D02*
Y917209D01*
X403121Y915709D02*
X406121D01*
X404621Y914209D02*
Y917209D01*
X395501Y915709D02*
X398501D01*
X397001Y914209D02*
Y917209D01*
X387881Y915709D02*
X390881D01*
X389381Y914209D02*
Y917209D01*
X387881Y923329D02*
X390881D01*
X389381Y921829D02*
Y924829D01*
X387881Y930949D02*
X390881D01*
X389381Y929449D02*
Y932449D01*
X395501Y930949D02*
X398501D01*
X397001Y929449D02*
Y932449D01*
X403121Y930949D02*
X406121D01*
X404621Y929449D02*
Y932449D01*
X410741Y930949D02*
X413741D01*
X412241Y929449D02*
Y932449D01*
X418361Y930949D02*
X421361D01*
X419861Y929449D02*
Y932449D01*
X425981Y930949D02*
X428981D01*
X427481Y929449D02*
Y932449D01*
X433601Y930949D02*
X436601D01*
X435101Y929449D02*
Y932449D01*
X433601Y923329D02*
X436601D01*
X435101Y921829D02*
Y924829D01*
X433601Y915709D02*
X436601D01*
X435101Y914209D02*
Y917209D01*
X433601Y908089D02*
X436601D01*
X435101Y906589D02*
Y909589D01*
X433601Y900469D02*
X436601D01*
X435101Y898969D02*
Y901969D01*
X433601Y892849D02*
X436601D01*
X435101Y891349D02*
Y894349D01*
X433601Y885229D02*
X436601D01*
X435101Y883729D02*
Y886729D01*
X425981Y885229D02*
X428981D01*
X427481Y883729D02*
Y886729D01*
X418361Y885229D02*
X421361D01*
X419861Y883729D02*
Y886729D01*
X410741Y885229D02*
X413741D01*
X412241Y883729D02*
Y886729D01*
X403121Y885229D02*
X406121D01*
X404621Y883729D02*
Y886729D01*
X395501Y885229D02*
X398501D01*
X397001Y883729D02*
Y886729D01*
X387881Y885229D02*
X390881D01*
X389381Y883729D02*
Y886729D01*
X387881Y892849D02*
X390881D01*
X389381Y891349D02*
Y894349D01*
X387881Y900469D02*
X390881D01*
X389381Y898969D02*
Y901969D01*
X387881Y908089D02*
X390881D01*
X389381Y906589D02*
Y909589D01*
X395501Y908089D02*
X398501D01*
X397001Y906589D02*
Y909589D01*
X403121Y908089D02*
X406121D01*
X404621Y906589D02*
Y909589D01*
X410741Y908089D02*
X413741D01*
X412241Y906589D02*
Y909589D01*
X789000Y1090000D02*
X821000D01*
X805000Y1074000D02*
Y1106000D01*
X19000Y1090000D02*
X51000D01*
X35000Y1074000D02*
Y1106000D01*
X789000Y35000D02*
X821000D01*
X805000Y19000D02*
Y51000D01*
X19000Y35000D02*
X51000D01*
X35000Y19000D02*
Y51000D01*
X27400Y642750D02*
X37600D01*
X32500Y637650D02*
Y647850D01*
X27400Y668150D02*
X37600D01*
X32500Y663050D02*
Y673250D01*
X27400Y693550D02*
X37600D01*
X32500Y688450D02*
Y698650D01*
X27400Y718950D02*
X37600D01*
X32500Y713850D02*
Y724050D01*
X27400Y744350D02*
X37600D01*
X32500Y739250D02*
Y749450D01*
X27400Y769750D02*
X37600D01*
X32500Y764650D02*
Y774850D01*
X27400Y795150D02*
X37600D01*
X32500Y790050D02*
Y800250D01*
X27400Y617350D02*
X37600D01*
X32500Y612250D02*
Y622450D01*
X27400Y591950D02*
X37600D01*
X32500Y586850D02*
Y597050D01*
X27400Y566550D02*
X37600D01*
X32500Y561450D02*
Y571650D01*
X27400Y541150D02*
X37600D01*
X32500Y536050D02*
Y546250D01*
X27400Y515750D02*
X37600D01*
X32500Y510650D02*
Y520850D01*
X27400Y490350D02*
X37600D01*
X32500Y485250D02*
Y495450D01*
X27400Y464950D02*
X37600D01*
X32500Y459850D02*
Y470050D01*
X27400Y439550D02*
X37600D01*
X32500Y434450D02*
Y444650D01*
X27400Y414150D02*
X37600D01*
X32500Y409050D02*
Y419250D01*
X27400Y388750D02*
X37600D01*
X32500Y383650D02*
Y393850D01*
X27400Y363350D02*
X37600D01*
X32500Y358250D02*
Y368450D01*
X27400Y337950D02*
X37600D01*
X32500Y332850D02*
Y343050D01*
X27400Y312550D02*
X37600D01*
X32500Y307450D02*
Y317650D01*
X247150Y1084150D02*
X257350D01*
X252250Y1079050D02*
Y1089250D01*
X272550Y1084150D02*
X282750D01*
X277650Y1079050D02*
Y1089250D01*
X297950Y1084150D02*
X308150D01*
X303050Y1079050D02*
Y1089250D01*
X323350Y1084150D02*
X333550D01*
X328450Y1079050D02*
Y1089250D01*
X247150Y1058750D02*
X257350D01*
X252250Y1053650D02*
Y1063850D01*
X272550Y1058750D02*
X282750D01*
X277650Y1053650D02*
Y1063850D01*
X297950Y1058750D02*
X308150D01*
X303050Y1053650D02*
Y1063850D01*
X323350Y1058750D02*
X333550D01*
X328450Y1053650D02*
Y1063850D01*
X424950Y1084150D02*
X435150D01*
X430050Y1079050D02*
Y1089250D01*
X424950Y1058750D02*
X435150D01*
X430050Y1053650D02*
Y1063850D01*
X475750Y1084150D02*
X485950D01*
X480850Y1079050D02*
Y1089250D01*
X475750Y1058750D02*
X485950D01*
X480850Y1053650D02*
Y1063850D01*
X450350Y1058750D02*
X460550D01*
X455450Y1053650D02*
Y1063850D01*
X450350Y1084150D02*
X460550D01*
X455450Y1079050D02*
Y1089250D01*
X399550Y1058750D02*
X409750D01*
X404650Y1053650D02*
Y1063850D01*
X399550Y1084150D02*
X409750D01*
X404650Y1079050D02*
Y1089250D01*
X374150Y1058750D02*
X384350D01*
X379250Y1053650D02*
Y1063850D01*
X374150Y1084150D02*
X384350D01*
X379250Y1079050D02*
Y1089250D01*
X348750Y1058750D02*
X358950D01*
X353850Y1053650D02*
Y1063850D01*
X348750Y1084150D02*
X358950D01*
X353850Y1079050D02*
Y1089250D01*
X767900Y552950D02*
X778100D01*
X773000Y547850D02*
Y558050D01*
X767900Y578350D02*
X778100D01*
X773000Y573250D02*
Y583450D01*
X767900Y603750D02*
X778100D01*
X773000Y598650D02*
Y608850D01*
X767900Y629150D02*
X778100D01*
X773000Y624050D02*
Y634250D01*
X767900Y654550D02*
X778100D01*
X773000Y649450D02*
Y659650D01*
X126600Y1072750D02*
X136800D01*
X131700Y1067650D02*
Y1077850D01*
X152000Y1072750D02*
X162200D01*
X157100Y1067650D02*
Y1077850D01*
X177400Y1072750D02*
X187600D01*
X182500Y1067650D02*
Y1077850D01*
X202800Y1072750D02*
X213000D01*
X207900Y1067650D02*
Y1077850D01*
X769150Y419450D02*
X779350D01*
X774250Y414350D02*
Y424550D01*
X769150Y444850D02*
X779350D01*
X774250Y439750D02*
Y449950D01*
X769150Y470250D02*
X779350D01*
X774250Y465150D02*
Y475350D01*
X769150Y495650D02*
X779350D01*
X774250Y490550D02*
Y500750D01*
X771100Y919650D02*
X786100D01*
X778600Y912150D02*
Y927150D01*
X745700Y945050D02*
X760700D01*
X753200Y937550D02*
Y952550D01*
X745700Y894250D02*
X760700D01*
X753200Y886750D02*
Y901750D01*
X796500Y894250D02*
X811500D01*
X804000Y886750D02*
Y901750D01*
X796500Y945050D02*
X811500D01*
X804000Y937550D02*
Y952550D01*
X766400Y734150D02*
X776600D01*
X771500Y729050D02*
Y739250D01*
X766400Y708750D02*
X776600D01*
X771500Y703650D02*
Y713850D01*
X610900Y46500D02*
X621100D01*
X616000Y41400D02*
Y51600D01*
X585500Y46500D02*
X595700D01*
X590600Y41400D02*
Y51600D01*
X694400Y66900D02*
X704600D01*
X699500Y61800D02*
Y72000D01*
X694400Y41500D02*
X704600D01*
X699500Y36400D02*
Y46600D01*
X669000Y41500D02*
X679200D01*
X674100Y36400D02*
Y46600D01*
X669000Y66900D02*
X679200D01*
X674100Y61800D02*
Y72000D01*
X758650Y130400D02*
X768850D01*
X763750Y125300D02*
Y135500D01*
X758650Y105000D02*
X768850D01*
X763750Y99900D02*
Y110100D01*
X809450Y130400D02*
X819650D01*
X814550Y125300D02*
Y135500D01*
X809450Y105000D02*
X819650D01*
X814550Y99900D02*
Y110100D01*
X784050Y105000D02*
X794250D01*
X789150Y99900D02*
Y110100D01*
X784050Y130400D02*
X794250D01*
X789150Y125300D02*
Y135500D01*
X733250Y105000D02*
X743450D01*
X738350Y99900D02*
Y110100D01*
X733250Y130400D02*
X743450D01*
X738350Y125300D02*
Y135500D01*
X707850Y105000D02*
X718050D01*
X712950Y99900D02*
Y110100D01*
X707850Y130400D02*
X718050D01*
X712950Y125300D02*
Y135500D01*
X682450Y105000D02*
X692650D01*
X687550Y99900D02*
Y110100D01*
X682450Y130400D02*
X692650D01*
X687550Y125300D02*
Y135500D01*
X13050Y106050D02*
X45550D01*
X29300Y89800D02*
Y122300D01*
X13050Y232050D02*
X45550D01*
X29300Y215800D02*
Y248300D01*
X533750Y885000D02*
X536250D01*
X535000Y883750D02*
Y886250D01*
X598750Y885000D02*
X601250D01*
X600000Y883750D02*
Y886250D01*
X661000Y763750D02*
X663000D01*
X662000Y762750D02*
Y764750D01*
X563000Y747000D02*
X565000D01*
X564000Y746000D02*
Y748000D01*
X352750Y758250D02*
X354750D01*
X353750Y757250D02*
Y759250D01*
X248250Y757000D02*
X250250D01*
X249250Y756000D02*
Y758000D01*
X602000Y989500D02*
X606500D01*
X604250Y987250D02*
Y991750D01*
X544750Y1001250D02*
X549250D01*
X547000Y999000D02*
Y1003500D01*
X677750Y233500D02*
X682250D01*
X680000Y231250D02*
Y235750D01*
X601750Y113000D02*
X606250D01*
X604000Y110750D02*
Y115250D01*
X599250Y257500D02*
X603750D01*
X601500Y255250D02*
Y259750D01*
X658250Y218500D02*
X662750D01*
X660500Y216250D02*
Y220750D01*
X118500Y825250D02*
X120500D01*
X119500Y824250D02*
Y826250D01*
X134750Y945250D02*
X136750D01*
X135750Y944250D02*
Y946250D01*
X519250Y908000D02*
X521750D01*
X520500Y906750D02*
Y909250D01*
X519250Y887250D02*
X521750D01*
X520500Y886000D02*
Y888500D01*
X501250Y889750D02*
X503750D01*
X502500Y888500D02*
Y891000D01*
X413770Y237512D02*
X415770D01*
X414770Y236512D02*
Y238512D01*
X54000Y961250D02*
X56000D01*
X55000Y960250D02*
Y962250D01*
X303000Y137250D02*
X305000D01*
X304000Y136250D02*
Y138250D01*
X84500Y803500D02*
X86500D01*
X85500Y802500D02*
Y804500D01*
X84754Y847791D02*
X86754D01*
X85754Y846791D02*
Y848791D01*
X226500Y865750D02*
X228500D01*
X227500Y864750D02*
Y866750D01*
X247750Y840250D02*
X249750D01*
X248750Y839250D02*
Y841250D01*
X247750Y828750D02*
X249750D01*
X248750Y827750D02*
Y829750D01*
X385250Y756250D02*
X387250D01*
X386250Y755250D02*
Y757250D01*
X805750Y345250D02*
X807750D01*
X806750Y344250D02*
Y346250D01*
X727000Y369250D02*
X731500D01*
X729250Y367000D02*
Y371500D01*
X262250Y204250D02*
X266750D01*
X264500Y202000D02*
Y206500D01*
X59250Y82500D02*
X63750D01*
X61500Y80250D02*
Y84750D01*
X27500Y277250D02*
X32000D01*
X29750Y275000D02*
Y279500D01*
X373750Y276500D02*
X375750D01*
X374750Y275500D02*
Y277500D01*
X404000Y203750D02*
X406000D01*
X405000Y202750D02*
Y204750D01*
X452022Y152007D02*
X454022D01*
X453022Y151007D02*
Y153007D01*
X487500Y146250D02*
X489500D01*
X488500Y145250D02*
Y147250D01*
X522250Y161750D02*
X524250D01*
X523250Y160750D02*
Y162750D01*
X522000Y136750D02*
X524000D01*
X523000Y135750D02*
Y137750D01*
X508000Y113000D02*
X510000D01*
X509000Y112000D02*
Y114000D01*
X470500Y137000D02*
X472500D01*
X471500Y136000D02*
Y138000D01*
X451250Y172000D02*
X453250D01*
X452250Y171000D02*
Y173000D01*
X342000Y49750D02*
X344000D01*
X343000Y48750D02*
Y50750D01*
X261263Y50753D02*
X263263D01*
X262263Y49752D02*
Y51753D01*
X439000Y300250D02*
X441000D01*
X440000Y299250D02*
Y301250D01*
X67500Y656500D02*
X69500D01*
X68500Y655500D02*
Y657500D01*
X528500Y290250D02*
X530500D01*
X529500Y289250D02*
Y291250D01*
X543750Y302250D02*
X545750D01*
X544750Y301250D02*
Y303250D01*
X301750Y772750D02*
X303750D01*
X302750Y771750D02*
Y773750D01*
X121500Y434500D02*
X123500D01*
X122500Y433500D02*
Y435500D01*
X379500Y300000D02*
X381500D01*
X380500Y299000D02*
Y301000D01*
X258750Y303250D02*
X260750D01*
X259750Y302250D02*
Y304250D01*
X696500Y683250D02*
X698500D01*
X697500Y682250D02*
Y684250D01*
X184750Y756750D02*
X186750D01*
X185750Y755750D02*
Y757750D01*
X604500Y302250D02*
X606500D01*
X605500Y301250D02*
Y303250D01*
X558500Y302250D02*
X560500D01*
X559500Y301250D02*
Y303250D01*
X131000Y426000D02*
X133000D01*
X132000Y425000D02*
Y427000D01*
X349250Y300500D02*
X351250D01*
X350250Y299500D02*
Y301500D01*
X214500Y757000D02*
X216500D01*
X215500Y756000D02*
Y758000D01*
X131750Y368750D02*
X133750D01*
X132750Y367750D02*
Y369750D01*
X131000Y713750D02*
X133000D01*
X132000Y712750D02*
Y714750D01*
X67503Y733536D02*
X69503D01*
X68503Y732536D02*
Y734536D01*
X304250Y303000D02*
X306250D01*
X305250Y302000D02*
Y304000D01*
X370750Y755000D02*
X372750D01*
X371750Y754000D02*
Y756000D01*
X131500Y609500D02*
X133500D01*
X132500Y608500D02*
Y610500D01*
X273250Y303000D02*
X275250D01*
X274250Y302000D02*
Y304000D01*
X542062Y285312D02*
X544062D01*
X543063Y284312D02*
Y286313D01*
X427500Y763250D02*
X429500D01*
X428500Y762250D02*
Y764250D01*
X393750Y300250D02*
X395750D01*
X394750Y299250D02*
Y301250D01*
X499250Y302250D02*
X501250D01*
X500250Y301250D02*
Y303250D01*
X228750Y756500D02*
X230750D01*
X229750Y755500D02*
Y757500D01*
X410500Y755500D02*
X412500D01*
X411500Y754500D02*
Y756500D01*
X316000Y749250D02*
X318000D01*
X317000Y748250D02*
Y750250D01*
X363500Y300250D02*
X365500D01*
X364500Y299250D02*
Y301250D01*
X454000Y757500D02*
X456000D01*
X455000Y756500D02*
Y758500D01*
X619500Y756750D02*
X621500D01*
X620500Y755750D02*
Y757750D01*
X131500Y489500D02*
X133500D01*
X132500Y488500D02*
Y490500D01*
X71504Y605530D02*
X73503D01*
X72503Y604530D02*
Y606530D01*
X513500Y296000D02*
X515500D01*
X514500Y295000D02*
Y297000D01*
X697500Y714750D02*
X699500D01*
X698500Y713750D02*
Y715750D01*
X697500Y533250D02*
X699500D01*
X698500Y532250D02*
Y534250D01*
X697500Y369000D02*
X699500D01*
X698500Y368000D02*
Y370000D01*
X339250Y763000D02*
X341250D01*
X340250Y762000D02*
Y764000D01*
X131500Y624500D02*
X133500D01*
X132500Y623500D02*
Y625500D01*
X423750Y300250D02*
X425750D01*
X424750Y299250D02*
Y301250D01*
X529250Y757000D02*
X531250D01*
X530250Y756000D02*
Y758000D01*
X288750Y303000D02*
X290750D01*
X289750Y302000D02*
Y304000D01*
X333250Y301000D02*
X335250D01*
X334250Y300000D02*
Y302000D01*
X409000Y300000D02*
X411000D01*
X410000Y299000D02*
Y301000D01*
X618000Y301500D02*
X620000D01*
X619000Y300500D02*
Y302500D01*
X696500Y504000D02*
X698500D01*
X697500Y503000D02*
Y505000D01*
X544000Y757750D02*
X546000D01*
X545000Y756750D02*
Y758750D01*
X284500Y805750D02*
X286500D01*
X285500Y804750D02*
Y806750D01*
X288250Y755750D02*
X290250D01*
X289250Y754750D02*
Y756750D01*
X469750Y756500D02*
X471750D01*
X470750Y755500D02*
Y757500D01*
X71504Y578278D02*
X73503D01*
X72503Y577278D02*
Y579278D01*
X529250Y302750D02*
X531250D01*
X530250Y301750D02*
Y303750D01*
X697500Y398750D02*
X699500D01*
X698500Y397750D02*
Y399750D01*
X171000Y757750D02*
X173000D01*
X172000Y756750D02*
Y758750D01*
X131750Y444250D02*
X133750D01*
X132750Y443250D02*
Y445250D01*
X318250Y300750D02*
X320250D01*
X319250Y299750D02*
Y301750D01*
X514250Y302750D02*
X516250D01*
X515250Y301750D02*
Y303750D01*
X318500Y726250D02*
X320500D01*
X319500Y725250D02*
Y727250D01*
X200500Y756750D02*
X202500D01*
X201500Y755750D02*
Y757750D01*
X132000Y503750D02*
X134000D01*
X133000Y502750D02*
Y504750D01*
X131500Y458500D02*
X133500D01*
X132500Y457500D02*
Y459500D01*
X131250Y409750D02*
X133250D01*
X132250Y408750D02*
Y410750D01*
X67503Y707284D02*
X69503D01*
X68503Y706284D02*
Y708285D01*
X71504Y526026D02*
X73503D01*
X72503Y525026D02*
Y527026D01*
X71504Y554027D02*
X73503D01*
X72503Y553027D02*
Y555027D01*
X830750Y308000D02*
X833250D01*
X832000Y306750D02*
Y309250D01*
X803233Y205017D02*
X807733D01*
X805483Y202767D02*
Y207267D01*
X805233Y290267D02*
X809733D01*
X807483Y288017D02*
Y292517D01*
X682500Y249500D02*
X687000D01*
X684750Y247250D02*
Y251750D01*
X721483Y209267D02*
X725983D01*
X723733Y207017D02*
Y211517D01*
X695983Y173517D02*
X700483D01*
X698233Y171267D02*
Y175767D01*
X614250Y150500D02*
X618750D01*
X616500Y148250D02*
Y152750D01*
X573983Y157267D02*
X578483D01*
X576233Y155017D02*
Y159517D01*
X584233Y141017D02*
X588733D01*
X586483Y138767D02*
Y143267D01*
X773750Y185000D02*
X776250D01*
X775000Y183750D02*
Y186250D01*
X568750Y130000D02*
X571250D01*
X570000Y128750D02*
Y131250D01*
X638250Y94250D02*
X640750D01*
X639500Y93000D02*
Y95500D01*
X648750Y15000D02*
X651250D01*
X650000Y13750D02*
Y16250D01*
X748750Y15000D02*
X751250D01*
X750000Y13750D02*
Y16250D01*
X511500Y955000D02*
X516000D01*
X513750Y952750D02*
Y957250D01*
X288750Y37500D02*
X290750D01*
X289750Y36500D02*
Y38500D01*
X269000Y32750D02*
X271000D01*
X270000Y31750D02*
Y33750D01*
X282750Y27750D02*
X284750D01*
X283750Y26750D02*
Y28750D01*
X282250Y11000D02*
X284250D01*
X283250Y10000D02*
Y12000D01*
X355250Y22500D02*
X357250D01*
X356250Y21500D02*
Y23500D01*
X341500Y111000D02*
X343500D01*
X342500Y110000D02*
Y112000D01*
X354250Y142000D02*
X356250D01*
X355250Y141000D02*
Y143000D01*
X365250Y122000D02*
X367250D01*
X366250Y121000D02*
Y123000D01*
X326750Y47750D02*
X328750D01*
X327750Y46750D02*
Y48750D01*
X413250Y34250D02*
X415250D01*
X414250Y33250D02*
Y35250D01*
X387000Y33750D02*
X389000D01*
X388000Y32750D02*
Y34750D01*
X667750Y265000D02*
X672250D01*
X670000Y262750D02*
Y267250D01*
X434000Y1022500D02*
X436000D01*
X435000Y1021500D02*
Y1023500D01*
X417750Y1023500D02*
X419750D01*
X418750Y1022500D02*
Y1024500D01*
X709000Y762000D02*
X711000D01*
X710000Y761000D02*
Y763000D01*
X179000Y976000D02*
X181000D01*
X180000Y975000D02*
Y977000D01*
X171000Y954250D02*
X173000D01*
X172000Y953250D02*
Y955250D01*
X91750Y967500D02*
X93750D01*
X92750Y966500D02*
Y968500D01*
X85500Y949500D02*
X87500D01*
X86500Y948500D02*
Y950500D01*
X126250Y847000D02*
X128250D01*
X127250Y846000D02*
Y848000D01*
X75250Y802500D02*
X77250D01*
X76250Y801500D02*
Y803500D01*
X687750Y305000D02*
X692250D01*
X690000Y302750D02*
Y307250D01*
X809750Y376000D02*
X811750D01*
X810750Y375000D02*
Y377000D01*
X719000Y490000D02*
X721000D01*
X720000Y489000D02*
Y491000D01*
X718785Y439771D02*
X720785D01*
X719785Y438772D02*
Y440771D01*
X718750Y411250D02*
X720750D01*
X719750Y410250D02*
Y412250D01*
X712000Y355500D02*
X714000D01*
X713000Y354500D02*
Y356500D01*
X568750Y785000D02*
X571250D01*
X570000Y783750D02*
Y786250D01*
X623750Y785000D02*
X626250D01*
X625000Y783750D02*
Y786250D01*
X673750Y785000D02*
X676250D01*
X675000Y783750D02*
Y786250D01*
X723750Y785000D02*
X726250D01*
X725000Y783750D02*
Y786250D01*
X778750Y785000D02*
X781250D01*
X780000Y783750D02*
Y786250D01*
X808750Y815000D02*
X811250D01*
X810000Y813750D02*
Y816250D01*
X748750Y815000D02*
X751250D01*
X750000Y813750D02*
Y816250D01*
X698750Y815000D02*
X701250D01*
X700000Y813750D02*
Y816250D01*
X648750Y815000D02*
X651250D01*
X650000Y813750D02*
Y816250D01*
X598750Y820000D02*
X601250D01*
X600000Y818750D02*
Y821250D01*
X453750Y1020000D02*
X456250D01*
X455000Y1018750D02*
Y1021250D01*
X503750Y1020000D02*
X506250D01*
X505000Y1018750D02*
Y1021250D01*
X528750Y1095000D02*
X531250D01*
X530000Y1093750D02*
Y1096250D01*
X528750Y1045000D02*
X531250D01*
X530000Y1043750D02*
Y1046250D01*
X548750Y1070000D02*
X551250D01*
X550000Y1068750D02*
Y1071250D01*
X573750Y1095000D02*
X576250D01*
X575000Y1093750D02*
Y1096250D01*
X573750Y1045000D02*
X576250D01*
X575000Y1043750D02*
Y1046250D01*
X598750Y1070000D02*
X601250D01*
X600000Y1068750D02*
Y1071250D01*
X623750Y1095000D02*
X626250D01*
X625000Y1093750D02*
Y1096250D01*
X673750Y1095000D02*
X676250D01*
X675000Y1093750D02*
Y1096250D01*
X723750Y1095000D02*
X726250D01*
X725000Y1093750D02*
Y1096250D01*
X753750Y1070000D02*
X756250D01*
X755000Y1068750D02*
Y1071250D01*
X698750Y1070000D02*
X701250D01*
X700000Y1068750D02*
Y1071250D01*
X648750Y1070000D02*
X651250D01*
X650000Y1068750D02*
Y1071250D01*
X598750Y1020000D02*
X601250D01*
X600000Y1018750D02*
Y1021250D01*
X623750Y1045000D02*
X626250D01*
X625000Y1043750D02*
Y1046250D01*
X673750Y1045000D02*
X676250D01*
X675000Y1043750D02*
Y1046250D01*
X723750Y1045000D02*
X726250D01*
X725000Y1043750D02*
Y1046250D01*
X778750Y1045000D02*
X781250D01*
X780000Y1043750D02*
Y1046250D01*
X808750Y1020000D02*
X811250D01*
X810000Y1018750D02*
Y1021250D01*
X753750Y1020000D02*
X756250D01*
X755000Y1018750D02*
Y1021250D01*
X698750Y1020000D02*
X701250D01*
X700000Y1018750D02*
Y1021250D01*
X648750Y1020000D02*
X651250D01*
X650000Y1018750D02*
Y1021250D01*
X338750Y870000D02*
X341250D01*
X340000Y868750D02*
Y871250D01*
X338750Y900000D02*
X341250D01*
X340000Y898750D02*
Y901250D01*
X338750Y930000D02*
X341250D01*
X340000Y928750D02*
Y931250D01*
X343750Y960000D02*
X346250D01*
X345000Y958750D02*
Y961250D01*
X358750Y980000D02*
X361250D01*
X360000Y978750D02*
Y981250D01*
X623750Y995000D02*
X626250D01*
X625000Y993750D02*
Y996250D01*
X808750Y970000D02*
X811250D01*
X810000Y968750D02*
Y971250D01*
X753750Y970000D02*
X756250D01*
X755000Y968750D02*
Y971250D01*
X778750Y995000D02*
X781250D01*
X780000Y993750D02*
Y996250D01*
X723750Y995000D02*
X726250D01*
X725000Y993750D02*
Y996250D01*
X673750Y995000D02*
X676250D01*
X675000Y993750D02*
Y996250D01*
X648750Y970000D02*
X651250D01*
X650000Y968750D02*
Y971250D01*
X698750Y970000D02*
X701250D01*
X700000Y968750D02*
Y971250D01*
X723750Y945000D02*
X726250D01*
X725000Y943750D02*
Y946250D01*
X673750Y945000D02*
X676250D01*
X675000Y943750D02*
Y946250D01*
X458750Y845000D02*
X461250D01*
X460000Y843750D02*
Y846250D01*
X478750Y870000D02*
X481250D01*
X480000Y868750D02*
Y871250D01*
X508750Y845000D02*
X511250D01*
X510000Y843750D02*
Y846250D01*
X568750Y845000D02*
X571250D01*
X570000Y843750D02*
Y846250D01*
X623750Y845000D02*
X626250D01*
X625000Y843750D02*
Y846250D01*
X723750Y895000D02*
X726250D01*
X725000Y893750D02*
Y896250D01*
X673750Y895000D02*
X676250D01*
X675000Y893750D02*
Y896250D01*
X808750Y870000D02*
X811250D01*
X810000Y868750D02*
Y871250D01*
X778750Y845000D02*
X781250D01*
X780000Y843750D02*
Y846250D01*
X723750Y845000D02*
X726250D01*
X725000Y843750D02*
Y846250D01*
X673750Y845000D02*
X676250D01*
X675000Y843750D02*
Y846250D01*
X748750Y870000D02*
X751250D01*
X750000Y868750D02*
Y871250D01*
X698750Y870000D02*
X701250D01*
X700000Y868750D02*
Y871250D01*
X648750Y870000D02*
X651250D01*
X650000Y868750D02*
Y871250D01*
X598750Y870000D02*
X601250D01*
X600000Y868750D02*
Y871250D01*
X548750Y870000D02*
X551250D01*
X550000Y868750D02*
Y871250D01*
X759750Y910500D02*
X762250D01*
X761000Y909250D02*
Y911750D01*
X751750Y910500D02*
X754250D01*
X753000Y909250D02*
Y911750D01*
X742500Y910500D02*
X745000D01*
X743750Y909250D02*
Y911750D01*
X759750Y928486D02*
X762250D01*
X761000Y927236D02*
Y929736D01*
X751500Y928250D02*
X754000D01*
X752750Y927000D02*
Y929500D01*
X742750Y928486D02*
X745250D01*
X744000Y927236D02*
Y929736D01*
X766100Y933150D02*
X768600D01*
X767350Y931900D02*
Y934400D01*
X773850Y936150D02*
X776350D01*
X775100Y934900D02*
Y937400D01*
X782350Y935900D02*
X784850D01*
X783600Y934650D02*
Y937150D01*
X789500Y931250D02*
X792000D01*
X790750Y930000D02*
Y932500D01*
X793850Y923400D02*
X796350D01*
X795100Y922150D02*
Y924650D01*
X793850Y914150D02*
X796350D01*
X795100Y912900D02*
Y915400D01*
X788850Y907150D02*
X791350D01*
X790100Y905900D02*
Y908400D01*
X782350Y902400D02*
X784850D01*
X783600Y901150D02*
Y903650D01*
X773850Y902400D02*
X776350D01*
X775100Y901150D02*
Y903650D01*
X766350Y905400D02*
X768850D01*
X767600Y904150D02*
Y906650D01*
X512750Y916500D02*
X515250D01*
X514000Y915250D02*
Y917750D01*
X512750Y924750D02*
X515250D01*
X514000Y923500D02*
Y926000D01*
X516750Y932500D02*
X519250D01*
X518000Y931250D02*
Y933750D01*
X533500Y893750D02*
X536000D01*
X534750Y892500D02*
Y895000D01*
X526000Y891250D02*
X528500D01*
X527250Y890000D02*
Y892500D01*
X610250Y917000D02*
X612750D01*
X611500Y915750D02*
Y918250D01*
X603250Y917000D02*
X605750D01*
X604500Y915750D02*
Y918250D01*
X603500Y899250D02*
X606000D01*
X604750Y898000D02*
Y900500D01*
X611500Y898750D02*
X614000D01*
X612750Y897500D02*
Y900000D01*
X619500Y898750D02*
X622000D01*
X620750Y897500D02*
Y900000D01*
X734750Y910500D02*
X737250D01*
X736000Y909250D02*
Y911750D01*
X725500Y910500D02*
X728000D01*
X726750Y909250D02*
Y911750D01*
X716000Y910500D02*
X718500D01*
X717250Y909250D02*
Y911750D01*
X707500Y910500D02*
X710000D01*
X708750Y909250D02*
Y911750D01*
X699000Y910500D02*
X701500D01*
X700250Y909250D02*
Y911750D01*
X690250Y910500D02*
X692750D01*
X691500Y909250D02*
Y911750D01*
X681250Y910500D02*
X683750D01*
X682500Y909250D02*
Y911750D01*
X734250Y928486D02*
X736750D01*
X735500Y927236D02*
Y929736D01*
X725500Y928486D02*
X728000D01*
X726750Y927236D02*
Y929736D01*
X715750Y928486D02*
X718250D01*
X717000Y927236D02*
Y929736D01*
X707500Y928486D02*
X710000D01*
X708750Y927236D02*
Y929736D01*
X699250Y928486D02*
X701750D01*
X700500Y927236D02*
Y929736D01*
X690000Y928486D02*
X692500D01*
X691250Y927236D02*
Y929736D01*
X680750Y928486D02*
X683250D01*
X682000Y927236D02*
Y929736D01*
X378500Y853000D02*
X383000D01*
X380750Y850750D02*
Y855250D01*
X290500Y957000D02*
X292500D01*
X291500Y956000D02*
Y958000D01*
X292000Y875000D02*
X294000D01*
X293000Y874000D02*
Y876000D01*
X51500Y812500D02*
X53500D01*
X52500Y811500D02*
Y813500D01*
X180500Y854250D02*
X182500D01*
X181500Y853250D02*
Y855250D01*
X100500Y853500D02*
X102500D01*
X101500Y852500D02*
Y854500D01*
X141250Y952000D02*
X143250D01*
X142250Y951000D02*
Y953000D01*
X46250Y868750D02*
X50750D01*
X48500Y866500D02*
Y871000D01*
X310000Y985500D02*
X312000D01*
X311000Y984500D02*
Y986500D01*
X296000Y982500D02*
X298000D01*
X297000Y981500D02*
Y983500D01*
X248250Y988250D02*
X250250D01*
X249250Y987250D02*
Y989250D01*
X487750Y211750D02*
X489750D01*
X488750Y210750D02*
Y212750D01*
X518250Y71250D02*
X520250D01*
X519250Y70250D02*
Y72250D01*
X437750Y84750D02*
X439750D01*
X438750Y83750D02*
Y85750D01*
X408750Y81250D02*
X410750D01*
X409750Y80250D02*
Y82250D01*
X404000Y85250D02*
X406000D01*
X405000Y84250D02*
Y86250D01*
X394000Y85500D02*
X396000D01*
X395000Y84500D02*
Y86500D01*
X239250Y16250D02*
X241250D01*
X240250Y15250D02*
Y17250D01*
X280250Y272750D02*
X282250D01*
X281250Y271750D02*
Y273750D01*
X321500Y105250D02*
X323500D01*
X322500Y104250D02*
Y106250D01*
X289000Y150750D02*
X291000D01*
X290000Y149750D02*
Y151750D01*
X285250Y183250D02*
X287250D01*
X286250Y182250D02*
Y184250D01*
X338000Y197750D02*
X340000D01*
X339000Y196750D02*
Y198750D01*
X353750Y179500D02*
X355750D01*
X354750Y178500D02*
Y180500D01*
X332250Y147000D02*
X334250D01*
X333250Y146000D02*
Y148000D01*
X332750Y137000D02*
X334750D01*
X333750Y136000D02*
Y138000D01*
X333000Y127000D02*
X335000D01*
X334000Y126000D02*
Y128000D01*
X285250Y222000D02*
X287250D01*
X286250Y221000D02*
Y223000D01*
X557500Y177250D02*
X562000D01*
X559750Y175000D02*
Y179500D01*
X356500Y269000D02*
X358500D01*
X357500Y268000D02*
Y270000D01*
X388750Y270250D02*
X390750D01*
X389750Y269250D02*
Y271250D01*
X417750Y269750D02*
X419750D01*
X418750Y268750D02*
Y270750D01*
X433250Y270250D02*
X435250D01*
X434250Y269250D02*
Y271250D01*
X516000Y102000D02*
X518000D01*
X517000Y101000D02*
Y103000D01*
Y86000D02*
X519000D01*
X518000Y85000D02*
Y87000D01*
X475500Y35250D02*
X477500D01*
X476500Y34250D02*
Y36250D01*
X460750Y35000D02*
X462750D01*
X461750Y34000D02*
Y36000D01*
X446000Y35250D02*
X448000D01*
X447000Y34250D02*
Y36250D01*
X431250Y34500D02*
X433250D01*
X432250Y33500D02*
Y35500D01*
X402000Y34250D02*
X404000D01*
X403000Y33250D02*
Y35250D01*
X372250Y34750D02*
X374250D01*
X373250Y33750D02*
Y35750D01*
X660500Y928486D02*
X663000D01*
X661750Y927236D02*
Y929736D01*
X671000Y928486D02*
X673500D01*
X672250Y927236D02*
Y929736D01*
X671718Y910500D02*
X674218D01*
X672968Y909250D02*
Y911750D01*
X661218Y910500D02*
X663718D01*
X662468Y909250D02*
Y911750D01*
X491250Y891250D02*
X493750D01*
X492500Y890000D02*
Y892500D01*
X465500Y906500D02*
X468000D01*
X466750Y905250D02*
Y907750D01*
X516250Y874750D02*
X518750D01*
X517500Y873500D02*
Y876000D01*
X464750Y941000D02*
X467250D01*
X466000Y939750D02*
Y942250D01*
X474000Y946500D02*
X476500D01*
X475250Y945250D02*
Y947750D01*
X471000Y931500D02*
X473500D01*
X472250Y930250D02*
Y932750D01*
X481500Y931250D02*
X484000D01*
X482750Y930000D02*
Y932500D01*
X476250Y904000D02*
X478750D01*
X477500Y902750D02*
Y905250D01*
X483500Y902750D02*
X486000D01*
X484750Y901500D02*
Y904000D01*
X615718Y934986D02*
X618218D01*
X616968Y933736D02*
Y936236D01*
X650968Y928486D02*
X653468D01*
X652218Y927236D02*
Y929736D01*
X640468Y928486D02*
X642968D01*
X641718Y927236D02*
Y929736D01*
X651218Y910500D02*
X653718D01*
X652468Y909250D02*
Y911750D01*
X640750Y910500D02*
X643250D01*
X642000Y909250D02*
Y911750D01*
X434200Y848700D02*
X438700D01*
X436450Y846450D02*
Y850950D01*
X502550Y914950D02*
X507050D01*
X504800Y912700D02*
Y917200D01*
X567241Y1019339D02*
X571741D01*
X569491Y1017089D02*
Y1021589D01*
X496500Y1004250D02*
X501000D01*
X498750Y1002000D02*
Y1006500D01*
X360991Y899589D02*
X365491D01*
X363241Y897339D02*
Y901839D01*
X350991Y864839D02*
X355491D01*
X353241Y862589D02*
Y867089D01*
X249750Y947750D02*
X254250D01*
X252000Y945500D02*
Y950000D01*
X755500Y383500D02*
X757500D01*
X756500Y382500D02*
Y384500D01*
X712000Y340500D02*
X714000D01*
X713000Y339500D02*
Y341500D01*
X718500Y430500D02*
X720500D01*
X719500Y429500D02*
Y431500D01*
X718750Y459500D02*
X720750D01*
X719750Y458500D02*
Y460500D01*
X718250Y477500D02*
X720250D01*
X719250Y476500D02*
Y478500D01*
X444250Y946750D02*
X446250D01*
X445250Y945750D02*
Y947750D01*
X390500Y852500D02*
X395000D01*
X392750Y850250D02*
Y854750D01*
X427500Y830750D02*
X429500D01*
X428500Y829750D02*
Y831750D01*
X419771Y862292D02*
X421771D01*
X420770Y861292D02*
Y863292D01*
X424521Y856792D02*
X429021D01*
X426771Y854542D02*
Y859042D01*
X413770Y863292D02*
X415770D01*
X414770Y862292D02*
Y864292D01*
X408750Y859750D02*
X410750D01*
X409750Y858750D02*
Y860750D01*
X403750Y863250D02*
X405750D01*
X404750Y862250D02*
Y864250D01*
X374875Y807000D02*
X376875D01*
X375875Y806000D02*
Y808000D01*
X374500Y775250D02*
X376500D01*
X375500Y774250D02*
Y776250D01*
Y790845D02*
X377500D01*
X376500Y789845D02*
Y791845D01*
X374000Y823750D02*
X376000D01*
X375000Y822750D02*
Y824750D01*
X552250Y820500D02*
X554250D01*
X553250Y819500D02*
Y821500D01*
X264750Y767500D02*
X266750D01*
X265750Y766500D02*
Y768500D01*
X274250Y783500D02*
X276250D01*
X275250Y782500D02*
Y784500D01*
X530000Y796500D02*
X532000D01*
X531000Y795500D02*
Y797500D01*
X308750Y865500D02*
X310750D01*
X309750Y864500D02*
Y866500D01*
X14250Y954000D02*
X16250D01*
X15250Y953000D02*
Y955000D01*
X98250Y879750D02*
X100250D01*
X99250Y878750D02*
Y880750D01*
X87000Y935000D02*
X89000D01*
X88000Y934000D02*
Y936000D01*
X332500Y181500D02*
X334500D01*
X333500Y180500D02*
Y182500D01*
X310250Y116250D02*
X312250D01*
X311250Y115250D02*
Y117250D01*
X332500Y187500D02*
X334500D01*
X333500Y186500D02*
Y188500D01*
X310250Y122250D02*
X312250D01*
X311250Y121250D02*
Y123250D01*
X338848Y823500D02*
X340848D01*
X339847Y822500D02*
Y824500D01*
X294000Y1007250D02*
X296000D01*
X295000Y1006250D02*
Y1008250D01*
X343500Y992500D02*
X345500D01*
X344500Y991500D02*
Y993500D01*
X336750Y1015250D02*
X338750D01*
X337750Y1014250D02*
Y1016250D01*
X470000Y807250D02*
X472000D01*
X471000Y806250D02*
Y808250D01*
X453750Y823500D02*
X455750D01*
X454750Y822500D02*
Y824500D01*
X339250Y790750D02*
X341250D01*
X340250Y789750D02*
Y791750D01*
X339000Y807000D02*
X341000D01*
X340000Y806000D02*
Y808000D01*
X324250Y19000D02*
X326250D01*
X325250Y18000D02*
Y20000D01*
X452000Y13750D02*
X456500D01*
X454250Y11500D02*
Y16000D01*
X438000Y50000D02*
X440000D01*
X439000Y49000D02*
Y51000D01*
X480500Y264500D02*
X482500D01*
X481500Y263500D02*
Y265500D01*
X490250Y182750D02*
X492250D01*
X491250Y181750D02*
Y183750D01*
X478500Y171500D02*
X480500D01*
X479500Y170500D02*
Y172500D01*
X471273Y156758D02*
X473273D01*
X472273Y155758D02*
Y157758D01*
X459750Y270500D02*
X461750D01*
X460750Y269500D02*
Y271500D01*
X408750Y224250D02*
X410750D01*
X409750Y223250D02*
Y225250D01*
X444000Y271500D02*
X446000D01*
X445000Y270500D02*
Y272500D01*
X544000Y212500D02*
X546000D01*
X545000Y211500D02*
Y213500D01*
X535000Y228250D02*
X537000D01*
X536000Y227250D02*
Y229250D01*
X526500Y242500D02*
X528500D01*
X527500Y241500D02*
Y243500D01*
X520000Y255750D02*
X522000D01*
X521000Y254750D02*
Y256750D01*
X402750Y229250D02*
X404750D01*
X403750Y228250D02*
Y230250D01*
X394000Y230500D02*
X396000D01*
X395000Y229500D02*
Y231500D01*
X381000Y232000D02*
X383000D01*
X382000Y231000D02*
Y233000D01*
X375250Y228000D02*
X377250D01*
X376250Y227000D02*
Y229000D01*
X519000Y181250D02*
X521000D01*
X520000Y180250D02*
Y182250D01*
X499000Y41750D02*
X501000D01*
X500000Y40750D02*
Y42750D01*
X381250Y241500D02*
X383250D01*
X382250Y240500D02*
Y242500D01*
X256250Y233500D02*
X258250D01*
X257250Y232500D02*
Y234500D01*
X449000Y117250D02*
X451000D01*
X450000Y116250D02*
Y118250D01*
X256750Y100500D02*
X258750D01*
X257750Y99500D02*
Y101500D01*
X437000Y126500D02*
X439000D01*
X438000Y125500D02*
Y127500D01*
X281750Y75750D02*
X283750D01*
X282750Y74750D02*
Y76750D01*
X353000Y132000D02*
X355000D01*
X354000Y131000D02*
Y133000D01*
X353000Y152250D02*
X355000D01*
X354000Y151250D02*
Y153250D01*
X353500Y172000D02*
X355500D01*
X354500Y171000D02*
Y173000D01*
X308250Y233000D02*
X310250D01*
X309250Y232000D02*
Y234000D01*
X296000Y161500D02*
X298000D01*
X297000Y160500D02*
Y162500D01*
X298250Y154500D02*
X300250D01*
X299250Y153500D02*
Y155500D01*
X297750Y83000D02*
X299750D01*
X298750Y82000D02*
Y84000D01*
X312750Y25000D02*
X317250D01*
X315000Y22750D02*
Y27250D01*
X46250Y938250D02*
X50750D01*
X48500Y936000D02*
Y940500D01*
X274750Y101250D02*
X276750D01*
X275750Y100250D02*
Y102250D01*
X275000Y139750D02*
X277000D01*
X276000Y138750D02*
Y140750D01*
X425250Y1003500D02*
X429750D01*
X427500Y1001250D02*
Y1005750D01*
X361800Y921200D02*
X366300D01*
X364050Y918950D02*
Y923450D01*
X419741Y957089D02*
X424241D01*
X421991Y954839D02*
Y959339D01*
X403241Y956089D02*
X407741D01*
X405491Y953839D02*
Y958339D01*
M02*
