G04*
G04 #@! TF.GenerationSoftware,Altium Limited,Altium Designer,19.1.9 (167)*
G04*
G04 Layer_Color=16711935*
%FSLAX44Y44*%
%MOMM*%
G71*
G01*
G75*
%ADD14C,0.1000*%
%ADD137C,0.0500*%
D14*
X465741Y918089D02*
X475741D01*
X470741Y913089D02*
Y923089D01*
D137*
X554002Y993066D02*
Y995566D01*
X556502D01*
X551502D02*
X554002D01*
Y998066D01*
Y995566D02*
Y998066D01*
X551502Y995566D02*
X554002D01*
X556502D01*
X554002Y993066D02*
Y995566D01*
X538760Y986610D02*
X569494D01*
X538760D02*
Y1004390D01*
X569494D01*
Y986610D02*
Y1004390D01*
X453491Y866839D02*
Y949339D01*
X370991D02*
X453491D01*
X370991Y866839D02*
Y949339D01*
Y866839D02*
X453491D01*
X613814Y937195D02*
X637690D01*
Y923987D02*
Y937195D01*
X613814Y923987D02*
X637690D01*
X613814D02*
Y937195D01*
X625752Y930591D02*
Y933091D01*
X623252Y930591D02*
X625752D01*
X628252D01*
X625752Y928091D02*
Y930591D01*
Y928091D02*
Y930591D01*
X628252D01*
X623252D02*
X625752D01*
Y933091D01*
X613896Y901646D02*
X637772D01*
X613896D02*
Y914854D01*
X637772D01*
Y901646D02*
Y914854D01*
X625834Y905750D02*
Y908250D01*
X628334D01*
X623334D02*
X625834D01*
Y910750D01*
Y908250D02*
Y910750D01*
X623334Y908250D02*
X625834D01*
X628334D01*
X625834Y905750D02*
Y908250D01*
X613896Y926024D02*
X637772D01*
Y912816D02*
Y926024D01*
X613896Y912816D02*
X637772D01*
X613896D02*
Y926024D01*
X625834Y919420D02*
Y921920D01*
X623334Y919420D02*
X625834D01*
X628334D01*
X625834Y916920D02*
Y919420D01*
Y916920D02*
Y919420D01*
X628334D01*
X623334D02*
X625834D01*
Y921920D01*
X496104Y957562D02*
Y981438D01*
X482896Y957562D02*
X496104D01*
X482896D02*
Y981438D01*
X496104D01*
X489500Y969500D02*
X492000D01*
X489500D02*
Y972000D01*
Y967000D02*
Y969500D01*
X487000D02*
X489500D01*
X487000D02*
X489500D01*
Y967000D02*
Y969500D01*
Y972000D01*
Y969500D02*
X492000D01*
X482354Y957562D02*
Y981438D01*
X469146Y957562D02*
X482354D01*
X469146D02*
Y981438D01*
X482354D01*
X475750Y969500D02*
X478250D01*
X475750D02*
Y972000D01*
Y967000D02*
Y969500D01*
X473250D02*
X475750D01*
X473250D02*
X475750D01*
Y967000D02*
Y969500D01*
Y972000D01*
Y969500D02*
X478250D01*
X456741Y910089D02*
X484741D01*
Y926089D01*
X456741D02*
X484741D01*
X456741Y910089D02*
Y926089D01*
X589074Y962626D02*
Y992598D01*
X606346D01*
Y962626D02*
Y992598D01*
X589074Y962626D02*
X606346D01*
X595210Y977612D02*
X597710D01*
Y975112D02*
Y977612D01*
Y980112D01*
Y977612D02*
X600210D01*
X597710D02*
X600210D01*
X597710D02*
Y980112D01*
Y975112D02*
Y977612D01*
X595210D02*
X597710D01*
X544900Y962650D02*
Y986018D01*
X557600D01*
Y962650D02*
Y986018D01*
X544900Y962650D02*
X557600D01*
X548750Y974334D02*
X551250D01*
Y971834D02*
Y974334D01*
Y976834D01*
Y974334D02*
X553750D01*
X551250D02*
X553750D01*
X551250D02*
Y976834D01*
Y971834D02*
Y974334D01*
X548750D02*
X551250D01*
X-14500Y949100D02*
X50500D01*
Y844100D02*
Y949100D01*
X-14500Y844100D02*
X50500D01*
X-14500D02*
Y949100D01*
X499000Y885750D02*
X527000D01*
Y913750D01*
X499000D02*
X527000D01*
X499000Y885750D02*
Y913750D01*
X420646Y990896D02*
Y1004104D01*
Y990896D02*
X444522D01*
Y1004104D01*
X420646D02*
X444522D01*
X432585Y997499D02*
Y999999D01*
X430085Y997499D02*
X432585D01*
X435085D01*
X432585Y994999D02*
Y997499D01*
Y994999D02*
Y997499D01*
X435085D01*
X430085D02*
X432585D01*
Y999999D01*
X381887Y949735D02*
Y962943D01*
Y949735D02*
X405763D01*
Y962943D01*
X381887D02*
X405763D01*
X393826Y956338D02*
Y958838D01*
X391326Y956338D02*
X393826D01*
X396326D01*
X393826Y953838D02*
Y956338D01*
Y953838D02*
Y956338D01*
X396326D01*
X391326D02*
X393826D01*
Y958838D01*
X357137Y898151D02*
X370345D01*
Y922027D01*
X357137D02*
X370345D01*
X357137Y898151D02*
Y922027D01*
X361242Y910089D02*
X363742D01*
Y907589D02*
Y910089D01*
Y912589D01*
Y910089D02*
X366242D01*
X363742D02*
X366242D01*
X363742D02*
Y912589D01*
Y907589D02*
Y910089D01*
X361242D02*
X363742D01*
X376146Y851896D02*
Y865104D01*
Y851896D02*
X400022D01*
Y865104D01*
X376146D02*
X400022D01*
X388085Y858499D02*
Y860999D01*
X385585Y858499D02*
X388085D01*
X390585D01*
X388085Y855999D02*
Y858499D01*
Y855999D02*
Y858499D01*
X390585D01*
X385585D02*
X388085D01*
Y860999D01*
X346017Y862224D02*
Y875432D01*
Y862224D02*
X369893D01*
Y875432D01*
X346017D02*
X369893D01*
X357956Y868827D02*
Y871327D01*
X355456Y868827D02*
X357956D01*
X360456D01*
X357956Y866327D02*
Y868827D01*
Y866327D02*
Y868827D01*
X360456D01*
X355456D02*
X357956D01*
Y871327D01*
X566733Y962396D02*
X579941D01*
Y986272D01*
X566733D02*
X579941D01*
X566733Y962396D02*
Y986272D01*
X570838Y974335D02*
X573338D01*
Y971835D02*
Y974335D01*
Y976835D01*
Y974335D02*
X575838D01*
X573338D02*
X575838D01*
X573338D02*
Y976835D01*
Y971835D02*
Y974335D01*
X570838D02*
X573338D01*
X421137Y974693D02*
X434345D01*
X421137Y950817D02*
Y974693D01*
Y950817D02*
X434345D01*
Y974693D01*
X427740Y962754D02*
X430240D01*
X427740D02*
Y965254D01*
Y960254D02*
Y962754D01*
X425240D02*
X427740D01*
X425240D02*
X427740D01*
Y960254D02*
Y962754D01*
Y965254D01*
Y962754D02*
X430240D01*
X424175Y841346D02*
X437383D01*
Y865222D01*
X424175D02*
X437383D01*
X424175Y841346D02*
Y865222D01*
X428280Y853285D02*
X430780D01*
Y850785D02*
Y853285D01*
Y855785D01*
Y853285D02*
X433280D01*
X430780D02*
X433280D01*
X430780D02*
Y855785D01*
Y850785D02*
Y853285D01*
X428280D02*
X430780D01*
X432308Y974611D02*
X445516D01*
X432308Y950735D02*
Y974611D01*
Y950735D02*
X445516D01*
Y974611D01*
X438911Y962672D02*
X441411D01*
X438911D02*
Y965172D01*
Y960172D02*
Y962672D01*
X436411D02*
X438911D01*
X436411D02*
X438911D01*
Y960172D02*
Y962672D01*
Y965172D01*
Y962672D02*
X441411D01*
X435346Y841346D02*
X448554D01*
Y865222D01*
X435346D02*
X448554D01*
X435346Y841346D02*
Y865222D01*
X439451Y853285D02*
X441951D01*
Y850785D02*
Y853285D01*
Y855785D01*
Y853285D02*
X444451D01*
X441951D02*
X444451D01*
X441951D02*
Y855785D01*
Y850785D02*
Y853285D01*
X439451D02*
X441951D01*
X510929Y918485D02*
Y931693D01*
X487053D02*
X510929D01*
X487053Y918485D02*
Y931693D01*
Y918485D02*
X510929D01*
X498990Y922589D02*
Y925089D01*
X501490D01*
X496490D02*
X498990D01*
Y927589D01*
Y925089D02*
Y927589D01*
X496490Y925089D02*
X498990D01*
X501490D01*
X498990Y922589D02*
Y925089D01*
X515146Y963146D02*
Y976354D01*
Y963146D02*
X539022D01*
Y976354D01*
X515146D02*
X539022D01*
X527085Y969749D02*
Y972249D01*
X524585Y969749D02*
X527085D01*
X529585D01*
X527085Y967249D02*
Y969749D01*
Y967249D02*
Y969749D01*
X529585D01*
X524585D02*
X527085D01*
Y972249D01*
X486887Y920522D02*
X500095D01*
X486887Y896646D02*
Y920522D01*
Y896646D02*
X500095D01*
Y920522D01*
X493490Y908583D02*
X495990D01*
X493490D02*
Y911083D01*
Y906083D02*
Y908583D01*
X490990D02*
X493490D01*
X490990D02*
X493490D01*
Y906083D02*
Y908583D01*
Y911083D01*
Y908583D02*
X495990D01*
X515146Y990396D02*
Y1003604D01*
Y990396D02*
X539022D01*
Y1003604D01*
X515146D02*
X539022D01*
X527085Y996999D02*
Y999499D01*
X524585Y996999D02*
X527085D01*
X529585D01*
X527085Y994499D02*
Y996999D01*
Y994499D02*
Y996999D01*
X529585D01*
X524585D02*
X527085D01*
Y999499D01*
X515062Y976646D02*
Y989854D01*
Y976646D02*
X538938D01*
Y989854D01*
X515062D02*
X538938D01*
X527001Y983249D02*
Y985749D01*
X524501Y983249D02*
X527001D01*
X529501D01*
X527001Y980749D02*
Y983249D01*
Y980749D02*
Y983249D01*
X529501D01*
X524501D02*
X527001D01*
Y985749D01*
X577904Y962396D02*
X591111D01*
Y986272D01*
X577904D02*
X591111D01*
X577904Y962396D02*
Y986272D01*
X582008Y974335D02*
X584508D01*
Y971835D02*
Y974335D01*
Y976835D01*
Y974335D02*
X587008D01*
X584508D02*
X587008D01*
X584508D02*
Y976835D01*
Y971835D02*
Y974335D01*
X582008D02*
X584508D01*
X555563Y962396D02*
X568770D01*
Y986272D01*
X555563D02*
X568770D01*
X555563Y962396D02*
Y986272D01*
X559667Y974335D02*
X562167D01*
Y971835D02*
Y974335D01*
Y976835D01*
Y974335D02*
X564667D01*
X562167D02*
X564667D01*
X562167D02*
Y976835D01*
Y971835D02*
Y974335D01*
X559667D02*
X562167D01*
M02*
