G04*
G04 #@! TF.GenerationSoftware,Altium Limited,Altium Designer,19.1.9 (167)*
G04*
G04 Layer_Physical_Order=6*
G04 Layer_Color=16711680*
%FSLAX44Y44*%
%MOMM*%
G71*
G01*
G75*
%ADD11C,0.2000*%
%ADD26C,0.3500*%
%ADD27C,0.8000*%
%ADD28C,0.1300*%
%ADD29R,1.1000X1.1000*%
D11*
X91500Y322000D02*
Y322261D01*
X91504Y322266D01*
X204000Y39250D02*
Y39492D01*
X204010Y39502D01*
D26*
X224750Y29750D02*
D03*
X318000Y8250D02*
D03*
X104250Y383750D02*
D03*
X17000Y422750D02*
D03*
X98000Y401250D02*
D03*
X92708Y230650D02*
D03*
X93000Y305750D02*
D03*
X84750Y285000D02*
D03*
X48000Y310750D02*
D03*
Y335750D02*
D03*
X91504Y322266D02*
D03*
X97000Y302250D02*
D03*
X97750Y386250D02*
D03*
X87250Y382250D02*
D03*
Y369500D02*
D03*
X16750Y364500D02*
D03*
X136250Y247250D02*
D03*
X161000Y248250D02*
D03*
X319516Y65503D02*
D03*
X321500Y22500D02*
D03*
X351750Y19750D02*
D03*
X351500Y28750D02*
D03*
X204010Y39502D02*
D03*
X338500Y47000D02*
D03*
X202750Y128750D02*
D03*
X287500Y137500D02*
D03*
X114750Y214500D02*
D03*
X43250Y206750D02*
D03*
X68500Y229750D02*
D03*
X54750D02*
D03*
X33500Y335750D02*
D03*
X91000Y481000D02*
D03*
X242000Y495000D02*
D03*
X222500Y479000D02*
D03*
X392500Y471250D02*
D03*
X392250Y454000D02*
D03*
X374750Y349000D02*
D03*
X171000Y418250D02*
D03*
X158750Y497250D02*
D03*
X164250Y430250D02*
D03*
X88500Y55500D02*
D03*
X103500Y55000D02*
D03*
X50500Y51500D02*
D03*
X51000Y69000D02*
D03*
X376000Y183500D02*
D03*
X226000Y40750D02*
D03*
X190250Y62750D02*
D03*
X388000Y91500D02*
D03*
X385000Y80000D02*
D03*
X383750Y64250D02*
D03*
X381750Y49500D02*
D03*
X378750Y143000D02*
D03*
X369250D02*
D03*
X237500Y177250D02*
D03*
X43750Y175250D02*
D03*
X85000Y228000D02*
D03*
X112500Y191000D02*
D03*
X194500Y336250D02*
D03*
X50750Y259250D02*
D03*
X115250Y241750D02*
D03*
X131750Y250000D02*
D03*
X129756Y268513D02*
D03*
X123750Y260500D02*
D03*
X127750Y283250D02*
D03*
X186250Y285500D02*
D03*
X208500Y292750D02*
D03*
X115250Y248750D02*
D03*
X149250D02*
D03*
Y254500D02*
D03*
X160500Y258250D02*
D03*
X168500Y251750D02*
D03*
X155500Y269750D02*
D03*
X179009Y279264D02*
D03*
X219250Y295000D02*
D03*
X310250Y145250D02*
D03*
X287750Y120750D02*
D03*
X325750Y227750D02*
D03*
X381250Y186000D02*
D03*
X216000Y300500D02*
D03*
X225250Y304750D02*
D03*
X399500Y255750D02*
D03*
X390250Y257750D02*
D03*
X352750D02*
D03*
X390000Y252000D02*
D03*
X345500Y257000D02*
D03*
X389750Y244750D02*
D03*
X390000Y237000D02*
D03*
X389250Y287750D02*
D03*
X389000Y272250D02*
D03*
X333500Y326750D02*
D03*
X334000Y333000D02*
D03*
X374250Y272750D02*
D03*
X335500Y264500D02*
D03*
X332250Y269250D02*
D03*
X359250Y319750D02*
D03*
X400250Y299750D02*
D03*
X372750Y382500D02*
D03*
X306750Y464250D02*
D03*
X269250Y459000D02*
D03*
X277500Y484000D02*
D03*
X238500Y478000D02*
D03*
X333250Y407500D02*
D03*
X334250Y414500D02*
D03*
X390929Y390429D02*
D03*
X392250Y396250D02*
D03*
Y401750D02*
D03*
X368768Y414270D02*
D03*
X331500Y364750D02*
D03*
X335250Y399000D02*
D03*
X331500Y394250D02*
D03*
X334750Y389250D02*
D03*
X331500Y384250D02*
D03*
X335000Y379500D02*
D03*
X331500Y374250D02*
D03*
X336000Y370000D02*
D03*
X332500Y435750D02*
D03*
X213750Y399000D02*
D03*
X149250Y371000D02*
D03*
X321000Y505250D02*
D03*
X336750Y505750D02*
D03*
X301500Y466000D02*
D03*
X296500Y467000D02*
D03*
X316000Y463750D02*
D03*
X258750Y459250D02*
D03*
X263013Y456272D02*
D03*
X254250Y456000D02*
D03*
X240000Y455750D02*
D03*
X235000Y459250D02*
D03*
X237000Y404500D02*
D03*
X230750Y455750D02*
D03*
X234500Y464750D02*
D03*
X229000Y465000D02*
D03*
X214500Y456500D02*
D03*
X210000Y459500D02*
D03*
X205750Y456750D02*
D03*
X165000Y459250D02*
D03*
X150250Y459000D02*
D03*
X123000Y400000D02*
D03*
X144000Y424000D02*
D03*
X139000Y419250D02*
D03*
X133500Y414000D02*
D03*
X126750Y409250D02*
D03*
X87750Y339250D02*
D03*
X83250Y344250D02*
D03*
X93750Y333500D02*
D03*
X98750Y329250D02*
D03*
X93500Y379500D02*
D03*
X83250Y430500D02*
D03*
X52500Y405250D02*
D03*
X51500Y420000D02*
D03*
X80250Y446750D02*
D03*
X84500Y415750D02*
D03*
X83250Y402000D02*
D03*
X50750Y456500D02*
D03*
X50250Y442250D02*
D03*
X131750Y354250D02*
D03*
X190250Y221750D02*
D03*
X251500Y248500D02*
D03*
X300000Y320250D02*
D03*
X300500Y359500D02*
D03*
X77750Y514250D02*
D03*
X61250D02*
D03*
X367000Y477000D02*
D03*
X373750Y335750D02*
D03*
X245250Y212750D02*
D03*
X256250Y173500D02*
D03*
X97250Y419000D02*
D03*
X21250Y334750D02*
D03*
X83750Y306250D02*
D03*
X226500Y471750D02*
D03*
X99000D02*
D03*
X197250Y434500D02*
D03*
X249500Y436000D02*
D03*
X85750Y75000D02*
D03*
X163871Y148313D02*
D03*
X169750Y120500D02*
D03*
X374250Y289000D02*
D03*
X307000Y303250D02*
D03*
X138750Y167500D02*
D03*
X44750Y155350D02*
D03*
X104000Y153100D02*
D03*
X101750Y164600D02*
D03*
X123750Y166850D02*
D03*
X103000Y146850D02*
D03*
X310500Y317750D02*
D03*
X299250Y312750D02*
D03*
X373750Y304000D02*
D03*
X299250Y368500D02*
D03*
X51726Y346726D02*
D03*
X38750Y474000D02*
D03*
X366750Y68750D02*
D03*
X366500Y131000D02*
D03*
X344500Y129750D02*
D03*
X366500Y121500D02*
D03*
X346250Y114250D02*
D03*
X368500Y105500D02*
D03*
X366000Y83000D02*
D03*
X360000Y62250D02*
D03*
X350250D02*
D03*
X345250D02*
D03*
X271250Y65250D02*
D03*
X263513Y114009D02*
D03*
X222511Y128759D02*
D03*
X246763Y91757D02*
D03*
X220261Y143510D02*
D03*
X263263Y98008D02*
D03*
X263500Y90000D02*
D03*
X264500Y138000D02*
D03*
X211000Y389750D02*
D03*
X185250Y406750D02*
D03*
X146750Y487000D02*
D03*
X327517Y97508D02*
D03*
X130250Y486750D02*
D03*
X155500Y424750D02*
D03*
X279250Y97750D02*
D03*
X374250Y242250D02*
D03*
X336000Y81500D02*
D03*
X327250D02*
D03*
X310500Y226250D02*
D03*
X327500Y73750D02*
D03*
X327267Y121509D02*
D03*
X311750Y50500D02*
D03*
X319250Y89500D02*
D03*
X138250Y136500D02*
D03*
X335517Y89257D02*
D03*
X202000Y493000D02*
D03*
X327500Y89250D02*
D03*
X169750Y493500D02*
D03*
X309516Y133009D02*
D03*
X186000Y492750D02*
D03*
X271250Y89500D02*
D03*
X321750Y48250D02*
D03*
X191250Y174250D02*
D03*
X204750Y174000D02*
D03*
X181250Y174750D02*
D03*
X271500Y81500D02*
D03*
X167750Y174500D02*
D03*
X152000D02*
D03*
X262500Y81000D02*
D03*
X263013Y64756D02*
D03*
X287500Y89750D02*
D03*
X282353Y36500D02*
D03*
X279514Y89507D02*
D03*
X274352Y24000D02*
D03*
X279250Y73750D02*
D03*
X271250D02*
D03*
X136000Y174000D02*
D03*
X120500Y174250D02*
D03*
X89000Y176250D02*
D03*
X50750Y363500D02*
D03*
X305000Y62500D02*
D03*
X52250Y379250D02*
D03*
X294000Y62500D02*
D03*
X327500Y65500D02*
D03*
X335517Y73257D02*
D03*
X330438Y150000D02*
D03*
X332250Y145000D02*
D03*
X279500Y129750D02*
D03*
X266250Y174500D02*
D03*
X280250Y174000D02*
D03*
X245250Y116000D02*
D03*
X253750Y118250D02*
D03*
X319750Y113750D02*
D03*
X231500Y174000D02*
D03*
X327250Y113500D02*
D03*
X406270Y359021D02*
D03*
X409750Y374000D02*
D03*
X319500Y129500D02*
D03*
X319250Y121250D02*
D03*
X327500Y129500D02*
D03*
X327000Y137500D02*
D03*
X319000Y105500D02*
D03*
X288000Y105250D02*
D03*
X279250Y113750D02*
D03*
X288000Y113000D02*
D03*
X279264Y121259D02*
D03*
D27*
X117500Y36750D02*
D03*
X34750Y89250D02*
D03*
D28*
X103850Y192850D02*
G03*
X101750Y190750I0J-2100D01*
G01*
X105630Y192850D02*
G03*
X107750Y194970I0J2120D01*
G01*
Y196030D02*
G03*
X105630Y198150I-2120J0D01*
G01*
X95750Y200270D02*
G03*
X97870Y198150I2120J0D01*
G01*
Y203450D02*
G03*
X95750Y201330I0J-2120D01*
G01*
X105630Y203450D02*
G03*
X107750Y205570I0J2120D01*
G01*
Y206630D02*
G03*
X105630Y208750I-2120J0D01*
G01*
X95750Y210870D02*
G03*
X97870Y208750I2120J0D01*
G01*
Y214050D02*
G03*
X95750Y211930I0J-2120D01*
G01*
X105630Y214050D02*
G03*
X107750Y216170I0J2120D01*
G01*
Y217230D02*
G03*
X105630Y219350I-2120J0D01*
G01*
X95750Y221470D02*
G03*
X97870Y219350I2120J0D01*
G01*
Y224650D02*
G03*
X95750Y222530I0J-2120D01*
G01*
X105630Y224650D02*
G03*
X107750Y226770I0J2120D01*
G01*
Y227830D02*
G03*
X105630Y229950I-2120J0D01*
G01*
X95922Y232070D02*
G03*
X98042Y229950I2120J0D01*
G01*
Y235250D02*
G03*
X95922Y233130I0J-2120D01*
G01*
X105630Y235250D02*
G03*
X107750Y237370I0J2120D01*
G01*
Y238430D02*
G03*
X105630Y240550I-2120J0D01*
G01*
X95750Y242670D02*
G03*
X97870Y240550I2120J0D01*
G01*
Y245850D02*
G03*
X95750Y243730I0J-2120D01*
G01*
X105630Y245850D02*
G03*
X107750Y247970I0J2120D01*
G01*
Y249030D02*
G03*
X105630Y251150I-2120J0D01*
G01*
X95750Y253270D02*
G03*
X97870Y251150I2120J0D01*
G01*
Y256450D02*
G03*
X95750Y254330I0J-2120D01*
G01*
X105630Y256450D02*
G03*
X107750Y258570I0J2120D01*
G01*
Y259630D02*
G03*
X105630Y261750I-2120J0D01*
G01*
X95750Y263870D02*
G03*
X97870Y261750I2120J0D01*
G01*
Y267050D02*
G03*
X95750Y264930I0J-2120D01*
G01*
X105630Y267050D02*
G03*
X107750Y269170I0J2120D01*
G01*
Y270230D02*
G03*
X105630Y272350I-2120J0D01*
G01*
X101750Y274470D02*
G03*
X103870Y272350I2120J0D01*
G01*
X279393Y267857D02*
G03*
X280637Y267857I622J622D01*
G01*
X283636Y267857D02*
G03*
X280637Y267857I-1499J-1499D01*
G01*
X284385Y264109D02*
G03*
X284385Y267108I-1499J1499D01*
G01*
X283141Y262865D02*
G03*
X283141Y259867I1499J-1499D01*
G01*
X283890Y259117D02*
G03*
X286888Y259117I1499J1499D01*
G01*
X291131Y260362D02*
G03*
X288133Y260362I-1499J-1499D01*
G01*
X291880Y256614D02*
G03*
X291880Y259612I-1499J1499D01*
G01*
X290636Y255370D02*
G03*
X290636Y252372I1499J-1499D01*
G01*
X291385Y251622D02*
G03*
X294384Y251622I1499J1499D01*
G01*
X298626Y252866D02*
G03*
X295628Y252866I-1499J-1499D01*
G01*
X299376Y249119D02*
G03*
X299376Y252117I-1499J1499D01*
G01*
X298131Y247874D02*
G03*
X298131Y244876I1499J-1499D01*
G01*
X298881Y244127D02*
G03*
X301879Y244127I1499J1499D01*
G01*
X303123Y244127D02*
G03*
X301879Y244127I-622J-622D01*
G01*
X224905Y338101D02*
G03*
X224905Y339345I-622J622D01*
G01*
Y338101D02*
G03*
X224905Y335103I1499J-1499D01*
G01*
X225654Y334353D02*
G03*
X228652Y334353I1499J1499D01*
G01*
X232895Y335598D02*
G03*
X229897Y335598I-1499J-1499D01*
G01*
X233645Y331850D02*
G03*
X233645Y334848I-1499J1499D01*
G01*
X232400Y330606D02*
G03*
X232400Y327607I1499J-1499D01*
G01*
X233150Y326858D02*
G03*
X236148Y326858I1499J1499D01*
G01*
X240390Y328102D02*
G03*
X237392Y328102I-1499J-1499D01*
G01*
X241140Y324355D02*
G03*
X241140Y327353I-1499J1499D01*
G01*
X239895Y323110D02*
G03*
X239895Y320112I1499J-1499D01*
G01*
X240645Y319363D02*
G03*
X243643Y319363I1499J1499D01*
G01*
X247886Y320607D02*
G03*
X244888Y320607I-1499J-1499D01*
G01*
X248635Y316859D02*
G03*
X248635Y319858I-1499J1499D01*
G01*
X247391Y315615D02*
G03*
X247391Y312617I1499J-1499D01*
G01*
X248140Y311867D02*
G03*
X251138Y311867I1499J1499D01*
G01*
X255381Y313112D02*
G03*
X252383Y313112I-1499J-1499D01*
G01*
X256131Y309364D02*
G03*
X256131Y312362I-1499J1499D01*
G01*
X254886Y308120D02*
G03*
X254886Y305121I1499J-1499D01*
G01*
X255636Y304372D02*
G03*
X258634Y304372I1499J1499D01*
G01*
X262876Y305616D02*
G03*
X259878Y305616I-1499J-1499D01*
G01*
X263626Y301869D02*
G03*
X263626Y304867I-1499J1499D01*
G01*
X262381Y300624D02*
G03*
X262381Y297626I1499J-1499D01*
G01*
X263131Y296877D02*
G03*
X266129Y296877I1499J1499D01*
G01*
X267373Y296877D02*
G03*
X266129Y296877I-622J-622D01*
G01*
X372550Y44130D02*
G03*
X374430Y42250I1880J0D01*
G01*
X372550Y44130D02*
G03*
X370430Y46250I-2120J0D01*
G01*
X369370D02*
G03*
X367250Y44130I0J-2120D01*
G01*
X365130Y38250D02*
G03*
X367250Y40370I0J2120D01*
G01*
X361950D02*
G03*
X364070Y38250I2120J0D01*
G01*
X361950Y44130D02*
G03*
X359830Y46250I-2120J0D01*
G01*
X358770D02*
G03*
X356650Y44130I0J-2120D01*
G01*
X354770Y42250D02*
G03*
X356650Y44130I0J1880D01*
G01*
X371450Y28630D02*
G03*
X369330Y30750I-2120J0D01*
G01*
X371450Y26870D02*
G03*
X373570Y24750I2120J0D01*
G01*
X374630D02*
G03*
X376750Y26870I0J2120D01*
G01*
X378870Y36750D02*
G03*
X376750Y34630I0J-2120D01*
G01*
X382050D02*
G03*
X379930Y36750I-2120J0D01*
G01*
X382050Y26870D02*
G03*
X384170Y24750I2120J0D01*
G01*
X385230D02*
G03*
X387350Y26870I0J2120D01*
G01*
X389470Y30750D02*
G03*
X387350Y28630I0J-2120D01*
G01*
X278629Y225623D02*
G03*
X278629Y228621I-1499J1499D01*
G01*
X278613Y225606D02*
G03*
X278613Y222608I1499J-1499D01*
G01*
X279363Y221859D02*
G03*
X282361Y221859I1499J1499D01*
G01*
X285375Y221875D02*
G03*
X282377Y221875I-1499J-1499D01*
G01*
X232020Y245235D02*
G03*
X232020Y246480I-622J622D01*
G01*
X232020Y245235D02*
G03*
X232020Y242237I1499J-1499D01*
G01*
X232770Y241488D02*
G03*
X235768Y241488I1499J1499D01*
G01*
X240011Y242732D02*
G03*
X237013Y242732I-1499J-1499D01*
G01*
X240760Y238984D02*
G03*
X240760Y241982I-1499J1499D01*
G01*
X239516Y237740D02*
G03*
X239516Y234742I1499J-1499D01*
G01*
X240265Y233992D02*
G03*
X243263Y233992I1499J1499D01*
G01*
X247506Y235237D02*
G03*
X244508Y235237I-1499J-1499D01*
G01*
X248255Y231489D02*
G03*
X248255Y234487I-1499J1499D01*
G01*
X247011Y230245D02*
G03*
X247011Y227246I1499J-1499D01*
G01*
X247761Y226497D02*
G03*
X250759Y226497I1499J1499D01*
G01*
X255001Y227741D02*
G03*
X252003Y227741I-1499J-1499D01*
G01*
X255751Y223994D02*
G03*
X255751Y226992I-1499J1499D01*
G01*
X254506Y222749D02*
G03*
X254506Y219751I1499J-1499D01*
G01*
X255256Y219002D02*
G03*
X258254Y219002I1499J1499D01*
G01*
X259498Y219002D02*
G03*
X258254Y219002I-622J-622D01*
G01*
X218875Y122405D02*
G03*
X218875Y124125I-860J860D01*
G01*
X215577Y119107D02*
G03*
X215577Y116109I1499J-1499D01*
G01*
X216327Y115359D02*
G03*
X219325Y115359I1499J1499D01*
G01*
X230639Y123675D02*
G03*
X227641Y123675I-1499J-1499D01*
G01*
X231388Y119927D02*
G03*
X231388Y122926I-1499J1499D01*
G01*
X223073Y111612D02*
G03*
X223073Y108614I1499J-1499D01*
G01*
X223822Y107864D02*
G03*
X226820Y107864I1499J1499D01*
G01*
X238134Y116180D02*
G03*
X235136Y116180I-1499J-1499D01*
G01*
X238884Y112432D02*
G03*
X238884Y115430I-1499J1499D01*
G01*
X230568Y104116D02*
G03*
X230568Y101118I1499J-1499D01*
G01*
X231318Y100369D02*
G03*
X234316Y100369I1499J1499D01*
G01*
X245629Y108684D02*
G03*
X242631Y108684I-1499J-1499D01*
G01*
X246379Y104937D02*
G03*
X246379Y107935I-1499J1499D01*
G01*
X238063Y96621D02*
G03*
X238063Y93623I1499J-1499D01*
G01*
X238813Y92873D02*
G03*
X241811Y92873I1499J1499D01*
G01*
X247468Y95532D02*
G03*
X244470Y95532I-1499J-1499D01*
G01*
X199145Y265360D02*
G03*
X199145Y266605I-622J622D01*
G01*
X199145Y265360D02*
G03*
X199145Y262362I1499J-1499D01*
G01*
X199895Y261612D02*
G03*
X202893Y261612I1499J1499D01*
G01*
X207136Y262857D02*
G03*
X204137Y262857I-1499J-1499D01*
G01*
X207885Y259109D02*
G03*
X207885Y262108I-1499J1499D01*
G01*
X206641Y257865D02*
G03*
X206641Y254867I1499J-1499D01*
G01*
X207390Y254117D02*
G03*
X210388Y254117I1499J1499D01*
G01*
X214631Y255362D02*
G03*
X211633Y255362I-1499J-1499D01*
G01*
X215380Y251614D02*
G03*
X215380Y254612I-1499J1499D01*
G01*
X214136Y250370D02*
G03*
X214136Y247371I1499J-1499D01*
G01*
X214886Y246622D02*
G03*
X217884Y246622I1499J1499D01*
G01*
X222126Y247866D02*
G03*
X219128Y247866I-1499J-1499D01*
G01*
X222876Y244119D02*
G03*
X222876Y247117I-1499J1499D01*
G01*
X221631Y242874D02*
G03*
X221631Y239876I1499J-1499D01*
G01*
X222381Y239127D02*
G03*
X225379Y239127I1499J1499D01*
G01*
X226623Y239126D02*
G03*
X225379Y239127I-622J-622D01*
G01*
X214198Y128801D02*
G03*
X211540Y128801I-1329J-1329D01*
G01*
X208542D02*
G03*
X211540Y128801I1499J1499D01*
G01*
X207792Y132549D02*
G03*
X207792Y129551I1499J-1499D01*
G01*
X210451Y135208D02*
G03*
X210451Y138206I-1499J1499D01*
G01*
X209701Y138956D02*
G03*
X206703Y138956I-1499J-1499D01*
G01*
X204044Y138956D02*
G03*
X206703Y138956I1329J1329D01*
G01*
X179152Y256598D02*
G03*
X180397Y256598I622J622D01*
G01*
X183395D02*
G03*
X180397Y256598I-1499J-1499D01*
G01*
X184144Y252850D02*
G03*
X184144Y255848I-1499J1499D01*
G01*
X182900Y251605D02*
G03*
X182900Y248607I1499J-1499D01*
G01*
X183650Y247858D02*
G03*
X186648Y247858I1499J1499D01*
G01*
X190890Y249102D02*
G03*
X187892Y249102I-1499J-1499D01*
G01*
X191640Y245355D02*
G03*
X191640Y248353I-1499J1499D01*
G01*
X190395Y244110D02*
G03*
X190395Y241112I1499J-1499D01*
G01*
X191145Y240362D02*
G03*
X194143Y240362I1499J1499D01*
G01*
X198386Y241607D02*
G03*
X195387Y241607I-1499J-1499D01*
G01*
X199135Y237859D02*
G03*
X199135Y240858I-1499J1499D01*
G01*
X197891Y236615D02*
G03*
X197891Y233617I1499J-1499D01*
G01*
X198640Y232867D02*
G03*
X201638Y232867I1499J1499D01*
G01*
X205881Y234112D02*
G03*
X202883Y234112I-1499J-1499D01*
G01*
X206630Y230364D02*
G03*
X206630Y233362I-1499J1499D01*
G01*
X205386Y229120D02*
G03*
X205386Y226121I1499J-1499D01*
G01*
X206136Y225372D02*
G03*
X209134Y225372I1499J1499D01*
G01*
X213376Y226616D02*
G03*
X210378Y226616I-1499J-1499D01*
G01*
X214126Y222869D02*
G03*
X214126Y225867I-1499J1499D01*
G01*
X212881Y221624D02*
G03*
X212881Y218626I1499J-1499D01*
G01*
X213631Y217877D02*
G03*
X216629Y217877I1499J1499D01*
G01*
X217873Y217877D02*
G03*
X216629Y217877I-622J-622D01*
G01*
X192189Y157630D02*
G03*
X190069Y159750I-2120J0D01*
G01*
X192189Y155870D02*
G03*
X194309Y153750I2120J0D01*
G01*
X195369D02*
G03*
X197489Y155870I0J2120D01*
G01*
X199609Y165750D02*
G03*
X197489Y163630I0J-2120D01*
G01*
X202789D02*
G03*
X200669Y165750I-2120J0D01*
G01*
X202789Y155870D02*
G03*
X204909Y153750I2120J0D01*
G01*
X205969D02*
G03*
X208089Y155870I0J2120D01*
G01*
X210208Y165750D02*
G03*
X208089Y163630I0J-2120D01*
G01*
X213389D02*
G03*
X211269Y165750I-2120J0D01*
G01*
X213389Y155870D02*
G03*
X215508Y153750I2120J0D01*
G01*
X216569D02*
G03*
X218689Y155870I0J2120D01*
G01*
X220809Y165750D02*
G03*
X218689Y163630I0J-2120D01*
G01*
X223988D02*
G03*
X221868Y165750I-2120J0D01*
G01*
X223988Y155870D02*
G03*
X226108Y153750I2120J0D01*
G01*
X227169D02*
G03*
X229289Y155870I0J2120D01*
G01*
X231409Y165750D02*
G03*
X229289Y163630I0J-2120D01*
G01*
X234589D02*
G03*
X232468Y165750I-2120J0D01*
G01*
X234589Y155870D02*
G03*
X236709Y153750I2120J0D01*
G01*
X237768D02*
G03*
X239888Y155870I0J2120D01*
G01*
X242008Y165750D02*
G03*
X239888Y163630I0J-2120D01*
G01*
X245189D02*
G03*
X243069Y165750I-2120J0D01*
G01*
X245189Y155870D02*
G03*
X247309Y153750I2120J0D01*
G01*
X248368D02*
G03*
X250488Y155870I0J2120D01*
G01*
X252609Y165750D02*
G03*
X250488Y163630I0J-2120D01*
G01*
X255788D02*
G03*
X253668Y165750I-2120J0D01*
G01*
X255788Y155870D02*
G03*
X257908Y153750I2120J0D01*
G01*
X258969D02*
G03*
X261089Y155870I0J2120D01*
G01*
X263208Y159750D02*
G03*
X261089Y157630I0J-2120D01*
G01*
X177249Y134253D02*
G03*
X177249Y137251I-1499J1499D01*
G01*
X174590Y131594D02*
G03*
X174590Y128596I1499J-1499D01*
G01*
X175340Y127847D02*
G03*
X178338Y127847I1499J1499D01*
G01*
X189651Y136162D02*
G03*
X186653Y136162I-1499J-1499D01*
G01*
X190401Y132415D02*
G03*
X190401Y135413I-1499J1499D01*
G01*
X182085Y124099D02*
G03*
X182085Y121101I1499J-1499D01*
G01*
X182835Y120351D02*
G03*
X185833Y120351I1499J1499D01*
G01*
X197147Y128667D02*
G03*
X194149Y128667I-1499J-1499D01*
G01*
X197896Y124919D02*
G03*
X197896Y127917I-1499J1499D01*
G01*
X189581Y116604D02*
G03*
X189581Y113606I1499J-1499D01*
G01*
X190330Y112856D02*
G03*
X193328Y112856I1499J1499D01*
G01*
X204642Y121172D02*
G03*
X201644Y121172I-1499J-1499D01*
G01*
X205392Y117424D02*
G03*
X205392Y120422I-1499J1499D01*
G01*
X197076Y109108D02*
G03*
X197076Y106110I1499J-1499D01*
G01*
X197826Y105361D02*
G03*
X200824Y105361I1499J1499D01*
G01*
X212137Y113676D02*
G03*
X209139Y113676I-1499J-1499D01*
G01*
X212887Y109929D02*
G03*
X212887Y112927I-1499J1499D01*
G01*
X204571Y101613D02*
G03*
X204571Y98615I1499J-1499D01*
G01*
X205321Y97865D02*
G03*
X208319Y97865I1499J1499D01*
G01*
X219633Y106181D02*
G03*
X216635Y106181I-1499J-1499D01*
G01*
X220382Y102433D02*
G03*
X220382Y105431I-1499J1499D01*
G01*
X212067Y94118D02*
G03*
X212067Y91120I1499J-1499D01*
G01*
X212816Y90370D02*
G03*
X215814Y90370I1499J1499D01*
G01*
X227128Y98686D02*
G03*
X224130Y98686I-1499J-1499D01*
G01*
X227878Y94938D02*
G03*
X227878Y97936I-1499J1499D01*
G01*
X219562Y86622D02*
G03*
X219562Y83624I1499J-1499D01*
G01*
X220312Y82875D02*
G03*
X223310Y82875I1499J1499D01*
G01*
X234623Y91190D02*
G03*
X231625Y91190I-1499J-1499D01*
G01*
X235373Y87443D02*
G03*
X235373Y90441I-1499J1499D01*
G01*
X227057Y79127D02*
G03*
X227057Y76129I1499J-1499D01*
G01*
X227807Y75380D02*
G03*
X230805Y75380I1499J1499D01*
G01*
X236462Y78038D02*
G03*
X233464Y78038I-1499J-1499D01*
G01*
X155160Y118840D02*
G03*
X158158Y118840I1499J1499D01*
G01*
X163786Y121470D02*
G03*
X160788Y121470I-1499J-1499D01*
G01*
X164536Y117723D02*
G03*
X164536Y120721I-1499J1499D01*
G01*
X156277Y109464D02*
G03*
X156277Y106466I1499J-1499D01*
G01*
X157027Y105716D02*
G03*
X160025Y105716I1499J1499D01*
G01*
X171282Y113975D02*
G03*
X168284Y113975I-1499J-1499D01*
G01*
X172031Y110227D02*
G03*
X172031Y113225I-1499J1499D01*
G01*
X163773Y101969D02*
G03*
X163773Y98971I1499J-1499D01*
G01*
X164522Y98221D02*
G03*
X167520Y98221I1499J1499D01*
G01*
X178777Y106480D02*
G03*
X175779Y106480I-1499J-1499D01*
G01*
X179527Y102732D02*
G03*
X179527Y105730I-1499J1499D01*
G01*
X171268Y94473D02*
G03*
X171268Y91475I1499J-1499D01*
G01*
X172017Y90726D02*
G03*
X175016Y90726I1499J1499D01*
G01*
X186272Y98984D02*
G03*
X183274Y98984I-1499J-1499D01*
G01*
X187022Y95237D02*
G03*
X187022Y98235I-1499J1499D01*
G01*
X178763Y86978D02*
G03*
X178763Y83980I1499J-1499D01*
G01*
X179513Y83230D02*
G03*
X182511Y83230I1499J1499D01*
G01*
X193768Y91489D02*
G03*
X190770Y91489I-1499J-1499D01*
G01*
X194517Y87741D02*
G03*
X194517Y90739I-1499J1499D01*
G01*
X186259Y79483D02*
G03*
X186259Y76485I1499J-1499D01*
G01*
X187008Y75735D02*
G03*
X190006Y75735I1499J1499D01*
G01*
X201263Y83994D02*
G03*
X198265Y83994I-1499J-1499D01*
G01*
X202013Y80246D02*
G03*
X202013Y83244I-1499J1499D01*
G01*
X193754Y71988D02*
G03*
X193754Y68989I1499J-1499D01*
G01*
X194503Y68240D02*
G03*
X197502Y68240I1499J1499D01*
G01*
X208758Y76498D02*
G03*
X205760Y76498I-1499J-1499D01*
G01*
X209508Y72751D02*
G03*
X209508Y75749I-1499J1499D01*
G01*
X201704Y64947D02*
G03*
X201704Y61949I1499J-1499D01*
G01*
X202453Y61199D02*
G03*
X205451Y61199I1499J1499D01*
G01*
X210625Y63375D02*
G03*
X207627Y63375I-1499J-1499D01*
G01*
X149880Y167050D02*
G03*
X152000Y169170I0J2120D01*
G01*
X146160Y167050D02*
G03*
X144040Y164930I0J-2120D01*
G01*
Y163870D02*
G03*
X146160Y161750I2120J0D01*
G01*
X159960Y159630D02*
G03*
X157840Y161750I-2120J0D01*
G01*
Y156450D02*
G03*
X159960Y158570I0J2120D01*
G01*
X146160Y156450D02*
G03*
X144040Y154330I0J-2120D01*
G01*
Y153270D02*
G03*
X146160Y151150I2120J0D01*
G01*
X159960Y149030D02*
G03*
X157840Y151150I-2120J0D01*
G01*
Y145850D02*
G03*
X159960Y147970I0J2120D01*
G01*
X146160Y145850D02*
G03*
X144040Y143730I0J-2120D01*
G01*
Y142670D02*
G03*
X146160Y140550I2120J0D01*
G01*
X159960Y138430D02*
G03*
X157840Y140550I-2120J0D01*
G01*
Y135250D02*
G03*
X159960Y137370I0J2120D01*
G01*
X146160Y135250D02*
G03*
X144040Y133130I0J-2120D01*
G01*
Y132070D02*
G03*
X146160Y129950I2120J0D01*
G01*
X159960Y127830D02*
G03*
X157840Y129950I-2120J0D01*
G01*
Y124650D02*
G03*
X159960Y126770I0J2120D01*
G01*
X154120Y124650D02*
G03*
X152000Y122530I0J-2120D01*
G01*
X127500Y139530D02*
G03*
X125380Y141650I-2120J0D01*
G01*
X119500Y143770D02*
G03*
X121620Y141650I2120J0D01*
G01*
Y146950D02*
G03*
X119500Y144830I0J-2120D01*
G01*
X133380Y146950D02*
G03*
X135500Y149070I0J2120D01*
G01*
Y150130D02*
G03*
X133380Y152250I-2120J0D01*
G01*
X119500Y154370D02*
G03*
X121620Y152250I2120J0D01*
G01*
Y157550D02*
G03*
X119500Y155430I0J-2120D01*
G01*
X133380Y157550D02*
G03*
X135500Y159670I0J2120D01*
G01*
Y160730D02*
G03*
X133380Y162850I-2120J0D01*
G01*
X127500Y164970D02*
G03*
X129620Y162850I2120J0D01*
G01*
X127660Y114090D02*
G03*
X130658Y114090I1499J1499D01*
G01*
X136315Y116749D02*
G03*
X133317Y116749I-1499J-1499D01*
G01*
X137064Y113001D02*
G03*
X137064Y115999I-1499J1499D01*
G01*
X128749Y104686D02*
G03*
X128749Y101687I1499J-1499D01*
G01*
X129498Y100938D02*
G03*
X132497Y100938I1499J1499D01*
G01*
X143810Y109254D02*
G03*
X140812Y109254I-1499J-1499D01*
G01*
X144560Y105506D02*
G03*
X144560Y108504I-1499J1499D01*
G01*
X136244Y97190D02*
G03*
X136244Y94192I1499J-1499D01*
G01*
X136994Y93443D02*
G03*
X139992Y93443I1499J1499D01*
G01*
X151306Y101758D02*
G03*
X148307Y101758I-1499J-1499D01*
G01*
X152055Y98011D02*
G03*
X152055Y101009I-1499J1499D01*
G01*
X143739Y89695D02*
G03*
X143739Y86697I1499J-1499D01*
G01*
X144489Y85947D02*
G03*
X147487Y85947I1499J1499D01*
G01*
X158801Y94263D02*
G03*
X155803Y94263I-1499J-1499D01*
G01*
X159550Y90515D02*
G03*
X159550Y93513I-1499J1499D01*
G01*
X151235Y82200D02*
G03*
X151235Y79201I1499J-1499D01*
G01*
X151984Y78452D02*
G03*
X154982Y78452I1499J1499D01*
G01*
X166296Y86768D02*
G03*
X163298Y86768I-1499J-1499D01*
G01*
X167046Y83020D02*
G03*
X167046Y86018I-1499J1499D01*
G01*
X158730Y74704D02*
G03*
X158730Y71706I1499J-1499D01*
G01*
X159480Y70957D02*
G03*
X162478Y70957I1499J1499D01*
G01*
X173791Y79272D02*
G03*
X170793Y79272I-1499J-1499D01*
G01*
X174541Y75525D02*
G03*
X174541Y78523I-1499J1499D01*
G01*
X166225Y67209D02*
G03*
X166225Y64211I1499J-1499D01*
G01*
X166975Y63461D02*
G03*
X169973Y63461I1499J1499D01*
G01*
X181287Y71777D02*
G03*
X178289Y71777I-1499J-1499D01*
G01*
X182036Y68029D02*
G03*
X182036Y71027I-1499J1499D01*
G01*
X173721Y59714D02*
G03*
X173721Y56716I1499J-1499D01*
G01*
X174470Y55966D02*
G03*
X177468Y55966I1499J1499D01*
G01*
X183125Y58625D02*
G03*
X180127Y58625I-1499J-1499D01*
G01*
X111655Y99845D02*
G03*
X114653Y99845I1499J1499D01*
G01*
X120310Y102504D02*
G03*
X117312Y102504I-1499J-1499D01*
G01*
X121060Y98756D02*
G03*
X121060Y101754I-1499J1499D01*
G01*
X112744Y90440D02*
G03*
X112744Y87442I1499J-1499D01*
G01*
X113494Y86693D02*
G03*
X116492Y86693I1499J1499D01*
G01*
X127806Y95008D02*
G03*
X124807Y95008I-1499J-1499D01*
G01*
X128555Y91261D02*
G03*
X128555Y94259I-1499J1499D01*
G01*
X120239Y82945D02*
G03*
X120239Y79947I1499J-1499D01*
G01*
X120989Y79197D02*
G03*
X123987Y79197I1499J1499D01*
G01*
X135301Y87513D02*
G03*
X132303Y87513I-1499J-1499D01*
G01*
X136050Y83765D02*
G03*
X136050Y86763I-1499J1499D01*
G01*
X127735Y75450D02*
G03*
X127735Y72452I1499J-1499D01*
G01*
X128484Y71702D02*
G03*
X131482Y71702I1499J1499D01*
G01*
X142796Y80018D02*
G03*
X139798Y80018I-1499J-1499D01*
G01*
X143546Y76270D02*
G03*
X143546Y79268I-1499J1499D01*
G01*
X135230Y67954D02*
G03*
X135230Y64956I1499J-1499D01*
G01*
X135980Y64207D02*
G03*
X138978Y64207I1499J1499D01*
G01*
X150291Y72522D02*
G03*
X147293Y72522I-1499J-1499D01*
G01*
X151041Y68775D02*
G03*
X151041Y71773I-1499J1499D01*
G01*
X142725Y60459D02*
G03*
X142725Y57461I1499J-1499D01*
G01*
X143475Y56711D02*
G03*
X146473Y56711I1499J1499D01*
G01*
X157787Y65027D02*
G03*
X154789Y65027I-1499J-1499D01*
G01*
X158536Y61279D02*
G03*
X158536Y64277I-1499J1499D01*
G01*
X150221Y52964D02*
G03*
X150221Y49966I1499J-1499D01*
G01*
X150970Y49216D02*
G03*
X153968Y49216I1499J1499D01*
G01*
X159625Y51875D02*
G03*
X156627Y51875I-1499J-1499D01*
G01*
X106630Y126600D02*
G03*
X108750Y128720I0J2120D01*
G01*
X102870Y126600D02*
G03*
X100750Y124480I0J-2120D01*
G01*
Y123420D02*
G03*
X102870Y121300I2120J0D01*
G01*
X116750Y119180D02*
G03*
X114630Y121300I-2120J0D01*
G01*
Y116000D02*
G03*
X116750Y118120I0J2120D01*
G01*
X102870Y116000D02*
G03*
X100750Y113880I0J-2120D01*
G01*
Y112820D02*
G03*
X102870Y110700I2120J0D01*
G01*
X116750Y108580D02*
G03*
X114630Y110700I-2120J0D01*
G01*
Y105400D02*
G03*
X116750Y107520I0J2120D01*
G01*
X110870Y105400D02*
G03*
X108750Y103280I0J-2120D01*
G01*
X89000Y140530D02*
G03*
X86880Y142650I-2120J0D01*
G01*
X81000Y144770D02*
G03*
X83120Y142650I2120J0D01*
G01*
Y147950D02*
G03*
X81000Y145830I0J-2120D01*
G01*
X94880Y147950D02*
G03*
X97000Y150070I0J2120D01*
G01*
Y151130D02*
G03*
X94880Y153250I-2120J0D01*
G01*
X81000Y155370D02*
G03*
X83120Y153250I2120J0D01*
G01*
Y158550D02*
G03*
X81000Y156430I0J-2120D01*
G01*
X94880Y158550D02*
G03*
X97000Y160670I0J2120D01*
G01*
Y161730D02*
G03*
X94880Y163850I-2120J0D01*
G01*
X89000Y165970D02*
G03*
X91120Y163850I2120J0D01*
G01*
X92403Y87599D02*
G03*
X92403Y90597I-1499J1499D01*
G01*
X89744Y84940D02*
G03*
X89744Y81942I1499J-1499D01*
G01*
X90494Y81193D02*
G03*
X93492Y81193I1499J1499D01*
G01*
X104805Y89508D02*
G03*
X101807Y89508I-1499J-1499D01*
G01*
X105555Y85761D02*
G03*
X105555Y88759I-1499J1499D01*
G01*
X97240Y77445D02*
G03*
X97240Y74447I1499J-1499D01*
G01*
X97989Y73697D02*
G03*
X100987Y73697I1499J1499D01*
G01*
X112301Y82013D02*
G03*
X109303Y82013I-1499J-1499D01*
G01*
X113050Y78265D02*
G03*
X113050Y81263I-1499J1499D01*
G01*
X104735Y69950D02*
G03*
X104735Y66951I1499J-1499D01*
G01*
X105484Y66202D02*
G03*
X108482Y66202I1499J1499D01*
G01*
X119796Y74518D02*
G03*
X116798Y74518I-1499J-1499D01*
G01*
X120546Y70770D02*
G03*
X120546Y73768I-1499J1499D01*
G01*
X112230Y62454D02*
G03*
X112230Y59456I1499J-1499D01*
G01*
X112980Y58707D02*
G03*
X115978Y58707I1499J1499D01*
G01*
X127291Y67022D02*
G03*
X124293Y67022I-1499J-1499D01*
G01*
X128041Y63275D02*
G03*
X128041Y66273I-1499J1499D01*
G01*
X119725Y54959D02*
G03*
X119725Y51961I1499J-1499D01*
G01*
X120475Y51211D02*
G03*
X123473Y51211I1499J1499D01*
G01*
X134787Y59527D02*
G03*
X131789Y59527I-1499J-1499D01*
G01*
X135536Y55779D02*
G03*
X135536Y58777I-1499J1499D01*
G01*
X127221Y47464D02*
G03*
X127221Y44466I1499J-1499D01*
G01*
X127970Y43716D02*
G03*
X130968Y43716I1499J1499D01*
G01*
X136625Y46375D02*
G03*
X133627Y46375I-1499J-1499D01*
G01*
X303750Y89750D02*
Y189058D01*
X50558Y442250D02*
X303750Y189058D01*
X50250Y442250D02*
X50558D01*
X92708Y230208D02*
Y230650D01*
X51726Y346726D02*
X59529D01*
X101750Y305466D01*
Y275000D02*
Y305466D01*
Y164600D02*
Y190750D01*
X103850Y192850D02*
X105630D01*
X107750Y194970D02*
Y196030D01*
X101750Y198150D02*
X105630D01*
X97870D02*
X101750D01*
X95750Y200270D02*
Y201330D01*
X97870Y203450D02*
X101750D01*
X105630D01*
X107750Y205570D02*
Y206630D01*
X101750Y208750D02*
X105630D01*
X97870D02*
X101750D01*
X95750Y210870D02*
Y211930D01*
X97870Y214050D02*
X101750D01*
X105630D01*
X107750Y216170D02*
Y217230D01*
X101750Y219350D02*
X105630D01*
X97870D02*
X101750D01*
X95750Y221470D02*
Y222530D01*
X97870Y224650D02*
X101750D01*
X105630D01*
X107750Y226770D02*
Y227830D01*
X101750Y229950D02*
X105630D01*
X98042D02*
X101750D01*
X95922Y232070D02*
Y233130D01*
X98042Y235250D02*
X101750D01*
X105630D01*
X107750Y237370D02*
Y238430D01*
X101750Y240550D02*
X105630D01*
X97870D02*
X101750D01*
X95750Y242670D02*
Y243730D01*
X97870Y245850D02*
X101750D01*
X105630D01*
X107750Y247970D02*
Y249030D01*
X101750Y251150D02*
X105630D01*
X97870D02*
X101750D01*
X95750Y253270D02*
Y254330D01*
X97870Y256450D02*
X101750D01*
X105630D01*
X107750Y258570D02*
Y259630D01*
X101750Y261750D02*
X105630D01*
X97870D02*
X101750D01*
X95750Y263870D02*
Y264930D01*
X97870Y267050D02*
X101750D01*
X105630D01*
X107750Y269170D02*
Y270230D01*
X103870Y272350D02*
X105630D01*
X101750Y274470D02*
Y275000D01*
X96942Y302250D02*
X97000D01*
X75000Y280308D02*
X96942Y302250D01*
X75000Y226000D02*
Y280308D01*
X170750Y295000D02*
X196625Y269125D01*
X168250Y295000D02*
X170750D01*
X58000Y405250D02*
X168250Y295000D01*
X52500Y405250D02*
X58000D01*
X34000Y481250D02*
X54500D01*
X20500Y467750D02*
X34000Y481250D01*
X54500D02*
X110250Y425500D01*
X301350Y83669D02*
Y177150D01*
Y83669D02*
X319516Y65503D01*
X323600Y61600D02*
X327500Y65500D01*
X317842Y61600D02*
X323600D01*
X299050Y80392D02*
X317842Y61600D01*
X358000Y30750D02*
X367500D01*
X345250Y43500D02*
X358000Y30750D01*
X345250Y43500D02*
Y62250D01*
X3150Y510000D02*
X41000D01*
X3650Y494500D02*
X63750D01*
X3150Y495000D02*
X3650Y494500D01*
X3150Y480000D02*
X10750D01*
X3150Y465000D02*
X11000D01*
X3150Y450000D02*
X10500D01*
X0Y435000D02*
X8000D01*
X171000Y418250D02*
Y440250D01*
X158750Y452500D02*
X171000Y440250D01*
X158750Y452500D02*
Y497250D01*
X169750Y493500D02*
X177500Y485750D01*
Y369750D02*
Y485750D01*
Y369750D02*
X278625Y268625D01*
X211000Y370750D02*
Y389750D01*
Y370750D02*
X321250Y260500D01*
Y213875D02*
Y260500D01*
Y213875D02*
X323250Y211875D01*
Y101774D02*
Y211875D01*
Y101774D02*
X327517Y97508D01*
X146750Y447750D02*
X164250Y430250D01*
X3150Y30000D02*
Y32534D01*
X49000Y78384D01*
X84845Y227250D02*
X85000D01*
X57500Y60000D02*
Y199750D01*
X140000Y3150D02*
Y10500D01*
X128500Y22000D02*
X140000Y10500D01*
X95500Y22000D02*
X128500D01*
X57500Y60000D02*
X95500Y22000D01*
X134250Y29250D02*
X155000Y8500D01*
Y3150D02*
Y8500D01*
X99750Y29250D02*
X134250D01*
X62500Y66500D02*
X99750Y29250D01*
X10750Y480000D02*
X22000Y491250D01*
X11000Y465000D02*
X13750Y467750D01*
Y474750D01*
X10500Y450000D02*
X17500Y457000D01*
Y469000D01*
X20500Y447500D02*
Y467750D01*
X8000Y435000D02*
X20500Y447500D01*
X49000Y78384D02*
Y200000D01*
X13750Y474750D02*
X26750Y487750D01*
X17500Y469000D02*
X32250Y483750D01*
X41000Y510000D02*
X52000Y499000D01*
X91000D01*
X112000Y478000D01*
X49000Y200000D02*
X75000Y226000D01*
X38750Y161500D02*
Y474000D01*
Y161500D02*
X44750Y155500D01*
X416850Y315000D02*
Y315900D01*
X399800Y332950D02*
X416850Y315900D01*
X336500Y369484D02*
X337016Y370000D01*
X416850Y329500D02*
Y332534D01*
X402100Y347284D02*
X416850Y332534D01*
X402100Y347284D02*
Y406400D01*
X416850Y345000D02*
Y347534D01*
X414500Y349884D02*
X416850Y347534D01*
Y375000D02*
Y377534D01*
X406700Y387684D02*
Y408305D01*
Y387684D02*
X416850Y377534D01*
X409000Y400384D02*
X416542Y392842D01*
X416850Y393150D02*
X420000Y390000D01*
X409000Y400384D02*
Y409258D01*
X416850Y420000D02*
Y422534D01*
X415500Y423884D02*
Y424000D01*
Y423884D02*
X416850Y422534D01*
X413850Y425650D02*
X415500Y424000D01*
X413350Y425650D02*
X413850D01*
X416850Y405000D02*
Y407534D01*
X411750Y412634D02*
X416850Y407534D01*
X377466Y526850D02*
X380000D01*
X316500Y511700D02*
X362316D01*
X377466Y526850D01*
X362466D02*
X365000D01*
Y530000D01*
X312250Y514000D02*
X349616D01*
X362466Y526850D01*
X347466D02*
X350000D01*
Y530000D01*
X337066Y516450D02*
X347466Y526850D01*
X332466D02*
X335000D01*
Y530000D01*
X324366Y518750D02*
X332466Y526850D01*
X307250Y518750D02*
X324366D01*
X57500Y199750D02*
X84579Y226829D01*
X62500Y200442D02*
X92058Y230000D01*
X62500Y66500D02*
Y200442D01*
X92058Y230000D02*
X92500D01*
X92708Y230208D01*
X84579Y226829D02*
Y226984D01*
X84845Y227250D01*
X85000D02*
Y228000D01*
X110250Y407250D02*
Y425500D01*
Y407250D02*
X122750Y394750D01*
X136000D01*
X194500Y336250D01*
X271250Y89500D02*
Y174308D01*
X264808Y180750D02*
X271250Y174308D01*
X239500Y180750D02*
X264808D01*
X168500Y251750D02*
X239500Y180750D01*
X275250Y101750D02*
X279250Y97750D01*
X275250Y101750D02*
Y174000D01*
X264750Y184500D02*
X275250Y174000D01*
X240750Y184500D02*
X264750D01*
X155500Y269750D02*
X240750Y184500D01*
X340250Y242250D02*
X374250D01*
X325750Y227750D02*
X340250Y242250D01*
X384650Y111400D02*
Y276131D01*
X321625Y48375D02*
X384650Y111400D01*
X382000Y278782D02*
X384650Y276131D01*
X32250Y483750D02*
X56750D01*
X114500Y426000D01*
Y408500D02*
Y426000D01*
Y408500D02*
X123000Y400000D01*
X26750Y487750D02*
X57250D01*
X126750Y418250D01*
Y409250D02*
Y418250D01*
X22000Y491250D02*
X60250D01*
X133500Y418000D01*
Y414000D02*
Y418000D01*
X63750Y494500D02*
X139000Y419250D01*
X112000Y456000D02*
Y478000D01*
Y456000D02*
X144000Y424000D01*
X352750Y257750D02*
Y261250D01*
X335250Y278750D02*
X352750Y261250D01*
X316500Y278750D02*
X335250D01*
X345500Y257000D02*
Y263000D01*
X333500Y275000D02*
X345500Y263000D01*
X315750Y275000D02*
X333500D01*
X284750Y310500D02*
X316500Y278750D01*
X284750Y310500D02*
Y368000D01*
X281000Y309750D02*
X315750Y275000D01*
X281000Y309750D02*
Y374000D01*
X309709Y133203D02*
Y136709D01*
X314000Y141000D01*
Y233250D01*
X304375Y242875D02*
X314000Y233250D01*
X278625Y268625D02*
X279393Y267857D01*
X283636D02*
X284385Y267108D01*
X283763Y263487D02*
X284385Y264109D01*
X283141Y262865D02*
X283763Y263487D01*
X283141Y259867D02*
X283890Y259117D01*
X286888D02*
X287511Y259739D01*
X288133Y260362D01*
X291131D02*
X291880Y259612D01*
X291258Y255992D02*
X291880Y256614D01*
X290636Y255370D02*
X291258Y255992D01*
X290636Y252372D02*
X291385Y251622D01*
X294384D02*
X295006Y252244D01*
X295628Y252866D01*
X298626D02*
X299376Y252117D01*
X298754Y248496D02*
X299376Y249119D01*
X298131Y247874D02*
X298754Y248496D01*
X298131Y244876D02*
X298881Y244127D01*
X303123Y244127D02*
X304375Y242875D01*
X311250Y105500D02*
X327500Y89250D01*
X311250Y105500D02*
Y129500D01*
X317750Y136000D01*
Y246500D01*
X268625Y295625D02*
X317750Y246500D01*
X202000Y362250D02*
X223000Y341250D01*
X224905Y339345D01*
Y335103D02*
X225654Y334353D01*
X228652D02*
X229275Y334975D01*
X229897Y335598D01*
X232895D02*
X233645Y334848D01*
X233022Y331228D02*
X233645Y331850D01*
X232400Y330606D02*
X233022Y331228D01*
X232400Y327607D02*
X233150Y326858D01*
X236148D02*
X236770Y327480D01*
X237392Y328102D01*
X240390D02*
X241140Y327353D01*
X240518Y323732D02*
X241140Y324355D01*
X239895Y323110D02*
X240518Y323732D01*
X239895Y320112D02*
X240645Y319363D01*
X243643D02*
X244265Y319985D01*
X244888Y320607D01*
X247886D02*
X248635Y319858D01*
X248013Y316237D02*
X248635Y316859D01*
X247391Y315615D02*
X248013Y316237D01*
X247391Y312617D02*
X248140Y311867D01*
X251138D02*
X251761Y312489D01*
X252383Y313112D01*
X255381D02*
X256131Y312362D01*
X255508Y308742D02*
X256131Y309364D01*
X254886Y308120D02*
X255508Y308742D01*
X254886Y305121D02*
X255636Y304372D01*
X258634D02*
X259256Y304994D01*
X259878Y305616D01*
X262876D02*
X263626Y304867D01*
X263004Y301246D02*
X263626Y301869D01*
X262381Y300624D02*
X263004Y301246D01*
X262381Y297626D02*
X263131Y296877D01*
X267374Y296877D02*
X268625Y295625D01*
X202000Y362250D02*
Y493000D01*
X284750Y368000D02*
X324250Y407500D01*
X333250D01*
X281000Y374000D02*
X321500Y414500D01*
X334250D01*
X382000Y391500D02*
X392250Y401750D01*
X382000Y278782D02*
Y391500D01*
X310500Y317750D02*
X312500Y319750D01*
X359250D01*
X372742Y382492D02*
X372750Y382500D01*
X365758Y382492D02*
X372742D01*
X399800Y332950D02*
Y405203D01*
X396503Y408500D02*
X399800Y405203D01*
X397700Y410800D02*
X402100Y406400D01*
X414500Y349884D02*
Y360000D01*
X404400Y370100D02*
X414500Y360000D01*
X404400Y370100D02*
Y407353D01*
X398653Y413100D02*
X404400Y407353D01*
X399605Y415400D02*
X406700Y408305D01*
X400558Y417700D02*
X409000Y409258D01*
X404000Y186250D02*
Y289000D01*
X396250Y296750D02*
X404000Y289000D01*
X396250Y296750D02*
Y392250D01*
X394250Y53250D02*
Y288000D01*
X390929Y291321D02*
X394250Y288000D01*
X390929Y291321D02*
Y390429D01*
X383250Y42250D02*
X394250Y53250D01*
X377000Y42250D02*
X383250D01*
X392250Y396250D02*
X396250Y392250D01*
X400500Y182750D02*
X404000Y186250D01*
X400500Y41250D02*
Y182750D01*
X384703Y417700D02*
X400558D01*
X358953Y391950D02*
X384703Y417700D01*
X385655Y415400D02*
X399605D01*
X354505Y384250D02*
X385655Y415400D01*
X386608Y413100D02*
X398653D01*
X353008Y379500D02*
X386608Y413100D01*
X387561Y410800D02*
X397700D01*
X351011Y374250D02*
X387561Y410800D01*
X388513Y408500D02*
X396503D01*
X350013Y370000D02*
X388513Y408500D01*
X348016Y364750D02*
X365758Y382492D01*
X411750Y412634D02*
Y419950D01*
X402750Y428950D02*
X411750Y419950D01*
X407750Y431250D02*
X413350Y425650D01*
X384500Y428950D02*
X402750D01*
X380500Y424950D02*
X384500Y428950D01*
X380500Y416750D02*
Y424950D01*
X380750Y431250D02*
X407750D01*
X376750Y427250D02*
X380750Y431250D01*
X376750Y416500D02*
Y427250D01*
X306750Y464250D02*
Y501950D01*
X316500Y511700D01*
X301500Y503250D02*
X312250Y514000D01*
X301500Y466000D02*
Y503250D01*
X310750Y516450D02*
X337066D01*
X296500Y502200D02*
X310750Y516450D01*
X296500Y467000D02*
Y502200D01*
X292250Y503750D02*
X307250Y518750D01*
X292250Y471000D02*
Y503750D01*
X248000Y426750D02*
X292250Y471000D01*
X374430Y42250D02*
X377000D01*
X369370Y46250D02*
X370430D01*
X367250Y42250D02*
Y44130D01*
Y40370D02*
Y42250D01*
X364070Y38250D02*
X365130D01*
X361950Y40370D02*
Y42250D01*
Y44130D01*
X358770Y46250D02*
X359830D01*
X354000Y42250D02*
X354770D01*
X350250Y46000D02*
X354000Y42250D01*
X350250Y46000D02*
Y62250D01*
X331500Y364750D02*
X348016D01*
X337016Y370000D02*
X350013D01*
X336500Y369250D02*
Y369484D01*
X336000Y369750D02*
X336500Y369250D01*
X336000Y369750D02*
Y370000D01*
X331500Y374250D02*
X351011D01*
X335000Y379500D02*
X353008D01*
X331500Y384250D02*
X354505D01*
X337450Y391950D02*
X358953D01*
X334750Y389250D02*
X337450Y391950D01*
X358000Y394250D02*
X380500Y416750D01*
X331500Y394250D02*
X358000D01*
X359250Y399000D02*
X376750Y416500D01*
X335250Y399000D02*
X359250D01*
X390000Y30750D02*
X400500Y41250D01*
X367500Y30750D02*
X369330D01*
X371450Y26870D02*
Y28630D01*
X373570Y24750D02*
X374630D01*
X376750Y26870D02*
Y30750D01*
Y34630D01*
X378870Y36750D02*
X379930D01*
X382050Y30750D02*
Y34630D01*
Y26870D02*
Y30750D01*
X384170Y24750D02*
X385230D01*
X387350Y26870D02*
Y28630D01*
X389470Y30750D02*
X390000D01*
X299250Y368500D02*
X345020Y414270D01*
X368768D01*
X241500Y426750D02*
X248000D01*
X213750Y399000D02*
X241500Y426750D01*
X258500Y248750D02*
X278629Y228621D01*
X278613Y225606D02*
X278629Y225623D01*
X278613Y222608D02*
X279363Y221859D01*
X282361D02*
X282377Y221875D01*
X285375D02*
X285750Y221500D01*
X231000Y247500D02*
X232020Y246480D01*
X232020Y242237D02*
X232770Y241488D01*
X235768D02*
X236390Y242110D01*
X237013Y242732D01*
X240011D02*
X240760Y241982D01*
X240138Y238362D02*
X240760Y238984D01*
X239516Y237740D02*
X240138Y238362D01*
X239516Y234742D02*
X240265Y233992D01*
X243263D02*
X243885Y234615D01*
X244508Y235237D01*
X247506D02*
X248255Y234487D01*
X247633Y230867D02*
X248255Y231489D01*
X247011Y230245D02*
X247633Y230867D01*
X247011Y227246D02*
X247761Y226497D01*
X250759D02*
X251381Y227119D01*
X252003Y227741D01*
X255001D02*
X255751Y226992D01*
X255128Y223372D02*
X255751Y223994D01*
X254506Y222749D02*
X255128Y223372D01*
X254506Y219751D02*
X255256Y219002D01*
X259498Y219002D02*
X260750Y217750D01*
X215577Y119107D02*
X218875Y122405D01*
X215577Y116109D02*
X216327Y115359D01*
X219325D02*
X223483Y119517D01*
X227641Y123675D01*
X230639D02*
X231388Y122926D01*
X227230Y115770D02*
X231388Y119927D01*
X223073Y111612D02*
X227230Y115770D01*
X223073Y108614D02*
X223822Y107864D01*
X226820D02*
X230978Y112022D01*
X235136Y116180D01*
X238134D02*
X238884Y115430D01*
X234726Y108274D02*
X238884Y112432D01*
X230568Y104116D02*
X234726Y108274D01*
X230568Y101118D02*
X231318Y100369D01*
X234316D02*
X238473Y104527D01*
X242631Y108684D01*
X245629D02*
X246379Y107935D01*
X242221Y100779D02*
X246379Y104937D01*
X238063Y96621D02*
X242221Y100779D01*
X238063Y93623D02*
X238813Y92873D01*
X241811D02*
X244470Y95532D01*
X247468D02*
X247843Y95157D01*
X196625Y269125D02*
X199145Y266605D01*
X199145Y262362D02*
X199895Y261612D01*
X202893D02*
X203515Y262235D01*
X204137Y262857D01*
X207136D02*
X207885Y262108D01*
X207263Y258487D02*
X207885Y259109D01*
X206641Y257865D02*
X207263Y258487D01*
X206641Y254867D02*
X207390Y254117D01*
X210388D02*
X211011Y254739D01*
X211633Y255362D01*
X214631D02*
X215380Y254612D01*
X214758Y250992D02*
X215380Y251614D01*
X214136Y250370D02*
X214758Y250992D01*
X214136Y247371D02*
X214886Y246622D01*
X217884D02*
X218506Y247244D01*
X219128Y247866D01*
X222126D02*
X222876Y247117D01*
X222253Y243496D02*
X222876Y244119D01*
X221631Y242874D02*
X222253Y243496D01*
X221631Y239876D02*
X222381Y239127D01*
X226623Y239126D02*
X227875Y237875D01*
X214198Y128801D02*
X217000Y126000D01*
X207792Y129551D02*
X208542Y128801D01*
X207792Y132549D02*
X209121Y133878D01*
X210451Y135208D01*
X209701Y138956D02*
X210451Y138206D01*
X203500Y139500D02*
X204044Y138956D01*
X177750Y258000D02*
X179152Y256598D01*
X183395Y256598D02*
X184144Y255848D01*
X183522Y252228D02*
X184144Y252850D01*
X182900Y251605D02*
X183522Y252228D01*
X182900Y248607D02*
X183650Y247858D01*
X186648D02*
X187270Y248480D01*
X187892Y249102D01*
X190890D02*
X191640Y248353D01*
X191018Y244732D02*
X191640Y245355D01*
X190395Y244110D02*
X191018Y244732D01*
X190395Y241112D02*
X191145Y240362D01*
X194143D02*
X194765Y240985D01*
X195387Y241607D01*
X198386D02*
X199135Y240858D01*
X198513Y237237D02*
X199135Y237859D01*
X197891Y236615D02*
X198513Y237237D01*
X197891Y233617D02*
X198640Y232867D01*
X201638D02*
X202260Y233489D01*
X202883Y234112D01*
X205881D02*
X206630Y233362D01*
X206008Y229742D02*
X206630Y230364D01*
X205386Y229120D02*
X206008Y229742D01*
X205386Y226121D02*
X206136Y225372D01*
X209134D02*
X209756Y225994D01*
X210378Y226616D01*
X213376D02*
X214126Y225867D01*
X213503Y222246D02*
X214126Y222869D01*
X212881Y221624D02*
X213503Y222246D01*
X212881Y218626D02*
X213631Y217877D01*
X217873Y217877D02*
X219125Y216625D01*
X188000Y159750D02*
X190069D01*
X192189Y155870D02*
Y157630D01*
X194309Y153750D02*
X195369D01*
X197489Y155870D02*
Y159750D01*
Y163630D01*
X199609Y165750D02*
X200669D01*
X202789Y159750D02*
Y163630D01*
Y155870D02*
Y159750D01*
X204909Y153750D02*
X205969D01*
X208089Y155870D02*
Y159750D01*
Y163630D01*
X210208Y165750D02*
X211269D01*
X213389Y159750D02*
Y163630D01*
Y155870D02*
Y159750D01*
X215508Y153750D02*
X216569D01*
X218689Y155870D02*
Y159750D01*
Y163630D01*
X220809Y165750D02*
X221868D01*
X223988Y159750D02*
Y163630D01*
Y155870D02*
Y159750D01*
X226108Y153750D02*
X227169D01*
X229289Y155870D02*
Y159750D01*
Y163630D01*
X231409Y165750D02*
X232468D01*
X234589Y159750D02*
Y163630D01*
Y155870D02*
Y159750D01*
X236709Y153750D02*
X237768D01*
X239888Y155870D02*
Y159750D01*
Y163630D01*
X242008Y165750D02*
X243069D01*
X245189Y159750D02*
Y163630D01*
Y155870D02*
Y159750D01*
X247309Y153750D02*
X248368D01*
X250488Y155870D02*
Y159750D01*
Y163630D01*
X252609Y165750D02*
X253668D01*
X255788Y159750D02*
Y163630D01*
Y155870D02*
Y159750D01*
X257908Y153750D02*
X258969D01*
X261089Y155870D02*
Y157630D01*
X263208Y159750D02*
X263738D01*
X174000Y140500D02*
X175000Y139500D01*
X177249Y137251D01*
X174590Y131594D02*
X177249Y134253D01*
X174590Y128596D02*
X175340Y127847D01*
X178338D02*
X182495Y132004D01*
X186653Y136162D01*
X189651D02*
X190401Y135413D01*
X186243Y128257D02*
X190401Y132415D01*
X182085Y124099D02*
X186243Y128257D01*
X182085Y121101D02*
X182835Y120351D01*
X185833D02*
X189991Y124509D01*
X194149Y128667D01*
X197147D02*
X197896Y127917D01*
X193738Y120761D02*
X197896Y124919D01*
X189581Y116604D02*
X193738Y120761D01*
X189581Y113606D02*
X190330Y112856D01*
X193328D02*
X197486Y117014D01*
X201644Y121172D01*
X204642D02*
X205392Y120422D01*
X201234Y113266D02*
X205392Y117424D01*
X197076Y109108D02*
X201234Y113266D01*
X197076Y106110D02*
X197826Y105361D01*
X200824D02*
X204981Y109519D01*
X209139Y113676D01*
X212137D02*
X212887Y112927D01*
X208729Y105771D02*
X212887Y109929D01*
X204571Y101613D02*
X208729Y105771D01*
X204571Y98615D02*
X205321Y97865D01*
X208319D02*
X212477Y102023D01*
X216635Y106181D01*
X219633D02*
X220382Y105431D01*
X216224Y98276D02*
X220382Y102433D01*
X212067Y94118D02*
X216224Y98276D01*
X212067Y91120D02*
X212816Y90370D01*
X215814D02*
X219972Y94528D01*
X224130Y98686D01*
X227128D02*
X227878Y97936D01*
X223720Y90780D02*
X227878Y94938D01*
X219562Y86622D02*
X223720Y90780D01*
X219562Y83624D02*
X220312Y82875D01*
X223310D02*
X227467Y87033D01*
X231625Y91190D01*
X234623D02*
X235373Y90441D01*
X231215Y83285D02*
X235373Y87443D01*
X227057Y79127D02*
X231215Y83285D01*
X227057Y76129D02*
X227807Y75380D01*
X230805D02*
X233464Y78038D01*
X236462D02*
X236837Y77663D01*
X174000Y140500D02*
Y144000D01*
X176000Y146000D01*
X152000Y122000D02*
X152911Y121089D01*
X155160Y118840D01*
X158158D02*
X160788Y121470D01*
X163786D02*
X164536Y120721D01*
X160407Y113593D02*
X164536Y117723D01*
X156277Y109464D02*
X160407Y113593D01*
X156277Y106466D02*
X157027Y105716D01*
X160025D02*
X164154Y109846D01*
X168284Y113975D01*
X171282D02*
X172031Y113225D01*
X167902Y106098D02*
X172031Y110227D01*
X163773Y101969D02*
X167902Y106098D01*
X163773Y98971D02*
X164522Y98221D01*
X167520D02*
X171650Y102350D01*
X175779Y106480D01*
X178777D02*
X179527Y105730D01*
X175397Y98603D02*
X179527Y102732D01*
X171268Y94473D02*
X175397Y98603D01*
X171268Y91475D02*
X172017Y90726D01*
X175016D02*
X179145Y94855D01*
X183274Y98984D01*
X186272D02*
X187022Y98235D01*
X182892Y91108D02*
X187022Y95237D01*
X178763Y86978D02*
X182892Y91108D01*
X178763Y83980D02*
X179513Y83230D01*
X182511D02*
X186640Y87360D01*
X190770Y91489D01*
X193768D02*
X194517Y90739D01*
X190388Y83612D02*
X194517Y87741D01*
X186259Y79483D02*
X190388Y83612D01*
X186259Y76485D02*
X187008Y75735D01*
X190006D02*
X194135Y79865D01*
X198265Y83994D01*
X201263D02*
X202013Y83244D01*
X197883Y76117D02*
X202013Y80246D01*
X193754Y71988D02*
X197883Y76117D01*
X193754Y68989D02*
X194503Y68240D01*
X197502D02*
X201631Y72369D01*
X205760Y76498D01*
X208758D02*
X209508Y75749D01*
X205378Y68622D02*
X209508Y72751D01*
X201704Y64947D02*
X205378Y68622D01*
X201704Y61949D02*
X202453Y61199D01*
X205451D02*
X207627Y63375D01*
X210625D02*
X211000Y63000D01*
X152000Y169170D02*
Y170250D01*
X146160Y167050D02*
X149880D01*
X144040Y163870D02*
Y164930D01*
X146160Y161750D02*
X152000D01*
X157840D01*
X159960Y158570D02*
Y159630D01*
X152000Y156450D02*
X157840D01*
X146160D02*
X152000D01*
X144040Y153270D02*
Y154330D01*
X146160Y151150D02*
X152000D01*
X157840D01*
X159960Y147970D02*
Y149030D01*
X152000Y145850D02*
X157840D01*
X146160D02*
X152000D01*
X144040Y142670D02*
Y143730D01*
X146160Y140550D02*
X152000D01*
X157840D01*
X159960Y137370D02*
Y138430D01*
X152000Y135250D02*
X157840D01*
X146160D02*
X152000D01*
X144040Y132070D02*
Y133130D01*
X146160Y129950D02*
X152000D01*
X157840D01*
X159960Y126770D02*
Y127830D01*
X154120Y124650D02*
X157840D01*
X152000Y122000D02*
Y122530D01*
X127500Y165500D02*
X136000Y174000D01*
X127500Y139250D02*
Y139530D01*
X121620Y141650D02*
X125380D01*
X119500Y143770D02*
Y144830D01*
X121620Y146950D02*
X127500D01*
X133380D01*
X135500Y149070D02*
Y150130D01*
X127500Y152250D02*
X133380D01*
X121620D02*
X127500D01*
X119500Y154370D02*
Y155430D01*
X121620Y157550D02*
X127500D01*
X133380D01*
X135500Y159670D02*
Y160730D01*
X129620Y162850D02*
X133380D01*
X127500Y164970D02*
Y165500D01*
Y114250D02*
X127660Y114090D01*
X130658D02*
X133317Y116749D01*
X136315D02*
X137064Y115999D01*
X132907Y108843D02*
X137064Y113001D01*
X128749Y104686D02*
X132907Y108843D01*
X128749Y101687D02*
X129498Y100938D01*
X132497D02*
X136654Y105096D01*
X140812Y109254D01*
X143810D02*
X144560Y108504D01*
X140402Y101348D02*
X144560Y105506D01*
X136244Y97190D02*
X140402Y101348D01*
X136244Y94192D02*
X136994Y93443D01*
X139992D02*
X144150Y97600D01*
X148307Y101758D01*
X151306D02*
X152055Y101009D01*
X147897Y93853D02*
X152055Y98011D01*
X143739Y89695D02*
X147897Y93853D01*
X143739Y86697D02*
X144489Y85947D01*
X147487D02*
X151645Y90105D01*
X155803Y94263D01*
X158801D02*
X159550Y93513D01*
X155393Y86357D02*
X159550Y90515D01*
X151235Y82200D02*
X155393Y86357D01*
X151235Y79201D02*
X151984Y78452D01*
X154982D02*
X159140Y82610D01*
X163298Y86768D01*
X166296D02*
X167046Y86018D01*
X162888Y78862D02*
X167046Y83020D01*
X158730Y74704D02*
X162888Y78862D01*
X158730Y71706D02*
X159480Y70957D01*
X162478D02*
X166635Y75114D01*
X170793Y79272D01*
X173791D02*
X174541Y78523D01*
X170383Y71367D02*
X174541Y75525D01*
X166225Y67209D02*
X170383Y71367D01*
X166225Y64211D02*
X166975Y63461D01*
X169973D02*
X174131Y67619D01*
X178289Y71777D01*
X181287D02*
X182036Y71027D01*
X177878Y63871D02*
X182036Y68029D01*
X173721Y59714D02*
X177878Y63871D01*
X173721Y56716D02*
X174470Y55966D01*
X177468D02*
X180127Y58625D01*
X183125D02*
X183500Y58250D01*
X127500Y116900D02*
Y117000D01*
Y114250D02*
Y116900D01*
X108750Y102750D02*
X109407Y102093D01*
X111655Y99845D01*
X114653D02*
X117312Y102504D01*
X120310D02*
X121060Y101754D01*
X116902Y94598D02*
X121060Y98756D01*
X112744Y90440D02*
X116902Y94598D01*
X112744Y87442D02*
X113494Y86693D01*
X116492D02*
X120650Y90850D01*
X124807Y95008D01*
X127806D02*
X128555Y94259D01*
X124397Y87103D02*
X128555Y91261D01*
X120239Y82945D02*
X124397Y87103D01*
X120239Y79947D02*
X120989Y79197D01*
X123987D02*
X128145Y83355D01*
X132303Y87513D01*
X135301D02*
X136050Y86763D01*
X131892Y79608D02*
X136050Y83765D01*
X127735Y75450D02*
X131892Y79608D01*
X127735Y72452D02*
X128484Y71702D01*
X131482D02*
X135640Y75860D01*
X139798Y80018D01*
X142796D02*
X143546Y79268D01*
X139388Y72112D02*
X143546Y76270D01*
X135230Y67954D02*
X139388Y72112D01*
X135230Y64956D02*
X135980Y64207D01*
X138978D02*
X143135Y68365D01*
X147293Y72522D01*
X150291D02*
X151041Y71773D01*
X146883Y64617D02*
X151041Y68775D01*
X142725Y60459D02*
X146883Y64617D01*
X142725Y57461D02*
X143475Y56711D01*
X146473D02*
X150631Y60869D01*
X154789Y65027D01*
X157787D02*
X158536Y64277D01*
X154378Y57122D02*
X158536Y61279D01*
X150221Y52964D02*
X154378Y57122D01*
X150221Y49966D02*
X150970Y49216D01*
X153968D02*
X156627Y51875D01*
X159625D02*
X160000Y51500D01*
X108750Y128720D02*
Y130000D01*
X102870Y126600D02*
X106630D01*
X100750Y123420D02*
Y124480D01*
X102870Y121300D02*
X108750D01*
X114630D01*
X116750Y118120D02*
Y119180D01*
X108750Y116000D02*
X114630D01*
X102870D02*
X108750D01*
X100750Y112820D02*
Y113880D01*
X102870Y110700D02*
X108750D01*
X114630D01*
X116750Y107520D02*
Y108580D01*
X110870Y105400D02*
X114630D01*
X108750Y102750D02*
Y103280D01*
X89000Y138750D02*
Y140530D01*
X83120Y142650D02*
X86880D01*
X81000Y144770D02*
Y145830D01*
X83120Y147950D02*
X89000D01*
X94880D01*
X97000Y150070D02*
Y151130D01*
X89000Y153250D02*
X94880D01*
X83120D02*
X89000D01*
X81000Y155370D02*
Y156430D01*
X83120Y158550D02*
X89000D01*
X94880D01*
X97000Y160670D02*
Y161730D01*
X91120Y163850D02*
X94880D01*
X89000Y165970D02*
Y166500D01*
X90125Y92875D02*
X90154Y92846D01*
X92403Y90597D01*
X89744Y84940D02*
X92403Y87599D01*
X89744Y81942D02*
X90494Y81193D01*
X93492D02*
X97650Y85350D01*
X101807Y89508D01*
X104805D02*
X105555Y88759D01*
X101397Y81603D02*
X105555Y85761D01*
X97240Y77445D02*
X101397Y81603D01*
X97240Y74447D02*
X97989Y73697D01*
X100987D02*
X105145Y77855D01*
X109303Y82013D01*
X112301D02*
X113050Y81263D01*
X108893Y74107D02*
X113050Y78265D01*
X104735Y69950D02*
X108893Y74107D01*
X104735Y66951D02*
X105484Y66202D01*
X108482D02*
X112640Y70360D01*
X116798Y74518D01*
X119796D02*
X120546Y73768D01*
X116388Y66612D02*
X120546Y70770D01*
X112230Y62454D02*
X116388Y66612D01*
X112230Y59456D02*
X112980Y58707D01*
X115978D02*
X120135Y62864D01*
X124293Y67022D01*
X127291D02*
X128041Y66273D01*
X123883Y59117D02*
X128041Y63275D01*
X119725Y54959D02*
X123883Y59117D01*
X119725Y51961D02*
X120475Y51211D01*
X123473D02*
X127631Y55369D01*
X131789Y59527D01*
X134787D02*
X135536Y58777D01*
X131378Y51621D02*
X135536Y55779D01*
X127221Y47464D02*
X131378Y51621D01*
X127221Y44466D02*
X127970Y43716D01*
X130968D02*
X133627Y46375D01*
X136625D02*
X137000Y46000D01*
X299050Y80392D02*
Y169903D01*
X273953Y195000D02*
X299050Y169903D01*
X270750Y195000D02*
X273953D01*
X227875Y237875D02*
X270750Y195000D01*
X261250Y189750D02*
X275950D01*
X296750Y168950D01*
Y69500D02*
Y168950D01*
X250050Y187450D02*
X274997D01*
X293912Y168536D01*
Y74962D02*
Y168536D01*
X56500Y379250D02*
X177750Y258000D01*
X52250Y379250D02*
X56500D01*
X296750Y69500D02*
X300500Y65750D01*
X58250Y392750D02*
X261250Y189750D01*
X49750Y392750D02*
X58250D01*
X47788Y390788D02*
X49750Y392750D01*
X47788Y366462D02*
Y390788D01*
Y366462D02*
X50750Y363500D01*
X58500Y420000D02*
X231000Y247500D01*
X51500Y420000D02*
X58500D01*
X330750Y69250D02*
X334336Y72836D01*
X324250Y69250D02*
X330750D01*
X303750Y89750D02*
X324250Y69250D01*
X50750Y456500D02*
X258500Y248750D01*
X164000Y148442D02*
Y149500D01*
X163871Y148313D02*
X164000Y148442D01*
X360000Y303250D02*
X374250Y289000D01*
X307000Y303250D02*
X360000D01*
X108750Y130000D02*
Y162500D01*
X120500Y174250D01*
X299250Y312750D02*
X365000D01*
X373750Y304000D01*
X262750Y114000D02*
X263505D01*
X263513Y114009D01*
X222521Y128750D02*
X222750D01*
X222511Y128759D02*
X222521Y128750D01*
X217000Y126000D02*
X218875Y124125D01*
X203500Y139500D02*
Y145750D01*
X204750Y147000D01*
X260250D01*
X266250Y153000D01*
Y157239D01*
X263738Y159750D02*
X266250Y157239D01*
X218875Y124125D02*
X218876Y124123D01*
X248171Y95157D02*
X250163Y93166D01*
X247843Y95157D02*
X248171D01*
X246763Y91507D02*
Y91757D01*
Y91507D02*
X247000Y91270D01*
X250163Y92837D02*
Y93166D01*
X220250Y143521D02*
Y144000D01*
Y143521D02*
X220261Y143510D01*
X263250Y98250D02*
X263263Y98237D01*
Y98008D02*
Y98237D01*
X185250Y406750D02*
Y492000D01*
X186000Y492750D01*
X146750Y447750D02*
Y487000D01*
X130250Y450000D02*
Y486750D01*
Y450000D02*
X155500Y424750D01*
X171000Y154250D02*
Y171250D01*
X167750Y174500D02*
X171000Y171250D01*
Y154250D02*
X173500Y151750D01*
X187750D02*
X191250Y148250D01*
Y143511D02*
Y148250D01*
X190488Y142750D02*
X191250Y143511D01*
X188250Y142750D02*
X190488D01*
X185000Y146000D02*
X188250Y142750D01*
X176000Y146000D02*
X185000D01*
X247000Y85500D02*
Y91270D01*
X239163Y77663D02*
X247000Y85500D01*
X236837Y77663D02*
X239163D01*
X173500Y151750D02*
X187750D01*
X310500Y226250D02*
X311700D01*
X319250Y89500D02*
X323250Y85500D01*
X338250D01*
X340500Y83250D01*
Y72250D02*
Y83250D01*
X319500Y51250D02*
X340500Y72250D01*
X317750Y51250D02*
X319500D01*
X327250Y81500D02*
X336000D01*
X309516Y133009D02*
X309709Y133203D01*
X306050Y95200D02*
X327500Y73750D01*
X306050Y95200D02*
Y201200D01*
X285750Y221500D02*
X306050Y201200D01*
X327250Y121525D02*
Y122000D01*
Y121525D02*
X327267Y121509D01*
X311750Y50500D02*
X317000D01*
X317750Y51250D01*
X89000Y166500D02*
Y176250D01*
Y94000D02*
Y138750D01*
Y94000D02*
X90125Y92875D01*
X249256Y64756D02*
X263013D01*
X230500Y46000D02*
X249256Y64756D01*
X137000Y46000D02*
X230500D01*
X267750Y70250D02*
X271250Y73750D01*
X248250Y70250D02*
X267750D01*
X229500Y51500D02*
X248250Y70250D01*
X160000Y51500D02*
X229500D01*
X127500Y117000D02*
Y139250D01*
X275500Y77500D02*
X279250Y73750D01*
X250750Y77500D02*
X275500D01*
X231500Y58250D02*
X250750Y77500D01*
X183500Y58250D02*
X231500D01*
X247750Y81000D02*
X262500D01*
X229750Y63000D02*
X247750Y81000D01*
X211000Y63000D02*
X229750D01*
X152000Y170250D02*
Y174500D01*
X187750Y159750D02*
X188000D01*
X181250Y166250D02*
X187750Y159750D01*
X181250Y166250D02*
Y174750D01*
X267000Y86000D02*
X271500Y81500D01*
X257000Y86000D02*
X267000D01*
X250163Y92837D02*
X257000Y86000D01*
X247000Y190500D02*
X250050Y187450D01*
X245250Y190500D02*
X247000D01*
X219125Y216625D02*
X245250Y190500D01*
X260750Y217750D02*
X301350Y177150D01*
X287921Y86703D02*
X289050Y85574D01*
X287500Y89750D02*
X287921Y89329D01*
Y86703D02*
Y89329D01*
X289050Y57300D02*
Y85574D01*
X276805Y45055D02*
X289050Y57300D01*
X278643Y32791D02*
X282353Y36500D01*
X277567Y32791D02*
X278643D01*
X276805Y33552D02*
Y45055D01*
Y33552D02*
X277567Y32791D01*
X279743Y89507D02*
X285250Y84000D01*
Y58874D02*
Y84000D01*
X279514Y89507D02*
X279743D01*
X273005Y31978D02*
X274880Y30104D01*
X273005Y46629D02*
X285250Y58874D01*
X274880Y27722D02*
Y30104D01*
X274774Y24421D02*
Y27616D01*
X274880Y27722D01*
X274352Y24000D02*
X274774Y24421D01*
X273005Y31978D02*
Y46629D01*
X293912Y74962D02*
X294000Y74873D01*
Y62500D02*
Y74873D01*
X303079Y62921D02*
X304579D01*
X305000Y62500D01*
X300500Y65500D02*
X303079Y62921D01*
X300500Y65500D02*
Y65750D01*
X334336Y72836D02*
X334501D01*
X334750Y73085D01*
Y73250D01*
X334757Y73257D01*
X335517D01*
D29*
X0Y510000D02*
D03*
X155000Y0D02*
D03*
X140000D02*
D03*
X420000Y60000D02*
D03*
X0Y120000D02*
D03*
Y240000D02*
D03*
Y345000D02*
D03*
Y360000D02*
D03*
Y330000D02*
D03*
Y315000D02*
D03*
Y300000D02*
D03*
Y285000D02*
D03*
Y270000D02*
D03*
Y255000D02*
D03*
Y225000D02*
D03*
Y210000D02*
D03*
Y195000D02*
D03*
Y180000D02*
D03*
Y165000D02*
D03*
Y150000D02*
D03*
Y135000D02*
D03*
Y105000D02*
D03*
Y90000D02*
D03*
Y75000D02*
D03*
Y60000D02*
D03*
Y45000D02*
D03*
Y30000D02*
D03*
X20000Y0D02*
D03*
X50000D02*
D03*
X110000D02*
D03*
X80000D02*
D03*
X215000D02*
D03*
X185000D02*
D03*
X0Y435000D02*
D03*
X420000Y135000D02*
D03*
Y225000D02*
D03*
Y255000D02*
D03*
Y270000D02*
D03*
Y300000D02*
D03*
Y315000D02*
D03*
Y345000D02*
D03*
Y375000D02*
D03*
Y390000D02*
D03*
Y405000D02*
D03*
Y420000D02*
D03*
Y330000D02*
D03*
X395000Y530000D02*
D03*
X380000D02*
D03*
X365000D02*
D03*
X350000D02*
D03*
X335000D02*
D03*
X305000D02*
D03*
X290000D02*
D03*
X260000D02*
D03*
X245000D02*
D03*
X230000D02*
D03*
X215000D02*
D03*
X200000D02*
D03*
X185000D02*
D03*
X20000D02*
D03*
X35000D02*
D03*
X50000D02*
D03*
X80000D02*
D03*
X95000D02*
D03*
X110000D02*
D03*
X125000D02*
D03*
X140000D02*
D03*
X170000D02*
D03*
X420000Y510000D02*
D03*
Y495000D02*
D03*
Y480000D02*
D03*
Y465000D02*
D03*
Y450000D02*
D03*
Y210000D02*
D03*
Y195000D02*
D03*
Y180000D02*
D03*
Y150000D02*
D03*
X0Y495000D02*
D03*
Y480000D02*
D03*
Y465000D02*
D03*
Y450000D02*
D03*
X395000Y0D02*
D03*
X365000D02*
D03*
X0Y420000D02*
D03*
Y405000D02*
D03*
Y390000D02*
D03*
Y375000D02*
D03*
M02*
