G04*
G04 #@! TF.GenerationSoftware,Altium Limited,Altium Designer,19.1.9 (167)*
G04*
G04 Layer_Color=2752767*
%FSLAX44Y44*%
%MOMM*%
G71*
G01*
G75*
%ADD34C,0.0508*%
%ADD35C,0.0677*%
D34*
X-2032Y507968D02*
Y512032D01*
X2032D01*
Y507968D01*
X-2032D01*
X152968Y-2032D02*
Y2032D01*
X157032D01*
Y-2032D01*
X152968D01*
X137968D02*
Y2032D01*
X142032D01*
Y-2032D01*
X137968D01*
X417968Y57968D02*
Y62032D01*
X422032D01*
Y57968D01*
X417968D01*
X-2032Y117968D02*
Y122032D01*
X2032D01*
Y117968D01*
X-2032D01*
Y237968D02*
Y242032D01*
X2032D01*
Y237968D01*
X-2032D01*
Y342968D02*
Y347032D01*
X2032D01*
Y342968D01*
X-2032D01*
Y357968D02*
Y362032D01*
X2032D01*
Y357968D01*
X-2032D01*
Y327968D02*
Y332032D01*
X2032D01*
Y327968D01*
X-2032D01*
Y312968D02*
Y317032D01*
X2032D01*
Y312968D01*
X-2032D01*
Y297968D02*
Y302032D01*
X2032D01*
Y297968D01*
X-2032D01*
Y282968D02*
Y287032D01*
X2032D01*
Y282968D01*
X-2032D01*
Y267968D02*
Y272032D01*
X2032D01*
Y267968D01*
X-2032D01*
Y252968D02*
Y257032D01*
X2032D01*
Y252968D01*
X-2032D01*
Y222968D02*
Y227032D01*
X2032D01*
Y222968D01*
X-2032D01*
Y207968D02*
Y212032D01*
X2032D01*
Y207968D01*
X-2032D01*
Y192968D02*
Y197032D01*
X2032D01*
Y192968D01*
X-2032D01*
Y177968D02*
Y182032D01*
X2032D01*
Y177968D01*
X-2032D01*
Y162968D02*
Y167032D01*
X2032D01*
Y162968D01*
X-2032D01*
Y147968D02*
Y152032D01*
X2032D01*
Y147968D01*
X-2032D01*
Y132968D02*
Y137032D01*
X2032D01*
Y132968D01*
X-2032D01*
Y102968D02*
Y107032D01*
X2032D01*
Y102968D01*
X-2032D01*
Y87968D02*
Y92032D01*
X2032D01*
Y87968D01*
X-2032D01*
Y72968D02*
Y77032D01*
X2032D01*
Y72968D01*
X-2032D01*
Y57968D02*
Y62032D01*
X2032D01*
Y57968D01*
X-2032D01*
Y42968D02*
Y47032D01*
X2032D01*
Y42968D01*
X-2032D01*
Y27968D02*
Y32032D01*
X2032D01*
Y27968D01*
X-2032D01*
X17968Y-2032D02*
Y2032D01*
X22032D01*
Y-2032D01*
X17968D01*
X47968D02*
Y2032D01*
X52032D01*
Y-2032D01*
X47968D01*
X107968D02*
Y2032D01*
X112032D01*
Y-2032D01*
X107968D01*
X77968D02*
Y2032D01*
X82032D01*
Y-2032D01*
X77968D01*
X212968D02*
Y2032D01*
X217032D01*
Y-2032D01*
X212968D01*
X182968D02*
Y2032D01*
X187032D01*
Y-2032D01*
X182968D01*
X-2032Y432968D02*
Y437032D01*
X2032D01*
Y432968D01*
X-2032D01*
X417968Y132968D02*
Y137032D01*
X422032D01*
Y132968D01*
X417968D01*
Y222968D02*
Y227032D01*
X422032D01*
Y222968D01*
X417968D01*
Y252968D02*
Y257032D01*
X422032D01*
Y252968D01*
X417968D01*
Y267968D02*
Y272032D01*
X422032D01*
Y267968D01*
X417968D01*
Y297968D02*
Y302032D01*
X422032D01*
Y297968D01*
X417968D01*
Y312968D02*
Y317032D01*
X422032D01*
Y312968D01*
X417968D01*
Y342968D02*
Y347032D01*
X422032D01*
Y342968D01*
X417968D01*
Y372968D02*
Y377032D01*
X422032D01*
Y372968D01*
X417968D01*
Y387968D02*
Y392032D01*
X422032D01*
Y387968D01*
X417968D01*
Y402968D02*
Y407032D01*
X422032D01*
Y402968D01*
X417968D01*
Y417968D02*
Y422032D01*
X422032D01*
Y417968D01*
X417968D01*
Y327968D02*
Y332032D01*
X422032D01*
Y327968D01*
X417968D01*
X392968Y527968D02*
Y532032D01*
X397032D01*
Y527968D01*
X392968D01*
X377968D02*
Y532032D01*
X382032D01*
Y527968D01*
X377968D01*
X362968D02*
Y532032D01*
X367032D01*
Y527968D01*
X362968D01*
X347968D02*
Y532032D01*
X352032D01*
Y527968D01*
X347968D01*
X332968D02*
Y532032D01*
X337032D01*
Y527968D01*
X332968D01*
X302968D02*
Y532032D01*
X307032D01*
Y527968D01*
X302968D01*
X287968D02*
Y532032D01*
X292032D01*
Y527968D01*
X287968D01*
X257968D02*
Y532032D01*
X262032D01*
Y527968D01*
X257968D01*
X242968D02*
Y532032D01*
X247032D01*
Y527968D01*
X242968D01*
X227968D02*
Y532032D01*
X232032D01*
Y527968D01*
X227968D01*
X212968D02*
Y532032D01*
X217032D01*
Y527968D01*
X212968D01*
X197968D02*
Y532032D01*
X202032D01*
Y527968D01*
X197968D01*
X182968D02*
Y532032D01*
X187032D01*
Y527968D01*
X182968D01*
X17968D02*
Y532032D01*
X22032D01*
Y527968D01*
X17968D01*
X32968D02*
Y532032D01*
X37032D01*
Y527968D01*
X32968D01*
X47968D02*
Y532032D01*
X52032D01*
Y527968D01*
X47968D01*
X77968D02*
Y532032D01*
X82032D01*
Y527968D01*
X77968D01*
X92968D02*
Y532032D01*
X97032D01*
Y527968D01*
X92968D01*
X107968D02*
Y532032D01*
X112032D01*
Y527968D01*
X107968D01*
X122968D02*
Y532032D01*
X127032D01*
Y527968D01*
X122968D01*
X137968D02*
Y532032D01*
X142032D01*
Y527968D01*
X137968D01*
X167968D02*
Y532032D01*
X172032D01*
Y527968D01*
X167968D01*
X417968Y507968D02*
Y512032D01*
X422032D01*
Y507968D01*
X417968D01*
Y492968D02*
Y497032D01*
X422032D01*
Y492968D01*
X417968D01*
Y477968D02*
Y482032D01*
X422032D01*
Y477968D01*
X417968D01*
Y462968D02*
Y467032D01*
X422032D01*
Y462968D01*
X417968D01*
Y447968D02*
Y452032D01*
X422032D01*
Y447968D01*
X417968D01*
Y207968D02*
Y212032D01*
X422032D01*
Y207968D01*
X417968D01*
Y192968D02*
Y197032D01*
X422032D01*
Y192968D01*
X417968D01*
Y177968D02*
Y182032D01*
X422032D01*
Y177968D01*
X417968D01*
Y147968D02*
Y152032D01*
X422032D01*
Y147968D01*
X417968D01*
X-2032Y492968D02*
Y497032D01*
X2032D01*
Y492968D01*
X-2032D01*
Y477968D02*
Y482032D01*
X2032D01*
Y477968D01*
X-2032D01*
Y462968D02*
Y467032D01*
X2032D01*
Y462968D01*
X-2032D01*
Y447968D02*
Y452032D01*
X2032D01*
Y447968D01*
X-2032D01*
X392968Y-2032D02*
Y2032D01*
X397032D01*
Y-2032D01*
X392968D01*
X362968D02*
Y2032D01*
X367032D01*
Y-2032D01*
X362968D01*
X-2032Y417968D02*
Y422032D01*
X2032D01*
Y417968D01*
X-2032D01*
Y402968D02*
Y407032D01*
X2032D01*
Y402968D01*
X-2032D01*
Y387968D02*
Y392032D01*
X2032D01*
Y387968D01*
X-2032D01*
Y372968D02*
Y377032D01*
X2032D01*
Y372968D01*
X-2032D01*
X117500Y34718D02*
X115468Y38782D01*
X119532D01*
X117500Y34718D01*
X34750Y87218D02*
X32718Y91282D01*
X36782D01*
X34750Y87218D01*
D35*
X226782Y29750D02*
G03*
X226782Y29750I-2032J0D01*
G01*
X320032Y8250D02*
G03*
X320032Y8250I-2032J0D01*
G01*
X106282Y383750D02*
G03*
X106282Y383750I-2032J0D01*
G01*
X19032Y422750D02*
G03*
X19032Y422750I-2032J0D01*
G01*
X100032Y401250D02*
G03*
X100032Y401250I-2032J0D01*
G01*
X94740Y230650D02*
G03*
X94740Y230650I-2032J0D01*
G01*
X95032Y305750D02*
G03*
X95032Y305750I-2032J0D01*
G01*
X86782Y285000D02*
G03*
X86782Y285000I-2032J0D01*
G01*
X50032Y310750D02*
G03*
X50032Y310750I-2032J0D01*
G01*
Y335750D02*
G03*
X50032Y335750I-2032J0D01*
G01*
X93537Y322266D02*
G03*
X93537Y322266I-2032J0D01*
G01*
X99032Y302250D02*
G03*
X99032Y302250I-2032J0D01*
G01*
X99782Y386250D02*
G03*
X99782Y386250I-2032J0D01*
G01*
X89282Y382250D02*
G03*
X89282Y382250I-2032J0D01*
G01*
Y369500D02*
G03*
X89282Y369500I-2032J0D01*
G01*
X18782Y364500D02*
G03*
X18782Y364500I-2032J0D01*
G01*
X138282Y247250D02*
G03*
X138282Y247250I-2032J0D01*
G01*
X163032Y248250D02*
G03*
X163032Y248250I-2032J0D01*
G01*
X321548Y65503D02*
G03*
X321548Y65503I-2032J0D01*
G01*
X323532Y22500D02*
G03*
X323532Y22500I-2032J0D01*
G01*
X353782Y19750D02*
G03*
X353782Y19750I-2032J0D01*
G01*
X353532Y28750D02*
G03*
X353532Y28750I-2032J0D01*
G01*
X206042Y39502D02*
G03*
X206042Y39502I-2032J0D01*
G01*
X340532Y47000D02*
G03*
X340532Y47000I-2032J0D01*
G01*
X204782Y128750D02*
G03*
X204782Y128750I-2032J0D01*
G01*
X289532Y137500D02*
G03*
X289532Y137500I-2032J0D01*
G01*
X116782Y214500D02*
G03*
X116782Y214500I-2032J0D01*
G01*
X45282Y206750D02*
G03*
X45282Y206750I-2032J0D01*
G01*
X70532Y229750D02*
G03*
X70532Y229750I-2032J0D01*
G01*
X56782D02*
G03*
X56782Y229750I-2032J0D01*
G01*
X35532Y335750D02*
G03*
X35532Y335750I-2032J0D01*
G01*
X93032Y481000D02*
G03*
X93032Y481000I-2032J0D01*
G01*
X244032Y495000D02*
G03*
X244032Y495000I-2032J0D01*
G01*
X224532Y479000D02*
G03*
X224532Y479000I-2032J0D01*
G01*
X394532Y471250D02*
G03*
X394532Y471250I-2032J0D01*
G01*
X394282Y454000D02*
G03*
X394282Y454000I-2032J0D01*
G01*
X376782Y349000D02*
G03*
X376782Y349000I-2032J0D01*
G01*
X173032Y418250D02*
G03*
X173032Y418250I-2032J0D01*
G01*
X160782Y497250D02*
G03*
X160782Y497250I-2032J0D01*
G01*
X166282Y430250D02*
G03*
X166282Y430250I-2032J0D01*
G01*
X90532Y55500D02*
G03*
X90532Y55500I-2032J0D01*
G01*
X105532Y55000D02*
G03*
X105532Y55000I-2032J0D01*
G01*
X52532Y51500D02*
G03*
X52532Y51500I-2032J0D01*
G01*
X53032Y69000D02*
G03*
X53032Y69000I-2032J0D01*
G01*
X378032Y183500D02*
G03*
X378032Y183500I-2032J0D01*
G01*
X228032Y40750D02*
G03*
X228032Y40750I-2032J0D01*
G01*
X192282Y62750D02*
G03*
X192282Y62750I-2032J0D01*
G01*
X390032Y91500D02*
G03*
X390032Y91500I-2032J0D01*
G01*
X387032Y80000D02*
G03*
X387032Y80000I-2032J0D01*
G01*
X385782Y64250D02*
G03*
X385782Y64250I-2032J0D01*
G01*
X383782Y49500D02*
G03*
X383782Y49500I-2032J0D01*
G01*
X380782Y143000D02*
G03*
X380782Y143000I-2032J0D01*
G01*
X371282D02*
G03*
X371282Y143000I-2032J0D01*
G01*
X239532Y177250D02*
G03*
X239532Y177250I-2032J0D01*
G01*
X45782Y175250D02*
G03*
X45782Y175250I-2032J0D01*
G01*
X87032Y228000D02*
G03*
X87032Y228000I-2032J0D01*
G01*
X114532Y191000D02*
G03*
X114532Y191000I-2032J0D01*
G01*
X196532Y336250D02*
G03*
X196532Y336250I-2032J0D01*
G01*
X52782Y259250D02*
G03*
X52782Y259250I-2032J0D01*
G01*
X117282Y241750D02*
G03*
X117282Y241750I-2032J0D01*
G01*
X133782Y250000D02*
G03*
X133782Y250000I-2032J0D01*
G01*
X131788Y268513D02*
G03*
X131788Y268513I-2032J0D01*
G01*
X125782Y260500D02*
G03*
X125782Y260500I-2032J0D01*
G01*
X129782Y283250D02*
G03*
X129782Y283250I-2032J0D01*
G01*
X188282Y285500D02*
G03*
X188282Y285500I-2032J0D01*
G01*
X210532Y292750D02*
G03*
X210532Y292750I-2032J0D01*
G01*
X117282Y248750D02*
G03*
X117282Y248750I-2032J0D01*
G01*
X151282D02*
G03*
X151282Y248750I-2032J0D01*
G01*
Y254500D02*
G03*
X151282Y254500I-2032J0D01*
G01*
X162532Y258250D02*
G03*
X162532Y258250I-2032J0D01*
G01*
X170532Y251750D02*
G03*
X170532Y251750I-2032J0D01*
G01*
X157532Y269750D02*
G03*
X157532Y269750I-2032J0D01*
G01*
X181041Y279264D02*
G03*
X181041Y279264I-2032J0D01*
G01*
X221282Y295000D02*
G03*
X221282Y295000I-2032J0D01*
G01*
X312282Y145250D02*
G03*
X312282Y145250I-2032J0D01*
G01*
X289782Y120750D02*
G03*
X289782Y120750I-2032J0D01*
G01*
X327782Y227750D02*
G03*
X327782Y227750I-2032J0D01*
G01*
X383282Y186000D02*
G03*
X383282Y186000I-2032J0D01*
G01*
X218032Y300500D02*
G03*
X218032Y300500I-2032J0D01*
G01*
X227282Y304750D02*
G03*
X227282Y304750I-2032J0D01*
G01*
X401532Y255750D02*
G03*
X401532Y255750I-2032J0D01*
G01*
X392282Y257750D02*
G03*
X392282Y257750I-2032J0D01*
G01*
X354782D02*
G03*
X354782Y257750I-2032J0D01*
G01*
X392032Y252000D02*
G03*
X392032Y252000I-2032J0D01*
G01*
X347532Y257000D02*
G03*
X347532Y257000I-2032J0D01*
G01*
X391782Y244750D02*
G03*
X391782Y244750I-2032J0D01*
G01*
X392032Y237000D02*
G03*
X392032Y237000I-2032J0D01*
G01*
X391282Y287750D02*
G03*
X391282Y287750I-2032J0D01*
G01*
X391032Y272250D02*
G03*
X391032Y272250I-2032J0D01*
G01*
X335532Y326750D02*
G03*
X335532Y326750I-2032J0D01*
G01*
X336032Y333000D02*
G03*
X336032Y333000I-2032J0D01*
G01*
X376282Y272750D02*
G03*
X376282Y272750I-2032J0D01*
G01*
X337532Y264500D02*
G03*
X337532Y264500I-2032J0D01*
G01*
X334282Y269250D02*
G03*
X334282Y269250I-2032J0D01*
G01*
X361282Y319750D02*
G03*
X361282Y319750I-2032J0D01*
G01*
X402282Y299750D02*
G03*
X402282Y299750I-2032J0D01*
G01*
X374782Y382500D02*
G03*
X374782Y382500I-2032J0D01*
G01*
X308782Y464250D02*
G03*
X308782Y464250I-2032J0D01*
G01*
X271282Y459000D02*
G03*
X271282Y459000I-2032J0D01*
G01*
X279532Y484000D02*
G03*
X279532Y484000I-2032J0D01*
G01*
X240532Y478000D02*
G03*
X240532Y478000I-2032J0D01*
G01*
X335282Y407500D02*
G03*
X335282Y407500I-2032J0D01*
G01*
X336282Y414500D02*
G03*
X336282Y414500I-2032J0D01*
G01*
X392961Y390429D02*
G03*
X392961Y390429I-2032J0D01*
G01*
X394282Y396250D02*
G03*
X394282Y396250I-2032J0D01*
G01*
Y401750D02*
G03*
X394282Y401750I-2032J0D01*
G01*
X370800Y414270D02*
G03*
X370800Y414270I-2032J0D01*
G01*
X333532Y364750D02*
G03*
X333532Y364750I-2032J0D01*
G01*
X337282Y399000D02*
G03*
X337282Y399000I-2032J0D01*
G01*
X333532Y394250D02*
G03*
X333532Y394250I-2032J0D01*
G01*
X336782Y389250D02*
G03*
X336782Y389250I-2032J0D01*
G01*
X333532Y384250D02*
G03*
X333532Y384250I-2032J0D01*
G01*
X337032Y379500D02*
G03*
X337032Y379500I-2032J0D01*
G01*
X333532Y374250D02*
G03*
X333532Y374250I-2032J0D01*
G01*
X338032Y370000D02*
G03*
X338032Y370000I-2032J0D01*
G01*
X334532Y435750D02*
G03*
X334532Y435750I-2032J0D01*
G01*
X215782Y399000D02*
G03*
X215782Y399000I-2032J0D01*
G01*
X151282Y371000D02*
G03*
X151282Y371000I-2032J0D01*
G01*
X323032Y505250D02*
G03*
X323032Y505250I-2032J0D01*
G01*
X338782Y505750D02*
G03*
X338782Y505750I-2032J0D01*
G01*
X303532Y466000D02*
G03*
X303532Y466000I-2032J0D01*
G01*
X298532Y467000D02*
G03*
X298532Y467000I-2032J0D01*
G01*
X318032Y463750D02*
G03*
X318032Y463750I-2032J0D01*
G01*
X260782Y459250D02*
G03*
X260782Y459250I-2032J0D01*
G01*
X265045Y456272D02*
G03*
X265045Y456272I-2032J0D01*
G01*
X256282Y456000D02*
G03*
X256282Y456000I-2032J0D01*
G01*
X242032Y455750D02*
G03*
X242032Y455750I-2032J0D01*
G01*
X237032Y459250D02*
G03*
X237032Y459250I-2032J0D01*
G01*
X239032Y404500D02*
G03*
X239032Y404500I-2032J0D01*
G01*
X232782Y455750D02*
G03*
X232782Y455750I-2032J0D01*
G01*
X236532Y464750D02*
G03*
X236532Y464750I-2032J0D01*
G01*
X231032Y465000D02*
G03*
X231032Y465000I-2032J0D01*
G01*
X216532Y456500D02*
G03*
X216532Y456500I-2032J0D01*
G01*
X212032Y459500D02*
G03*
X212032Y459500I-2032J0D01*
G01*
X207782Y456750D02*
G03*
X207782Y456750I-2032J0D01*
G01*
X167032Y459250D02*
G03*
X167032Y459250I-2032J0D01*
G01*
X152282Y459000D02*
G03*
X152282Y459000I-2032J0D01*
G01*
X125032Y400000D02*
G03*
X125032Y400000I-2032J0D01*
G01*
X146032Y424000D02*
G03*
X146032Y424000I-2032J0D01*
G01*
X141032Y419250D02*
G03*
X141032Y419250I-2032J0D01*
G01*
X135532Y414000D02*
G03*
X135532Y414000I-2032J0D01*
G01*
X128782Y409250D02*
G03*
X128782Y409250I-2032J0D01*
G01*
X89782Y339250D02*
G03*
X89782Y339250I-2032J0D01*
G01*
X85282Y344250D02*
G03*
X85282Y344250I-2032J0D01*
G01*
X95782Y333500D02*
G03*
X95782Y333500I-2032J0D01*
G01*
X100782Y329250D02*
G03*
X100782Y329250I-2032J0D01*
G01*
X95532Y379500D02*
G03*
X95532Y379500I-2032J0D01*
G01*
X85282Y430500D02*
G03*
X85282Y430500I-2032J0D01*
G01*
X54532Y405250D02*
G03*
X54532Y405250I-2032J0D01*
G01*
X53532Y420000D02*
G03*
X53532Y420000I-2032J0D01*
G01*
X82282Y446750D02*
G03*
X82282Y446750I-2032J0D01*
G01*
X86532Y415750D02*
G03*
X86532Y415750I-2032J0D01*
G01*
X85282Y402000D02*
G03*
X85282Y402000I-2032J0D01*
G01*
X52782Y456500D02*
G03*
X52782Y456500I-2032J0D01*
G01*
X52282Y442250D02*
G03*
X52282Y442250I-2032J0D01*
G01*
X133782Y354250D02*
G03*
X133782Y354250I-2032J0D01*
G01*
X192282Y221750D02*
G03*
X192282Y221750I-2032J0D01*
G01*
X253532Y248500D02*
G03*
X253532Y248500I-2032J0D01*
G01*
X302032Y320250D02*
G03*
X302032Y320250I-2032J0D01*
G01*
X302532Y359500D02*
G03*
X302532Y359500I-2032J0D01*
G01*
X79782Y514250D02*
G03*
X79782Y514250I-2032J0D01*
G01*
X63282D02*
G03*
X63282Y514250I-2032J0D01*
G01*
X369032Y477000D02*
G03*
X369032Y477000I-2032J0D01*
G01*
X375782Y335750D02*
G03*
X375782Y335750I-2032J0D01*
G01*
X247282Y212750D02*
G03*
X247282Y212750I-2032J0D01*
G01*
X258282Y173500D02*
G03*
X258282Y173500I-2032J0D01*
G01*
X99282Y419000D02*
G03*
X99282Y419000I-2032J0D01*
G01*
X23282Y334750D02*
G03*
X23282Y334750I-2032J0D01*
G01*
X85782Y306250D02*
G03*
X85782Y306250I-2032J0D01*
G01*
X228532Y471750D02*
G03*
X228532Y471750I-2032J0D01*
G01*
X101032D02*
G03*
X101032Y471750I-2032J0D01*
G01*
X199282Y434500D02*
G03*
X199282Y434500I-2032J0D01*
G01*
X251532Y436000D02*
G03*
X251532Y436000I-2032J0D01*
G01*
X87782Y75000D02*
G03*
X87782Y75000I-2032J0D01*
G01*
X165903Y148313D02*
G03*
X165903Y148313I-2032J0D01*
G01*
X171782Y120500D02*
G03*
X171782Y120500I-2032J0D01*
G01*
X376282Y289000D02*
G03*
X376282Y289000I-2032J0D01*
G01*
X309032Y303250D02*
G03*
X309032Y303250I-2032J0D01*
G01*
X140782Y167500D02*
G03*
X140782Y167500I-2032J0D01*
G01*
X46782Y155350D02*
G03*
X46782Y155350I-2032J0D01*
G01*
X106032Y153100D02*
G03*
X106032Y153100I-2032J0D01*
G01*
X103782Y164600D02*
G03*
X103782Y164600I-2032J0D01*
G01*
X125782Y166850D02*
G03*
X125782Y166850I-2032J0D01*
G01*
X105032Y146850D02*
G03*
X105032Y146850I-2032J0D01*
G01*
X312532Y317750D02*
G03*
X312532Y317750I-2032J0D01*
G01*
X301282Y312750D02*
G03*
X301282Y312750I-2032J0D01*
G01*
X375782Y304000D02*
G03*
X375782Y304000I-2032J0D01*
G01*
X301282Y368500D02*
G03*
X301282Y368500I-2032J0D01*
G01*
X53758Y346726D02*
G03*
X53758Y346726I-2032J0D01*
G01*
X40782Y474000D02*
G03*
X40782Y474000I-2032J0D01*
G01*
X368782Y68750D02*
G03*
X368782Y68750I-2032J0D01*
G01*
X368532Y131000D02*
G03*
X368532Y131000I-2032J0D01*
G01*
X346532Y129750D02*
G03*
X346532Y129750I-2032J0D01*
G01*
X368532Y121500D02*
G03*
X368532Y121500I-2032J0D01*
G01*
X348282Y114250D02*
G03*
X348282Y114250I-2032J0D01*
G01*
X370532Y105500D02*
G03*
X370532Y105500I-2032J0D01*
G01*
X368032Y83000D02*
G03*
X368032Y83000I-2032J0D01*
G01*
X362032Y62250D02*
G03*
X362032Y62250I-2032J0D01*
G01*
X352282D02*
G03*
X352282Y62250I-2032J0D01*
G01*
X347282D02*
G03*
X347282Y62250I-2032J0D01*
G01*
X273282Y65250D02*
G03*
X273282Y65250I-2032J0D01*
G01*
X265545Y114009D02*
G03*
X265545Y114009I-2032J0D01*
G01*
X224543Y128759D02*
G03*
X224543Y128759I-2032J0D01*
G01*
X248794Y91757D02*
G03*
X248794Y91757I-2032J0D01*
G01*
X222293Y143510D02*
G03*
X222293Y143510I-2032J0D01*
G01*
X265295Y98008D02*
G03*
X265295Y98008I-2032J0D01*
G01*
X265532Y90000D02*
G03*
X265532Y90000I-2032J0D01*
G01*
X266532Y138000D02*
G03*
X266532Y138000I-2032J0D01*
G01*
X213032Y389750D02*
G03*
X213032Y389750I-2032J0D01*
G01*
X187282Y406750D02*
G03*
X187282Y406750I-2032J0D01*
G01*
X148782Y487000D02*
G03*
X148782Y487000I-2032J0D01*
G01*
X329548Y97508D02*
G03*
X329548Y97508I-2032J0D01*
G01*
X132282Y486750D02*
G03*
X132282Y486750I-2032J0D01*
G01*
X157532Y424750D02*
G03*
X157532Y424750I-2032J0D01*
G01*
X281282Y97750D02*
G03*
X281282Y97750I-2032J0D01*
G01*
X376282Y242250D02*
G03*
X376282Y242250I-2032J0D01*
G01*
X338032Y81500D02*
G03*
X338032Y81500I-2032J0D01*
G01*
X329282D02*
G03*
X329282Y81500I-2032J0D01*
G01*
X312532Y226250D02*
G03*
X312532Y226250I-2032J0D01*
G01*
X329532Y73750D02*
G03*
X329532Y73750I-2032J0D01*
G01*
X329299Y121509D02*
G03*
X329299Y121509I-2032J0D01*
G01*
X313782Y50500D02*
G03*
X313782Y50500I-2032J0D01*
G01*
X321282Y89500D02*
G03*
X321282Y89500I-2032J0D01*
G01*
X140282Y136500D02*
G03*
X140282Y136500I-2032J0D01*
G01*
X337549Y89257D02*
G03*
X337549Y89257I-2032J0D01*
G01*
X204032Y493000D02*
G03*
X204032Y493000I-2032J0D01*
G01*
X329532Y89250D02*
G03*
X329532Y89250I-2032J0D01*
G01*
X171782Y493500D02*
G03*
X171782Y493500I-2032J0D01*
G01*
X311548Y133009D02*
G03*
X311548Y133009I-2032J0D01*
G01*
X188032Y492750D02*
G03*
X188032Y492750I-2032J0D01*
G01*
X273282Y89500D02*
G03*
X273282Y89500I-2032J0D01*
G01*
X323782Y48250D02*
G03*
X323782Y48250I-2032J0D01*
G01*
X193282Y174250D02*
G03*
X193282Y174250I-2032J0D01*
G01*
X206782Y174000D02*
G03*
X206782Y174000I-2032J0D01*
G01*
X183282Y174750D02*
G03*
X183282Y174750I-2032J0D01*
G01*
X273532Y81500D02*
G03*
X273532Y81500I-2032J0D01*
G01*
X169782Y174500D02*
G03*
X169782Y174500I-2032J0D01*
G01*
X154032D02*
G03*
X154032Y174500I-2032J0D01*
G01*
X264532Y81000D02*
G03*
X264532Y81000I-2032J0D01*
G01*
X265045Y64756D02*
G03*
X265045Y64756I-2032J0D01*
G01*
X289532Y89750D02*
G03*
X289532Y89750I-2032J0D01*
G01*
X284384Y36500D02*
G03*
X284384Y36500I-2032J0D01*
G01*
X281546Y89507D02*
G03*
X281546Y89507I-2032J0D01*
G01*
X276385Y24000D02*
G03*
X276385Y24000I-2032J0D01*
G01*
X281282Y73750D02*
G03*
X281282Y73750I-2032J0D01*
G01*
X273282D02*
G03*
X273282Y73750I-2032J0D01*
G01*
X138032Y174000D02*
G03*
X138032Y174000I-2032J0D01*
G01*
X122532Y174250D02*
G03*
X122532Y174250I-2032J0D01*
G01*
X91032Y176250D02*
G03*
X91032Y176250I-2032J0D01*
G01*
X52782Y363500D02*
G03*
X52782Y363500I-2032J0D01*
G01*
X307032Y62500D02*
G03*
X307032Y62500I-2032J0D01*
G01*
X54282Y379250D02*
G03*
X54282Y379250I-2032J0D01*
G01*
X296032Y62500D02*
G03*
X296032Y62500I-2032J0D01*
G01*
X329532Y65500D02*
G03*
X329532Y65500I-2032J0D01*
G01*
X337549Y73257D02*
G03*
X337549Y73257I-2032J0D01*
G01*
X332469Y150000D02*
G03*
X332469Y150000I-2032J0D01*
G01*
X334282Y145000D02*
G03*
X334282Y145000I-2032J0D01*
G01*
X281532Y129750D02*
G03*
X281532Y129750I-2032J0D01*
G01*
X268282Y174500D02*
G03*
X268282Y174500I-2032J0D01*
G01*
X282282Y174000D02*
G03*
X282282Y174000I-2032J0D01*
G01*
X247282Y116000D02*
G03*
X247282Y116000I-2032J0D01*
G01*
X255782Y118250D02*
G03*
X255782Y118250I-2032J0D01*
G01*
X321782Y113750D02*
G03*
X321782Y113750I-2032J0D01*
G01*
X233532Y174000D02*
G03*
X233532Y174000I-2032J0D01*
G01*
X329282Y113500D02*
G03*
X329282Y113500I-2032J0D01*
G01*
X408302Y359021D02*
G03*
X408302Y359021I-2032J0D01*
G01*
X411782Y374000D02*
G03*
X411782Y374000I-2032J0D01*
G01*
X321532Y129500D02*
G03*
X321532Y129500I-2032J0D01*
G01*
X321282Y121250D02*
G03*
X321282Y121250I-2032J0D01*
G01*
X329532Y129500D02*
G03*
X329532Y129500I-2032J0D01*
G01*
X329032Y137500D02*
G03*
X329032Y137500I-2032J0D01*
G01*
X321032Y105500D02*
G03*
X321032Y105500I-2032J0D01*
G01*
X290032Y105250D02*
G03*
X290032Y105250I-2032J0D01*
G01*
X281282Y113750D02*
G03*
X281282Y113750I-2032J0D01*
G01*
X290032Y113000D02*
G03*
X290032Y113000I-2032J0D01*
G01*
X281296Y121259D02*
G03*
X281296Y121259I-2032J0D01*
G01*
M02*
