G04*
G04 #@! TF.GenerationSoftware,Altium Limited,Altium Designer,19.1.9 (167)*
G04*
G04 Layer_Physical_Order=2*
G04 Layer_Color=32768*
%FSLAX44Y44*%
%MOMM*%
G71*
G01*
G75*
%ADD30C,0.0025*%
%ADD31C,1.2000*%
%ADD32C,0.6500*%
%ADD33C,0.9000*%
D30*
X0Y530000D02*
X420000D01*
X0Y0D02*
Y530000D01*
Y0D02*
X420000D01*
Y530000D01*
D31*
X0Y510000D02*
D03*
X155000Y0D02*
D03*
X140000D02*
D03*
X0Y120000D02*
D03*
Y240000D02*
D03*
Y345000D02*
D03*
Y330000D02*
D03*
Y315000D02*
D03*
Y300000D02*
D03*
Y285000D02*
D03*
Y270000D02*
D03*
Y225000D02*
D03*
Y210000D02*
D03*
Y195000D02*
D03*
Y180000D02*
D03*
Y165000D02*
D03*
Y150000D02*
D03*
Y105000D02*
D03*
Y90000D02*
D03*
Y75000D02*
D03*
Y60000D02*
D03*
Y45000D02*
D03*
Y30000D02*
D03*
X20000Y0D02*
D03*
X110000D02*
D03*
X0Y435000D02*
D03*
X420000Y225000D02*
D03*
Y255000D02*
D03*
Y270000D02*
D03*
Y300000D02*
D03*
Y315000D02*
D03*
Y345000D02*
D03*
Y375000D02*
D03*
Y390000D02*
D03*
Y405000D02*
D03*
Y420000D02*
D03*
Y330000D02*
D03*
X380000Y530000D02*
D03*
X365000D02*
D03*
X350000D02*
D03*
X335000D02*
D03*
X290000D02*
D03*
X260000D02*
D03*
X245000D02*
D03*
X230000D02*
D03*
X215000D02*
D03*
X200000D02*
D03*
X185000D02*
D03*
X20000D02*
D03*
X35000D02*
D03*
X80000D02*
D03*
X95000D02*
D03*
X110000D02*
D03*
X125000D02*
D03*
X140000D02*
D03*
X170000D02*
D03*
X420000Y510000D02*
D03*
Y495000D02*
D03*
Y480000D02*
D03*
Y465000D02*
D03*
Y450000D02*
D03*
Y210000D02*
D03*
Y195000D02*
D03*
Y180000D02*
D03*
X0Y495000D02*
D03*
Y480000D02*
D03*
Y465000D02*
D03*
Y450000D02*
D03*
Y420000D02*
D03*
Y405000D02*
D03*
Y390000D02*
D03*
Y375000D02*
D03*
D32*
X104250Y383750D02*
D03*
X92708Y230650D02*
D03*
X97000Y302250D02*
D03*
X87250Y382250D02*
D03*
Y369500D02*
D03*
X161000Y248250D02*
D03*
X319516Y65503D02*
D03*
X321500Y22500D02*
D03*
X204010Y39502D02*
D03*
X114750Y214500D02*
D03*
X43250Y206750D02*
D03*
X68500Y229750D02*
D03*
X33500Y335750D02*
D03*
X171000Y418250D02*
D03*
X158750Y497250D02*
D03*
X164250Y430250D02*
D03*
X85000Y228000D02*
D03*
X194500Y336250D02*
D03*
X50750Y259250D02*
D03*
X115250Y241750D02*
D03*
X131750Y250000D02*
D03*
X129756Y268513D02*
D03*
X123750Y260500D02*
D03*
X186250Y285500D02*
D03*
X208500Y292750D02*
D03*
X115250Y248750D02*
D03*
X149250D02*
D03*
Y254500D02*
D03*
X160500Y258250D02*
D03*
X168500Y251750D02*
D03*
X155500Y269750D02*
D03*
X179009Y279264D02*
D03*
X219250Y295000D02*
D03*
X310250Y145250D02*
D03*
X287750Y120750D02*
D03*
X325750Y227750D02*
D03*
X381250Y186000D02*
D03*
X216000Y300500D02*
D03*
X225250Y304750D02*
D03*
X399500Y255750D02*
D03*
X390250Y257750D02*
D03*
X352750D02*
D03*
X390000Y252000D02*
D03*
X345500Y257000D02*
D03*
X389750Y244750D02*
D03*
X390000Y237000D02*
D03*
X389250Y287750D02*
D03*
X389000Y272250D02*
D03*
X333500Y326750D02*
D03*
X334000Y333000D02*
D03*
X374250Y272750D02*
D03*
X335500Y264500D02*
D03*
X332250Y269250D02*
D03*
X359250Y319750D02*
D03*
X400250Y299750D02*
D03*
X372750Y382500D02*
D03*
X306750Y464250D02*
D03*
X269250Y459000D02*
D03*
X277500Y484000D02*
D03*
X238500Y478000D02*
D03*
X333250Y407500D02*
D03*
X334250Y414500D02*
D03*
X390929Y390429D02*
D03*
X392250Y396250D02*
D03*
Y401750D02*
D03*
X368768Y414270D02*
D03*
X331500Y364750D02*
D03*
X335250Y399000D02*
D03*
X331500Y394250D02*
D03*
X334750Y389250D02*
D03*
X331500Y384250D02*
D03*
X335000Y379500D02*
D03*
X331500Y374250D02*
D03*
X336000Y370000D02*
D03*
X213750Y399000D02*
D03*
X149250Y371000D02*
D03*
X336750Y505750D02*
D03*
X301500Y466000D02*
D03*
X296500Y467000D02*
D03*
X316000Y463750D02*
D03*
X258750Y459250D02*
D03*
X263013Y456272D02*
D03*
X254250Y456000D02*
D03*
X240000Y455750D02*
D03*
X235000Y459250D02*
D03*
X237000Y404500D02*
D03*
X230750Y455750D02*
D03*
X234500Y464750D02*
D03*
X229000Y465000D02*
D03*
X214500Y456500D02*
D03*
X210000Y459500D02*
D03*
X205750Y456750D02*
D03*
X165000Y459250D02*
D03*
X150250Y459000D02*
D03*
X123000Y400000D02*
D03*
X144000Y424000D02*
D03*
X139000Y419250D02*
D03*
X133500Y414000D02*
D03*
X126750Y409250D02*
D03*
X87750Y339250D02*
D03*
X83250Y344250D02*
D03*
X93750Y333500D02*
D03*
X98750Y329250D02*
D03*
X93500Y379500D02*
D03*
X83250Y430500D02*
D03*
X52500Y405250D02*
D03*
X51500Y420000D02*
D03*
X80250Y446750D02*
D03*
X84500Y415750D02*
D03*
X83250Y402000D02*
D03*
X50750Y456500D02*
D03*
X50250Y442250D02*
D03*
X77750Y514250D02*
D03*
X367000Y477000D02*
D03*
X373750Y335750D02*
D03*
X245250Y212750D02*
D03*
X256250Y173500D02*
D03*
X97250Y419000D02*
D03*
X226500Y471750D02*
D03*
X99000D02*
D03*
X169750Y120500D02*
D03*
X374250Y289000D02*
D03*
X307000Y303250D02*
D03*
X138750Y167500D02*
D03*
X44750Y155350D02*
D03*
X104000Y153100D02*
D03*
X101750Y164600D02*
D03*
X123750Y166850D02*
D03*
X103000Y146850D02*
D03*
X310500Y317750D02*
D03*
X299250Y312750D02*
D03*
X373750Y304000D02*
D03*
X299250Y368500D02*
D03*
X51726Y346726D02*
D03*
X38750Y474000D02*
D03*
X366750Y68750D02*
D03*
X366500Y131000D02*
D03*
Y121500D02*
D03*
X368500Y105500D02*
D03*
X366000Y83000D02*
D03*
X360000Y62250D02*
D03*
X350250D02*
D03*
X345250D02*
D03*
X222511Y128759D02*
D03*
X246763Y91757D02*
D03*
X220261Y143510D02*
D03*
X211000Y389750D02*
D03*
X185250Y406750D02*
D03*
X146750Y487000D02*
D03*
X327517Y97508D02*
D03*
X130250Y486750D02*
D03*
X155500Y424750D02*
D03*
X279250Y97750D02*
D03*
X374250Y242250D02*
D03*
X336000Y81500D02*
D03*
X327250D02*
D03*
X310500Y226250D02*
D03*
X327500Y73750D02*
D03*
X327267Y121509D02*
D03*
X311750Y50500D02*
D03*
X319250Y89500D02*
D03*
X138250Y136500D02*
D03*
X335517Y89257D02*
D03*
X202000Y493000D02*
D03*
X327500Y89250D02*
D03*
X169750Y493500D02*
D03*
X309516Y133009D02*
D03*
X186000Y492750D02*
D03*
X271250Y89500D02*
D03*
X321750Y48250D02*
D03*
X191250Y174250D02*
D03*
X204750Y174000D02*
D03*
X181250Y174750D02*
D03*
X271500Y81500D02*
D03*
X167750Y174500D02*
D03*
X152000D02*
D03*
X262500Y81000D02*
D03*
X263013Y64756D02*
D03*
X287500Y89750D02*
D03*
X282353Y36500D02*
D03*
X279514Y89507D02*
D03*
X274352Y24000D02*
D03*
X279250Y73750D02*
D03*
X271250D02*
D03*
X136000Y174000D02*
D03*
X120500Y174250D02*
D03*
X89000Y176250D02*
D03*
X50750Y363500D02*
D03*
X305000Y62500D02*
D03*
X52250Y379250D02*
D03*
X294000Y62500D02*
D03*
X327500Y65500D02*
D03*
X335517Y73257D02*
D03*
X330438Y150000D02*
D03*
X332250Y145000D02*
D03*
X279500Y129750D02*
D03*
X266250Y174500D02*
D03*
X280250Y174000D02*
D03*
X245250Y116000D02*
D03*
X253750Y118250D02*
D03*
X319750Y113750D02*
D03*
X231500Y174000D02*
D03*
X327250Y113500D02*
D03*
X406270Y359021D02*
D03*
X409750Y374000D02*
D03*
X319500Y129500D02*
D03*
X319250Y121250D02*
D03*
X327500Y129500D02*
D03*
X327000Y137500D02*
D03*
X319000Y105500D02*
D03*
X288000Y105250D02*
D03*
X279250Y113750D02*
D03*
X288000Y113000D02*
D03*
X279264Y121259D02*
D03*
D33*
X117500Y36750D02*
D03*
X34750Y89250D02*
D03*
M02*
