G04*
G04 #@! TF.GenerationSoftware,Altium Limited,Altium Designer,19.1.9 (167)*
G04*
G04 Layer_Color=128*
%FSLAX44Y44*%
%MOMM*%
G71*
G01*
G75*
%ADD34C,0.0508*%
D34*
X-3500Y510000D02*
X3500D01*
X0Y506500D02*
Y513500D01*
X151500Y0D02*
X158500D01*
X155000Y-3500D02*
Y3500D01*
X136500Y0D02*
X143500D01*
X140000Y-3500D02*
Y3500D01*
X416500Y60000D02*
X423500D01*
X420000Y56500D02*
Y63500D01*
X-3500Y120000D02*
X3500D01*
X0Y116500D02*
Y123500D01*
X-3500Y240000D02*
X3500D01*
X0Y236500D02*
Y243500D01*
X-3500Y345000D02*
X3500D01*
X0Y341500D02*
Y348500D01*
X-3500Y360000D02*
X3500D01*
X0Y356500D02*
Y363500D01*
X-3500Y330000D02*
X3500D01*
X0Y326500D02*
Y333500D01*
X-3500Y315000D02*
X3500D01*
X0Y311500D02*
Y318500D01*
X-3500Y300000D02*
X3500D01*
X0Y296500D02*
Y303500D01*
X-3500Y285000D02*
X3500D01*
X0Y281500D02*
Y288500D01*
X-3500Y270000D02*
X3500D01*
X0Y266500D02*
Y273500D01*
X-3500Y255000D02*
X3500D01*
X0Y251500D02*
Y258500D01*
X-3500Y225000D02*
X3500D01*
X0Y221500D02*
Y228500D01*
X-3500Y210000D02*
X3500D01*
X0Y206500D02*
Y213500D01*
X-3500Y195000D02*
X3500D01*
X0Y191500D02*
Y198500D01*
X-3500Y180000D02*
X3500D01*
X0Y176500D02*
Y183500D01*
X-3500Y165000D02*
X3500D01*
X0Y161500D02*
Y168500D01*
X-3500Y150000D02*
X3500D01*
X0Y146500D02*
Y153500D01*
X-3500Y135000D02*
X3500D01*
X0Y131500D02*
Y138500D01*
X-3500Y105000D02*
X3500D01*
X0Y101500D02*
Y108500D01*
X-3500Y90000D02*
X3500D01*
X0Y86500D02*
Y93500D01*
X-3500Y75000D02*
X3500D01*
X0Y71500D02*
Y78500D01*
X-3500Y60000D02*
X3500D01*
X0Y56500D02*
Y63500D01*
X-3500Y45000D02*
X3500D01*
X0Y41500D02*
Y48500D01*
X-3500Y30000D02*
X3500D01*
X0Y26500D02*
Y33500D01*
X16500Y0D02*
X23500D01*
X20000Y-3500D02*
Y3500D01*
X46500Y0D02*
X53500D01*
X50000Y-3500D02*
Y3500D01*
X106500Y0D02*
X113500D01*
X110000Y-3500D02*
Y3500D01*
X76500Y0D02*
X83500D01*
X80000Y-3500D02*
Y3500D01*
X211500Y0D02*
X218500D01*
X215000Y-3500D02*
Y3500D01*
X181500Y0D02*
X188500D01*
X185000Y-3500D02*
Y3500D01*
X-3500Y435000D02*
X3500D01*
X0Y431500D02*
Y438500D01*
X416500Y135000D02*
X423500D01*
X420000Y131500D02*
Y138500D01*
X416500Y225000D02*
X423500D01*
X420000Y221500D02*
Y228500D01*
X416500Y255000D02*
X423500D01*
X420000Y251500D02*
Y258500D01*
X416500Y270000D02*
X423500D01*
X420000Y266500D02*
Y273500D01*
X416500Y300000D02*
X423500D01*
X420000Y296500D02*
Y303500D01*
X416500Y315000D02*
X423500D01*
X420000Y311500D02*
Y318500D01*
X416500Y345000D02*
X423500D01*
X420000Y341500D02*
Y348500D01*
X416500Y375000D02*
X423500D01*
X420000Y371500D02*
Y378500D01*
X416500Y390000D02*
X423500D01*
X420000Y386500D02*
Y393500D01*
X416500Y405000D02*
X423500D01*
X420000Y401500D02*
Y408500D01*
X416500Y420000D02*
X423500D01*
X420000Y416500D02*
Y423500D01*
X416500Y330000D02*
X423500D01*
X420000Y326500D02*
Y333500D01*
X391500Y530000D02*
X398500D01*
X395000Y526500D02*
Y533500D01*
X376500Y530000D02*
X383500D01*
X380000Y526500D02*
Y533500D01*
X361500Y530000D02*
X368500D01*
X365000Y526500D02*
Y533500D01*
X346500Y530000D02*
X353500D01*
X350000Y526500D02*
Y533500D01*
X331500Y530000D02*
X338500D01*
X335000Y526500D02*
Y533500D01*
X301500Y530000D02*
X308500D01*
X305000Y526500D02*
Y533500D01*
X286500Y530000D02*
X293500D01*
X290000Y526500D02*
Y533500D01*
X256500Y530000D02*
X263500D01*
X260000Y526500D02*
Y533500D01*
X241500Y530000D02*
X248500D01*
X245000Y526500D02*
Y533500D01*
X226500Y530000D02*
X233500D01*
X230000Y526500D02*
Y533500D01*
X211500Y530000D02*
X218500D01*
X215000Y526500D02*
Y533500D01*
X196500Y530000D02*
X203500D01*
X200000Y526500D02*
Y533500D01*
X181500Y530000D02*
X188500D01*
X185000Y526500D02*
Y533500D01*
X16500Y530000D02*
X23500D01*
X20000Y526500D02*
Y533500D01*
X31500Y530000D02*
X38500D01*
X35000Y526500D02*
Y533500D01*
X46500Y530000D02*
X53500D01*
X50000Y526500D02*
Y533500D01*
X76500Y530000D02*
X83500D01*
X80000Y526500D02*
Y533500D01*
X91500Y530000D02*
X98500D01*
X95000Y526500D02*
Y533500D01*
X106500Y530000D02*
X113500D01*
X110000Y526500D02*
Y533500D01*
X121500Y530000D02*
X128500D01*
X125000Y526500D02*
Y533500D01*
X136500Y530000D02*
X143500D01*
X140000Y526500D02*
Y533500D01*
X166500Y530000D02*
X173500D01*
X170000Y526500D02*
Y533500D01*
X416500Y510000D02*
X423500D01*
X420000Y506500D02*
Y513500D01*
X416500Y495000D02*
X423500D01*
X420000Y491500D02*
Y498500D01*
X416500Y480000D02*
X423500D01*
X420000Y476500D02*
Y483500D01*
X416500Y465000D02*
X423500D01*
X420000Y461500D02*
Y468500D01*
X416500Y450000D02*
X423500D01*
X420000Y446500D02*
Y453500D01*
X416500Y210000D02*
X423500D01*
X420000Y206500D02*
Y213500D01*
X416500Y195000D02*
X423500D01*
X420000Y191500D02*
Y198500D01*
X416500Y180000D02*
X423500D01*
X420000Y176500D02*
Y183500D01*
X416500Y150000D02*
X423500D01*
X420000Y146500D02*
Y153500D01*
X-3500Y495000D02*
X3500D01*
X0Y491500D02*
Y498500D01*
X-3500Y480000D02*
X3500D01*
X0Y476500D02*
Y483500D01*
X-3500Y465000D02*
X3500D01*
X0Y461500D02*
Y468500D01*
X-3500Y450000D02*
X3500D01*
X0Y446500D02*
Y453500D01*
X391500Y0D02*
X398500D01*
X395000Y-3500D02*
Y3500D01*
X361500Y0D02*
X368500D01*
X365000Y-3500D02*
Y3500D01*
X-3500Y420000D02*
X3500D01*
X0Y416500D02*
Y423500D01*
X-3500Y405000D02*
X3500D01*
X0Y401500D02*
Y408500D01*
X-3500Y390000D02*
X3500D01*
X0Y386500D02*
Y393500D01*
X-3500Y375000D02*
X3500D01*
X0Y371500D02*
Y378500D01*
X224000Y29750D02*
X225500D01*
X224750Y29000D02*
Y30500D01*
X317250Y8250D02*
X318750D01*
X318000Y7500D02*
Y9000D01*
X103500Y383750D02*
X105000D01*
X104250Y383000D02*
Y384500D01*
X16250Y422750D02*
X17750D01*
X17000Y422000D02*
Y423500D01*
X97250Y401250D02*
X98750D01*
X98000Y400500D02*
Y402000D01*
X91958Y230650D02*
X93458D01*
X92708Y229900D02*
Y231400D01*
X92250Y305750D02*
X93750D01*
X93000Y305000D02*
Y306500D01*
X84000Y285000D02*
X85500D01*
X84750Y284250D02*
Y285750D01*
X47250Y310750D02*
X48750D01*
X48000Y310000D02*
Y311500D01*
X47250Y335750D02*
X48750D01*
X48000Y335000D02*
Y336500D01*
X90754Y322266D02*
X92254D01*
X91504Y321516D02*
Y323016D01*
X96250Y302250D02*
X97750D01*
X97000Y301500D02*
Y303000D01*
Y386250D02*
X98500D01*
X97750Y385500D02*
Y387000D01*
X86500Y382250D02*
X88000D01*
X87250Y381500D02*
Y383000D01*
X86500Y369500D02*
X88000D01*
X87250Y368750D02*
Y370250D01*
X16000Y364500D02*
X17500D01*
X16750Y363750D02*
Y365250D01*
X135500Y247250D02*
X137000D01*
X136250Y246500D02*
Y248000D01*
X160250Y248250D02*
X161750D01*
X161000Y247500D02*
Y249000D01*
X318766Y65503D02*
X320266D01*
X319516Y64753D02*
Y66253D01*
X115500Y36750D02*
X119500D01*
X117500Y34750D02*
Y38750D01*
X320750Y22500D02*
X322250D01*
X321500Y21750D02*
Y23250D01*
X351000Y19750D02*
X352500D01*
X351750Y19000D02*
Y20500D01*
X350750Y28750D02*
X352250D01*
X351500Y28000D02*
Y29500D01*
X203260Y39502D02*
X204760D01*
X204010Y38752D02*
Y40252D01*
X337750Y47000D02*
X339250D01*
X338500Y46250D02*
Y47750D01*
X202000Y128750D02*
X203500D01*
X202750Y128000D02*
Y129500D01*
X286750Y137500D02*
X288250D01*
X287500Y136750D02*
Y138250D01*
X114000Y214500D02*
X115500D01*
X114750Y213750D02*
Y215250D01*
X42500Y206750D02*
X44000D01*
X43250Y206000D02*
Y207500D01*
X67750Y229750D02*
X69250D01*
X68500Y229000D02*
Y230500D01*
X54000Y229750D02*
X55500D01*
X54750Y229000D02*
Y230500D01*
X32750Y335750D02*
X34250D01*
X33500Y335000D02*
Y336500D01*
X90250Y481000D02*
X91750D01*
X91000Y480250D02*
Y481750D01*
X241250Y495000D02*
X242750D01*
X242000Y494250D02*
Y495750D01*
X221750Y479000D02*
X223250D01*
X222500Y478250D02*
Y479750D01*
X391750Y471250D02*
X393250D01*
X392500Y470500D02*
Y472000D01*
X391500Y454000D02*
X393000D01*
X392250Y453250D02*
Y454750D01*
X374000Y349000D02*
X375500D01*
X374750Y348250D02*
Y349750D01*
X170250Y418250D02*
X171750D01*
X171000Y417500D02*
Y419000D01*
X158000Y497250D02*
X159500D01*
X158750Y496500D02*
Y498000D01*
X163500Y430250D02*
X165000D01*
X164250Y429500D02*
Y431000D01*
X87750Y55500D02*
X89250D01*
X88500Y54750D02*
Y56250D01*
X102750Y55000D02*
X104250D01*
X103500Y54250D02*
Y55750D01*
X49750Y51500D02*
X51250D01*
X50500Y50750D02*
Y52250D01*
X50250Y69000D02*
X51750D01*
X51000Y68250D02*
Y69750D01*
X375250Y183500D02*
X376750D01*
X376000Y182750D02*
Y184250D01*
X225250Y40750D02*
X226750D01*
X226000Y40000D02*
Y41500D01*
X189500Y62750D02*
X191000D01*
X190250Y62000D02*
Y63500D01*
X387250Y91500D02*
X388750D01*
X388000Y90750D02*
Y92250D01*
X384250Y80000D02*
X385750D01*
X385000Y79250D02*
Y80750D01*
X383000Y64250D02*
X384500D01*
X383750Y63500D02*
Y65000D01*
X381000Y49500D02*
X382500D01*
X381750Y48750D02*
Y50250D01*
X378000Y143000D02*
X379500D01*
X378750Y142250D02*
Y143750D01*
X368500Y143000D02*
X370000D01*
X369250Y142250D02*
Y143750D01*
X236750Y177250D02*
X238250D01*
X237500Y176500D02*
Y178000D01*
X32750Y89250D02*
X36750D01*
X34750Y87250D02*
Y91250D01*
X43000Y175250D02*
X44500D01*
X43750Y174500D02*
Y176000D01*
X84250Y228000D02*
X85750D01*
X85000Y227250D02*
Y228750D01*
X111750Y191000D02*
X113250D01*
X112500Y190250D02*
Y191750D01*
X193750Y336250D02*
X195250D01*
X194500Y335500D02*
Y337000D01*
X50000Y259250D02*
X51500D01*
X50750Y258500D02*
Y260000D01*
X114500Y241750D02*
X116000D01*
X115250Y241000D02*
Y242500D01*
X131000Y250000D02*
X132500D01*
X131750Y249250D02*
Y250750D01*
X129006Y268513D02*
X130506D01*
X129756Y267763D02*
Y269263D01*
X123000Y260500D02*
X124500D01*
X123750Y259750D02*
Y261250D01*
X127000Y283250D02*
X128500D01*
X127750Y282500D02*
Y284000D01*
X185500Y285500D02*
X187000D01*
X186250Y284750D02*
Y286250D01*
X207750Y292750D02*
X209250D01*
X208500Y292000D02*
Y293500D01*
X114500Y248750D02*
X116000D01*
X115250Y248000D02*
Y249500D01*
X148500Y248750D02*
X150000D01*
X149250Y248000D02*
Y249500D01*
X148500Y254500D02*
X150000D01*
X149250Y253750D02*
Y255250D01*
X159750Y258250D02*
X161250D01*
X160500Y257500D02*
Y259000D01*
X167750Y251750D02*
X169250D01*
X168500Y251000D02*
Y252500D01*
X154750Y269750D02*
X156250D01*
X155500Y269000D02*
Y270500D01*
X178259Y279264D02*
X179759D01*
X179009Y278514D02*
Y280014D01*
X218500Y295000D02*
X220000D01*
X219250Y294250D02*
Y295750D01*
X309500Y145250D02*
X311000D01*
X310250Y144500D02*
Y146000D01*
X287000Y120750D02*
X288500D01*
X287750Y120000D02*
Y121500D01*
X325000Y227750D02*
X326500D01*
X325750Y227000D02*
Y228500D01*
X380500Y186000D02*
X382000D01*
X381250Y185250D02*
Y186750D01*
X215250Y300500D02*
X216750D01*
X216000Y299750D02*
Y301250D01*
X224500Y304750D02*
X226000D01*
X225250Y304000D02*
Y305500D01*
X398750Y255750D02*
X400250D01*
X399500Y255000D02*
Y256500D01*
X389500Y257750D02*
X391000D01*
X390250Y257000D02*
Y258500D01*
X352000Y257750D02*
X353500D01*
X352750Y257000D02*
Y258500D01*
X389250Y252000D02*
X390750D01*
X390000Y251250D02*
Y252750D01*
X344750Y257000D02*
X346250D01*
X345500Y256250D02*
Y257750D01*
X389000Y244750D02*
X390500D01*
X389750Y244000D02*
Y245500D01*
X389250Y237000D02*
X390750D01*
X390000Y236250D02*
Y237750D01*
X388500Y287750D02*
X390000D01*
X389250Y287000D02*
Y288500D01*
X388250Y272250D02*
X389750D01*
X389000Y271500D02*
Y273000D01*
X332750Y326750D02*
X334250D01*
X333500Y326000D02*
Y327500D01*
X333250Y333000D02*
X334750D01*
X334000Y332250D02*
Y333750D01*
X373500Y272750D02*
X375000D01*
X374250Y272000D02*
Y273500D01*
X334750Y264500D02*
X336250D01*
X335500Y263750D02*
Y265250D01*
X331500Y269250D02*
X333000D01*
X332250Y268500D02*
Y270000D01*
X358500Y319750D02*
X360000D01*
X359250Y319000D02*
Y320500D01*
X399500Y299750D02*
X401000D01*
X400250Y299000D02*
Y300500D01*
X372000Y382500D02*
X373500D01*
X372750Y381750D02*
Y383250D01*
X306000Y464250D02*
X307500D01*
X306750Y463500D02*
Y465000D01*
X268500Y459000D02*
X270000D01*
X269250Y458250D02*
Y459750D01*
X276750Y484000D02*
X278250D01*
X277500Y483250D02*
Y484750D01*
X237750Y478000D02*
X239250D01*
X238500Y477250D02*
Y478750D01*
X332500Y407500D02*
X334000D01*
X333250Y406750D02*
Y408250D01*
X333500Y414500D02*
X335000D01*
X334250Y413750D02*
Y415250D01*
X390179Y390429D02*
X391679D01*
X390929Y389679D02*
Y391179D01*
X391500Y396250D02*
X393000D01*
X392250Y395500D02*
Y397000D01*
X391500Y401750D02*
X393000D01*
X392250Y401000D02*
Y402500D01*
X368018Y414270D02*
X369518D01*
X368768Y413520D02*
Y415020D01*
X330750Y364750D02*
X332250D01*
X331500Y364000D02*
Y365500D01*
X334500Y399000D02*
X336000D01*
X335250Y398250D02*
Y399750D01*
X330750Y394250D02*
X332250D01*
X331500Y393500D02*
Y395000D01*
X334000Y389250D02*
X335500D01*
X334750Y388500D02*
Y390000D01*
X330750Y384250D02*
X332250D01*
X331500Y383500D02*
Y385000D01*
X334250Y379500D02*
X335750D01*
X335000Y378750D02*
Y380250D01*
X330750Y374250D02*
X332250D01*
X331500Y373500D02*
Y375000D01*
X335250Y370000D02*
X336750D01*
X336000Y369250D02*
Y370750D01*
X331750Y435750D02*
X333250D01*
X332500Y435000D02*
Y436500D01*
X213000Y399000D02*
X214500D01*
X213750Y398250D02*
Y399750D01*
X148500Y371000D02*
X150000D01*
X149250Y370250D02*
Y371750D01*
X320250Y505250D02*
X321750D01*
X321000Y504500D02*
Y506000D01*
X336000Y505750D02*
X337500D01*
X336750Y505000D02*
Y506500D01*
X300750Y466000D02*
X302250D01*
X301500Y465250D02*
Y466750D01*
X295750Y467000D02*
X297250D01*
X296500Y466250D02*
Y467750D01*
X315250Y463750D02*
X316750D01*
X316000Y463000D02*
Y464500D01*
X258000Y459250D02*
X259500D01*
X258750Y458500D02*
Y460000D01*
X262263Y456272D02*
X263763D01*
X263013Y455522D02*
Y457022D01*
X253500Y456000D02*
X255000D01*
X254250Y455250D02*
Y456750D01*
X239250Y455750D02*
X240750D01*
X240000Y455000D02*
Y456500D01*
X234250Y459250D02*
X235750D01*
X235000Y458500D02*
Y460000D01*
X236250Y404500D02*
X237750D01*
X237000Y403750D02*
Y405250D01*
X230000Y455750D02*
X231500D01*
X230750Y455000D02*
Y456500D01*
X233750Y464750D02*
X235250D01*
X234500Y464000D02*
Y465500D01*
X228250Y465000D02*
X229750D01*
X229000Y464250D02*
Y465750D01*
X213750Y456500D02*
X215250D01*
X214500Y455750D02*
Y457250D01*
X209250Y459500D02*
X210750D01*
X210000Y458750D02*
Y460250D01*
X205000Y456750D02*
X206500D01*
X205750Y456000D02*
Y457500D01*
X164250Y459250D02*
X165750D01*
X165000Y458500D02*
Y460000D01*
X149500Y459000D02*
X151000D01*
X150250Y458250D02*
Y459750D01*
X122250Y400000D02*
X123750D01*
X123000Y399250D02*
Y400750D01*
X143250Y424000D02*
X144750D01*
X144000Y423250D02*
Y424750D01*
X138250Y419250D02*
X139750D01*
X139000Y418500D02*
Y420000D01*
X132750Y414000D02*
X134250D01*
X133500Y413250D02*
Y414750D01*
X126000Y409250D02*
X127500D01*
X126750Y408500D02*
Y410000D01*
X87000Y339250D02*
X88500D01*
X87750Y338500D02*
Y340000D01*
X82500Y344250D02*
X84000D01*
X83250Y343500D02*
Y345000D01*
X93000Y333500D02*
X94500D01*
X93750Y332750D02*
Y334250D01*
X98000Y329250D02*
X99500D01*
X98750Y328500D02*
Y330000D01*
X92750Y379500D02*
X94250D01*
X93500Y378750D02*
Y380250D01*
X82500Y430500D02*
X84000D01*
X83250Y429750D02*
Y431250D01*
X51750Y405250D02*
X53250D01*
X52500Y404500D02*
Y406000D01*
X50750Y420000D02*
X52250D01*
X51500Y419250D02*
Y420750D01*
X79500Y446750D02*
X81000D01*
X80250Y446000D02*
Y447500D01*
X83750Y415750D02*
X85250D01*
X84500Y415000D02*
Y416500D01*
X82500Y402000D02*
X84000D01*
X83250Y401250D02*
Y402750D01*
X50000Y456500D02*
X51500D01*
X50750Y455750D02*
Y457250D01*
X49500Y442250D02*
X51000D01*
X50250Y441500D02*
Y443000D01*
X131000Y354250D02*
X132500D01*
X131750Y353500D02*
Y355000D01*
X189500Y221750D02*
X191000D01*
X190250Y221000D02*
Y222500D01*
X250750Y248500D02*
X252250D01*
X251500Y247750D02*
Y249250D01*
X299250Y320250D02*
X300750D01*
X300000Y319500D02*
Y321000D01*
X299750Y359500D02*
X301250D01*
X300500Y358750D02*
Y360250D01*
X77000Y514250D02*
X78500D01*
X77750Y513500D02*
Y515000D01*
X60500Y514250D02*
X62000D01*
X61250Y513500D02*
Y515000D01*
X366250Y477000D02*
X367750D01*
X367000Y476250D02*
Y477750D01*
X373000Y335750D02*
X374500D01*
X373750Y335000D02*
Y336500D01*
X244500Y212750D02*
X246000D01*
X245250Y212000D02*
Y213500D01*
X255500Y173500D02*
X257000D01*
X256250Y172750D02*
Y174250D01*
X96500Y419000D02*
X98000D01*
X97250Y418250D02*
Y419750D01*
X20500Y334750D02*
X22000D01*
X21250Y334000D02*
Y335500D01*
X83000Y306250D02*
X84500D01*
X83750Y305500D02*
Y307000D01*
X225750Y471750D02*
X227250D01*
X226500Y471000D02*
Y472500D01*
X98250Y471750D02*
X99750D01*
X99000Y471000D02*
Y472500D01*
X196500Y434500D02*
X198000D01*
X197250Y433750D02*
Y435250D01*
X248750Y436000D02*
X250250D01*
X249500Y435250D02*
Y436750D01*
X85000Y75000D02*
X86500D01*
X85750Y74250D02*
Y75750D01*
X163121Y148313D02*
X164621D01*
X163871Y147563D02*
Y149063D01*
X169000Y120500D02*
X170500D01*
X169750Y119750D02*
Y121250D01*
X373500Y289000D02*
X375000D01*
X374250Y288250D02*
Y289750D01*
X306250Y303250D02*
X307750D01*
X307000Y302500D02*
Y304000D01*
X138000Y167500D02*
X139500D01*
X138750Y166750D02*
Y168250D01*
X44000Y155350D02*
X45500D01*
X44750Y154600D02*
Y156100D01*
X103250Y153100D02*
X104750D01*
X104000Y152350D02*
Y153850D01*
X101000Y164600D02*
X102500D01*
X101750Y163850D02*
Y165350D01*
X123000Y166850D02*
X124500D01*
X123750Y166100D02*
Y167600D01*
X102250Y146850D02*
X103750D01*
X103000Y146100D02*
Y147600D01*
X309750Y317750D02*
X311250D01*
X310500Y317000D02*
Y318500D01*
X298500Y312750D02*
X300000D01*
X299250Y312000D02*
Y313500D01*
X373000Y304000D02*
X374500D01*
X373750Y303250D02*
Y304750D01*
X298500Y368500D02*
X300000D01*
X299250Y367750D02*
Y369250D01*
X50976Y346726D02*
X52476D01*
X51726Y345976D02*
Y347476D01*
X38000Y474000D02*
X39500D01*
X38750Y473250D02*
Y474750D01*
X366000Y68750D02*
X367500D01*
X366750Y68000D02*
Y69500D01*
X365750Y131000D02*
X367250D01*
X366500Y130250D02*
Y131750D01*
X343750Y129750D02*
X345250D01*
X344500Y129000D02*
Y130500D01*
X365750Y121500D02*
X367250D01*
X366500Y120750D02*
Y122250D01*
X345500Y114250D02*
X347000D01*
X346250Y113500D02*
Y115000D01*
X367750Y105500D02*
X369250D01*
X368500Y104750D02*
Y106250D01*
X365250Y83000D02*
X366750D01*
X366000Y82250D02*
Y83750D01*
X359250Y62250D02*
X360750D01*
X360000Y61500D02*
Y63000D01*
X349500Y62250D02*
X351000D01*
X350250Y61500D02*
Y63000D01*
X344500Y62250D02*
X346000D01*
X345250Y61500D02*
Y63000D01*
X270500Y65250D02*
X272000D01*
X271250Y64500D02*
Y66000D01*
X262763Y114009D02*
X264263D01*
X263513Y113258D02*
Y114759D01*
X221761Y128759D02*
X223261D01*
X222511Y128009D02*
Y129509D01*
X246012Y91757D02*
X247512D01*
X246763Y91007D02*
Y92507D01*
X219511Y143510D02*
X221011D01*
X220261Y142760D02*
Y144260D01*
X262513Y98008D02*
X264013D01*
X263263Y97258D02*
Y98758D01*
X262750Y90000D02*
X264250D01*
X263500Y89250D02*
Y90750D01*
X263750Y138000D02*
X265250D01*
X264500Y137250D02*
Y138750D01*
X210250Y389750D02*
X211750D01*
X211000Y389000D02*
Y390500D01*
X184500Y406750D02*
X186000D01*
X185250Y406000D02*
Y407500D01*
X146000Y487000D02*
X147500D01*
X146750Y486250D02*
Y487750D01*
X326767Y97508D02*
X328266D01*
X327517Y96758D02*
Y98258D01*
X129500Y486750D02*
X131000D01*
X130250Y486000D02*
Y487500D01*
X154750Y424750D02*
X156250D01*
X155500Y424000D02*
Y425500D01*
X278500Y97750D02*
X280000D01*
X279250Y97000D02*
Y98500D01*
X373500Y242250D02*
X375000D01*
X374250Y241500D02*
Y243000D01*
X335250Y81500D02*
X336750D01*
X336000Y80750D02*
Y82250D01*
X326500Y81500D02*
X328000D01*
X327250Y80750D02*
Y82250D01*
X309750Y226250D02*
X311250D01*
X310500Y225500D02*
Y227000D01*
X326750Y73750D02*
X328250D01*
X327500Y73000D02*
Y74500D01*
X326516Y121509D02*
X328016D01*
X327267Y120759D02*
Y122259D01*
X311000Y50500D02*
X312500D01*
X311750Y49750D02*
Y51250D01*
X318500Y89500D02*
X320000D01*
X319250Y88750D02*
Y90250D01*
X137500Y136500D02*
X139000D01*
X138250Y135750D02*
Y137250D01*
X334767Y89257D02*
X336267D01*
X335517Y88507D02*
Y90007D01*
X201250Y493000D02*
X202750D01*
X202000Y492250D02*
Y493750D01*
X326750Y89250D02*
X328250D01*
X327500Y88500D02*
Y90000D01*
X169000Y493500D02*
X170500D01*
X169750Y492750D02*
Y494250D01*
X308766Y133009D02*
X310266D01*
X309516Y132260D02*
Y133759D01*
X185250Y492750D02*
X186750D01*
X186000Y492000D02*
Y493500D01*
X270500Y89500D02*
X272000D01*
X271250Y88750D02*
Y90250D01*
X321000Y48250D02*
X322500D01*
X321750Y47500D02*
Y49000D01*
X190500Y174250D02*
X192000D01*
X191250Y173500D02*
Y175000D01*
X204000Y174000D02*
X205500D01*
X204750Y173250D02*
Y174750D01*
X180500Y174750D02*
X182000D01*
X181250Y174000D02*
Y175500D01*
X270750Y81500D02*
X272250D01*
X271500Y80750D02*
Y82250D01*
X167000Y174500D02*
X168500D01*
X167750Y173750D02*
Y175250D01*
X151250Y174500D02*
X152750D01*
X152000Y173750D02*
Y175250D01*
X261750Y81000D02*
X263250D01*
X262500Y80250D02*
Y81750D01*
X262263Y64756D02*
X263763D01*
X263013Y64006D02*
Y65506D01*
X286750Y89750D02*
X288250D01*
X287500Y89000D02*
Y90500D01*
X281603Y36500D02*
X283102D01*
X282353Y35750D02*
Y37250D01*
X278764Y89507D02*
X280264D01*
X279514Y88757D02*
Y90257D01*
X273603Y24000D02*
X275103D01*
X274352Y23250D02*
Y24750D01*
X278500Y73750D02*
X280000D01*
X279250Y73000D02*
Y74500D01*
X270500Y73750D02*
X272000D01*
X271250Y73000D02*
Y74500D01*
X135250Y174000D02*
X136750D01*
X136000Y173250D02*
Y174750D01*
X119750Y174250D02*
X121250D01*
X120500Y173500D02*
Y175000D01*
X88250Y176250D02*
X89750D01*
X89000Y175500D02*
Y177000D01*
X50000Y363500D02*
X51500D01*
X50750Y362750D02*
Y364250D01*
X304250Y62500D02*
X305750D01*
X305000Y61750D02*
Y63250D01*
X51500Y379250D02*
X53000D01*
X52250Y378500D02*
Y380000D01*
X293250Y62500D02*
X294750D01*
X294000Y61750D02*
Y63250D01*
X326750Y65500D02*
X328250D01*
X327500Y64750D02*
Y66250D01*
X334767Y73257D02*
X336267D01*
X335517Y72506D02*
Y74007D01*
X329688Y150000D02*
X331188D01*
X330438Y149250D02*
Y150750D01*
X331500Y145000D02*
X333000D01*
X332250Y144250D02*
Y145750D01*
X278750Y129750D02*
X280250D01*
X279500Y129000D02*
Y130500D01*
X265500Y174500D02*
X267000D01*
X266250Y173750D02*
Y175250D01*
X279500Y174000D02*
X281000D01*
X280250Y173250D02*
Y174750D01*
X244500Y116000D02*
X246000D01*
X245250Y115250D02*
Y116750D01*
X253000Y118250D02*
X254500D01*
X253750Y117500D02*
Y119000D01*
X319000Y113750D02*
X320500D01*
X319750Y113000D02*
Y114500D01*
X230750Y174000D02*
X232250D01*
X231500Y173250D02*
Y174750D01*
X326500Y113500D02*
X328000D01*
X327250Y112750D02*
Y114250D01*
X405520Y359021D02*
X407020D01*
X406270Y358270D02*
Y359771D01*
X409000Y374000D02*
X410500D01*
X409750Y373250D02*
Y374750D01*
X318750Y129500D02*
X320250D01*
X319500Y128750D02*
Y130250D01*
X318500Y121250D02*
X320000D01*
X319250Y120500D02*
Y122000D01*
X326750Y129500D02*
X328250D01*
X327500Y128750D02*
Y130250D01*
X326250Y137500D02*
X327750D01*
X327000Y136750D02*
Y138250D01*
X318250Y105500D02*
X319750D01*
X319000Y104750D02*
Y106250D01*
X287250Y105250D02*
X288750D01*
X288000Y104500D02*
Y106000D01*
X278500Y113750D02*
X280000D01*
X279250Y113000D02*
Y114500D01*
X287250Y113000D02*
X288750D01*
X288000Y112250D02*
Y113750D01*
X278514Y121259D02*
X280014D01*
X279264Y120509D02*
Y122009D01*
M02*
