G04*
G04 #@! TF.GenerationSoftware,Altium Limited,Altium Designer,19.1.9 (167)*
G04*
G04 Layer_Color=16711833*
%FSLAX44Y44*%
%MOMM*%
G71*
G01*
G75*
%ADD11C,0.2000*%
G36*
X21082Y-15102D02*
X21182D01*
X21307Y-15119D01*
X21457Y-15136D01*
X21616Y-15161D01*
X21791Y-15186D01*
X21982Y-15228D01*
X22182Y-15278D01*
X22382Y-15336D01*
X22590Y-15411D01*
X22799Y-15494D01*
X22999Y-15594D01*
X23199Y-15711D01*
X23390Y-15844D01*
X23398Y-15852D01*
X23432Y-15877D01*
X23482Y-15919D01*
X23557Y-15977D01*
X23632Y-16061D01*
X23732Y-16152D01*
X23832Y-16261D01*
X23940Y-16386D01*
X24057Y-16527D01*
X24173Y-16677D01*
X24290Y-16852D01*
X24407Y-17035D01*
X24515Y-17244D01*
X24615Y-17460D01*
X24706Y-17685D01*
X24790Y-17935D01*
X23523Y-18235D01*
Y-18227D01*
X23507Y-18185D01*
X23490Y-18135D01*
X23457Y-18060D01*
X23424Y-17977D01*
X23382Y-17868D01*
X23332Y-17760D01*
X23273Y-17644D01*
X23132Y-17385D01*
X22965Y-17127D01*
X22865Y-17010D01*
X22765Y-16894D01*
X22649Y-16785D01*
X22532Y-16686D01*
X22524Y-16677D01*
X22499Y-16660D01*
X22465Y-16644D01*
X22415Y-16610D01*
X22357Y-16569D01*
X22274Y-16527D01*
X22190Y-16486D01*
X22090Y-16436D01*
X21982Y-16394D01*
X21857Y-16352D01*
X21724Y-16311D01*
X21582Y-16269D01*
X21424Y-16236D01*
X21266Y-16219D01*
X21091Y-16202D01*
X20916Y-16194D01*
X20807D01*
X20733Y-16202D01*
X20633Y-16211D01*
X20524Y-16219D01*
X20399Y-16236D01*
X20258Y-16261D01*
X20116Y-16294D01*
X19966Y-16327D01*
X19808Y-16369D01*
X19649Y-16419D01*
X19491Y-16486D01*
X19333Y-16560D01*
X19183Y-16644D01*
X19033Y-16736D01*
X19025Y-16744D01*
X19000Y-16760D01*
X18958Y-16794D01*
X18908Y-16835D01*
X18850Y-16885D01*
X18783Y-16952D01*
X18700Y-17035D01*
X18616Y-17119D01*
X18533Y-17219D01*
X18441Y-17327D01*
X18358Y-17444D01*
X18267Y-17577D01*
X18183Y-17710D01*
X18108Y-17860D01*
X18041Y-18018D01*
X17975Y-18185D01*
Y-18193D01*
X17958Y-18227D01*
X17950Y-18277D01*
X17925Y-18343D01*
X17908Y-18427D01*
X17883Y-18527D01*
X17850Y-18635D01*
X17825Y-18760D01*
X17800Y-18893D01*
X17767Y-19043D01*
X17742Y-19193D01*
X17725Y-19351D01*
X17692Y-19693D01*
X17675Y-20051D01*
Y-20068D01*
Y-20110D01*
Y-20176D01*
X17683Y-20259D01*
Y-20368D01*
X17692Y-20493D01*
X17708Y-20635D01*
X17717Y-20793D01*
X17742Y-20959D01*
X17767Y-21134D01*
X17825Y-21493D01*
X17917Y-21867D01*
X17967Y-22051D01*
X18033Y-22226D01*
X18041Y-22234D01*
X18050Y-22267D01*
X18075Y-22317D01*
X18100Y-22376D01*
X18141Y-22451D01*
X18183Y-22542D01*
X18241Y-22642D01*
X18308Y-22742D01*
X18383Y-22859D01*
X18466Y-22967D01*
X18558Y-23084D01*
X18658Y-23201D01*
X18766Y-23309D01*
X18891Y-23417D01*
X19016Y-23517D01*
X19158Y-23609D01*
X19166Y-23617D01*
X19191Y-23625D01*
X19233Y-23650D01*
X19291Y-23684D01*
X19366Y-23717D01*
X19449Y-23750D01*
X19541Y-23792D01*
X19649Y-23834D01*
X19774Y-23884D01*
X19899Y-23925D01*
X20033Y-23959D01*
X20183Y-23992D01*
X20491Y-24050D01*
X20649Y-24059D01*
X20816Y-24067D01*
X20866D01*
X20924Y-24059D01*
X20999D01*
X21091Y-24050D01*
X21199Y-24034D01*
X21316Y-24017D01*
X21449Y-23992D01*
X21591Y-23959D01*
X21732Y-23917D01*
X21882Y-23867D01*
X22041Y-23800D01*
X22190Y-23734D01*
X22349Y-23650D01*
X22499Y-23550D01*
X22640Y-23442D01*
X22649Y-23434D01*
X22674Y-23409D01*
X22715Y-23375D01*
X22765Y-23325D01*
X22824Y-23259D01*
X22899Y-23175D01*
X22974Y-23084D01*
X23057Y-22975D01*
X23140Y-22851D01*
X23224Y-22717D01*
X23307Y-22567D01*
X23390Y-22401D01*
X23473Y-22217D01*
X23549Y-22026D01*
X23607Y-21818D01*
X23665Y-21593D01*
X24956Y-21918D01*
Y-21926D01*
X24948Y-21934D01*
Y-21959D01*
X24940Y-21984D01*
X24915Y-22067D01*
X24873Y-22176D01*
X24832Y-22309D01*
X24773Y-22459D01*
X24698Y-22634D01*
X24623Y-22809D01*
X24523Y-23001D01*
X24423Y-23201D01*
X24298Y-23400D01*
X24165Y-23600D01*
X24015Y-23800D01*
X23857Y-23992D01*
X23682Y-24167D01*
X23490Y-24334D01*
X23482Y-24342D01*
X23440Y-24367D01*
X23382Y-24409D01*
X23307Y-24467D01*
X23199Y-24525D01*
X23082Y-24600D01*
X22940Y-24675D01*
X22774Y-24750D01*
X22599Y-24825D01*
X22399Y-24900D01*
X22190Y-24975D01*
X21965Y-25033D01*
X21724Y-25092D01*
X21474Y-25133D01*
X21199Y-25158D01*
X20924Y-25167D01*
X20858D01*
X20774Y-25158D01*
X20666D01*
X20533Y-25150D01*
X20374Y-25133D01*
X20199Y-25117D01*
X20016Y-25083D01*
X19816Y-25050D01*
X19608Y-25008D01*
X19391Y-24958D01*
X19175Y-24900D01*
X18966Y-24825D01*
X18750Y-24742D01*
X18550Y-24642D01*
X18358Y-24534D01*
X18350Y-24525D01*
X18317Y-24500D01*
X18267Y-24467D01*
X18200Y-24417D01*
X18117Y-24350D01*
X18017Y-24267D01*
X17917Y-24167D01*
X17800Y-24059D01*
X17683Y-23934D01*
X17558Y-23800D01*
X17433Y-23642D01*
X17308Y-23475D01*
X17192Y-23300D01*
X17075Y-23101D01*
X16959Y-22901D01*
X16859Y-22676D01*
X16850Y-22659D01*
X16833Y-22617D01*
X16809Y-22551D01*
X16783Y-22467D01*
X16742Y-22351D01*
X16700Y-22217D01*
X16650Y-22067D01*
X16609Y-21892D01*
X16559Y-21701D01*
X16509Y-21501D01*
X16467Y-21284D01*
X16434Y-21059D01*
X16400Y-20818D01*
X16375Y-20576D01*
X16359Y-20318D01*
X16350Y-20060D01*
Y-20051D01*
Y-20043D01*
Y-19993D01*
Y-19910D01*
X16359Y-19801D01*
X16367Y-19676D01*
X16384Y-19518D01*
X16400Y-19351D01*
X16425Y-19160D01*
X16450Y-18960D01*
X16492Y-18743D01*
X16534Y-18527D01*
X16592Y-18302D01*
X16659Y-18077D01*
X16733Y-17852D01*
X16825Y-17627D01*
X16925Y-17410D01*
X16933Y-17394D01*
X16950Y-17360D01*
X16983Y-17302D01*
X17033Y-17227D01*
X17092Y-17127D01*
X17167Y-17019D01*
X17250Y-16902D01*
X17350Y-16769D01*
X17458Y-16636D01*
X17583Y-16494D01*
X17717Y-16344D01*
X17867Y-16202D01*
X18025Y-16061D01*
X18200Y-15927D01*
X18383Y-15802D01*
X18575Y-15686D01*
X18591Y-15677D01*
X18625Y-15661D01*
X18683Y-15627D01*
X18766Y-15594D01*
X18866Y-15552D01*
X18983Y-15502D01*
X19116Y-15444D01*
X19275Y-15386D01*
X19441Y-15336D01*
X19625Y-15278D01*
X19816Y-15228D01*
X20024Y-15186D01*
X20241Y-15152D01*
X20466Y-15119D01*
X20699Y-15102D01*
X20941Y-15094D01*
X21007D01*
X21082Y-15102D01*
D02*
G37*
G36*
X-837D02*
X-737D01*
X-612Y-15119D01*
X-462Y-15136D01*
X-304Y-15161D01*
X-129Y-15186D01*
X63Y-15228D01*
X263Y-15278D01*
X463Y-15336D01*
X671Y-15411D01*
X879Y-15494D01*
X1079Y-15594D01*
X1279Y-15711D01*
X1471Y-15844D01*
X1479Y-15852D01*
X1512Y-15877D01*
X1562Y-15919D01*
X1637Y-15977D01*
X1712Y-16061D01*
X1812Y-16152D01*
X1912Y-16261D01*
X2021Y-16386D01*
X2137Y-16527D01*
X2254Y-16677D01*
X2371Y-16852D01*
X2487Y-17035D01*
X2596Y-17244D01*
X2695Y-17460D01*
X2787Y-17685D01*
X2870Y-17935D01*
X1604Y-18235D01*
Y-18227D01*
X1587Y-18185D01*
X1571Y-18135D01*
X1537Y-18060D01*
X1504Y-17977D01*
X1462Y-17868D01*
X1412Y-17760D01*
X1354Y-17644D01*
X1213Y-17385D01*
X1046Y-17127D01*
X946Y-17010D01*
X846Y-16894D01*
X729Y-16785D01*
X613Y-16686D01*
X604Y-16677D01*
X579Y-16660D01*
X546Y-16644D01*
X496Y-16610D01*
X438Y-16569D01*
X354Y-16527D01*
X271Y-16486D01*
X171Y-16436D01*
X63Y-16394D01*
X-62Y-16352D01*
X-195Y-16311D01*
X-337Y-16269D01*
X-495Y-16236D01*
X-654Y-16219D01*
X-829Y-16202D01*
X-1004Y-16194D01*
X-1112D01*
X-1187Y-16202D01*
X-1287Y-16211D01*
X-1395Y-16219D01*
X-1520Y-16236D01*
X-1662Y-16261D01*
X-1803Y-16294D01*
X-1953Y-16327D01*
X-2112Y-16369D01*
X-2270Y-16419D01*
X-2428Y-16486D01*
X-2587Y-16560D01*
X-2736Y-16644D01*
X-2886Y-16736D01*
X-2895Y-16744D01*
X-2920Y-16760D01*
X-2961Y-16794D01*
X-3011Y-16835D01*
X-3070Y-16885D01*
X-3136Y-16952D01*
X-3220Y-17035D01*
X-3303Y-17119D01*
X-3386Y-17219D01*
X-3478Y-17327D01*
X-3561Y-17444D01*
X-3653Y-17577D01*
X-3736Y-17710D01*
X-3811Y-17860D01*
X-3878Y-18018D01*
X-3945Y-18185D01*
Y-18193D01*
X-3961Y-18227D01*
X-3970Y-18277D01*
X-3995Y-18343D01*
X-4011Y-18427D01*
X-4036Y-18527D01*
X-4069Y-18635D01*
X-4094Y-18760D01*
X-4119Y-18893D01*
X-4153Y-19043D01*
X-4178Y-19193D01*
X-4194Y-19351D01*
X-4228Y-19693D01*
X-4244Y-20051D01*
Y-20068D01*
Y-20110D01*
Y-20176D01*
X-4236Y-20259D01*
Y-20368D01*
X-4228Y-20493D01*
X-4211Y-20635D01*
X-4203Y-20793D01*
X-4178Y-20959D01*
X-4153Y-21134D01*
X-4094Y-21493D01*
X-4003Y-21867D01*
X-3953Y-22051D01*
X-3886Y-22226D01*
X-3878Y-22234D01*
X-3869Y-22267D01*
X-3844Y-22317D01*
X-3819Y-22376D01*
X-3778Y-22451D01*
X-3736Y-22542D01*
X-3678Y-22642D01*
X-3611Y-22742D01*
X-3536Y-22859D01*
X-3453Y-22967D01*
X-3361Y-23084D01*
X-3261Y-23201D01*
X-3153Y-23309D01*
X-3028Y-23417D01*
X-2903Y-23517D01*
X-2761Y-23609D01*
X-2753Y-23617D01*
X-2728Y-23625D01*
X-2686Y-23650D01*
X-2628Y-23684D01*
X-2553Y-23717D01*
X-2470Y-23750D01*
X-2378Y-23792D01*
X-2270Y-23834D01*
X-2145Y-23884D01*
X-2020Y-23925D01*
X-1887Y-23959D01*
X-1737Y-23992D01*
X-1428Y-24050D01*
X-1270Y-24059D01*
X-1104Y-24067D01*
X-1054D01*
X-995Y-24059D01*
X-920D01*
X-829Y-24050D01*
X-720Y-24034D01*
X-604Y-24017D01*
X-470Y-23992D01*
X-329Y-23959D01*
X-187Y-23917D01*
X-37Y-23867D01*
X121Y-23800D01*
X271Y-23734D01*
X429Y-23650D01*
X579Y-23550D01*
X721Y-23442D01*
X729Y-23434D01*
X754Y-23409D01*
X796Y-23375D01*
X846Y-23325D01*
X904Y-23259D01*
X979Y-23175D01*
X1054Y-23084D01*
X1138Y-22975D01*
X1221Y-22851D01*
X1304Y-22717D01*
X1388Y-22567D01*
X1471Y-22401D01*
X1554Y-22217D01*
X1629Y-22026D01*
X1687Y-21818D01*
X1746Y-21593D01*
X3037Y-21918D01*
Y-21926D01*
X3029Y-21934D01*
Y-21959D01*
X3020Y-21984D01*
X2995Y-22067D01*
X2954Y-22176D01*
X2912Y-22309D01*
X2854Y-22459D01*
X2779Y-22634D01*
X2704Y-22809D01*
X2604Y-23001D01*
X2504Y-23201D01*
X2379Y-23400D01*
X2246Y-23600D01*
X2096Y-23800D01*
X1937Y-23992D01*
X1762Y-24167D01*
X1571Y-24334D01*
X1562Y-24342D01*
X1521Y-24367D01*
X1462Y-24409D01*
X1388Y-24467D01*
X1279Y-24525D01*
X1163Y-24600D01*
X1021Y-24675D01*
X854Y-24750D01*
X679Y-24825D01*
X479Y-24900D01*
X271Y-24975D01*
X46Y-25033D01*
X-195Y-25092D01*
X-445Y-25133D01*
X-720Y-25158D01*
X-995Y-25167D01*
X-1062D01*
X-1145Y-25158D01*
X-1253D01*
X-1387Y-25150D01*
X-1545Y-25133D01*
X-1720Y-25117D01*
X-1903Y-25083D01*
X-2103Y-25050D01*
X-2312Y-25008D01*
X-2528Y-24958D01*
X-2745Y-24900D01*
X-2953Y-24825D01*
X-3170Y-24742D01*
X-3370Y-24642D01*
X-3561Y-24534D01*
X-3570Y-24525D01*
X-3603Y-24500D01*
X-3653Y-24467D01*
X-3720Y-24417D01*
X-3803Y-24350D01*
X-3903Y-24267D01*
X-4003Y-24167D01*
X-4119Y-24059D01*
X-4236Y-23934D01*
X-4361Y-23800D01*
X-4486Y-23642D01*
X-4611Y-23475D01*
X-4728Y-23300D01*
X-4844Y-23101D01*
X-4961Y-22901D01*
X-5061Y-22676D01*
X-5069Y-22659D01*
X-5086Y-22617D01*
X-5111Y-22551D01*
X-5136Y-22467D01*
X-5178Y-22351D01*
X-5219Y-22217D01*
X-5269Y-22067D01*
X-5311Y-21892D01*
X-5361Y-21701D01*
X-5411Y-21501D01*
X-5452Y-21284D01*
X-5486Y-21059D01*
X-5519Y-20818D01*
X-5544Y-20576D01*
X-5561Y-20318D01*
X-5569Y-20060D01*
Y-20051D01*
Y-20043D01*
Y-19993D01*
Y-19910D01*
X-5561Y-19801D01*
X-5552Y-19676D01*
X-5536Y-19518D01*
X-5519Y-19351D01*
X-5494Y-19160D01*
X-5469Y-18960D01*
X-5427Y-18743D01*
X-5386Y-18527D01*
X-5328Y-18302D01*
X-5261Y-18077D01*
X-5186Y-17852D01*
X-5094Y-17627D01*
X-4994Y-17410D01*
X-4986Y-17394D01*
X-4969Y-17360D01*
X-4936Y-17302D01*
X-4886Y-17227D01*
X-4828Y-17127D01*
X-4753Y-17019D01*
X-4669Y-16902D01*
X-4569Y-16769D01*
X-4461Y-16636D01*
X-4336Y-16494D01*
X-4203Y-16344D01*
X-4053Y-16202D01*
X-3895Y-16061D01*
X-3720Y-15927D01*
X-3536Y-15802D01*
X-3345Y-15686D01*
X-3328Y-15677D01*
X-3295Y-15661D01*
X-3236Y-15627D01*
X-3153Y-15594D01*
X-3053Y-15552D01*
X-2936Y-15502D01*
X-2803Y-15444D01*
X-2645Y-15386D01*
X-2478Y-15336D01*
X-2295Y-15278D01*
X-2103Y-15228D01*
X-1895Y-15186D01*
X-1678Y-15152D01*
X-1453Y-15119D01*
X-1220Y-15102D01*
X-979Y-15094D01*
X-912D01*
X-837Y-15102D01*
D02*
G37*
G36*
X68979Y-25000D02*
X67687D01*
Y-20410D01*
X62647D01*
Y-25000D01*
X61356D01*
Y-15261D01*
X62647D01*
Y-19260D01*
X67687D01*
Y-15261D01*
X68979D01*
Y-25000D01*
D02*
G37*
G36*
X138286Y-17794D02*
X138386Y-17802D01*
X138494Y-17818D01*
X138627Y-17835D01*
X138761Y-17860D01*
X138911Y-17885D01*
X139061Y-17927D01*
X139219Y-17977D01*
X139377Y-18027D01*
X139527Y-18102D01*
X139685Y-18177D01*
X139835Y-18268D01*
X139977Y-18368D01*
X139985Y-18377D01*
X140010Y-18393D01*
X140044Y-18427D01*
X140094Y-18477D01*
X140152Y-18535D01*
X140219Y-18610D01*
X140294Y-18693D01*
X140369Y-18793D01*
X140452Y-18902D01*
X140527Y-19026D01*
X140610Y-19160D01*
X140685Y-19310D01*
X140752Y-19468D01*
X140818Y-19635D01*
X140877Y-19818D01*
X140918Y-20010D01*
X139752Y-20193D01*
Y-20185D01*
X139744Y-20160D01*
X139735Y-20126D01*
X139719Y-20076D01*
X139702Y-20018D01*
X139677Y-19951D01*
X139619Y-19793D01*
X139535Y-19618D01*
X139436Y-19443D01*
X139311Y-19276D01*
X139160Y-19126D01*
X139152Y-19118D01*
X139144Y-19110D01*
X139119Y-19093D01*
X139086Y-19068D01*
X139044Y-19043D01*
X138994Y-19010D01*
X138877Y-18943D01*
X138727Y-18885D01*
X138552Y-18827D01*
X138361Y-18785D01*
X138252Y-18768D01*
X138061D01*
X137994Y-18777D01*
X137919Y-18785D01*
X137828Y-18802D01*
X137728Y-18827D01*
X137628Y-18852D01*
X137511Y-18885D01*
X137394Y-18927D01*
X137269Y-18977D01*
X137144Y-19043D01*
X137028Y-19118D01*
X136903Y-19202D01*
X136786Y-19302D01*
X136678Y-19418D01*
X136670Y-19426D01*
X136653Y-19451D01*
X136628Y-19485D01*
X136594Y-19543D01*
X136545Y-19610D01*
X136503Y-19701D01*
X136453Y-19801D01*
X136403Y-19918D01*
X136345Y-20051D01*
X136295Y-20201D01*
X136253Y-20368D01*
X136211Y-20559D01*
X136170Y-20759D01*
X136145Y-20976D01*
X136128Y-21218D01*
X136120Y-21468D01*
Y-21484D01*
Y-21526D01*
Y-21601D01*
X136128Y-21701D01*
X136136Y-21818D01*
X136145Y-21951D01*
X136161Y-22101D01*
X136186Y-22259D01*
X136253Y-22601D01*
X136295Y-22767D01*
X136345Y-22942D01*
X136411Y-23101D01*
X136486Y-23259D01*
X136569Y-23400D01*
X136661Y-23534D01*
X136670Y-23542D01*
X136686Y-23559D01*
X136720Y-23592D01*
X136761Y-23634D01*
X136811Y-23684D01*
X136878Y-23734D01*
X136953Y-23792D01*
X137044Y-23850D01*
X137136Y-23917D01*
X137244Y-23975D01*
X137361Y-24025D01*
X137494Y-24075D01*
X137628Y-24117D01*
X137769Y-24150D01*
X137928Y-24167D01*
X138086Y-24175D01*
X138153D01*
X138202Y-24167D01*
X138261Y-24158D01*
X138336Y-24150D01*
X138494Y-24125D01*
X138677Y-24075D01*
X138877Y-23992D01*
X138969Y-23950D01*
X139069Y-23892D01*
X139160Y-23825D01*
X139252Y-23750D01*
X139261Y-23742D01*
X139277Y-23734D01*
X139294Y-23700D01*
X139327Y-23667D01*
X139369Y-23625D01*
X139410Y-23567D01*
X139460Y-23500D01*
X139510Y-23417D01*
X139560Y-23334D01*
X139610Y-23234D01*
X139660Y-23126D01*
X139710Y-23009D01*
X139752Y-22875D01*
X139794Y-22734D01*
X139835Y-22584D01*
X139860Y-22417D01*
X141035Y-22576D01*
Y-22592D01*
X141027Y-22626D01*
X141010Y-22692D01*
X140993Y-22776D01*
X140968Y-22875D01*
X140927Y-22992D01*
X140885Y-23126D01*
X140835Y-23267D01*
X140777Y-23417D01*
X140702Y-23575D01*
X140627Y-23734D01*
X140535Y-23892D01*
X140427Y-24042D01*
X140310Y-24200D01*
X140185Y-24342D01*
X140044Y-24475D01*
X140035Y-24483D01*
X140010Y-24500D01*
X139960Y-24542D01*
X139902Y-24583D01*
X139827Y-24633D01*
X139735Y-24692D01*
X139627Y-24750D01*
X139502Y-24817D01*
X139369Y-24883D01*
X139219Y-24942D01*
X139061Y-25000D01*
X138886Y-25050D01*
X138702Y-25092D01*
X138511Y-25125D01*
X138311Y-25150D01*
X138094Y-25158D01*
X138027D01*
X137952Y-25150D01*
X137852Y-25142D01*
X137728Y-25133D01*
X137586Y-25108D01*
X137428Y-25083D01*
X137261Y-25042D01*
X137078Y-24992D01*
X136886Y-24925D01*
X136694Y-24850D01*
X136503Y-24758D01*
X136303Y-24650D01*
X136111Y-24525D01*
X135936Y-24383D01*
X135761Y-24217D01*
X135753Y-24209D01*
X135728Y-24175D01*
X135678Y-24117D01*
X135628Y-24042D01*
X135562Y-23942D01*
X135486Y-23825D01*
X135403Y-23684D01*
X135328Y-23517D01*
X135245Y-23342D01*
X135162Y-23134D01*
X135087Y-22917D01*
X135020Y-22667D01*
X134970Y-22409D01*
X134928Y-22126D01*
X134895Y-21826D01*
X134887Y-21501D01*
Y-21484D01*
Y-21451D01*
Y-21393D01*
X134895Y-21309D01*
Y-21209D01*
X134903Y-21093D01*
X134920Y-20968D01*
X134937Y-20826D01*
X134953Y-20668D01*
X134978Y-20510D01*
X135045Y-20176D01*
X135137Y-19835D01*
X135195Y-19668D01*
X135261Y-19501D01*
X135270Y-19493D01*
X135278Y-19460D01*
X135303Y-19418D01*
X135337Y-19360D01*
X135370Y-19293D01*
X135420Y-19210D01*
X135478Y-19118D01*
X135545Y-19018D01*
X135620Y-18918D01*
X135703Y-18810D01*
X135803Y-18702D01*
X135903Y-18602D01*
X136020Y-18493D01*
X136136Y-18393D01*
X136270Y-18302D01*
X136411Y-18218D01*
X136420Y-18210D01*
X136445Y-18202D01*
X136486Y-18177D01*
X136545Y-18152D01*
X136620Y-18118D01*
X136703Y-18085D01*
X136803Y-18043D01*
X136911Y-18002D01*
X137036Y-17960D01*
X137161Y-17918D01*
X137303Y-17885D01*
X137444Y-17852D01*
X137761Y-17802D01*
X137928Y-17794D01*
X138094Y-17785D01*
X138202D01*
X138286Y-17794D01*
D02*
G37*
G36*
X106527D02*
X106627Y-17802D01*
X106735Y-17818D01*
X106869Y-17835D01*
X107002Y-17860D01*
X107152Y-17885D01*
X107302Y-17927D01*
X107460Y-17977D01*
X107619Y-18027D01*
X107769Y-18102D01*
X107927Y-18177D01*
X108077Y-18268D01*
X108218Y-18368D01*
X108227Y-18377D01*
X108252Y-18393D01*
X108285Y-18427D01*
X108335Y-18477D01*
X108393Y-18535D01*
X108460Y-18610D01*
X108535Y-18693D01*
X108610Y-18793D01*
X108693Y-18902D01*
X108768Y-19026D01*
X108852Y-19160D01*
X108927Y-19310D01*
X108993Y-19468D01*
X109060Y-19635D01*
X109118Y-19818D01*
X109160Y-20010D01*
X107993Y-20193D01*
Y-20185D01*
X107985Y-20160D01*
X107977Y-20126D01*
X107960Y-20076D01*
X107943Y-20018D01*
X107919Y-19951D01*
X107860Y-19793D01*
X107777Y-19618D01*
X107677Y-19443D01*
X107552Y-19276D01*
X107402Y-19126D01*
X107394Y-19118D01*
X107385Y-19110D01*
X107360Y-19093D01*
X107327Y-19068D01*
X107285Y-19043D01*
X107235Y-19010D01*
X107119Y-18943D01*
X106969Y-18885D01*
X106794Y-18827D01*
X106602Y-18785D01*
X106494Y-18768D01*
X106302D01*
X106236Y-18777D01*
X106161Y-18785D01*
X106069Y-18802D01*
X105969Y-18827D01*
X105869Y-18852D01*
X105752Y-18885D01*
X105636Y-18927D01*
X105511Y-18977D01*
X105386Y-19043D01*
X105269Y-19118D01*
X105144Y-19202D01*
X105028Y-19302D01*
X104919Y-19418D01*
X104911Y-19426D01*
X104894Y-19451D01*
X104869Y-19485D01*
X104836Y-19543D01*
X104786Y-19610D01*
X104744Y-19701D01*
X104694Y-19801D01*
X104644Y-19918D01*
X104586Y-20051D01*
X104536Y-20201D01*
X104494Y-20368D01*
X104453Y-20559D01*
X104411Y-20759D01*
X104386Y-20976D01*
X104369Y-21218D01*
X104361Y-21468D01*
Y-21484D01*
Y-21526D01*
Y-21601D01*
X104369Y-21701D01*
X104378Y-21818D01*
X104386Y-21951D01*
X104403Y-22101D01*
X104428Y-22259D01*
X104494Y-22601D01*
X104536Y-22767D01*
X104586Y-22942D01*
X104653Y-23101D01*
X104728Y-23259D01*
X104811Y-23400D01*
X104903Y-23534D01*
X104911Y-23542D01*
X104928Y-23559D01*
X104961Y-23592D01*
X105003Y-23634D01*
X105053Y-23684D01*
X105119Y-23734D01*
X105194Y-23792D01*
X105286Y-23850D01*
X105378Y-23917D01*
X105486Y-23975D01*
X105603Y-24025D01*
X105736Y-24075D01*
X105869Y-24117D01*
X106011Y-24150D01*
X106169Y-24167D01*
X106327Y-24175D01*
X106394D01*
X106444Y-24167D01*
X106502Y-24158D01*
X106577Y-24150D01*
X106735Y-24125D01*
X106919Y-24075D01*
X107119Y-23992D01*
X107210Y-23950D01*
X107310Y-23892D01*
X107402Y-23825D01*
X107494Y-23750D01*
X107502Y-23742D01*
X107519Y-23734D01*
X107535Y-23700D01*
X107569Y-23667D01*
X107610Y-23625D01*
X107652Y-23567D01*
X107702Y-23500D01*
X107752Y-23417D01*
X107802Y-23334D01*
X107852Y-23234D01*
X107902Y-23126D01*
X107952Y-23009D01*
X107993Y-22875D01*
X108035Y-22734D01*
X108077Y-22584D01*
X108102Y-22417D01*
X109277Y-22576D01*
Y-22592D01*
X109268Y-22626D01*
X109251Y-22692D01*
X109235Y-22776D01*
X109210Y-22875D01*
X109168Y-22992D01*
X109127Y-23126D01*
X109077Y-23267D01*
X109018Y-23417D01*
X108943Y-23575D01*
X108868Y-23734D01*
X108777Y-23892D01*
X108668Y-24042D01*
X108552Y-24200D01*
X108427Y-24342D01*
X108285Y-24475D01*
X108277Y-24483D01*
X108252Y-24500D01*
X108202Y-24542D01*
X108144Y-24583D01*
X108069Y-24633D01*
X107977Y-24692D01*
X107868Y-24750D01*
X107744Y-24817D01*
X107610Y-24883D01*
X107460Y-24942D01*
X107302Y-25000D01*
X107127Y-25050D01*
X106944Y-25092D01*
X106752Y-25125D01*
X106552Y-25150D01*
X106336Y-25158D01*
X106269D01*
X106194Y-25150D01*
X106094Y-25142D01*
X105969Y-25133D01*
X105827Y-25108D01*
X105669Y-25083D01*
X105503Y-25042D01*
X105319Y-24992D01*
X105128Y-24925D01*
X104936Y-24850D01*
X104744Y-24758D01*
X104544Y-24650D01*
X104353Y-24525D01*
X104178Y-24383D01*
X104003Y-24217D01*
X103995Y-24209D01*
X103969Y-24175D01*
X103920Y-24117D01*
X103870Y-24042D01*
X103803Y-23942D01*
X103728Y-23825D01*
X103645Y-23684D01*
X103570Y-23517D01*
X103486Y-23342D01*
X103403Y-23134D01*
X103328Y-22917D01*
X103261Y-22667D01*
X103211Y-22409D01*
X103170Y-22126D01*
X103136Y-21826D01*
X103128Y-21501D01*
Y-21484D01*
Y-21451D01*
Y-21393D01*
X103136Y-21309D01*
Y-21209D01*
X103145Y-21093D01*
X103161Y-20968D01*
X103178Y-20826D01*
X103195Y-20668D01*
X103220Y-20510D01*
X103286Y-20176D01*
X103378Y-19835D01*
X103436Y-19668D01*
X103503Y-19501D01*
X103511Y-19493D01*
X103520Y-19460D01*
X103545Y-19418D01*
X103578Y-19360D01*
X103611Y-19293D01*
X103661Y-19210D01*
X103720Y-19118D01*
X103786Y-19018D01*
X103861Y-18918D01*
X103945Y-18810D01*
X104045Y-18702D01*
X104144Y-18602D01*
X104261Y-18493D01*
X104378Y-18393D01*
X104511Y-18302D01*
X104653Y-18218D01*
X104661Y-18210D01*
X104686Y-18202D01*
X104728Y-18177D01*
X104786Y-18152D01*
X104861Y-18118D01*
X104944Y-18085D01*
X105044Y-18043D01*
X105153Y-18002D01*
X105278Y-17960D01*
X105402Y-17918D01*
X105544Y-17885D01*
X105686Y-17852D01*
X106002Y-17802D01*
X106169Y-17794D01*
X106336Y-17785D01*
X106444D01*
X106527Y-17794D01*
D02*
G37*
G36*
X81750Y-22076D02*
X78068D01*
Y-20876D01*
X81750D01*
Y-22076D01*
D02*
G37*
G36*
X59831D02*
X56149D01*
Y-20876D01*
X59831D01*
Y-22076D01*
D02*
G37*
G36*
X15251D02*
X11568D01*
Y-20876D01*
X15251D01*
Y-22076D01*
D02*
G37*
G36*
X54699Y-25000D02*
X53457D01*
Y-16852D01*
X50616Y-25000D01*
X49458D01*
X46643Y-16710D01*
Y-25000D01*
X45401D01*
Y-15261D01*
X47334D01*
X49642Y-22159D01*
Y-22167D01*
X49658Y-22201D01*
X49675Y-22251D01*
X49692Y-22317D01*
X49717Y-22401D01*
X49750Y-22492D01*
X49783Y-22592D01*
X49817Y-22701D01*
X49892Y-22934D01*
X49975Y-23175D01*
X50042Y-23400D01*
X50075Y-23509D01*
X50108Y-23600D01*
Y-23592D01*
X50117Y-23575D01*
X50125Y-23542D01*
X50142Y-23500D01*
X50158Y-23442D01*
X50183Y-23375D01*
X50208Y-23300D01*
X50233Y-23209D01*
X50267Y-23101D01*
X50308Y-22984D01*
X50350Y-22859D01*
X50400Y-22717D01*
X50450Y-22567D01*
X50500Y-22401D01*
X50558Y-22226D01*
X50625Y-22042D01*
X52966Y-15261D01*
X54699D01*
Y-25000D01*
D02*
G37*
G36*
X43293Y-20893D02*
Y-20909D01*
Y-20959D01*
Y-21034D01*
X43285Y-21134D01*
Y-21259D01*
X43277Y-21401D01*
X43268Y-21559D01*
X43252Y-21734D01*
X43235Y-21918D01*
X43210Y-22109D01*
X43152Y-22492D01*
X43068Y-22875D01*
X43018Y-23059D01*
X42960Y-23226D01*
Y-23234D01*
X42944Y-23267D01*
X42927Y-23309D01*
X42894Y-23367D01*
X42860Y-23442D01*
X42810Y-23525D01*
X42752Y-23625D01*
X42685Y-23725D01*
X42610Y-23834D01*
X42519Y-23950D01*
X42427Y-24067D01*
X42310Y-24183D01*
X42194Y-24300D01*
X42060Y-24417D01*
X41919Y-24525D01*
X41761Y-24633D01*
X41752Y-24642D01*
X41719Y-24658D01*
X41669Y-24683D01*
X41602Y-24717D01*
X41519Y-24758D01*
X41411Y-24800D01*
X41294Y-24850D01*
X41152Y-24900D01*
X40994Y-24950D01*
X40827Y-25000D01*
X40636Y-25042D01*
X40436Y-25083D01*
X40219Y-25117D01*
X39986Y-25142D01*
X39744Y-25158D01*
X39486Y-25167D01*
X39353D01*
X39261Y-25158D01*
X39144Y-25150D01*
X39011Y-25142D01*
X38861Y-25125D01*
X38695Y-25108D01*
X38520Y-25083D01*
X38336Y-25050D01*
X37961Y-24967D01*
X37778Y-24917D01*
X37595Y-24850D01*
X37412Y-24783D01*
X37245Y-24700D01*
X37237Y-24692D01*
X37203Y-24675D01*
X37162Y-24650D01*
X37103Y-24608D01*
X37037Y-24558D01*
X36953Y-24500D01*
X36862Y-24434D01*
X36762Y-24350D01*
X36662Y-24258D01*
X36562Y-24158D01*
X36462Y-24042D01*
X36353Y-23925D01*
X36253Y-23792D01*
X36162Y-23650D01*
X36079Y-23492D01*
X36004Y-23334D01*
Y-23325D01*
X35987Y-23292D01*
X35970Y-23242D01*
X35945Y-23167D01*
X35920Y-23075D01*
X35887Y-22967D01*
X35854Y-22842D01*
X35820Y-22692D01*
X35787Y-22526D01*
X35754Y-22342D01*
X35720Y-22142D01*
X35695Y-21926D01*
X35670Y-21693D01*
X35654Y-21443D01*
X35645Y-21176D01*
X35637Y-20893D01*
Y-15261D01*
X36928D01*
Y-20884D01*
Y-20901D01*
Y-20943D01*
Y-21001D01*
Y-21093D01*
X36937Y-21193D01*
X36945Y-21318D01*
Y-21451D01*
X36962Y-21593D01*
X36987Y-21892D01*
X37028Y-22209D01*
X37053Y-22359D01*
X37087Y-22501D01*
X37120Y-22634D01*
X37162Y-22751D01*
Y-22759D01*
X37170Y-22776D01*
X37187Y-22809D01*
X37203Y-22851D01*
X37237Y-22901D01*
X37270Y-22959D01*
X37353Y-23092D01*
X37462Y-23242D01*
X37603Y-23392D01*
X37770Y-23542D01*
X37970Y-23675D01*
X37978D01*
X37995Y-23692D01*
X38028Y-23709D01*
X38070Y-23725D01*
X38128Y-23750D01*
X38195Y-23775D01*
X38270Y-23809D01*
X38361Y-23834D01*
X38461Y-23867D01*
X38561Y-23900D01*
X38678Y-23925D01*
X38803Y-23950D01*
X39069Y-23984D01*
X39369Y-24000D01*
X39436D01*
X39503Y-23992D01*
X39603D01*
X39719Y-23984D01*
X39853Y-23967D01*
X40003Y-23950D01*
X40161Y-23917D01*
X40319Y-23884D01*
X40494Y-23842D01*
X40661Y-23792D01*
X40827Y-23725D01*
X40986Y-23659D01*
X41136Y-23567D01*
X41269Y-23475D01*
X41394Y-23359D01*
X41402Y-23350D01*
X41419Y-23325D01*
X41452Y-23284D01*
X41486Y-23226D01*
X41536Y-23150D01*
X41585Y-23059D01*
X41644Y-22942D01*
X41702Y-22809D01*
X41752Y-22651D01*
X41810Y-22476D01*
X41860Y-22267D01*
X41910Y-22042D01*
X41944Y-21793D01*
X41977Y-21518D01*
X41994Y-21218D01*
X42002Y-20884D01*
Y-15261D01*
X43293D01*
Y-20893D01*
D02*
G37*
G36*
X-7344D02*
Y-20909D01*
Y-20959D01*
Y-21034D01*
X-7352Y-21134D01*
Y-21259D01*
X-7360Y-21401D01*
X-7369Y-21559D01*
X-7385Y-21734D01*
X-7402Y-21918D01*
X-7427Y-22109D01*
X-7485Y-22492D01*
X-7569Y-22875D01*
X-7619Y-23059D01*
X-7677Y-23226D01*
Y-23234D01*
X-7693Y-23267D01*
X-7710Y-23309D01*
X-7743Y-23367D01*
X-7777Y-23442D01*
X-7827Y-23525D01*
X-7885Y-23625D01*
X-7952Y-23725D01*
X-8027Y-23834D01*
X-8118Y-23950D01*
X-8210Y-24067D01*
X-8327Y-24183D01*
X-8443Y-24300D01*
X-8577Y-24417D01*
X-8718Y-24525D01*
X-8877Y-24633D01*
X-8885Y-24642D01*
X-8918Y-24658D01*
X-8968Y-24683D01*
X-9035Y-24717D01*
X-9118Y-24758D01*
X-9226Y-24800D01*
X-9343Y-24850D01*
X-9485Y-24900D01*
X-9643Y-24950D01*
X-9810Y-25000D01*
X-10001Y-25042D01*
X-10201Y-25083D01*
X-10418Y-25117D01*
X-10651Y-25142D01*
X-10893Y-25158D01*
X-11151Y-25167D01*
X-11284D01*
X-11376Y-25158D01*
X-11493Y-25150D01*
X-11626Y-25142D01*
X-11776Y-25125D01*
X-11942Y-25108D01*
X-12117Y-25083D01*
X-12301Y-25050D01*
X-12676Y-24967D01*
X-12859Y-24917D01*
X-13042Y-24850D01*
X-13225Y-24783D01*
X-13392Y-24700D01*
X-13400Y-24692D01*
X-13434Y-24675D01*
X-13475Y-24650D01*
X-13534Y-24608D01*
X-13600Y-24558D01*
X-13684Y-24500D01*
X-13775Y-24434D01*
X-13875Y-24350D01*
X-13975Y-24258D01*
X-14075Y-24158D01*
X-14175Y-24042D01*
X-14283Y-23925D01*
X-14383Y-23792D01*
X-14475Y-23650D01*
X-14558Y-23492D01*
X-14633Y-23334D01*
Y-23325D01*
X-14650Y-23292D01*
X-14667Y-23242D01*
X-14692Y-23167D01*
X-14717Y-23075D01*
X-14750Y-22967D01*
X-14783Y-22842D01*
X-14817Y-22692D01*
X-14850Y-22526D01*
X-14883Y-22342D01*
X-14917Y-22142D01*
X-14942Y-21926D01*
X-14967Y-21693D01*
X-14983Y-21443D01*
X-14992Y-21176D01*
X-15000Y-20893D01*
Y-15261D01*
X-13709D01*
Y-20884D01*
Y-20901D01*
Y-20943D01*
Y-21001D01*
Y-21093D01*
X-13700Y-21193D01*
X-13692Y-21318D01*
Y-21451D01*
X-13675Y-21593D01*
X-13650Y-21892D01*
X-13609Y-22209D01*
X-13584Y-22359D01*
X-13550Y-22501D01*
X-13517Y-22634D01*
X-13475Y-22751D01*
Y-22759D01*
X-13467Y-22776D01*
X-13450Y-22809D01*
X-13434Y-22851D01*
X-13400Y-22901D01*
X-13367Y-22959D01*
X-13284Y-23092D01*
X-13175Y-23242D01*
X-13034Y-23392D01*
X-12867Y-23542D01*
X-12667Y-23675D01*
X-12659D01*
X-12642Y-23692D01*
X-12609Y-23709D01*
X-12567Y-23725D01*
X-12509Y-23750D01*
X-12442Y-23775D01*
X-12367Y-23809D01*
X-12276Y-23834D01*
X-12176Y-23867D01*
X-12076Y-23900D01*
X-11959Y-23925D01*
X-11834Y-23950D01*
X-11567Y-23984D01*
X-11268Y-24000D01*
X-11201D01*
X-11134Y-23992D01*
X-11034D01*
X-10918Y-23984D01*
X-10784Y-23967D01*
X-10634Y-23950D01*
X-10476Y-23917D01*
X-10318Y-23884D01*
X-10143Y-23842D01*
X-9976Y-23792D01*
X-9810Y-23725D01*
X-9651Y-23659D01*
X-9501Y-23567D01*
X-9368Y-23475D01*
X-9243Y-23359D01*
X-9235Y-23350D01*
X-9218Y-23325D01*
X-9185Y-23284D01*
X-9151Y-23226D01*
X-9101Y-23150D01*
X-9051Y-23059D01*
X-8993Y-22942D01*
X-8935Y-22809D01*
X-8885Y-22651D01*
X-8827Y-22476D01*
X-8777Y-22267D01*
X-8727Y-22042D01*
X-8693Y-21793D01*
X-8660Y-21518D01*
X-8643Y-21218D01*
X-8635Y-20884D01*
Y-15261D01*
X-7344D01*
Y-20893D01*
D02*
G37*
G36*
X121757Y-15269D02*
X121873D01*
X122007Y-15278D01*
X122290Y-15294D01*
X122573Y-15319D01*
X122848Y-15352D01*
X122981Y-15378D01*
X123098Y-15402D01*
X123106D01*
X123131Y-15411D01*
X123181Y-15419D01*
X123240Y-15444D01*
X123306Y-15461D01*
X123390Y-15486D01*
X123490Y-15519D01*
X123589Y-15561D01*
X123814Y-15661D01*
X124048Y-15777D01*
X124289Y-15927D01*
X124523Y-16102D01*
X124531Y-16111D01*
X124556Y-16136D01*
X124598Y-16169D01*
X124648Y-16219D01*
X124714Y-16286D01*
X124789Y-16360D01*
X124873Y-16452D01*
X124956Y-16552D01*
X125048Y-16669D01*
X125147Y-16794D01*
X125239Y-16935D01*
X125339Y-17077D01*
X125431Y-17235D01*
X125522Y-17402D01*
X125606Y-17585D01*
X125681Y-17768D01*
X125689Y-17777D01*
X125697Y-17810D01*
X125714Y-17868D01*
X125739Y-17944D01*
X125772Y-18043D01*
X125806Y-18160D01*
X125839Y-18285D01*
X125872Y-18435D01*
X125906Y-18602D01*
X125939Y-18777D01*
X125972Y-18968D01*
X126006Y-19168D01*
X126031Y-19385D01*
X126047Y-19610D01*
X126064Y-19843D01*
Y-20085D01*
Y-20093D01*
Y-20135D01*
Y-20193D01*
Y-20268D01*
X126056Y-20368D01*
X126047Y-20476D01*
X126039Y-20610D01*
X126031Y-20743D01*
X126014Y-20893D01*
X125997Y-21051D01*
X125956Y-21384D01*
X125889Y-21718D01*
X125797Y-22051D01*
Y-22059D01*
X125789Y-22092D01*
X125772Y-22134D01*
X125747Y-22192D01*
X125722Y-22267D01*
X125697Y-22351D01*
X125656Y-22442D01*
X125614Y-22551D01*
X125522Y-22776D01*
X125406Y-23009D01*
X125281Y-23242D01*
X125131Y-23467D01*
X125122Y-23475D01*
X125114Y-23492D01*
X125089Y-23517D01*
X125064Y-23559D01*
X125022Y-23609D01*
X124981Y-23659D01*
X124873Y-23784D01*
X124739Y-23925D01*
X124589Y-24075D01*
X124423Y-24217D01*
X124248Y-24350D01*
X124239D01*
X124223Y-24367D01*
X124198Y-24383D01*
X124164Y-24400D01*
X124114Y-24434D01*
X124064Y-24458D01*
X123998Y-24500D01*
X123923Y-24534D01*
X123756Y-24617D01*
X123556Y-24692D01*
X123340Y-24775D01*
X123090Y-24842D01*
X123081D01*
X123056Y-24850D01*
X123023Y-24858D01*
X122973Y-24867D01*
X122906Y-24875D01*
X122823Y-24892D01*
X122740Y-24908D01*
X122640Y-24917D01*
X122531Y-24933D01*
X122407Y-24950D01*
X122282Y-24967D01*
X122140Y-24975D01*
X121848Y-24992D01*
X121523Y-25000D01*
X118016D01*
Y-15261D01*
X121648D01*
X121757Y-15269D01*
D02*
G37*
G36*
X98571D02*
X98787D01*
X99029Y-15286D01*
X99271Y-15302D01*
X99512Y-15328D01*
X99621Y-15344D01*
X99721Y-15361D01*
X99729D01*
X99754Y-15369D01*
X99787Y-15378D01*
X99837Y-15386D01*
X99904Y-15394D01*
X99971Y-15419D01*
X100054Y-15436D01*
X100137Y-15461D01*
X100329Y-15527D01*
X100529Y-15602D01*
X100729Y-15702D01*
X100920Y-15819D01*
X100929D01*
X100945Y-15836D01*
X100970Y-15852D01*
X101004Y-15877D01*
X101095Y-15952D01*
X101204Y-16061D01*
X101329Y-16194D01*
X101462Y-16360D01*
X101587Y-16544D01*
X101704Y-16760D01*
Y-16769D01*
X101720Y-16785D01*
X101728Y-16819D01*
X101753Y-16869D01*
X101770Y-16919D01*
X101795Y-16985D01*
X101828Y-17069D01*
X101853Y-17152D01*
X101878Y-17244D01*
X101912Y-17344D01*
X101953Y-17569D01*
X101987Y-17818D01*
X102003Y-18085D01*
Y-18102D01*
Y-18143D01*
X101995Y-18202D01*
Y-18293D01*
X101978Y-18402D01*
X101962Y-18527D01*
X101937Y-18660D01*
X101903Y-18810D01*
X101862Y-18977D01*
X101812Y-19143D01*
X101745Y-19318D01*
X101670Y-19493D01*
X101579Y-19668D01*
X101470Y-19851D01*
X101354Y-20018D01*
X101212Y-20185D01*
X101204Y-20193D01*
X101170Y-20218D01*
X101129Y-20259D01*
X101054Y-20318D01*
X100962Y-20385D01*
X100854Y-20459D01*
X100720Y-20535D01*
X100562Y-20610D01*
X100379Y-20693D01*
X100170Y-20768D01*
X99929Y-20843D01*
X99671Y-20909D01*
X99387Y-20959D01*
X99071Y-21009D01*
X98729Y-21034D01*
X98354Y-21043D01*
X95863D01*
Y-25000D01*
X94572D01*
Y-15261D01*
X98479D01*
X98571Y-15269D01*
D02*
G37*
G36*
X92331Y-25000D02*
X90973D01*
Y-23642D01*
X92331D01*
Y-25000D01*
D02*
G37*
G36*
X87240D02*
X86041D01*
Y-17385D01*
X86032Y-17394D01*
X86024Y-17402D01*
X85999Y-17427D01*
X85966Y-17452D01*
X85916Y-17494D01*
X85866Y-17535D01*
X85808Y-17585D01*
X85741Y-17644D01*
X85574Y-17768D01*
X85383Y-17902D01*
X85158Y-18052D01*
X84908Y-18210D01*
X84899Y-18218D01*
X84874Y-18227D01*
X84841Y-18252D01*
X84791Y-18277D01*
X84733Y-18310D01*
X84658Y-18352D01*
X84574Y-18393D01*
X84491Y-18443D01*
X84291Y-18543D01*
X84083Y-18643D01*
X83866Y-18743D01*
X83658Y-18827D01*
Y-17668D01*
X83666Y-17660D01*
X83700Y-17644D01*
X83758Y-17619D01*
X83825Y-17585D01*
X83916Y-17535D01*
X84016Y-17485D01*
X84125Y-17419D01*
X84250Y-17344D01*
X84383Y-17269D01*
X84524Y-17177D01*
X84816Y-16985D01*
X85108Y-16769D01*
X85399Y-16527D01*
X85408Y-16519D01*
X85433Y-16494D01*
X85474Y-16460D01*
X85524Y-16410D01*
X85583Y-16352D01*
X85658Y-16277D01*
X85732Y-16202D01*
X85816Y-16111D01*
X85991Y-15911D01*
X86166Y-15694D01*
X86332Y-15461D01*
X86399Y-15336D01*
X86466Y-15219D01*
X87240D01*
Y-25000D01*
D02*
G37*
G36*
X77018Y-16319D02*
X77010Y-16327D01*
X76976Y-16360D01*
X76926Y-16419D01*
X76860Y-16502D01*
X76776Y-16602D01*
X76677Y-16719D01*
X76560Y-16860D01*
X76435Y-17019D01*
X76302Y-17202D01*
X76160Y-17394D01*
X76002Y-17610D01*
X75843Y-17844D01*
X75677Y-18102D01*
X75510Y-18368D01*
X75343Y-18652D01*
X75169Y-18951D01*
Y-18960D01*
X75160Y-18968D01*
X75144Y-18993D01*
X75127Y-19026D01*
X75110Y-19068D01*
X75085Y-19118D01*
X75019Y-19235D01*
X74944Y-19385D01*
X74852Y-19560D01*
X74760Y-19768D01*
X74652Y-19985D01*
X74544Y-20235D01*
X74427Y-20493D01*
X74310Y-20776D01*
X74194Y-21068D01*
X74077Y-21368D01*
X73969Y-21684D01*
X73861Y-22001D01*
X73761Y-22326D01*
Y-22342D01*
X73744Y-22384D01*
X73727Y-22451D01*
X73702Y-22542D01*
X73677Y-22651D01*
X73644Y-22792D01*
X73611Y-22942D01*
X73569Y-23117D01*
X73536Y-23309D01*
X73494Y-23517D01*
X73452Y-23734D01*
X73419Y-23967D01*
X73386Y-24217D01*
X73361Y-24467D01*
X73311Y-25000D01*
X72078D01*
Y-24983D01*
Y-24950D01*
X72086Y-24883D01*
Y-24800D01*
X72094Y-24683D01*
X72103Y-24550D01*
X72119Y-24400D01*
X72144Y-24225D01*
X72161Y-24034D01*
X72194Y-23825D01*
X72228Y-23592D01*
X72278Y-23350D01*
X72328Y-23092D01*
X72386Y-22817D01*
X72453Y-22534D01*
X72528Y-22234D01*
Y-22226D01*
X72536Y-22217D01*
Y-22192D01*
X72544Y-22159D01*
X72569Y-22076D01*
X72611Y-21959D01*
X72653Y-21809D01*
X72711Y-21634D01*
X72769Y-21443D01*
X72844Y-21226D01*
X72927Y-20993D01*
X73019Y-20751D01*
X73119Y-20493D01*
X73227Y-20218D01*
X73352Y-19943D01*
X73477Y-19660D01*
X73619Y-19376D01*
X73761Y-19093D01*
Y-19085D01*
X73769Y-19076D01*
X73794Y-19026D01*
X73844Y-18943D01*
X73902Y-18843D01*
X73977Y-18710D01*
X74069Y-18560D01*
X74169Y-18385D01*
X74277Y-18202D01*
X74402Y-18010D01*
X74535Y-17802D01*
X74677Y-17594D01*
X74827Y-17377D01*
X75152Y-16944D01*
X75318Y-16736D01*
X75485Y-16536D01*
X70720D01*
Y-15386D01*
X77018D01*
Y-16319D01*
D02*
G37*
G36*
X30547Y-15269D02*
X30763D01*
X31005Y-15286D01*
X31247Y-15302D01*
X31488Y-15328D01*
X31596Y-15344D01*
X31696Y-15361D01*
X31705D01*
X31730Y-15369D01*
X31763Y-15378D01*
X31813Y-15386D01*
X31880Y-15394D01*
X31946Y-15419D01*
X32030Y-15436D01*
X32113Y-15461D01*
X32305Y-15527D01*
X32504Y-15602D01*
X32705Y-15702D01*
X32896Y-15819D01*
X32904D01*
X32921Y-15836D01*
X32946Y-15852D01*
X32979Y-15877D01*
X33071Y-15952D01*
X33179Y-16061D01*
X33304Y-16194D01*
X33438Y-16360D01*
X33563Y-16544D01*
X33679Y-16760D01*
Y-16769D01*
X33696Y-16785D01*
X33704Y-16819D01*
X33729Y-16869D01*
X33746Y-16919D01*
X33771Y-16985D01*
X33804Y-17069D01*
X33829Y-17152D01*
X33854Y-17244D01*
X33888Y-17344D01*
X33929Y-17569D01*
X33963Y-17818D01*
X33979Y-18085D01*
Y-18102D01*
Y-18143D01*
X33971Y-18202D01*
Y-18293D01*
X33954Y-18402D01*
X33937Y-18527D01*
X33912Y-18660D01*
X33879Y-18810D01*
X33837Y-18977D01*
X33788Y-19143D01*
X33721Y-19318D01*
X33646Y-19493D01*
X33554Y-19668D01*
X33446Y-19851D01*
X33329Y-20018D01*
X33188Y-20185D01*
X33179Y-20193D01*
X33146Y-20218D01*
X33104Y-20259D01*
X33029Y-20318D01*
X32938Y-20385D01*
X32829Y-20459D01*
X32696Y-20535D01*
X32538Y-20610D01*
X32355Y-20693D01*
X32146Y-20768D01*
X31905Y-20843D01*
X31646Y-20909D01*
X31363Y-20959D01*
X31047Y-21009D01*
X30705Y-21034D01*
X30330Y-21043D01*
X27839D01*
Y-25000D01*
X26548D01*
Y-15261D01*
X30455D01*
X30547Y-15269D01*
D02*
G37*
G36*
X5870Y-23850D02*
X10660D01*
Y-25000D01*
X4578D01*
Y-15261D01*
X5870D01*
Y-23850D01*
D02*
G37*
G36*
X130679Y-17794D02*
X130779Y-17802D01*
X130904Y-17810D01*
X131046Y-17835D01*
X131213Y-17868D01*
X131379Y-17902D01*
X131571Y-17952D01*
X131762Y-18018D01*
X131962Y-18093D01*
X132162Y-18185D01*
X132354Y-18302D01*
X132554Y-18427D01*
X132746Y-18577D01*
X132921Y-18743D01*
X132929Y-18752D01*
X132962Y-18785D01*
X133004Y-18843D01*
X133062Y-18918D01*
X133137Y-19018D01*
X133212Y-19135D01*
X133295Y-19268D01*
X133387Y-19426D01*
X133470Y-19610D01*
X133554Y-19801D01*
X133629Y-20018D01*
X133704Y-20251D01*
X133762Y-20510D01*
X133804Y-20776D01*
X133837Y-21068D01*
X133845Y-21376D01*
Y-21393D01*
Y-21434D01*
Y-21509D01*
X133837Y-21601D01*
Y-21718D01*
X133820Y-21843D01*
X133812Y-21992D01*
X133795Y-22151D01*
X133770Y-22317D01*
X133745Y-22492D01*
X133670Y-22851D01*
X133620Y-23026D01*
X133570Y-23201D01*
X133504Y-23367D01*
X133429Y-23517D01*
X133420Y-23525D01*
X133412Y-23550D01*
X133387Y-23592D01*
X133354Y-23642D01*
X133312Y-23709D01*
X133262Y-23784D01*
X133195Y-23875D01*
X133129Y-23959D01*
X133045Y-24059D01*
X132962Y-24158D01*
X132862Y-24258D01*
X132754Y-24358D01*
X132637Y-24458D01*
X132512Y-24558D01*
X132379Y-24650D01*
X132237Y-24733D01*
X132229Y-24742D01*
X132204Y-24750D01*
X132162Y-24775D01*
X132104Y-24800D01*
X132029Y-24833D01*
X131946Y-24867D01*
X131846Y-24908D01*
X131737Y-24942D01*
X131613Y-24983D01*
X131479Y-25025D01*
X131346Y-25058D01*
X131196Y-25092D01*
X130879Y-25142D01*
X130713Y-25150D01*
X130538Y-25158D01*
X130471D01*
X130396Y-25150D01*
X130296Y-25142D01*
X130171Y-25125D01*
X130021Y-25108D01*
X129863Y-25075D01*
X129688Y-25042D01*
X129496Y-24992D01*
X129305Y-24925D01*
X129105Y-24850D01*
X128905Y-24758D01*
X128705Y-24650D01*
X128513Y-24525D01*
X128322Y-24375D01*
X128147Y-24209D01*
X128138Y-24200D01*
X128105Y-24167D01*
X128063Y-24109D01*
X128005Y-24034D01*
X127938Y-23934D01*
X127863Y-23817D01*
X127780Y-23675D01*
X127697Y-23509D01*
X127605Y-23325D01*
X127530Y-23126D01*
X127447Y-22901D01*
X127380Y-22651D01*
X127322Y-22392D01*
X127280Y-22109D01*
X127247Y-21801D01*
X127239Y-21476D01*
Y-21468D01*
Y-21451D01*
Y-21426D01*
Y-21393D01*
X127247Y-21343D01*
Y-21293D01*
X127255Y-21151D01*
X127272Y-20993D01*
X127297Y-20809D01*
X127330Y-20601D01*
X127372Y-20376D01*
X127430Y-20143D01*
X127505Y-19910D01*
X127589Y-19668D01*
X127697Y-19426D01*
X127822Y-19193D01*
X127963Y-18968D01*
X128130Y-18760D01*
X128322Y-18577D01*
X128330Y-18568D01*
X128363Y-18543D01*
X128413Y-18502D01*
X128488Y-18452D01*
X128572Y-18393D01*
X128680Y-18327D01*
X128805Y-18252D01*
X128938Y-18177D01*
X129096Y-18110D01*
X129263Y-18035D01*
X129446Y-17968D01*
X129638Y-17910D01*
X129846Y-17860D01*
X130071Y-17818D01*
X130296Y-17794D01*
X130538Y-17785D01*
X130604D01*
X130679Y-17794D01*
D02*
G37*
G36*
X111493Y-18743D02*
X111501Y-18735D01*
X111526Y-18702D01*
X111568Y-18652D01*
X111626Y-18593D01*
X111701Y-18518D01*
X111792Y-18443D01*
X111892Y-18352D01*
X112017Y-18260D01*
X112151Y-18177D01*
X112292Y-18085D01*
X112451Y-18010D01*
X112617Y-17935D01*
X112801Y-17877D01*
X113001Y-17827D01*
X113201Y-17794D01*
X113417Y-17785D01*
X113525D01*
X113584Y-17794D01*
X113650Y-17802D01*
X113734Y-17810D01*
X113817Y-17818D01*
X114000Y-17852D01*
X114209Y-17894D01*
X114433Y-17960D01*
X114650Y-18052D01*
X114658D01*
X114675Y-18060D01*
X114708Y-18077D01*
X114750Y-18102D01*
X114800Y-18127D01*
X114858Y-18160D01*
X114992Y-18243D01*
X115142Y-18343D01*
X115300Y-18468D01*
X115458Y-18618D01*
X115608Y-18785D01*
X115617Y-18793D01*
X115625Y-18810D01*
X115642Y-18835D01*
X115667Y-18868D01*
X115700Y-18918D01*
X115742Y-18968D01*
X115775Y-19035D01*
X115825Y-19110D01*
X115917Y-19276D01*
X116017Y-19468D01*
X116108Y-19693D01*
X116191Y-19935D01*
Y-19943D01*
X116200Y-19968D01*
X116208Y-20001D01*
X116225Y-20051D01*
X116241Y-20118D01*
X116258Y-20185D01*
X116283Y-20276D01*
X116300Y-20368D01*
X116316Y-20468D01*
X116341Y-20584D01*
X116375Y-20826D01*
X116400Y-21084D01*
X116408Y-21368D01*
Y-21376D01*
Y-21384D01*
Y-21409D01*
Y-21451D01*
Y-21493D01*
X116400Y-21543D01*
X116391Y-21667D01*
X116383Y-21818D01*
X116358Y-21992D01*
X116333Y-22192D01*
X116300Y-22401D01*
X116250Y-22617D01*
X116191Y-22851D01*
X116116Y-23084D01*
X116025Y-23317D01*
X115925Y-23550D01*
X115808Y-23767D01*
X115667Y-23984D01*
X115508Y-24175D01*
X115500Y-24183D01*
X115467Y-24217D01*
X115417Y-24267D01*
X115350Y-24325D01*
X115267Y-24400D01*
X115158Y-24483D01*
X115042Y-24575D01*
X114908Y-24667D01*
X114758Y-24758D01*
X114592Y-24850D01*
X114417Y-24933D01*
X114225Y-25008D01*
X114025Y-25067D01*
X113809Y-25117D01*
X113592Y-25150D01*
X113359Y-25158D01*
X113301D01*
X113242Y-25150D01*
X113151Y-25142D01*
X113050Y-25125D01*
X112926Y-25100D01*
X112792Y-25075D01*
X112651Y-25025D01*
X112501Y-24975D01*
X112334Y-24900D01*
X112176Y-24817D01*
X112009Y-24717D01*
X111851Y-24600D01*
X111693Y-24458D01*
X111551Y-24300D01*
X111409Y-24117D01*
Y-25000D01*
X110293D01*
Y-15261D01*
X111493D01*
Y-18743D01*
D02*
G37*
%LPC*%
G36*
X121557Y-16410D02*
X119307D01*
Y-23850D01*
X121540D01*
X121623Y-23842D01*
X121715D01*
X121823Y-23834D01*
X121932Y-23825D01*
X122173Y-23809D01*
X122423Y-23775D01*
X122673Y-23734D01*
X122781Y-23709D01*
X122890Y-23675D01*
X122898D01*
X122915Y-23667D01*
X122940Y-23659D01*
X122981Y-23642D01*
X123031Y-23625D01*
X123081Y-23600D01*
X123206Y-23542D01*
X123348Y-23467D01*
X123490Y-23384D01*
X123631Y-23284D01*
X123764Y-23167D01*
X123773Y-23159D01*
X123781Y-23142D01*
X123806Y-23117D01*
X123840Y-23084D01*
X123881Y-23034D01*
X123923Y-22984D01*
X123973Y-22917D01*
X124023Y-22842D01*
X124081Y-22759D01*
X124139Y-22667D01*
X124198Y-22567D01*
X124264Y-22459D01*
X124373Y-22217D01*
X124481Y-21943D01*
Y-21934D01*
X124489Y-21909D01*
X124506Y-21867D01*
X124523Y-21801D01*
X124539Y-21726D01*
X124564Y-21642D01*
X124589Y-21534D01*
X124614Y-21418D01*
X124631Y-21284D01*
X124656Y-21143D01*
X124681Y-20984D01*
X124698Y-20818D01*
X124714Y-20643D01*
X124731Y-20459D01*
X124739Y-20259D01*
Y-20060D01*
Y-20051D01*
Y-20043D01*
Y-19993D01*
Y-19910D01*
X124731Y-19810D01*
X124723Y-19685D01*
X124714Y-19535D01*
X124698Y-19368D01*
X124673Y-19193D01*
X124648Y-19010D01*
X124614Y-18818D01*
X124573Y-18627D01*
X124523Y-18427D01*
X124464Y-18235D01*
X124398Y-18052D01*
X124323Y-17877D01*
X124231Y-17718D01*
X124223Y-17710D01*
X124206Y-17685D01*
X124181Y-17644D01*
X124139Y-17585D01*
X124089Y-17519D01*
X124039Y-17444D01*
X123964Y-17360D01*
X123889Y-17269D01*
X123806Y-17177D01*
X123715Y-17085D01*
X123506Y-16902D01*
X123390Y-16819D01*
X123273Y-16736D01*
X123148Y-16669D01*
X123015Y-16610D01*
X123006D01*
X122990Y-16602D01*
X122956Y-16594D01*
X122915Y-16577D01*
X122856Y-16560D01*
X122790Y-16544D01*
X122706Y-16527D01*
X122615Y-16510D01*
X122507Y-16494D01*
X122381Y-16477D01*
X122248Y-16460D01*
X122098Y-16444D01*
X121932Y-16427D01*
X121748Y-16419D01*
X121557Y-16410D01*
D02*
G37*
G36*
X98654D02*
X95863D01*
Y-19893D01*
X98496D01*
X98579Y-19885D01*
X98688Y-19876D01*
X98804Y-19868D01*
X98929Y-19851D01*
X99071Y-19835D01*
X99362Y-19785D01*
X99654Y-19701D01*
X99796Y-19643D01*
X99929Y-19585D01*
X100045Y-19518D01*
X100154Y-19435D01*
X100162Y-19426D01*
X100179Y-19410D01*
X100204Y-19385D01*
X100237Y-19351D01*
X100279Y-19302D01*
X100321Y-19243D01*
X100371Y-19176D01*
X100420Y-19093D01*
X100462Y-19010D01*
X100512Y-18910D01*
X100554Y-18802D01*
X100595Y-18685D01*
X100629Y-18560D01*
X100654Y-18427D01*
X100670Y-18277D01*
X100679Y-18127D01*
Y-18118D01*
Y-18102D01*
Y-18068D01*
X100670Y-18027D01*
Y-17968D01*
X100662Y-17910D01*
X100637Y-17760D01*
X100604Y-17602D01*
X100545Y-17427D01*
X100470Y-17244D01*
X100362Y-17077D01*
Y-17069D01*
X100345Y-17060D01*
X100304Y-17010D01*
X100237Y-16935D01*
X100146Y-16844D01*
X100029Y-16744D01*
X99896Y-16652D01*
X99729Y-16569D01*
X99554Y-16502D01*
X99537Y-16494D01*
X99521D01*
X99487Y-16486D01*
X99454Y-16477D01*
X99404Y-16469D01*
X99346Y-16460D01*
X99279Y-16452D01*
X99204Y-16444D01*
X99113Y-16436D01*
X99021D01*
X98904Y-16427D01*
X98787Y-16419D01*
X98654Y-16410D01*
D02*
G37*
G36*
X30630D02*
X27839D01*
Y-19893D01*
X30472D01*
X30555Y-19885D01*
X30663Y-19876D01*
X30780Y-19868D01*
X30905Y-19851D01*
X31047Y-19835D01*
X31338Y-19785D01*
X31630Y-19701D01*
X31771Y-19643D01*
X31905Y-19585D01*
X32021Y-19518D01*
X32130Y-19435D01*
X32138Y-19426D01*
X32155Y-19410D01*
X32180Y-19385D01*
X32213Y-19351D01*
X32255Y-19302D01*
X32296Y-19243D01*
X32346Y-19176D01*
X32396Y-19093D01*
X32438Y-19010D01*
X32488Y-18910D01*
X32529Y-18802D01*
X32571Y-18685D01*
X32604Y-18560D01*
X32629Y-18427D01*
X32646Y-18277D01*
X32655Y-18127D01*
Y-18118D01*
Y-18102D01*
Y-18068D01*
X32646Y-18027D01*
Y-17968D01*
X32638Y-17910D01*
X32613Y-17760D01*
X32580Y-17602D01*
X32521Y-17427D01*
X32446Y-17244D01*
X32338Y-17077D01*
Y-17069D01*
X32321Y-17060D01*
X32280Y-17010D01*
X32213Y-16935D01*
X32121Y-16844D01*
X32005Y-16744D01*
X31871Y-16652D01*
X31705Y-16569D01*
X31530Y-16502D01*
X31513Y-16494D01*
X31496D01*
X31463Y-16486D01*
X31430Y-16477D01*
X31380Y-16469D01*
X31321Y-16460D01*
X31255Y-16452D01*
X31180Y-16444D01*
X31088Y-16436D01*
X30997D01*
X30880Y-16427D01*
X30763Y-16419D01*
X30630Y-16410D01*
D02*
G37*
G36*
X130538Y-18777D02*
X130496D01*
X130454Y-18785D01*
X130388D01*
X130313Y-18793D01*
X130221Y-18810D01*
X130129Y-18835D01*
X130021Y-18860D01*
X129905Y-18893D01*
X129788Y-18943D01*
X129663Y-18993D01*
X129538Y-19060D01*
X129413Y-19135D01*
X129288Y-19226D01*
X129171Y-19335D01*
X129055Y-19451D01*
X129046Y-19460D01*
X129030Y-19485D01*
X129005Y-19518D01*
X128963Y-19576D01*
X128921Y-19643D01*
X128871Y-19735D01*
X128821Y-19835D01*
X128763Y-19951D01*
X128713Y-20085D01*
X128655Y-20235D01*
X128605Y-20401D01*
X128563Y-20584D01*
X128522Y-20784D01*
X128497Y-21001D01*
X128480Y-21226D01*
X128472Y-21476D01*
Y-21493D01*
Y-21534D01*
Y-21609D01*
X128480Y-21701D01*
X128488Y-21809D01*
X128505Y-21943D01*
X128522Y-22084D01*
X128547Y-22242D01*
X128572Y-22401D01*
X128613Y-22567D01*
X128663Y-22734D01*
X128722Y-22909D01*
X128788Y-23067D01*
X128863Y-23226D01*
X128955Y-23375D01*
X129055Y-23509D01*
X129063Y-23517D01*
X129080Y-23534D01*
X129113Y-23567D01*
X129163Y-23609D01*
X129221Y-23667D01*
X129288Y-23717D01*
X129371Y-23784D01*
X129463Y-23842D01*
X129563Y-23900D01*
X129680Y-23967D01*
X129796Y-24017D01*
X129930Y-24067D01*
X130071Y-24117D01*
X130221Y-24150D01*
X130371Y-24167D01*
X130538Y-24175D01*
X130579D01*
X130621Y-24167D01*
X130688D01*
X130763Y-24150D01*
X130854Y-24142D01*
X130946Y-24117D01*
X131054Y-24092D01*
X131171Y-24059D01*
X131296Y-24009D01*
X131412Y-23959D01*
X131538Y-23892D01*
X131662Y-23817D01*
X131787Y-23725D01*
X131904Y-23617D01*
X132021Y-23500D01*
X132029Y-23492D01*
X132046Y-23467D01*
X132079Y-23425D01*
X132112Y-23375D01*
X132154Y-23300D01*
X132204Y-23217D01*
X132262Y-23109D01*
X132321Y-22992D01*
X132371Y-22851D01*
X132429Y-22701D01*
X132479Y-22526D01*
X132521Y-22342D01*
X132554Y-22142D01*
X132587Y-21926D01*
X132604Y-21684D01*
X132612Y-21434D01*
Y-21418D01*
Y-21376D01*
Y-21309D01*
X132604Y-21218D01*
X132596Y-21109D01*
X132579Y-20984D01*
X132562Y-20843D01*
X132537Y-20693D01*
X132504Y-20535D01*
X132462Y-20376D01*
X132421Y-20210D01*
X132362Y-20043D01*
X132287Y-19885D01*
X132212Y-19726D01*
X132121Y-19585D01*
X132012Y-19451D01*
X132004Y-19443D01*
X131987Y-19418D01*
X131954Y-19385D01*
X131904Y-19343D01*
X131846Y-19293D01*
X131779Y-19235D01*
X131696Y-19176D01*
X131604Y-19110D01*
X131504Y-19052D01*
X131396Y-18993D01*
X131271Y-18935D01*
X131138Y-18885D01*
X131004Y-18835D01*
X130854Y-18802D01*
X130696Y-18785D01*
X130538Y-18777D01*
D02*
G37*
G36*
X113309Y-18768D02*
X113275D01*
X113234Y-18777D01*
X113175D01*
X113109Y-18785D01*
X113034Y-18802D01*
X112942Y-18827D01*
X112851Y-18852D01*
X112742Y-18893D01*
X112634Y-18935D01*
X112526Y-18993D01*
X112409Y-19060D01*
X112292Y-19135D01*
X112184Y-19226D01*
X112067Y-19335D01*
X111959Y-19451D01*
X111951Y-19460D01*
X111934Y-19485D01*
X111909Y-19526D01*
X111868Y-19576D01*
X111826Y-19651D01*
X111784Y-19735D01*
X111726Y-19835D01*
X111676Y-19951D01*
X111626Y-20085D01*
X111576Y-20235D01*
X111526Y-20393D01*
X111484Y-20576D01*
X111443Y-20768D01*
X111418Y-20968D01*
X111401Y-21193D01*
X111393Y-21426D01*
Y-21443D01*
Y-21484D01*
Y-21543D01*
X111401Y-21634D01*
Y-21734D01*
X111409Y-21859D01*
X111418Y-21984D01*
X111434Y-22126D01*
X111476Y-22426D01*
X111534Y-22734D01*
X111576Y-22875D01*
X111618Y-23017D01*
X111676Y-23142D01*
X111734Y-23259D01*
X111743Y-23267D01*
X111759Y-23300D01*
X111792Y-23342D01*
X111834Y-23400D01*
X111892Y-23467D01*
X111959Y-23550D01*
X112043Y-23634D01*
X112134Y-23717D01*
X112234Y-23800D01*
X112351Y-23884D01*
X112476Y-23959D01*
X112609Y-24034D01*
X112759Y-24092D01*
X112909Y-24134D01*
X113076Y-24167D01*
X113251Y-24175D01*
X113284D01*
X113326Y-24167D01*
X113384D01*
X113450Y-24150D01*
X113525Y-24142D01*
X113617Y-24117D01*
X113717Y-24092D01*
X113817Y-24059D01*
X113925Y-24009D01*
X114034Y-23959D01*
X114150Y-23892D01*
X114267Y-23817D01*
X114383Y-23725D01*
X114492Y-23617D01*
X114600Y-23500D01*
X114608Y-23492D01*
X114625Y-23467D01*
X114650Y-23425D01*
X114692Y-23375D01*
X114733Y-23300D01*
X114783Y-23209D01*
X114833Y-23109D01*
X114892Y-22992D01*
X114942Y-22851D01*
X114992Y-22701D01*
X115042Y-22534D01*
X115083Y-22351D01*
X115125Y-22159D01*
X115150Y-21943D01*
X115167Y-21709D01*
X115175Y-21468D01*
Y-21451D01*
Y-21409D01*
Y-21334D01*
X115167Y-21243D01*
X115158Y-21126D01*
X115150Y-20993D01*
X115133Y-20851D01*
X115108Y-20693D01*
X115042Y-20359D01*
X115000Y-20193D01*
X114942Y-20026D01*
X114883Y-19860D01*
X114808Y-19701D01*
X114725Y-19560D01*
X114625Y-19426D01*
X114617Y-19418D01*
X114600Y-19401D01*
X114567Y-19368D01*
X114525Y-19326D01*
X114475Y-19276D01*
X114417Y-19218D01*
X114342Y-19160D01*
X114259Y-19093D01*
X114167Y-19035D01*
X114067Y-18977D01*
X113842Y-18868D01*
X113717Y-18827D01*
X113592Y-18793D01*
X113450Y-18777D01*
X113309Y-18768D01*
D02*
G37*
%LPD*%
D11*
X0Y0D02*
X420000D01*
Y530000D01*
X0D02*
X420000D01*
X0Y0D02*
Y530000D01*
Y-0D02*
X420000Y0D01*
X0Y530000D02*
X420000Y530000D01*
Y0D02*
Y530000D01*
X-0Y0D02*
X0Y530000D01*
M02*
