G04*
G04 #@! TF.GenerationSoftware,Altium Limited,Altium Designer,19.1.9 (167)*
G04*
G04 Layer_Color=255*
%FSLAX44Y44*%
%MOMM*%
G71*
G01*
G75*
%ADD13R,1.0000X0.9000*%
%ADD14R,1.8000X1.0000*%
%ADD15C,0.5000*%
%ADD16R,1.3500X0.3500*%
%ADD17R,0.3500X1.3500*%
%ADD18O,2.5000X0.7000*%
%ADD19R,2.5000X0.7000*%
%ADD20R,0.4000X0.6000*%
%ADD21R,0.6000X0.4000*%
%ADD22R,0.6000X0.9000*%
%ADD23R,0.9000X0.6000*%
G04:AMPARAMS|DCode=24|XSize=0.6mm|YSize=0.9mm|CornerRadius=0mm|HoleSize=0mm|Usage=FLASHONLY|Rotation=45.000|XOffset=0mm|YOffset=0mm|HoleType=Round|Shape=Rectangle|*
%AMROTATEDRECTD24*
4,1,4,0.1061,-0.5303,-0.5303,0.1061,-0.1061,0.5303,0.5303,-0.1061,0.1061,-0.5303,0.0*
%
%ADD24ROTATEDRECTD24*%

%ADD29R,1.1000X1.1000*%
D13*
X75250Y303000D02*
D03*
Y315250D02*
D03*
X58750Y303000D02*
D03*
Y315250D02*
D03*
D14*
X36250Y380250D02*
D03*
Y405250D02*
D03*
D15*
X331500Y61750D02*
D03*
Y69750D02*
D03*
Y77750D02*
D03*
Y85750D02*
D03*
Y93750D02*
D03*
Y101750D02*
D03*
Y109750D02*
D03*
Y117750D02*
D03*
Y125750D02*
D03*
Y133750D02*
D03*
X323500Y61750D02*
D03*
Y69750D02*
D03*
Y77750D02*
D03*
Y85750D02*
D03*
Y93750D02*
D03*
Y101750D02*
D03*
Y109750D02*
D03*
Y117750D02*
D03*
Y125750D02*
D03*
Y133750D02*
D03*
X315500Y61750D02*
D03*
Y69750D02*
D03*
Y77750D02*
D03*
Y85750D02*
D03*
Y93750D02*
D03*
Y101750D02*
D03*
Y109750D02*
D03*
Y117750D02*
D03*
Y125750D02*
D03*
Y133750D02*
D03*
X283500Y61750D02*
D03*
Y69750D02*
D03*
Y77750D02*
D03*
Y85750D02*
D03*
Y93750D02*
D03*
Y101750D02*
D03*
Y109750D02*
D03*
Y117750D02*
D03*
Y125750D02*
D03*
Y133750D02*
D03*
X275500Y61750D02*
D03*
Y69750D02*
D03*
Y77750D02*
D03*
Y85750D02*
D03*
Y93750D02*
D03*
Y101750D02*
D03*
Y109750D02*
D03*
Y117750D02*
D03*
Y125750D02*
D03*
Y133750D02*
D03*
X267500Y61750D02*
D03*
Y69750D02*
D03*
Y77750D02*
D03*
Y85750D02*
D03*
Y93750D02*
D03*
Y101750D02*
D03*
Y109750D02*
D03*
Y117750D02*
D03*
Y125750D02*
D03*
Y133750D02*
D03*
D16*
X112750Y429250D02*
D03*
Y424250D02*
D03*
Y419250D02*
D03*
Y414250D02*
D03*
Y409250D02*
D03*
Y404250D02*
D03*
Y399250D02*
D03*
Y394250D02*
D03*
Y389250D02*
D03*
Y384250D02*
D03*
Y379250D02*
D03*
Y374250D02*
D03*
Y369250D02*
D03*
Y364250D02*
D03*
Y359250D02*
D03*
Y354250D02*
D03*
Y349250D02*
D03*
Y344250D02*
D03*
Y339250D02*
D03*
Y334250D02*
D03*
Y329250D02*
D03*
Y324250D02*
D03*
Y319250D02*
D03*
Y314250D02*
D03*
Y309250D02*
D03*
Y304250D02*
D03*
Y299250D02*
D03*
Y294250D02*
D03*
Y289250D02*
D03*
Y284250D02*
D03*
Y279250D02*
D03*
Y274250D02*
D03*
Y269250D02*
D03*
Y264250D02*
D03*
Y259250D02*
D03*
Y254250D02*
D03*
X321750D02*
D03*
Y259250D02*
D03*
Y264250D02*
D03*
Y269250D02*
D03*
Y274250D02*
D03*
Y279250D02*
D03*
Y284250D02*
D03*
Y289250D02*
D03*
Y294250D02*
D03*
Y299250D02*
D03*
Y304250D02*
D03*
Y309250D02*
D03*
Y314250D02*
D03*
Y319250D02*
D03*
Y324250D02*
D03*
Y329250D02*
D03*
Y334250D02*
D03*
Y339250D02*
D03*
Y344250D02*
D03*
Y349250D02*
D03*
Y354250D02*
D03*
Y359250D02*
D03*
Y364250D02*
D03*
Y369250D02*
D03*
Y374250D02*
D03*
Y379250D02*
D03*
Y384250D02*
D03*
Y389250D02*
D03*
Y394250D02*
D03*
Y399250D02*
D03*
Y404250D02*
D03*
Y409250D02*
D03*
Y414250D02*
D03*
Y419250D02*
D03*
Y424250D02*
D03*
Y429250D02*
D03*
D17*
X129750Y237250D02*
D03*
X134750D02*
D03*
X139750D02*
D03*
X144750D02*
D03*
X149750D02*
D03*
X154750D02*
D03*
X159750D02*
D03*
X164750D02*
D03*
X169750D02*
D03*
X174750D02*
D03*
X179750D02*
D03*
X184750D02*
D03*
X189750D02*
D03*
X194750D02*
D03*
X199750D02*
D03*
X204750D02*
D03*
X209750D02*
D03*
X214750D02*
D03*
X219750D02*
D03*
X224750D02*
D03*
X229750D02*
D03*
X234750D02*
D03*
X239750D02*
D03*
X244750D02*
D03*
X249750D02*
D03*
X254750D02*
D03*
X259750D02*
D03*
X264750D02*
D03*
X269750D02*
D03*
X274750D02*
D03*
X279750D02*
D03*
X284750D02*
D03*
X289750D02*
D03*
X294750D02*
D03*
X299750D02*
D03*
X304750D02*
D03*
Y446250D02*
D03*
X299750D02*
D03*
X294750D02*
D03*
X289750D02*
D03*
X284750D02*
D03*
X279750D02*
D03*
X274750D02*
D03*
X269750D02*
D03*
X264750D02*
D03*
X259750D02*
D03*
X254750D02*
D03*
X249750D02*
D03*
X244750D02*
D03*
X239750D02*
D03*
X234750D02*
D03*
X229750D02*
D03*
X224750D02*
D03*
X219750D02*
D03*
X214750D02*
D03*
X209750D02*
D03*
X204750D02*
D03*
X199750D02*
D03*
X194750D02*
D03*
X189750D02*
D03*
X184750D02*
D03*
X179750D02*
D03*
X174750D02*
D03*
X169750D02*
D03*
X164750D02*
D03*
X159750D02*
D03*
X154750D02*
D03*
X149750D02*
D03*
X144750D02*
D03*
X139750D02*
D03*
X134750D02*
D03*
X129750D02*
D03*
D18*
X173853Y74900D02*
D03*
Y87600D02*
D03*
Y100300D02*
D03*
Y113000D02*
D03*
X107852Y74900D02*
D03*
Y87600D02*
D03*
Y100300D02*
D03*
D19*
Y113000D02*
D03*
D20*
X215750Y91500D02*
D03*
X222250D02*
D03*
X228750D02*
D03*
X215750Y112500D02*
D03*
X222250D02*
D03*
X228750D02*
D03*
D21*
X234352Y63750D02*
D03*
Y70250D02*
D03*
Y76750D02*
D03*
X213353Y63750D02*
D03*
Y70250D02*
D03*
Y76750D02*
D03*
X288102Y23850D02*
D03*
Y30350D02*
D03*
Y36850D02*
D03*
X267103Y23850D02*
D03*
Y30350D02*
D03*
Y36850D02*
D03*
D22*
X200500Y49500D02*
D03*
X215500D02*
D03*
X343000Y38250D02*
D03*
X328000D02*
D03*
X314500Y22500D02*
D03*
X299500D02*
D03*
X241750Y40350D02*
D03*
X256750D02*
D03*
X241750Y24647D02*
D03*
X256750D02*
D03*
X314560Y38250D02*
D03*
X299560D02*
D03*
X381750Y374453D02*
D03*
X366750D02*
D03*
X381750Y358750D02*
D03*
X366750D02*
D03*
X381750Y327298D02*
D03*
X366750D02*
D03*
X366750Y233082D02*
D03*
X381750D02*
D03*
X381750Y311595D02*
D03*
X366750D02*
D03*
X366750Y217380D02*
D03*
X381750D02*
D03*
X381750Y295892D02*
D03*
X366750D02*
D03*
X74250Y347453D02*
D03*
X59250D02*
D03*
X381750Y280190D02*
D03*
X366750D02*
D03*
X381750Y264487D02*
D03*
X366750D02*
D03*
X381750Y248785D02*
D03*
X366750D02*
D03*
X74250Y363155D02*
D03*
X59250D02*
D03*
X74250Y378858D02*
D03*
X59250D02*
D03*
X74250Y405500D02*
D03*
X59250D02*
D03*
X74250Y421750D02*
D03*
X59250D02*
D03*
X74250Y437500D02*
D03*
X59250D02*
D03*
X74250Y453500D02*
D03*
X59250D02*
D03*
X381750Y437263D02*
D03*
X366750D02*
D03*
X381750Y421560D02*
D03*
X366750D02*
D03*
X381750Y405858D02*
D03*
X366750D02*
D03*
X381750Y390155D02*
D03*
X366750D02*
D03*
X59250Y240047D02*
D03*
X74250D02*
D03*
X74250Y473453D02*
D03*
X59250D02*
D03*
X59250Y256000D02*
D03*
X74250D02*
D03*
X59250Y271798D02*
D03*
X74250D02*
D03*
X41750Y67750D02*
D03*
X26750D02*
D03*
X41750Y51500D02*
D03*
X26750D02*
D03*
X375000Y54840D02*
D03*
X360000D02*
D03*
X375000Y70542D02*
D03*
X360000D02*
D03*
X375000Y117650D02*
D03*
X360000D02*
D03*
X375000Y86245D02*
D03*
X360000D02*
D03*
X213750Y126547D02*
D03*
X228750D02*
D03*
X375000Y101947D02*
D03*
X360000D02*
D03*
X213750Y142250D02*
D03*
X228750D02*
D03*
X374500Y133500D02*
D03*
X359500D02*
D03*
X343000Y22548D02*
D03*
X328000D02*
D03*
X381750Y452965D02*
D03*
X366750D02*
D03*
X381750Y468668D02*
D03*
X366750D02*
D03*
X381750Y343000D02*
D03*
X366750D02*
D03*
X59250Y287500D02*
D03*
X74250D02*
D03*
X59250Y330863D02*
D03*
X74250D02*
D03*
X59250Y222750D02*
D03*
X74250D02*
D03*
X26750Y341750D02*
D03*
X41750D02*
D03*
X25000Y364347D02*
D03*
X40000D02*
D03*
X24750Y422750D02*
D03*
X39750D02*
D03*
D23*
X321250Y482750D02*
D03*
Y497750D02*
D03*
X336953D02*
D03*
Y482750D02*
D03*
X61500Y493000D02*
D03*
Y508000D02*
D03*
X77203Y508000D02*
D03*
Y493000D02*
D03*
X152203Y198750D02*
D03*
Y183750D02*
D03*
X136500Y198750D02*
D03*
Y183750D02*
D03*
X120798Y198750D02*
D03*
Y183750D02*
D03*
X89392Y198750D02*
D03*
Y183750D02*
D03*
X73690Y198750D02*
D03*
Y183750D02*
D03*
X357703Y192250D02*
D03*
Y177250D02*
D03*
X154500Y471750D02*
D03*
Y486750D02*
D03*
X170203Y471750D02*
D03*
Y486750D02*
D03*
X186000Y471750D02*
D03*
Y486750D02*
D03*
X269750Y486750D02*
D03*
Y471750D02*
D03*
X285452Y486750D02*
D03*
Y471750D02*
D03*
X201702Y486750D02*
D03*
Y471750D02*
D03*
X342000Y192250D02*
D03*
Y177250D02*
D03*
X326297Y198750D02*
D03*
Y183750D02*
D03*
X310595Y198750D02*
D03*
Y183750D02*
D03*
X294892Y198750D02*
D03*
Y183750D02*
D03*
X279190Y198750D02*
D03*
Y183750D02*
D03*
X263487Y198750D02*
D03*
Y183750D02*
D03*
X232082Y198750D02*
D03*
Y183750D02*
D03*
X216380Y198750D02*
D03*
Y183750D02*
D03*
X200677Y198750D02*
D03*
Y183750D02*
D03*
X57987Y198750D02*
D03*
Y183750D02*
D03*
X184250Y183500D02*
D03*
Y198500D02*
D03*
X122297Y471750D02*
D03*
Y486750D02*
D03*
X167905Y183500D02*
D03*
Y198500D02*
D03*
X138798Y471750D02*
D03*
Y486750D02*
D03*
X103750Y47500D02*
D03*
Y32500D02*
D03*
X88048Y47500D02*
D03*
Y32500D02*
D03*
X201250Y64250D02*
D03*
Y79250D02*
D03*
X373750Y177250D02*
D03*
Y192250D02*
D03*
X106595Y486750D02*
D03*
Y471750D02*
D03*
X217405Y486750D02*
D03*
Y471750D02*
D03*
X245500Y486750D02*
D03*
Y471750D02*
D03*
X389453Y177250D02*
D03*
Y192250D02*
D03*
X247785Y183750D02*
D03*
Y198750D02*
D03*
X105095Y183750D02*
D03*
Y198750D02*
D03*
X42285Y183750D02*
D03*
Y198750D02*
D03*
D24*
X165250Y130520D02*
D03*
X175857Y141126D02*
D03*
D29*
X0Y510000D02*
D03*
X155000Y0D02*
D03*
X140000D02*
D03*
X420000Y60000D02*
D03*
X0Y120000D02*
D03*
Y240000D02*
D03*
Y345000D02*
D03*
Y360000D02*
D03*
Y330000D02*
D03*
Y315000D02*
D03*
Y300000D02*
D03*
Y285000D02*
D03*
Y270000D02*
D03*
Y255000D02*
D03*
Y225000D02*
D03*
Y210000D02*
D03*
Y195000D02*
D03*
Y180000D02*
D03*
Y165000D02*
D03*
Y150000D02*
D03*
Y135000D02*
D03*
Y105000D02*
D03*
Y90000D02*
D03*
Y75000D02*
D03*
Y60000D02*
D03*
Y45000D02*
D03*
Y30000D02*
D03*
X20000Y0D02*
D03*
X50000D02*
D03*
X110000D02*
D03*
X80000D02*
D03*
X215000D02*
D03*
X185000D02*
D03*
X0Y435000D02*
D03*
X420000Y135000D02*
D03*
Y225000D02*
D03*
Y255000D02*
D03*
Y270000D02*
D03*
Y300000D02*
D03*
Y315000D02*
D03*
Y345000D02*
D03*
Y375000D02*
D03*
Y390000D02*
D03*
Y405000D02*
D03*
Y420000D02*
D03*
Y330000D02*
D03*
X395000Y530000D02*
D03*
X380000D02*
D03*
X365000D02*
D03*
X350000D02*
D03*
X335000D02*
D03*
X305000D02*
D03*
X290000D02*
D03*
X260000D02*
D03*
X245000D02*
D03*
X230000D02*
D03*
X215000D02*
D03*
X200000D02*
D03*
X185000D02*
D03*
X20000D02*
D03*
X35000D02*
D03*
X50000D02*
D03*
X80000D02*
D03*
X95000D02*
D03*
X110000D02*
D03*
X125000D02*
D03*
X140000D02*
D03*
X170000D02*
D03*
X420000Y510000D02*
D03*
Y495000D02*
D03*
Y480000D02*
D03*
Y465000D02*
D03*
Y450000D02*
D03*
Y210000D02*
D03*
Y195000D02*
D03*
Y180000D02*
D03*
Y150000D02*
D03*
X0Y495000D02*
D03*
Y480000D02*
D03*
Y465000D02*
D03*
Y450000D02*
D03*
X395000Y0D02*
D03*
X365000D02*
D03*
X0Y420000D02*
D03*
Y405000D02*
D03*
Y390000D02*
D03*
Y375000D02*
D03*
M02*
